<svg width="1000" height="603.96" viewBox="0 0 1000 603.96" fill="none" xmlns="http://www.w3.org/2000/svg"><path d="M1.09 5.89h965.08v592.327H1.09V5.89Z" fill="white"/><path d="M10.563 15.573h946.12v572.377H10.563V15.573Z" fill="#105EAB"/><path d="M398.96 587.84 956.483 20.91V15.247h-2.803L390.61 587.85h8.347Z" fill="white"/><path d="M47.437 587.85 85.12 15.247h-5.93L41.503 587.85h5.93Z" fill="white"/><path d="M77.583 587.84 158.99 15.237h-6.04L71.603 587.84h5.98Z" fill="white"/><path d="M109.84 587.84 237.167 15.237h-6.04L103.763 587.84h6.08Z" fill="white"/><path d="M145.267 587.84 327.01 15.237h-6.13L139.09 587.84h6.177Z" fill="white"/><path d="M178.693 587.84 412.167 15.237h-6.417L172.247 587.84h6.437Z" fill="white"/><path d="M217.12 587.84 509.15 15.237h-6.533L210.44 587.84h6.683Z" fill="white"/><path d="M655.07 15.237h-7.09L269.88 587.823h7.08L655.07 15.247Z" fill="white"/><path d="M789.88 15.237h-7.447L322.793 587.823h7.583L789.88 15.247Z" fill="white"/><path d="M956.487 231.9v-7.523L500.693 587.84h9.407L956.477 231.9Z" fill="white"/><path d="M956.487 389.407v-6.98l-327.447 205.397h11.207l316.237 -198.417Z" fill="white"/><path d="M956.487 538.02v-6.593l-120.497 56.417h13.98l106.513 -49.813Z" fill="white"/><path d="M292.97 359.487c-11.703 11.267 -41.13 23.407 -62.733 23.197 -62.86 -0.07 -92.227 -53.693 -92.753 -135.603 0.417 -77.523 32.12 -126.833 86.553 -126.93 38.93 0.05 57.86 22.703 68.197 36.217l11.387 15.217V101.127l-3.633 -1.683c-22.447 -10.477 -50.93 -15.377 -76.9 -15.427 -97.733 0.207 -172.327 70.533 -172.477 169.803 0.15 101.813 70.643 165.763 171.613 165.92h0.523c50.13 0 75.84 -15.187 89.417 -25.623l4.01 -3.07 -16.733 -37.683 -6.477 6.12Zm273.86 -238.84c-32.703 -24.09 -73.663 -31.207 -108.593 -31.207h-119.367v324.543H466c61.663 -0.15 156.93 -39.417 157.1 -163.167 0.1 -64.793 -23.467 -106.09 -56.267 -130.167Zm-149.453 255.69V126.09c57.733 1.543 119.177 8.603 120.267 126.04 -0.93 114.06 -63.793 122.633 -120.267 124.197Zm478.02 -22.94 -6.487 6.11c-11.713 11.277 -41.06 23.387 -62.633 23.167 -62.86 0 -92.247 -53.683 -92.773 -135.543 0.417 -77.573 32.16 -126.87 86.673 -126.98 38.86 0.06 57.823 22.723 67.97 36.237l11.437 15.417V101.16l-3.623 -1.703c-22.327 -10.503 -50.823 -15.357 -76.89 -15.407 -97.703 0.197 -172.12 70.513 -172.277 169.803 0.16 101.84 70.487 165.733 171.523 165.92h0.773c49.97 0 75.583 -15.207 89.16 -25.623l4.02 -3.08 -16.87 -37.673Z" fill="white"/><path d="M973.523 571.97h11.417v1.683h-4.783v12.297h-1.803v-12.287h-4.823v-1.693Z" fill="#0033A0"/><path d="M998.197 585.93v-11.833l-3.97 11.823h-1.86l-3.92 -11.823h-0.05c0 1.327 0.05 3.16 0.05 3.457v8.377h-1.85v-13.97h2.653l4.06 11.823h0.06l3.91 -11.823H1000v13.96h-1.803Z" fill="#0033A0"/></svg>