<svg xmlns:rdf="http://www.w3.org/1999/02/22-rdf-syntax-ns#" xmlns="http://www.w3.org/2000/svg" version="1.0" xmlns:cc="http://creativecommons.org/ns#" xmlns:dc="http://purl.org/dc/elements/1.1/" viewBox="0 0 200 199.582" width="200" height="199.582"><path d="M76.558 198.3c-0.324 -0.103 -0.813 -0.318 -1.086 -0.476 -1.024 -0.593 -3.21 -2.057 -3.89 -2.604 -0.64 -0.515 -0.717 -0.551 -0.834 -0.39 -0.119 0.163 -0.241 0.128 -1.506 -0.429 -0.757 -0.333 -1.396 -0.659 -1.421 -0.724 -0.062 -0.161 2.46 -6.76 2.584 -6.76 0.054 0 0.744 0.288 1.533 0.641l1.435 0.641 0.002 0.988c0.003 1.239 0.108 1.698 0.638 2.796 0.306 0.633 0.599 1.052 1.055 1.505 0.555 0.551 0.726 0.655 1.407 0.855 0.427 0.125 0.965 0.228 1.197 0.228 0.998 0 1.945 -0.597 2.464 -1.55 0.577 -1.06 0.242 -2.11 -1.159 -3.63 -0.359 -0.39 -1.08 -1.054 -1.603 -1.477 -1.241 -1.004 -3.815 -3.622 -4.08 -4.15 -0.383 -0.763 -0.541 -1.5 -0.541 -2.531 0 -2.935 1.569 -4.964 4.654 -6.015 0.876 -0.299 1.111 -0.336 2.172 -0.342 1.165 -0.006 1.205 0 1.995 0.379 1.088 0.52 2.213 1.312 3.235 2.278 0.466 0.441 0.896 0.802 0.955 0.802 0.059 0 0.201 -0.118 0.314 -0.263l0.207 -0.263 1.348 0.675 1.348 0.675 -0.297 0.699c-1.754 4.132 -2.199 5.158 -2.269 5.228 -0.045 0.045 -0.636 -0.124 -1.313 -0.376l-1.231 -0.457 -0.079 -0.7c-0.188 -1.672 -0.754 -2.99 -1.644 -3.832 -0.901 -0.852 -2.228 -1.204 -3.123 -0.83 -0.476 0.199 -1.059 0.829 -1.265 1.367 -0.435 1.139 0.359 2.185 4.057 5.342 1.257 1.074 1.944 1.948 2.618 3.334 0.594 1.223 0.755 1.854 0.75 2.951 -0.007 1.675 -0.545 2.794 -2.089 4.345 -1.152 1.158 -2.067 1.741 -3.303 2.104 -0.784 0.23 -2.461 0.213 -3.234 -0.034zm40.773 -1.812c-0.252 -0.879 -0.443 -1.635 -0.426 -1.68s0.454 -0.235 0.969 -0.422c0.515 -0.186 0.951 -0.352 0.967 -0.369 0.017 -0.017 -0.624 -2.331 -1.423 -5.143 -0.8 -2.812 -1.632 -5.769 -1.85 -6.572 -0.218 -0.802 -0.473 -1.607 -0.567 -1.788 -0.271 -0.524 -0.713 -0.603 -1.517 -0.273 -0.12 0.05 -0.187 0 -0.232 -0.17 -0.035 -0.131 -0.221 -0.734 -0.413 -1.339l-0.35 -1.1 2.895 -0.847c1.593 -0.466 2.929 -0.808 2.97 -0.761 0.041 0.047 1.134 3.808 2.429 8.359s2.386 8.307 2.424 8.349c0.038 0.041 0.502 -0.04 1.03 -0.181 0.529 -0.141 0.996 -0.257 1.038 -0.257 0.131 0 0.989 3.202 0.883 3.293 -0.101 0.088 -8.087 2.502 -8.266 2.499 -0.057 0 -0.31 -0.72 -0.562 -1.599zm16.18 -3.062c-1.41 -0.218 -2.655 -0.809 -3.48 -1.652 -0.63 -0.644 -1.897 -2.259 -1.826 -2.328 0.039 -0.039 2.708 -1.184 3.264 -1.4 0.194 -0.075 0.252 -0.05 0.326 0.14 0.347 0.89 1.382 1.629 2.277 1.625 0.942 -0.004 1.937 -0.766 2.184 -1.672 0.215 -0.787 -0.054 -3.471 -0.442 -4.424l-0.143 -0.351 -0.271 0.462c-0.407 0.694 -1.19 1.372 -1.897 1.642 -0.47 0.179 -0.908 0.247 -1.856 0.286 -2.069 0.086 -2.964 -0.262 -4.576 -1.779 -1.261 -1.187 -2.009 -2.357 -2.356 -3.684 -0.136 -0.519 -0.164 -0.971 -0.128 -2.061 0.04 -1.21 0.087 -1.514 0.354 -2.279 0.368 -1.058 0.898 -1.889 1.623 -2.544 0.942 -0.851 2.032 -1.17 4.01 -1.173 1.345 0 1.936 0.086 2.836 0.421 0.827 0.309 1.748 1.236 2.766 2.784 3.245 4.937 4.525 10.199 3.372 13.856 -0.491 1.559 -1.468 2.946 -2.503 3.55 -0.903 0.528 -2.34 0.764 -3.532 0.58zm-1.653 -11.691c0.61 -0.153 1.326 -0.792 1.552 -1.385 0.268 -0.701 0.168 -1.787 -0.237 -2.586 -0.629 -1.24 -1.757 -1.982 -2.872 -1.89 -0.685 0.057 -1.02 0.277 -1.434 0.943 -0.598 0.961 -0.433 2.659 0.374 3.849 0.389 0.573 0.701 0.826 1.274 1.03 0.503 0.179 0.757 0.186 1.343 0.039zm-35.047 8.697c-0.038 -1.551 -0.056 -2.836 -0.038 -2.853 0.017 -0.018 1.269 -0.064 2.781 -0.103l2.749 -0.072 0.066 1.955c0.037 1.075 0.094 2.362 0.128 2.86l0.061 0.905h-2.064c-1.135 0 -2.412 0.029 -2.838 0.065l-0.774 0.065 -0.07 -2.821zm-37.451 0.481c-2.199 -1.242 -3.723 -2.163 -3.723 -2.251 0 -0.208 1.521 -2.896 1.672 -2.953 0.067 -0.026 0.486 0.163 0.932 0.422s0.839 0.436 0.877 0.396c0.037 -0.04 0.636 -1.097 1.33 -2.348s1.278 -2.302 1.297 -2.334c0.04 -0.067 -6.15 -3.658 -6.204 -3.599 -0.019 0.021 -0.641 1.107 -1.381 2.414l-1.346 2.375 0.998 0.563c0.549 0.309 1.013 0.574 1.032 0.589 0.026 0.02 -1.641 2.914 -1.802 3.131 -0.053 0.072 -7.591 -4.256 -7.591 -4.357 0 -0.096 0.984 -1.928 1.471 -2.739l0.204 -0.339 0.948 0.51 0.948 0.511 3.275 -5.911c1.801 -3.251 3.301 -5.981 3.332 -6.066 0.041 -0.112 -0.204 -0.3 -0.871 -0.672 -0.51 -0.285 -0.928 -0.556 -0.929 -0.603 -0.005 -0.216 1.801 -3.074 1.926 -3.047 0.215 0.048 7.475 4.261 7.479 4.341 0.003 0.061 -1.614 2.963 -1.71 3.07 -0.019 0.021 -0.443 -0.22 -0.941 -0.535l-0.906 -0.574 -1.061 1.873c-0.584 1.03 -1.051 1.882 -1.037 1.894 0.013 0.012 1.187 0.66 2.609 1.44 1.422 0.781 2.824 1.554 3.115 1.718l0.53 0.299 0.909 -1.629c0.5 -0.896 0.97 -1.724 1.045 -1.84 0.128 -0.198 0.081 -0.243 -0.742 -0.719a103.424 103.424 0 0 1 -0.99 -0.577c-0.12 -0.074 1.644 -3.093 1.808 -3.095 0.101 0 7.158 4.053 7.421 4.262 0.148 0.118 0.078 0.295 -0.645 1.631 -0.446 0.824 -0.854 1.513 -0.908 1.531 -0.054 0.018 -0.505 -0.188 -1.005 -0.458s-0.922 -0.447 -0.941 -0.393c-0.018 0.054 -1.536 2.773 -3.372 6.043l-3.339 5.946 0.965 0.551 0.965 0.552 -0.371 0.664c-0.908 1.623 -1.352 2.355 -1.447 2.384 -0.057 0.018 -1.778 -0.914 -3.826 -2.07zm88.984 -4.663c-0.914 -0.194 -1.503 -0.417 -2.077 -0.786 -0.853 -0.547 -2.113 -2.057 -1.891 -2.266 0.107 -0.1 3.34 -1.968 3.406 -1.968 0.025 0 0.046 0.091 0.046 0.201 0 0.38 1.208 1.04 1.905 1.04 0.356 0 1.195 -0.604 1.556 -1.121 0.27 -0.386 0.313 -0.537 0.306 -1.086 -0.008 -0.666 -0.334 -1.903 -0.683 -2.585a3.568 3.568 0 0 0 -2.239 -1.822c-0.987 -0.266 -2.435 0.313 -4.537 1.814 -0.764 0.546 -1.402 0.977 -1.417 0.957 -0.228 -0.298 -5.542 -8.795 -5.542 -8.861 0 -0.066 8.254 -4.974 9.016 -5.361 0.096 -0.049 1.776 2.664 1.784 2.88 0.004 0.115 -0.861 0.733 -2.579 1.845 -1.422 0.92 -2.623 1.709 -2.67 1.753 -0.062 0.058 0.8 1.518 1.334 2.261 0.013 0.018 0.273 -0.132 0.577 -0.333 1.121 -0.744 2.86 -1.147 4.651 -1.08 0.943 0.036 1.157 0.081 1.777 0.372 1.32 0.62 2.635 2.169 3.631 4.276 1.548 3.275 1.256 6.042 -0.858 8.139 -0.819 0.812 -1.629 1.365 -2.416 1.65 -0.596 0.216 -2.239 0.259 -3.078 0.08zm12.627 -10.45c-0.801 -0.225 -1.513 -0.64 -2.216 -1.289l-0.613 -0.566 0.711 -0.652c0.391 -0.359 1.049 -0.959 1.461 -1.334l0.751 -0.683 0.26 0.261c0.443 0.443 1.51 0.617 2.148 0.35 0.593 -0.248 1.229 -1.267 1.225 -1.966 -0.006 -1.267 -1.342 -3.265 -2.575 -3.848 -1.62 -0.766 -3.058 -0.102 -5.303 2.451 -0.568 0.647 -1.083 1.193 -1.143 1.213 -0.098 0.033 -7.487 -7.198 -7.488 -7.327 0 -0.091 7.517 -7.186 7.647 -7.217 0.127 -0.031 2.435 2.285 2.435 2.443 0 0.048 -1.011 1.125 -2.246 2.393l-2.247 2.306 0.96 0.92 0.96 0.92 0.719 -0.666c1.518 -1.406 4.101 -2.266 5.799 -1.932 1.624 0.32 3.453 1.748 4.974 3.883 1.062 1.491 1.525 2.811 1.523 4.339 0 1.551 -0.449 2.746 -1.539 4.118 -0.678 0.853 -1.444 1.421 -2.338 1.735 -0.838 0.295 -3.046 0.378 -3.868 0.147zm-128.885 -4.06 -3.075 -2.97 1.211 -1.215 1.212 -1.214 0.751 0.746c0.657 0.653 0.769 0.727 0.899 0.594 0.081 -0.084 2.247 -2.386 4.812 -5.116l4.664 -4.964 -0.753 -0.694 -0.752 -0.694 1.239 -1.245c0.682 -0.685 1.278 -1.245 1.325 -1.245 0.095 0 6.068 5.452 7.4 6.756 1.5 1.467 2.454 3.168 2.712 4.834 0.299 1.925 -0.423 3.832 -2.077 5.486 -2.889 2.89 -6.925 2.105 -11.298 -2.197l-1.222 -1.202 -1.256 1.409c-0.691 0.775 -1.35 1.515 -1.464 1.645l-0.209 0.235 0.709 0.715 0.709 0.715 -1.219 1.299c-0.67 0.715 -1.224 1.298 -1.232 1.296 -0.007 0 -1.397 -1.339 -3.088 -2.973zm15.381 -4.249c0.486 -0.222 1.143 -0.915 1.371 -1.447 0.273 -0.639 0.216 -1.525 -0.151 -2.309 -0.348 -0.744 -1.448 -1.989 -2.329 -2.635l-0.509 -0.374 -0.536 0.505c-1.556 1.466 -3.276 3.208 -3.276 3.318 0 0.212 1.735 1.962 2.349 2.369 1.149 0.762 2.225 0.963 3.08 0.573zm123.681 -15.157c-1.251 -0.874 -2.275 -1.641 -2.275 -1.705 0 -0.168 3.086 -4.659 3.182 -4.631 0.044 0.012 1.102 0.721 2.352 1.574 1.582 1.079 2.261 1.6 2.235 1.713 -0.041 0.181 -3.086 4.64 -3.168 4.639 -0.029 0 -1.075 -0.716 -2.327 -1.589zm-145.477 0.587c-1.107 -1.897 -2.374 -4.173 -2.34 -4.204 0.122 -0.108 4.876 -2.757 4.899 -2.731 0.191 0.219 2.636 4.902 2.602 4.985 -0.049 0.12 -4.538 2.544 -4.713 2.544 -0.056 0 -0.258 -0.268 -0.449 -0.594zm22.337 -2.276 -0.695 -0.699 5.529 -5.528c3.481 -3.481 5.482 -5.554 5.402 -5.597 -0.069 -0.037 -1.442 -0.089 -3.049 -0.115 -1.607 -0.026 -2.948 -0.073 -2.979 -0.104 -0.031 -0.031 -0.091 -0.488 -0.134 -1.015l-0.077 -0.958 2.125 0.068c1.169 0.037 3.046 0.098 4.171 0.136l2.047 0.067 -0.055 -3.145c-0.03 -1.729 -0.081 -6.144 -0.112 -9.81l-0.056 -6.666 4.366 -4.367c4.236 -4.236 4.357 -4.369 4.063 -4.433 -0.867 -0.189 -2.195 -0.601 -2.68 -0.83 -1.11 -0.525 -2.645 -2.483 -3.25 -4.145 -1.366 -3.751 0.112 -8.252 3.883 -11.824 1.682 -1.593 2.944 -2.212 5.73 -2.809 1.549 -0.332 4.321 -0.335 5.528 -0.007 1.451 0.394 2.466 0.97 3.49 1.978 1.099 1.082 1.125 1.207 0.421 2.058 -0.266 0.322 -1.717 1.827 -3.224 3.345 -3.096 3.119 -2.972 2.828 -1.245 2.912l0.992 0.049 3.273 -3.275c1.801 -1.801 3.274 -3.307 3.274 -3.346s-2.428 -2.379 -5.395 -5.201l-5.395 -5.129 -7.454 7.432c-7.69 7.667 -8.729 8.622 -11.147 10.238 -2.885 1.928 -5.782 3.16 -8.716 3.708 -1.583 0.295 -4.982 0.269 -6.463 -0.05 -2.17 -0.467 -4.247 -1.291 -6.073 -2.409 -0.777 -0.476 -2.177 -1.519 -2.402 -1.789 -0.132 -0.159 1.14 -1.462 13.285 -13.607l13.431 -13.431 0.789 0.754c1.888 1.804 3.824 2.679 5.944 2.687 2.085 0.008 4.068 -0.955 6.066 -2.947 1.281 -1.277 2.109 -2.602 2.581 -4.129 0.298 -0.965 0.323 -2.498 0.056 -3.512 -0.382 -1.451 -1.338 -3.085 -2.551 -4.36 -0.341 -0.359 -0.62 -0.676 -0.62 -0.706 0 -0.106 26.735 -26.785 26.836 -26.78 0.29 0.017 1.904 2.354 2.638 3.819 2.225 4.445 2.555 9.241 0.965 14.065 -0.484 1.468 -1.802 4.123 -2.798 5.636 -1.701 2.584 -2.582 3.549 -10.38 11.375l-7.418 7.446 3.986 4.188c2.192 2.304 4.515 4.747 5.161 5.429l1.175 1.241 3.355 -3.353 3.355 -3.353 -0.053 -1.093c-0.029 -0.601 -0.075 -1.16 -0.101 -1.243 -0.031 -0.097 -1.016 0.811 -2.81 2.592 -3.194 3.171 -3.808 3.71 -4.226 3.71 -0.481 0 -1.964 -1.597 -2.506 -2.701 -0.716 -1.456 -0.872 -2.23 -0.874 -4.331 -0.002 -2.05 0.169 -3.096 0.837 -5.113 0.448 -1.351 1.02 -2.259 2.231 -3.538 1.895 -2.002 4.235 -3.448 6.628 -4.096 1.107 -0.3 3.381 -0.319 4.398 -0.038 1.497 0.414 3.017 1.331 4.134 2.494 0.816 0.85 1.123 1.559 1.608 3.717 0.066 0.293 0.426 -0.054 10.696 -10.323l10.627 -10.627 13.952 -3.284c7.674 -1.806 13.964 -3.257 13.978 -3.222s-1.435 6.315 -3.22 13.958l-3.246 13.897 -16.369 16.37c-14.493 14.493 -16.34 16.376 -16.118 16.424 0.138 0.03 1.368 0.176 2.733 0.324 2.765 0.3 4.077 0.528 5.666 0.983 2.762 0.792 4.511 1.828 5.996 3.553 1.782 2.07 2.562 4.07 2.554 6.548 -0.006 1.986 -0.488 3.844 -1.555 6l-0.582 1.177 0.79 -0.069c1.029 -0.09 2.784 0.103 3.916 0.431 2.208 0.639 4.305 2.122 5.633 3.983 1.641 2.299 1.871 5.055 0.679 8.125 -0.415 1.07 -1.371 2.768 -2.078 3.691 -0.213 0.278 -0.386 0.534 -0.384 0.569 0 0.034 0.909 1.015 2.017 2.179s2.013 2.142 2.013 2.173c0 0.031 -0.718 0.773 -1.595 1.649l-1.595 1.593 -2.132 -2.033c-1.173 -1.119 -2.177 -2.034 -2.231 -2.034 -0.054 0 -0.374 0.203 -0.71 0.45 -1.435 1.057 -3.218 1.936 -4.81 2.371 -0.689 0.189 -1.1 0.228 -2.335 0.225 -1.365 -0.004 -1.574 -0.03 -2.327 -0.29 -0.455 -0.158 -1.149 -0.476 -1.541 -0.708 -0.834 -0.493 -2.15 -1.713 -2.878 -2.669 -0.666 -0.874 -1.468 -2.523 -1.735 -3.568 -0.285 -1.116 -0.442 -2.724 -0.359 -3.683l0.069 -0.787 -1.225 0.596c-1.171 0.57 -2.532 1.062 -3.758 1.358 -0.88 0.213 -3.705 0.177 -4.55 -0.057 -1.75 -0.484 -3.326 -1.43 -4.744 -2.849 -1.398 -1.397 -2.017 -2.456 -2.758 -4.711 -0.614 -1.87 -0.927 -3.508 -1.242 -6.517 -0.149 -1.422 -0.292 -2.653 -0.319 -2.735 -0.03 -0.096 -3.689 3.491 -10.119 9.921l-10.072 10.071 -9.749 -0.118c-5.362 -0.065 -9.768 -0.098 -9.792 -0.074 -0.024 0.024 0.009 1.891 0.073 4.15 0.064 2.259 0.099 4.123 0.079 4.144 -0.021 0.02 -0.48 0.006 -1.021 -0.032l-0.984 -0.069 -0.067 -2.286c-0.036 -1.257 -0.095 -2.676 -0.129 -3.152l-0.063 -0.865 -5.493 5.493c-3.022 3.021 -5.542 5.493 -5.6 5.493 -0.058 0 -0.418 -0.315 -0.8 -0.699zm82.817 -10.268c0.645 -0.115 2.388 -0.91 2.659 -1.213 0.146 -0.164 -0.132 -0.453 -3.599 -3.743 -2.067 -1.961 -3.802 -3.58 -3.856 -3.598 -0.111 -0.037 -0.466 1.217 -0.649 2.292 -0.067 0.392 -0.099 1.17 -0.072 1.729 0.066 1.379 0.387 2.04 1.509 3.112 1.347 1.287 2.488 1.691 4.007 1.421zm-28.347 -26.524c12.274 -12.316 22.295 -22.416 22.267 -22.443 -0.043 -0.043 -11.6 -0.243 -14.476 -0.25l-1.004 -0.002 7.559 -7.523c7.932 -7.894 20.826 -20.915 26.094 -26.35 8.413 -8.681 12.232 -12.925 11.915 -13.243 -0.235 -0.235 -1.29 0.57 -4.123 3.148 -5.576 5.073 -20.568 19.758 -35.673 34.943L107.632 89.576l-0.08 -5.698c-0.044 -3.134 -0.108 -6.664 -0.143 -7.845l-0.063 -2.146 -22.368 22.368 -22.368 22.368 0.128 7.886 0.128 7.886 22.367 -22.367 22.367 -22.367 0.726 0.72c0.399 0.396 0.725 0.767 0.725 0.826 0 0.058 -10.04 10.146 -22.311 22.417l-22.311 22.311 0.879 0.01c1.526 0.018 14.31 0.266 14.588 0.284 0.223 0.014 3.785 -3.516 22.583 -22.376zm35.728 20.102c0.74 -1.475 0.787 -2.799 0.146 -4.11 -0.418 -0.855 -1.745 -2.187 -2.545 -2.557 -0.618 -0.285 -0.707 -0.298 -2.093 -0.29 -1.216 0.007 -1.609 0.051 -2.453 0.278 -0.553 0.148 -1.07 0.307 -1.149 0.354 -0.105 0.062 0.829 1.104 3.528 3.937l3.671 3.853 0.25 -0.337c0.137 -0.185 0.428 -0.692 0.646 -1.127zm-22.19 -4.065c1.499 -0.382 3.683 -1.408 4.942 -2.323l0.378 -0.275 -6.583 -6.259 -6.583 -6.259 -0.066 1.092c-0.161 2.637 -0.22 7.517 -0.102 8.394 0.254 1.885 0.77 3.177 1.655 4.144 1.557 1.7 3.622 2.183 6.359 1.486zm10.263 -7.839c1.678 -2.707 2.484 -5.362 2.234 -7.356 -0.354 -2.825 -2.424 -4.6 -5.868 -5.034 -1.016 -0.128 -5.699 -0.076 -8.556 0.094l-1.114 0.067 6.267 6.593c3.447 3.626 6.307 6.593 6.355 6.593 0.049 0 0.356 -0.43 0.682 -0.956zm-115.198 20.786c-0.079 -0.185 -0.847 -1.959 -1.708 -3.942 -0.86 -1.983 -1.564 -3.663 -1.564 -3.732 0 -0.105 3.121 -1.616 3.322 -1.609 0.036 0 0.16 0.223 0.277 0.493 0.117 0.27 0.33 0.754 0.472 1.076l0.26 0.585 6.316 -2.664c3.474 -1.466 6.339 -2.687 6.366 -2.714 0.027 -0.027 -0.16 -0.53 -0.417 -1.117 -0.256 -0.587 -0.455 -1.078 -0.44 -1.09 0.077 -0.065 3.222 -1.386 3.245 -1.363 0.105 0.105 3.458 8.072 3.431 8.152 -0.036 0.107 -2.936 1.437 -3.126 1.435 -0.06 0 -0.291 -0.447 -0.513 -0.99 -0.308 -0.757 -0.441 -0.978 -0.568 -0.941 -0.195 0.056 -12.664 5.349 -12.711 5.395 -0.018 0.017 0.093 0.328 0.247 0.689l0.414 0.977 0.135 0.32 -1.588 0.688c-0.874 0.379 -1.616 0.689 -1.648 0.689s-0.124 -0.151 -0.203 -0.336zm176.434 -0.898c-1.236 -0.267 -2.269 -0.508 -2.296 -0.535 -0.027 -0.027 0.211 -0.867 0.529 -1.866l0.578 -1.817 0.785 0.149c0.431 0.081 0.8 0.11 0.818 0.062 0.248 -0.637 1.952 -5.575 1.932 -5.6 -0.03 -0.036 -4.023 -1.245 -4.037 -1.222 -0.004 0.008 -0.441 1.271 -0.969 2.807s-0.992 2.827 -1.031 2.87c-0.064 0.07 -3.642 -1.144 -3.781 -1.283 -0.032 -0.032 0.386 -1.353 0.928 -2.936 0.542 -1.583 0.951 -2.91 0.907 -2.949 -0.144 -0.13 -5.092 -1.736 -5.131 -1.666 -0.197 0.352 -1.723 5.225 -1.655 5.286 0.049 0.044 0.671 0.352 1.382 0.685 0.711 0.333 1.31 0.616 1.331 0.63 0.046 0.031 -1.101 3.45 -1.226 3.653 -0.07 0.113 -0.708 -0.144 -3.07 -1.236 -1.64 -0.758 -3.016 -1.408 -3.057 -1.444 -0.06 -0.052 4.912 -14.96 5.028 -15.076 0.031 -0.031 3.289 0.99 3.348 1.049 0.018 0.018 -0.092 0.484 -0.245 1.034 -0.16 0.577 -0.238 1.036 -0.185 1.083 0.051 0.045 1.721 0.631 3.712 1.303s4.889 1.655 6.441 2.184l2.822 0.962 0.103 -0.28c0.057 -0.154 0.22 -0.59 0.363 -0.969l0.26 -0.688 1.624 0.546c1.122 0.378 1.615 0.591 1.596 0.689 -0.015 0.078 -1.155 3.504 -2.534 7.613 -2.441 7.276 -2.513 7.471 -2.765 7.459 -0.142 -0.007 -1.27 -0.23 -2.505 -0.498zm-181.804 -11.681c-0.022 -0.04 -0.358 -1.461 -0.745 -3.159 -0.467 -2.048 -0.672 -3.133 -0.608 -3.224 0.053 -0.076 2.673 -2.384 5.824 -5.129 3.15 -2.746 5.685 -5.006 5.634 -5.024 -0.101 -0.033 -9.664 2.117 -9.737 2.189 -0.024 0.024 0.059 0.515 0.184 1.091 0.125 0.576 0.212 1.061 0.192 1.078 -0.055 0.046 -3.433 0.678 -3.463 0.648 -0.05 -0.05 -1.899 -8.262 -1.899 -8.434 0 -0.141 0.312 -0.238 1.663 -0.516 0.914 -0.189 1.685 -0.321 1.712 -0.294 0.027 0.026 0.17 0.5 0.319 1.051l0.271 1.003 0.319 -0.061c0.175 -0.034 3.972 -0.895 8.436 -1.914s8.134 -1.836 8.154 -1.816 0.268 0.958 0.55 2.084l0.514 2.046 -0.309 0.261c-0.319 0.27 -9.943 9.43 -9.943 9.463 0 0.01 1.896 -0.391 4.214 -0.892 2.318 -0.501 4.219 -0.912 4.225 -0.913 0.006 0 -0.096 -0.478 -0.228 -1.059s-0.222 -1.073 -0.203 -1.092c0.095 -0.095 3.323 -0.826 3.377 -0.765 0.105 0.118 1.981 8.299 1.917 8.363 -0.101 0.101 -3.275 0.836 -3.316 0.768 -0.021 -0.035 -0.093 -0.273 -0.16 -0.529 -0.067 -0.256 -0.189 -0.702 -0.271 -0.99l-0.149 -0.525 -6.661 1.61c-3.663 0.885 -6.69 1.64 -6.725 1.676 -0.056 0.057 0.254 1.452 0.415 1.873 0.041 0.108 -0.266 0.24 -1.215 0.524 -0.699 0.209 -1.491 0.448 -1.759 0.53 -0.269 0.083 -0.507 0.118 -0.529 0.079zm187.057 -7.233c-1.877 -0.259 -3.425 -0.479 -3.439 -0.49 -0.015 -0.011 0.101 -0.822 0.259 -1.803l0.285 -1.783 0.552 -0.194c1.586 -0.558 3.27 -2.02 3.829 -3.325 0.35 -0.815 0.46 -1.643 0.397 -2.957 -0.101 -2.062 -0.529 -3.166 -1.675 -4.318 -1.171 -1.175 -3.171 -2.075 -5.166 -2.323 -2.901 -0.36 -5.811 1.119 -6.98 3.549 -0.44 0.915 -0.781 2.087 -0.892 3.065 -0.084 0.743 0.147 1.54 0.877 3.022 0.429 0.872 0.559 1.036 1.362 1.721l0.887 0.757 -0.292 1.57c-0.389 2.096 -0.371 2.035 -0.595 2.035 -0.47 0 -1.614 -0.461 -2.328 -0.939 -0.879 -0.588 -1.447 -1.193 -2.348 -2.504 -1.165 -1.695 -1.594 -2.909 -1.706 -4.83 -0.172 -2.943 0.577 -5.66 2.137 -7.747 2.263 -3.028 5.502 -4.405 9.923 -4.218 2.113 0.089 3.835 0.489 5.326 1.238 2.301 1.154 4.464 3.99 5.172 6.778 0.406 1.599 0.442 2.712 0.151 4.693 -0.342 2.331 -0.939 4.045 -1.804 5.176l-0.375 0.491 0.366 0.175c0.201 0.096 0.365 0.248 0.364 0.337 0 0.089 -0.141 0.86 -0.31 1.713s-0.308 1.563 -0.308 1.577c0 0.04 -0.037 0.035 -3.672 -0.465zm-190.399 -16.339 -1.05 -0.034 0.041 -2.246c0.022 -1.235 0.06 -3.877 0.084 -5.871 0.05 -4.138 0.058 -4.187 1.086 -6.226 1.296 -2.57 3.145 -4.412 5.368 -5.348 1.377 -0.58 1.981 -0.695 3.897 -0.749 1.518 -0.041 1.907 -0.018 2.844 0.174 1.849 0.378 3.331 1.121 4.616 2.315 1.353 1.257 2.398 3.1 2.946 5.198 0.268 1.023 0.27 1.107 0.22 8.807l-0.026 3.958 -1.784 -0.028 -1.784 -0.028 -0.03 -0.838 -0.03 -0.838 -0.849 -0.066c-0.467 -0.036 -3.607 -0.066 -6.976 -0.067l-6.127 0v1.965l-0.698 -0.022 -1.748 -0.055zm16.591 -6.515c0.041 -0.099 0.073 -0.996 0.071 -1.991 -0.003 -1.964 -0.19 -3.059 -0.717 -4.211 -1.132 -2.473 -3.344 -3.657 -6.567 -3.516 -2.853 0.124 -4.711 1.242 -5.828 3.504 -0.693 1.402 -0.908 2.378 -0.972 4.405l-0.052 1.681 0.244 0.01c0.823 0.034 11.051 0.271 12.27 0.284 1.319 0.014 1.485 -0.003 1.551 -0.165zm160.509 1.965 -1.303 -0.032 -0.066 -1.005c-0.037 -0.553 -0.067 -2.529 -0.067 -4.393V93.32h1.122c0.618 0 1.408 0.03 1.758 0.066l0.636 0.067v1.935h13.961v-2.275h3.516v8.79l-0.595 0c-0.327 0 -1.118 -0.031 -1.758 -0.067l-1.163 -0.067v-1.933h-13.754v2.378l-0.491 -0.022c-0.27 -0.012 -1.078 -0.037 -1.794 -0.055zm15.794 -9.387c-0.028 -0.072 -0.082 -0.457 -0.122 -0.854 -0.039 -0.397 -0.101 -0.765 -0.137 -0.819 -0.036 -0.053 -4.091 -0.81 -9.011 -1.682 -4.92 -0.872 -8.994 -1.603 -9.054 -1.625 -0.06 -0.022 -0.309 -0.928 -0.553 -2.014 -0.37 -1.646 -0.42 -1.995 -0.304 -2.103 0.077 -0.071 3.677 -2.181 7.999 -4.689 4.323 -2.508 7.938 -4.62 8.034 -4.693 0.161 -0.123 0.163 -0.185 0.013 -0.836 -0.088 -0.387 -0.133 -0.731 -0.099 -0.765 0.086 -0.086 3.292 -0.563 3.356 -0.499 0.065 0.065 1.461 7.979 1.465 8.302 0 0.128 -0.01 0.232 -0.026 0.232 -0.065 0 -3.04 0.52 -3.242 0.567 -0.202 0.047 -0.23 -0.017 -0.362 -0.817l-0.142 -0.868 -4.788 2.446c-3.424 1.749 -4.735 2.465 -4.602 2.516 0.141 0.054 10.126 1.333 10.372 1.329 0.029 0 0.037 -0.397 0.018 -0.88 -0.018 -0.484 -0.012 -0.879 0.014 -0.879s0.757 -0.095 1.624 -0.21c0.867 -0.116 1.598 -0.19 1.623 -0.165 0.053 0.053 1.375 8.061 1.375 8.331 0 0.146 -0.182 0.212 -0.957 0.352 -0.526 0.094 -1.291 0.235 -1.7 0.314 -0.598 0.115 -0.754 0.117 -0.794 0.011zm-174.254 -4.608c-0.791 -0.165 -1.449 -0.311 -1.463 -0.326 -0.014 -0.015 0.042 -0.416 0.125 -0.892s0.136 -0.879 0.119 -0.897c-0.043 -0.043 -13.301 -2.633 -13.477 -2.633 -0.089 0 -0.218 0.352 -0.367 1.008 -0.126 0.554 -0.241 1.022 -0.254 1.039 -0.014 0.017 -0.795 -0.116 -1.738 -0.295l-1.713 -0.327 0.054 -0.273c0.029 -0.151 0.37 -2.032 0.757 -4.181 0.387 -2.149 0.727 -3.931 0.756 -3.959 0.069 -0.069 3.208 0.383 3.319 0.479 0.048 0.041 0.033 0.441 -0.031 0.888 -0.065 0.447 -0.127 0.927 -0.138 1.066l-0.021 0.253 6.841 1.249 6.841 1.249 0.177 -1.172 0.177 -1.172 0.272 0.058c0.15 0.031 0.937 0.191 1.75 0.354 0.813 0.163 1.501 0.319 1.529 0.347 0.028 0.028 -0.309 1.942 -0.749 4.253l-0.801 4.203 -0.263 -0.011c-0.145 -0.005 -0.91 -0.145 -1.701 -0.309zm155.177 -8.339c-0.056 -0.105 -0.595 -1.305 -1.198 -2.668l-1.096 -2.477 0.39 -0.337c1.855 -1.605 2.431 -1.98 4.037 -2.623 0.941 -0.377 1.198 -0.533 1.696 -1.029 0.686 -0.683 0.982 -1.447 0.873 -2.247 -0.067 -0.493 -0.589 -1.735 -1.171 -2.789 -0.29 -0.525 -0.389 -0.629 -0.529 -0.554 -0.095 0.05 -1.173 0.543 -2.396 1.095 -1.223 0.552 -2.254 1.034 -2.29 1.071 -0.037 0.037 0.117 0.482 0.341 0.989s0.388 0.974 0.363 1.038c-0.054 0.14 -3.057 1.523 -3.164 1.457 -0.165 -0.103 -3.747 -7.938 -3.664 -8.016 0.197 -0.185 3.078 -1.349 3.15 -1.273 0.043 0.044 0.272 0.441 0.509 0.882 0.237 0.441 0.448 0.801 0.469 0.801 0.034 0 11.205 -5.179 12.159 -5.637l0.374 -0.18 -0.405 -0.934c-0.223 -0.514 -0.368 -0.965 -0.323 -1.004 0.143 -0.121 3.158 -1.459 3.198 -1.419 0.149 0.149 4.757 10.11 4.96 10.722 0.521 1.574 0.678 3.308 0.411 4.568 -0.383 1.808 -1.288 2.705 -3.482 3.455 -1.128 0.385 -1.234 0.402 -2.522 0.405 -1.246 0.002 -1.378 -0.017 -1.808 -0.256l-0.463 -0.259 -0.422 0.518c-0.726 0.891 -1.522 1.444 -3.087 2.142 -1.102 0.492 -1.576 0.765 -1.95 1.123l-0.492 0.472v2.072l-1.102 0.508c-0.606 0.28 -1.138 0.523 -1.182 0.54s-0.127 -0.054 -0.182 -0.158zm11.981 -10.707c1.375 -0.826 1.519 -2.552 0.41 -4.918 -0.374 -0.799 -1.444 -2.528 -1.636 -2.647 -0.129 -0.08 -3.683 1.567 -3.715 1.722 -0.056 0.268 0.723 2.308 1.337 3.499 0.699 1.357 1.329 2.143 1.974 2.461 0.609 0.302 0.978 0.275 1.631 -0.117zm-165.171 9.762c-0.837 -0.38 -1.524 -0.743 -1.525 -0.807 -0.001 -0.063 0.099 -0.359 0.223 -0.658l0.225 -0.542 -0.215 -0.17c-0.118 -0.093 -2.597 -2.241 -5.509 -4.772 -2.911 -2.531 -5.335 -4.617 -5.385 -4.635 -0.05 -0.018 -0.195 0.18 -0.322 0.441 -0.127 0.261 -0.264 0.462 -0.305 0.447 -0.678 -0.249 -3.089 -1.394 -3.089 -1.466 0 -0.129 3.619 -8.884 3.707 -8.966 0.037 -0.035 0.765 0.23 1.619 0.589 0.853 0.359 1.592 0.669 1.641 0.688 0.05 0.019 -0.056 0.324 -0.234 0.677l-0.324 0.642 0.285 0.001c0.158 0 3.428 0.116 7.267 0.257s7.018 0.257 7.063 0.258c0.046 0 0.264 -0.394 0.486 -0.877 0.327 -0.712 0.437 -0.865 0.581 -0.81 1.183 0.454 3.085 1.385 3.059 1.497 -0.037 0.161 -2.715 6.738 -2.765 6.794 -0.069 0.074 -3.172 -1.166 -3.218 -1.285 -0.026 -0.068 0.026 -0.299 0.116 -0.514 0.089 -0.214 0.151 -0.4 0.136 -0.411 -0.015 -0.012 -0.455 -0.048 -0.979 -0.081l-0.951 -0.059 -1.203 3.043c-0.662 1.674 -1.187 3.084 -1.168 3.133 0.019 0.049 0.336 0.352 0.705 0.672l0.671 0.583 0.343 -0.681c0.201 -0.398 0.394 -0.66 0.467 -0.63 1.257 0.509 3.071 1.369 3.071 1.456 0.002 0.24 -2.746 6.885 -2.845 6.879 -0.057 -0.002 -0.789 -0.316 -1.626 -0.696zm-3.472 -12.144c0.43 -0.981 0.762 -1.805 0.74 -1.83 -0.072 -0.078 -5.724 -0.269 -5.724 -0.193 0 0.08 4.052 3.799 4.144 3.804 0.032 0.002 0.411 -0.8 0.841 -1.781zm43.93 6.689c-2.278 -0.599 -4.118 -2.418 -4.75 -4.696 -0.264 -0.952 -0.29 -2.562 -0.055 -3.47 0.856 -3.317 4.038 -5.47 7.406 -5.009 4.984 0.682 7.478 6.247 4.683 10.451 -0.866 1.303 -2.396 2.378 -3.884 2.728 -0.833 0.196 -2.646 0.194 -3.401 -0.004zm100.36 -18.113c-2.486 -3.511 -4.541 -6.435 -4.565 -6.498 -0.043 -0.113 2.568 -2.113 2.757 -2.113 0.053 0 0.393 0.369 0.757 0.819l0.662 0.819 5.594 -3.947c3.077 -2.171 5.594 -3.994 5.594 -4.051 0 -0.057 -0.227 -0.451 -0.505 -0.875 -0.278 -0.424 -0.486 -0.802 -0.464 -0.838 0.086 -0.139 2.562 -1.882 2.69 -1.894 0.145 -0.013 9.391 12.917 9.335 13.055 -0.06 0.149 -3.74 3.433 -3.814 3.404 -0.074 -0.029 -1.77 -2.282 -2.118 -2.812l-0.191 -0.292 0.592 -0.531 0.591 -0.531 -1.646 -2.362c-0.905 -1.299 -1.689 -2.406 -1.743 -2.459 -0.06 -0.06 -0.72 0.377 -1.743 1.156a354.23 354.23 0 0 0 -1.663 1.27c-0.009 0.01 0.764 1.133 1.719 2.498 0.955 1.365 1.717 2.516 1.693 2.557 -0.094 0.162 -3.264 2.25 -3.342 2.201 -0.046 -0.029 -0.865 -1.161 -1.82 -2.516l-1.735 -2.464 -2.202 1.559c-1.211 0.857 -2.203 1.588 -2.205 1.624 0 0.05 3.004 4.354 3.159 4.524 0.019 0.022 0.647 -0.293 1.393 -0.698s1.388 -0.734 1.426 -0.731c0.085 0.007 2.323 3.205 2.275 3.25 -0.086 0.082 -5.829 3.26 -5.891 3.26 -0.038 0 -2.104 -2.873 -4.591 -6.383zm-132.563 4.083c-0.714 -0.527 -1.299 -1.008 -1.301 -1.071 -0.002 -0.063 0.249 -0.465 0.557 -0.894l0.56 -0.78 -5.331 -4.122c-2.932 -2.267 -5.39 -4.156 -5.462 -4.199 -0.087 -0.051 -0.366 0.201 -0.829 0.75 -0.384 0.455 -0.726 0.826 -0.759 0.826 -0.091 -0.002 -2.745 -2.062 -2.778 -2.156 -0.04 -0.115 3.892 -5.128 4.051 -5.164 0.116 -0.026 14.508 2.268 15.153 2.417 0.143 0.033 -0.261 -0.335 -0.931 -0.848a7829.82 7829.82 0 0 1 -4.05 -3.104l-2.867 -2.199 -0.636 0.823c-0.35 0.453 -0.666 0.821 -0.701 0.819 -0.036 -0.002 -0.682 -0.46 -1.436 -1.018l-1.372 -1.015 2.588 -3.506c1.423 -1.928 2.623 -3.517 2.664 -3.53 0.096 -0.03 2.633 2.053 2.682 2.203 0.02 0.061 -0.222 0.47 -0.538 0.91 -0.316 0.44 -0.553 0.832 -0.529 0.872 0.025 0.04 3.096 2.399 6.825 5.243 4.48 3.417 6.769 5.224 6.747 5.328 -0.018 0.087 -0.576 0.889 -1.24 1.782l-1.207 1.624 -0.438 -0.057c-1.406 -0.184 -13.885 -1.675 -13.899 -1.661 -0.024 0.023 6.891 5.283 6.994 5.321 0.046 0.017 0.395 -0.37 0.776 -0.859s0.732 -0.875 0.778 -0.857c0.193 0.072 2.78 2.105 2.761 2.17 -0.043 0.15 -5.382 6.91 -5.457 6.91 -0.043 0 -0.663 -0.43 -1.377 -0.956zm125.502 -12.434c-0.758 -0.213 -0.971 -0.342 -0.91 -0.55 0.027 -0.096 0.218 -0.964 0.423 -1.929s0.387 -1.768 0.404 -1.785 0.211 0.045 0.432 0.137c1.147 0.479 2.853 -0.113 3.391 -1.176 0.499 -0.987 0.142 -2.576 -1.105 -4.911 -0.311 -0.582 -0.953 -1.942 -1.427 -3.022l-0.863 -1.965v-1.086c0 -1.334 0.243 -2.134 0.997 -3.262 0.628 -0.938 1.261 -1.499 2.208 -1.957 1.777 -0.86 4.459 -0.897 6.276 -0.088 1.186 0.529 2.809 2.622 3.713 4.789 0.284 0.682 0.381 0.762 0.683 0.565 0.127 -0.083 0.27 -0.151 0.319 -0.151 0.049 0 0.522 0.494 1.052 1.097l0.963 1.097 -2.307 2.309c-2.27 2.271 -2.311 2.306 -2.53 2.134 -0.122 -0.097 -0.583 -0.508 -1.023 -0.913l-0.8 -0.738 0.223 -0.709c0.142 -0.449 0.245 -1.111 0.28 -1.808 0.048 -0.934 0.023 -1.208 -0.165 -1.828 -0.266 -0.878 -0.993 -1.746 -1.806 -2.158 -1.367 -0.693 -3.067 0.244 -3.067 1.691 0 0.818 0.289 1.577 1.606 4.221 1.436 2.884 1.717 3.792 1.74 5.636 0.017 1.348 -0.113 2.008 -0.588 2.99 -0.65 1.343 -2.138 2.45 -4.261 3.171 -1.035 0.351 -2.962 0.451 -3.854 0.2zm-4.939 -4.754c-0.314 -0.481 -0.664 -1.087 -0.778 -1.344 -0.221 -0.499 -0.287 -0.544 -0.495 -0.339 -0.106 0.104 -0.355 -0.101 -1.273 -1.045l-1.142 -1.174 0.459 -0.481c0.252 -0.264 1.384 -1.476 2.514 -2.692l2.056 -2.212 1.127 1.161c1.267 1.305 1.211 1.102 0.681 2.486 -0.297 0.775 -0.337 1.001 -0.341 1.913 -0.007 1.606 0.387 2.8 1.143 3.463l0.335 0.295 -1.726 0.422c-0.949 0.232 -1.785 0.422 -1.858 0.422 -0.072 0 -0.388 -0.394 -0.702 -0.876zm-103.793 -2.361c-0.498 -0.755 -0.905 -1.405 -0.905 -1.444s0.371 -0.321 0.825 -0.625l0.825 -0.552 -3.777 -5.783c-2.077 -3.181 -3.811 -5.817 -3.853 -5.859 -0.042 -0.042 -0.457 0.178 -0.921 0.488l-0.844 0.565 -0.988 -1.44c-0.544 -0.793 -0.988 -1.478 -0.987 -1.523 0.001 -0.08 7.03 -4.76 7.273 -4.843 0.108 -0.036 2.006 2.923 1.916 2.988 -0.021 0.015 -0.386 0.275 -0.813 0.577 -0.426 0.302 -0.818 0.589 -0.87 0.637 -0.055 0.05 0.393 0.822 1.076 1.849 1.115 1.678 1.181 1.756 1.388 1.624 0.119 -0.076 1.485 -0.968 3.037 -1.981l2.821 -1.842 -0.177 -0.27c-0.098 -0.149 -0.592 -0.91 -1.1 -1.692s-0.952 -1.422 -0.989 -1.422c-0.036 0 -0.462 0.254 -0.945 0.563 -0.483 0.309 -0.908 0.53 -0.945 0.491 -0.17 -0.185 -1.95 -2.835 -1.946 -2.897 0.004 -0.055 5.598 -3.853 6.926 -4.702l0.29 -0.186 0.945 1.353c0.52 0.745 0.97 1.42 1.001 1.5 0.037 0.098 -0.232 0.334 -0.826 0.721l-0.881 0.575 3.778 5.763c2.078 3.17 3.793 5.779 3.811 5.799 0.018 0.019 0.304 -0.146 0.635 -0.369a31.923 31.923 0 0 1 0.986 -0.635l0.383 -0.232 0.383 0.576c0.21 0.317 0.399 0.559 0.419 0.539 0.021 -0.02 -0.103 -0.376 -0.274 -0.791s-0.311 -0.774 -0.311 -0.799 0.446 -0.253 0.992 -0.508c0.608 -0.284 0.972 -0.512 0.941 -0.587 -0.028 -0.069 -1.145 -2.933 -2.484 -6.365 -1.338 -3.432 -2.459 -6.266 -2.491 -6.298 -0.032 -0.031 -0.464 0.089 -0.96 0.268 -0.496 0.179 -0.935 0.29 -0.976 0.248 -0.097 -0.102 -1.229 -2.935 -1.227 -3.072 0.001 -0.074 13.42 -5.42 14.882 -5.928 0.096 -0.033 2.544 4.51 2.469 4.584 -0.025 0.025 -0.833 0.368 -1.795 0.762l-1.749 0.717 -0.39 -0.704 -0.39 -0.704 -2.713 1.029c-1.492 0.566 -2.751 1.067 -2.798 1.113 -0.104 0.103 1.472 3.833 1.619 3.833 0.058 0 1.334 -0.471 2.836 -1.046 1.526 -0.584 2.769 -1.007 2.818 -0.956 0.099 0.102 1.344 3.464 1.344 3.63 0 0.06 -0.058 0.132 -0.129 0.161 -0.071 0.029 -1.337 0.524 -2.813 1.1 -1.477 0.577 -2.7 1.065 -2.72 1.084s0.414 1.176 0.963 2.569l0.998 2.534 0.842 -0.335c0.463 -0.184 1.641 -0.647 2.617 -1.027l1.775 -0.691 -0.396 -1.52c-0.218 -0.836 -0.383 -1.533 -0.366 -1.55 0.07 -0.07 3.488 -1.367 3.602 -1.367 0.156 0.001 1.89 6.399 1.765 6.511 -0.048 0.042 -3.309 1.329 -7.247 2.858 -5.293 2.056 -7.161 2.824 -7.161 2.945 -0.001 0.154 -6.903 4.852 -7.128 4.852 -0.053 0 -0.547 -0.613 -1.099 -1.362 -0.825 -1.118 -0.978 -1.382 -0.857 -1.474 0.949 -0.719 1.43 -1.123 1.43 -1.202 0 -0.076 -2.707 -4.379 -2.852 -4.534 -0.031 -0.033 -5.47 3.396 -5.995 3.78 -0.144 0.105 0.026 0.407 1.303 2.327 0.807 1.214 1.509 2.25 1.557 2.304 0.054 0.058 0.429 -0.137 0.947 -0.491 0.472 -0.323 0.902 -0.587 0.958 -0.586 0.097 0.002 1.828 2.61 1.889 2.846 0.025 0.097 -6.798 4.735 -7.155 4.864 -0.062 0.023 -0.521 -0.577 -1.018 -1.332zm95.322 -4.683c-0.398 -0.196 -2.156 -1.053 -3.907 -1.903l-3.182 -1.545 0.79 -1.581c0.434 -0.869 0.802 -1.595 0.819 -1.613s0.405 0.157 0.865 0.388c0.46 0.231 0.876 0.42 0.925 0.42 0.08 0 2.398 -4.731 2.398 -4.895 0 -0.037 -1.435 -0.786 -3.19 -1.664l-3.19 -1.596 -1.179 2.436c-0.648 1.339 -1.193 2.474 -1.212 2.522 -0.018 0.048 0.436 0.322 1.008 0.609l1.042 0.523 -0.788 1.576c-0.433 0.867 -0.803 1.593 -0.822 1.613 -0.038 0.041 -7.7 -3.68 -7.83 -3.803 -0.06 -0.057 1.254 -2.985 1.439 -3.206 0.019 -0.023 0.463 0.152 0.985 0.39 0.522 0.238 0.982 0.397 1.023 0.353 0.087 -0.095 5.787 -12.007 5.853 -12.231 0.033 -0.11 -0.242 -0.298 -0.949 -0.649 -0.547 -0.272 -0.979 -0.528 -0.96 -0.569 0.622 -1.316 1.612 -3.125 1.711 -3.125 0.285 0 7.8 3.839 7.752 3.96 -0.308 0.776 -1.475 3.072 -1.562 3.071 -0.062 0 -0.48 -0.21 -0.927 -0.465 -0.448 -0.255 -0.847 -0.465 -0.887 -0.465 -0.087 0 -1.921 3.811 -1.858 3.863 0.024 0.019 1.435 0.694 3.137 1.499 2.755 1.303 3.369 1.562 3.369 1.424 0 -0.021 0.394 -0.86 0.875 -1.863l0.875 -1.825 -0.979 -0.486c-0.538 -0.268 -0.979 -0.522 -0.979 -0.567 0 -0.197 1.582 -3.079 1.689 -3.078 0.066 0 1.854 0.858 3.972 1.907 3.707 1.835 3.848 1.915 3.758 2.145 -0.051 0.132 -0.393 0.876 -0.759 1.655l-0.666 1.416 -0.968 -0.457c-0.532 -0.251 -0.978 -0.446 -0.99 -0.434 -0.012 0.012 -1.372 2.815 -3.02 6.227l-2.997 6.204 0.979 0.496c0.539 0.273 0.965 0.534 0.946 0.579 -0.282 0.713 -1.503 3.112 -1.581 3.107 -0.058 -0.003 -0.432 -0.167 -0.83 -0.364zm-23.009 -10.017c-2.597 -0.658 -4.179 -1.106 -4.163 -1.178 0.033 -0.153 0.616 -0.041 -7.885 -1.507l-7.446 -1.284 -3.605 0.307c-1.982 0.169 -3.619 0.293 -3.636 0.275 -0.018 -0.018 -0.106 -0.707 -0.196 -1.532 -0.091 -0.825 -0.187 -1.629 -0.214 -1.787 -0.043 -0.252 -0.011 -0.295 0.263 -0.35 0.172 -0.034 0.299 -0.093 0.282 -0.129 -0.017 -0.037 -0.139 -0.323 -0.272 -0.635l-0.242 -0.569 -3.094 0.371c-1.701 0.204 -3.135 0.415 -3.185 0.468 -0.05 0.054 -0.161 0.41 -0.247 0.793l-0.155 0.695 0.59 -0.061 0.59 -0.062 0.297 1.617c0.182 0.989 0.259 1.651 0.2 1.704 -0.098 0.088 -6.894 1.569 -7.186 1.566 -0.123 -0.001 -0.247 -0.395 -0.532 -1.682 -0.204 -0.924 -0.364 -1.689 -0.353 -1.701 0.01 -0.011 0.457 -0.118 0.994 -0.238s0.989 -0.231 1.006 -0.248c0.017 -0.017 0.633 -3.144 1.37 -6.949 0.737 -3.805 1.366 -7.025 1.398 -7.154 0.057 -0.232 0.048 -0.235 -0.618 -0.167 -0.539 0.055 -0.675 0.041 -0.676 -0.074 -0.001 -0.079 -0.09 -0.865 -0.198 -1.746 -0.108 -0.882 -0.189 -1.608 -0.18 -1.613 0.048 -0.03 9.067 -1.198 9.368 -1.213l0.354 -0.018 0.233 1.655c0.128 0.91 0.202 1.685 0.163 1.722 -0.038 0.037 -0.163 0.086 -0.277 0.11 -0.113 0.023 -0.193 0.109 -0.177 0.191 0.017 0.082 1.249 3.029 2.74 6.548l2.711 6.398 1.262 -0.058 1.261 -0.058 0.038 0.484 0.038 0.485 0.019 -0.538 0.019 -0.538 0.865 0.061 0.865 0.061 0.065 -0.454c0.072 -0.501 1.411 -12.271 1.411 -12.403 0 -0.046 -0.425 -0.116 -0.945 -0.156l-0.945 -0.074 0.068 -1.097c0.037 -0.604 0.097 -1.388 0.132 -1.744l0.064 -0.647 0.425 0.006c0.613 0.008 8.215 0.767 8.261 0.825 0.022 0.027 -0.031 0.81 -0.117 1.741l-0.156 1.693 -1.195 -0.071 -1.196 -0.071 -0.708 6.581c-0.39 3.619 -0.688 6.602 -0.663 6.626 0.025 0.025 1.325 0.291 2.89 0.592l2.845 0.547 0.347 -1.43c0.191 -0.786 0.378 -1.479 0.415 -1.539 0.047 -0.076 0.637 -0.042 1.913 0.109 1.015 0.121 1.866 0.24 1.892 0.266 0.025 0.026 -0.24 1.475 -0.589 3.221 -0.349 1.746 -0.621 3.188 -0.605 3.205 0.017 0.017 0.213 -0.529 0.436 -1.214 0.359 -1.104 0.429 -1.238 0.611 -1.19 0.624 0.163 1.825 0.397 1.857 0.362 0.057 -0.062 3.371 -13.282 3.371 -13.448 0 -0.094 -0.36 -0.243 -1.042 -0.433 -0.573 -0.159 -1.099 -0.311 -1.168 -0.338 -0.075 -0.029 -0.268 0.246 -0.481 0.687 -0.416 0.86 -0.151 0.84 -2.507 0.184 -1.322 -0.368 -1.533 -0.455 -1.491 -0.614 0.027 -0.102 0.461 -1.164 0.964 -2.361 0.612 -1.454 0.968 -2.175 1.071 -2.176 0.163 -0.001 15.61 3.991 15.668 4.049 0.041 0.041 -0.561 5.178 -0.613 5.23 -0.02 0.02 -0.905 -0.232 -1.967 -0.559 -1.761 -0.543 -1.927 -0.614 -1.879 -0.807 0.029 -0.117 0.083 -0.448 0.12 -0.736l0.068 -0.524 -1.142 -0.329c-0.628 -0.181 -1.164 -0.329 -1.191 -0.329 -0.072 0 -3.411 13.547 -3.353 13.605 0.027 0.027 0.463 0.171 0.97 0.319 0.506 0.149 0.935 0.283 0.952 0.297 0.052 0.044 -0.947 3.256 -1.009 3.246 -0.031 -0.005 -1.941 -0.487 -4.245 -1.071zm-30.714 -12.066c0.995 -0.124 1.846 -0.256 1.89 -0.295 0.084 -0.074 -2.295 -6.207 -2.407 -6.207 -0.035 0 -0.356 1.408 -0.711 3.128 -0.356 1.721 -0.672 3.233 -0.703 3.361 -0.031 0.128 -0.016 0.234 0.033 0.235 0.049 0.001 0.903 -0.098 1.899 -0.222z"/></svg>