<svg xmlns="http://www.w3.org/2000/svg" xml:space="preserve" width="289.44" height="44.788" viewBox="0 0 289.44 44.788" aria-labelledby="acf-logo-title"><title id="acf-logo-title">Administration for Children and Families logo</title><defs><clipPath clipPathUnits="userSpaceOnUse"><path d="M36.72 731.385H253.8v33.592H36.72Z"/></clipPath></defs><g clip-path="url(#a)" transform="matrix(1.33333 0 0 -1.33333 -48.96 1019.968)"><path d="m0 0-.761 2.489L-1.516 0Zm1.859-1.967a.352.352 0 0 0 .278-.344.284.284 0 0 0-.284-.283H.4a.285.285 0 0 0-.286.283c0 .165.118.307.278.338l.241.049L.207-.63h-1.938l-.412-1.294.219-.049a.349.349 0 0 0 .278-.338.285.285 0 0 0-.284-.283h-1.317a.285.285 0 0 0-.284.283.35.35 0 0 0 .278.344l.242.048 1.66 4.839c.102.293.38.489.695.489a.72.72 0 0 0 .687-.491l1.587-4.837z"  transform="translate(40.418 761.236)"/><path d="M0 0c1.374 0 2.129.767 2.129 2.313 0 1.59-.718 2.251-2.152 2.251h-.573V0Zm-1.536 4.544-.346.06a.335.335 0 0 0-.281.332c0 .156.128.284.284.284H.042c1.973 0 3.12-.849 3.12-2.889C3.162.122 1.666-.656 0-.656h-1.879a.286.286 0 0 0-.284.287c0 .162.119.301.281.33l.346.059z"  transform="translate(45.148 759.297)"/><path d="M0 0a.702.702 0 0 0 .65-.431l1.363-3.242L3.389-.431A.71.71 0 0 0 4.045 0h1.266a.284.284 0 0 0 .286-.284.336.336 0 0 0-.281-.332l-.366-.06V-5.2l.353-.059a.336.336 0 0 0 .28-.33.285.285 0 0 0-.283-.286H3.667a.285.285 0 0 0-.286.286c0 .162.122.304.28.33l.356.059v4.213l-.006.002-1.482-3.341A.632.632 0 0 0 1.95-4.7a.629.629 0 0 0-.582.374L-.065-1.044l-.006-.003V-5.2l.352-.059a.336.336 0 0 0 .281-.33.286.286 0 0 0-.284-.286H-1.22a.286.286 0 0 0-.285.286c0 .162.12.304.282.33l.371.059v4.524l-.366.06a.336.336 0 0 0-.281.332c0 .157.128.284.284.284z"  transform="translate(50.538 764.517)"/><path d="M0 0v4.525l-.372.059a.336.336 0 0 0-.281.332c0 .156.128.284.284.284h1.675a.285.285 0 0 0 .284-.284.335.335 0 0 0-.281-.332L.94 4.525V0l.369-.059a.336.336 0 0 0 .281-.33.286.286 0 0 0-.284-.287H-.369a.286.286 0 0 0-.284.287c0 .162.12.304.281.33z"  transform="translate(57.573 759.317)"/><path d="m0 0-.378.063a.332.332 0 0 0-.281.329c0 .159.128.286.284.286h1.499a.286.286 0 0 0 .287-.286A.337.337 0 0 0 1.13.06L.784 0v-4.822a.439.439 0 0 0-.441-.438.746.746 0 0 0-.653.381l-2.5 4.374v-4.02l.369-.059a.335.335 0 0 0 .281-.329.286.286 0 0 0-.284-.287h-1.524a.286.286 0 0 0-.284.287c0 .161.119.303.281.329l.372.059V0l-.372.063a.332.332 0 0 0-.281.329c0 .159.128.286.284.286h.988c.292 0 .55-.156.69-.414L0-3.948Z"  transform="translate(64.207 763.842)"/><path d="M0 0v4.525l-.372.059a.336.336 0 0 0-.281.332c0 .156.128.284.284.284h1.675a.285.285 0 0 0 .284-.284.336.336 0 0 0-.281-.332L.94 4.525V0l.369-.059a.337.337 0 0 0 .281-.33.286.286 0 0 0-.284-.287H-.369a.286.286 0 0 0-.284.287c0 .162.12.304.281.33z"  transform="translate(66.975 759.317)"/><path d="M0 0c-.59 0-1.039-.281-1.039-.797 0-1.3 2.737-1.042 2.737-2.916 0-1.107-.875-1.756-2.027-1.756-.602 0-1.717.074-1.717.865v.33c0 .207.17.377.38.377a.511.511 0 0 0 .488-.363l.134-.437c.122-.051.343-.105.516-.105.647 0 1.28.238 1.28.899 0 1.323-2.724 1.101-2.724 2.944 0 .987.786 1.62 1.938 1.62.511 0 1.525-.096 1.525-.823v-.332a.38.38 0 0 0-.378-.378.514.514 0 0 0-.489.361l-.133.437A1.484 1.484 0 0 1 0 0"  transform="translate(71.428 763.983)"/><path d="M0 0c0 .258.21.468.469.468h4.005c.258 0 .468-.21.468-.468v-.44a.368.368 0 0 0-.366-.369c-.21 0-.4.142-.455.352l-.073.284H2.941v-4.559l.403-.062a.332.332 0 0 0 .281-.326.286.286 0 0 0-.284-.287H1.598a.286.286 0 0 0-.287.287c0 .161.123.301.285.326l.405.062v4.559H.895L.823-.457a.47.47 0 0 0-.454-.352A.369.369 0 0 0 0-.44Z"  transform="translate(73.638 764.049)"/><path d="M0 0v-4.544l.378-.06a.336.336 0 0 0 .281-.329.286.286 0 0 0-.284-.287h-1.681a.286.286 0 0 0-.286.287c0 .162.119.303.281.329l.371.06V-.02l-.371.06a.335.335 0 0 0-.281.332c0 .156.127.284.286.284H.778C1.93.656 2.685.275 2.685-.812c0-.792-.497-1.328-1.283-1.496v-.005c.494-.082.693-.505.994-1.17.38-.84.507-1.121.967-1.152.16-.012.29-.133.29-.293a.291.291 0 0 0-.29-.292h-.47c-.943 0-1.139.982-1.355 1.439-.329.696-.573 1.053-1.07 1.164-.156.034-.32.176-.32.355s.142.32.349.332c.746.045 1.198.323 1.198 1.067 0 .628-.472.863-1.28.863Z"  transform="translate(80.701 763.861)"/><path d="m0 0-.761 2.489L-1.516 0Zm1.859-1.967a.352.352 0 0 0 .278-.344.284.284 0 0 0-.284-.283H.4a.285.285 0 0 0-.286.283c0 .165.118.307.278.338l.241.049L.207-.63h-1.938l-.412-1.294.219-.049a.349.349 0 0 0 .278-.338.285.285 0 0 0-.284-.283h-1.317a.285.285 0 0 0-.284.283.35.35 0 0 0 .278.344l.242.048 1.66 4.839c.102.293.38.489.695.489a.72.72 0 0 0 .687-.491l1.587-4.837z"  transform="translate(87.704 761.236)"/><path d="M0 0c0 .258.21.468.469.468h4.005c.258 0 .468-.21.468-.468v-.44a.368.368 0 0 0-.366-.369c-.21 0-.4.142-.455.352l-.073.284H2.941v-4.559l.403-.062a.332.332 0 0 0 .281-.326.286.286 0 0 0-.284-.287H1.598a.286.286 0 0 0-.287.287c0 .161.123.301.285.326l.405.062v4.559H.895L.823-.457a.47.47 0 0 0-.454-.352A.369.369 0 0 0 0-.44Z"  transform="translate(89.62 764.049)"/><path d="M0 0v4.525l-.372.059a.336.336 0 0 0-.281.332c0 .156.128.284.284.284h1.675a.285.285 0 0 0 .284-.284.335.335 0 0 0-.281-.332L.94 4.525V0l.369-.059a.336.336 0 0 0 .281-.33.286.286 0 0 0-.284-.287H-.369a.286.286 0 0 0-.284.287c0 .162.12.304.281.33z"  transform="translate(95.743 759.317)"/><path d="M0 0c-1.164 0-1.643-.97-1.643-2.364 0-1.38.437-2.368 1.586-2.368 1.158 0 1.641.977 1.641 2.368C1.584-.985 1.147 0 0 0m.02.701c1.655 0 2.597-1.172 2.597-2.94 0-1.828-.937-3.191-2.694-3.191-1.649 0-2.597 1.198-2.597 2.944C-2.674-.641-1.74.701.02.701"  transform="translate(100.75 763.944)"/><path d="m0 0-.378.063a.332.332 0 0 0-.281.329c0 .159.128.286.284.286h1.499a.286.286 0 0 0 .287-.286A.337.337 0 0 0 1.13.06L.784 0v-4.822a.439.439 0 0 0-.441-.438.746.746 0 0 0-.653.381l-2.5 4.374v-4.02l.369-.059a.335.335 0 0 0 .281-.329.286.286 0 0 0-.284-.287h-1.524a.286.286 0 0 0-.284.287c0 .161.119.303.281.329l.372.059V0l-.372.063a.332.332 0 0 0-.281.329c0 .159.128.286.284.286h.988c.292 0 .55-.156.69-.414L0-3.948Z"  transform="translate(108.367 763.842)"/><path d="M0 0v-1.99l.428-.062a.332.332 0 0 0 .282-.326.286.286 0 0 0-.285-.287h-1.731a.286.286 0 0 0-.287.287c0 .161.12.303.282.329l.374.059v4.525l-.374.059a.337.337 0 0 0-.282.332c0 .157.128.284.287.284h3.37c.258 0 .468-.21.468-.468v-.46a.337.337 0 0 0-.335-.338.446.446 0 0 0-.426.321l-.085.29H0V.693h1.473c.19 0 .346-.157.346-.347A.347.347 0 0 0 1.473 0Z"  transform="translate(114.516 761.307)"/><path d="M0 0c-1.164 0-1.643-.97-1.643-2.364 0-1.38.437-2.368 1.586-2.368 1.158 0 1.641.977 1.641 2.368C1.584-.985 1.147 0 0 0m.02.701c1.655 0 2.597-1.172 2.597-2.94 0-1.828-.937-3.191-2.694-3.191-1.649 0-2.597 1.198-2.597 2.944C-2.674-.641-1.74.701.02.701"  transform="translate(120.266 763.944)"/><path d="M0 0v-4.544l.377-.06a.336.336 0 0 0 .282-.329.286.286 0 0 0-.285-.287h-1.68a.286.286 0 0 0-.287.287c0 .162.12.303.282.329l.371.06V-.02l-.371.06a.336.336 0 0 0-.282.332c0 .156.128.284.287.284H.777C1.93.656 2.685.275 2.685-.812c0-.792-.497-1.328-1.283-1.496v-.005c.494-.082.693-.505.993-1.17.38-.84.508-1.121.968-1.152.159-.012.29-.133.29-.293a.292.292 0 0 0-.29-.292h-.471c-.942 0-1.138.982-1.354 1.439-.329.696-.573 1.053-1.07 1.164-.156.034-.321.176-.321.355s.142.32.35.332c.746.045 1.197.323 1.197 1.067 0 .628-.471.863-1.28.863Z"  transform="translate(125.224 763.861)"/><path d="M0 0v-2.858c0-3.441-1.721-5.407-5.039-5.407-3.318 0-5.039 1.966-5.039 5.407V8.327c0 3.441 1.721 5.407 5.039 5.407C-1.721 13.734 0 11.768 0 8.327v-2.09h-3.195v2.305c0 1.536-.677 2.12-1.752 2.12s-1.751-.584-1.751-2.12V-3.073c0-1.536.676-2.089 1.751-2.089 1.075 0 1.752.553 1.752 2.089V0Z"  transform="translate(46.798 740.188)"/><path d="M0 0h-3.38v21.509H0v-9.218h3.84v9.218h3.442V0H3.84v9.218H0Z"  transform="translate(52.698 732.168)"/><path d="M62.899 753.676h3.38v-21.509h-3.38z" /><path d="M0 0h3.38v-18.436h5.561v-3.073H0Z"  transform="translate(69.198 753.676)"/><path d="M0 0v-15.364h1.905c1.076 0 1.72.554 1.72 2.09V-2.09C3.625-.553 2.981 0 1.905 0Zm-3.38 3.073h5.346c3.38 0 5.039-1.875 5.039-5.317v-10.877c0-3.441-1.659-5.315-5.039-5.315H-3.38Z"  transform="translate(83.455 750.604)"/><path d="M0 0v-6.606h1.321c1.26 0 2.028.553 2.028 2.273v2.12C3.349-.676 2.827 0 1.628 0Zm3.687-18.436c-.184.553-.307.891-.307 2.642v3.38c0 1.998-.676 2.735-2.213 2.735H0v-8.757h-3.38V3.073h5.101c3.502 0 5.008-1.629 5.008-4.948v-1.69c0-2.212-.707-3.656-2.213-4.363 1.69-.706 2.244-2.335 2.244-4.578v-3.318c0-1.045.03-1.813.368-2.612z"  transform="translate(96.452 750.604)"/><path d="M0 0h4.64v-3.073H0v-6.299h5.838v-3.072H-3.38V9.064h9.218V5.992H0Z"  transform="translate(109.235 744.612)"/><path d="M0 0v-15.578h-3.042V5.93h4.24L4.67-6.944V5.93h3.011v-21.508H4.209Z"  transform="translate(120.604 747.746)"/><path d="M0 0c1.129 0 2.228.129 3.299.382 1.067.257 1.975.56 2.719.908.748.344 1.523.806 2.327 1.387.805.578 1.425 1.062 1.852 1.448.429.382 1.414 1.326 1.729 1.413.316.085 8.103-5.379 8.438-5.442.507-.096 1.326.838.602 1.511-.545.506-6.798 5.743-6.528 6.402.268.577 7.003 6.667 7.146 6.792 1.157 1.014.363 2.282-.525 1.799-.408-.221-12.353-9.644-12.655-9.913-.302-.27-.765-.652-1.39-1.142-.625-.489-1.196-.869-1.727-1.14a12.17 12.17 0 0 0-1.866-.745 7.052 7.052 0 0 0-2.133-.339c-1.596 0-2.921.499-3.976 1.502-1.052 1-1.581 2.21-1.581 3.626 0 .768.137 1.494.406 2.18.271.685.707 1.358 1.314 2.022A19.443 19.443 0 0 0-.993 14.22c.433.384 1.075.909 1.92 1.57.238.194.421.34.542.429l2.869 2.282c.165.135.541.433 1.126.893.593.46 1.002.787 1.236.982.231.197.61.52 1.127.97.518.454.905.823 1.156 1.11.248.285.553.661.922 1.128.371.464.641.893.815 1.277.17.382.327.816.462 1.301.134.478.205.961.205 1.442 0 1.717-.686 3.144-2.06 4.28-1.366 1.139-3.19 1.707-5.462 1.707-2.577 0-4.747-.665-6.508-2.001-1.761-1.33-2.642-3.052-2.642-5.159 0-1.642.587-3.261 1.761-4.856.465-.635 1.401-1.673 2.8-3.119l-.712-.553a49.031 49.031 0 0 0-.893-.69 25.57 25.57 0 0 1-.925-.768 13.565 13.565 0 0 1-.992-.925c-.224-.243-.535-.578-.925-1.007a9.084 9.084 0 0 1-.928-1.164 22.283 22.283 0 0 1-.758-1.263 8.136 8.136 0 0 1-.644-1.436 12.904 12.904 0 0 1-.383-1.523 8.896 8.896 0 0 1-.157-1.695c0-2.169.716-3.951 2.146-5.342C-4.466.696-2.499 0 0 0m-.732 23.956c-.295.385-.502.759-.614 1.118a4.008 4.008 0 0 0-.166 1.151c0 1.118.492 2.083 1.478 2.904.985.821 2.159 1.231 3.512 1.231 1.22 0 2.219-.345 2.994-1.039.774-.69 1.163-1.506 1.163-2.438 0-.286-.037-.56-.114-.827a6.987 6.987 0 0 0-.246-.722c-.092-.219-.254-.464-.485-.733-.235-.271-.429-.495-.591-.665-.155-.176-.426-.418-.811-.735l-.881-.723a45.636 45.636 0 0 0-1.096-.848c-.529-.399-.92-.698-1.174-.894-.256.273-.63.653-1.12 1.144-.486.486-.846.861-1.074 1.117-.225.254-.484.574-.775.959"  transform="translate(141.689 731.385)"/><path d="M0 0a8.764 8.764 0 0 1-2.344.278C-5.094.2-7.319-1.277-7.886-3.403a5.617 5.617 0 0 1 .049-2.968c-2.537-.55-4.615-2.441-5.205-5.069-.45-3.438.715-5.766 1.036-5.86.32-.092.556.236.508.615-.111.906-.737 2.724.517 4.702 1.125 1.77 3.504 3.578 5.868 3.91 0 0-.018-.007.143.019.16.025.262.305.227.418l-.036.113c-.007.019-.575 1.826-.241 3.094.331 1.239 1.642 2.048 3.177 2.179C2.239-1.964 3.866-6.468 4-6.636c.298-.377.531.089.531.089C4.764-6.208 3.906-1.024 0 0"  transform="translate(159.864 755.435)"/><path d="M0 0h4.363v-3.073H0v-8.879h-3.38V9.556h8.941V6.483H0Z"  transform="translate(171.76 744.12)"/><path d="M0 0h3.257L1.628 10.877Zm7.712-6.821H4.301l-.583 3.902H-.43l-.584-3.902h-3.104l3.442 21.508h4.947z"  transform="translate(182.237 738.99)"/><path d="m0 0 2.304 15.271h4.701V-6.237H3.81V9.187L1.475-6.237h-3.196L-4.24 8.972V-6.237h-2.95v21.508h4.701z"  transform="translate(199.106 738.405)"/><path d="M209.031 753.676h3.38v-21.509h-3.38z" /><path d="M0 0h3.38v-18.436h5.561v-3.073H0Z"  transform="translate(215.33 753.676)"/><path d="M226.208 753.676h3.38v-21.509h-3.38z" /><path d="M0 0h4.64v-3.073H0v-6.299h5.838v-3.072H-3.38V9.064h9.218V5.992H0Z"  transform="translate(235.886 744.612)"/><path d="M0 0c3.288 0 4.977-1.966 4.977-5.408v-.675H1.782v.89c0 1.536-.615 2.12-1.69 2.12s-1.69-.584-1.69-2.12c0-4.424 6.606-5.254 6.606-11.399C5.008-20.033 3.288-22-.031-22s-5.039 1.967-5.039 5.408v1.321h3.195v-1.536c0-1.537.676-2.09 1.752-2.09 1.075 0 1.752.553 1.752 2.09 0 4.424-6.606 5.254-6.606 11.399C-4.977-1.966-3.288 0 0 0"  transform="translate(248.792 753.922)"/></g></svg>