<svg xmlns="http://www.w3.org/2000/svg" viewBox="224 303.39 3698 1625.61" aria-labelledby="aspr-logo-title"><title id="aspr-logo-title">Administration for Strategic Response and Preparedness logo</title><path d="M1709 304c-101.4 5.7-166.4 23.8-224.5 62.5-39.1 26-67.5 58.7-87 99.8-15.3 32.3-21.4 58.5-22.2 94.5-.9 37.4 3.1 62.4 14.7 92 16.2 41.8 46.7 78.8 88.3 107.4 48.9 33.5 124.7 63.5 214.2 84.8 87.6 20.8 108.4 26.9 137.3 40.6 15.2 7.1 23.1 12.6 32.8 22.6 16.5 16.9 23.8 32.5 25 53.3 1.8 30.1-14.1 58-44 77.3-12.5 8.1-27.6 13.5-47.1 16.9-14.5 2.5-50 2.5-64.9 0-21.9-3.7-41-11-58.3-22.2-10.8-7-30.9-26.9-37.5-37.1-13.6-20.9-23-47.7-28.4-80.4-.9-5.8-1.8-10.6-1.9-10.8-.2-.2-53.9 3.1-152 9.3-29.7 1.9-66.8 4.2-82.5 5.1-15.7 1-28.9 2.1-29.4 2.5-1.2 1 .6 16.8 3.9 36.4 11.5 66.3 37.7 122.9 79.1 170.5 10 11.5 24.4 25.7 33.9 33.2 45.3 36 114.8 59.4 203 68.2 29.2 3 42.4 3.7 80 4.3 63 1 107.9-2.6 154.8-12.3 70.4-14.7 128.9-43.9 173.3-86.6 34.6-33.3 63.2-80.1 76.9-125.7 14.5-48.7 15.9-103.8 3.6-151.2-19.5-75.4-67.4-129.3-150.5-169.4-49.4-23.9-124.7-47.1-229.1-70.5-68.2-15.2-81.9-19.1-102-29-9.5-4.6-13.4-7.1-18.6-12.2-13.1-12.7-17.3-21.7-17.3-37.3 0-17.1 5.7-30.5 18.6-43.6 18.7-19.1 44.8-26.9 85.7-25.6 32.9 1 57.6 7.9 78.2 21.8 14.9 10 29.5 28.2 37.8 47.3 4.7 10.7 10.3 29.1 12.1 39.3.7 4 1.7 7.3 2.2 7.3 1.1 0 134.6-7.8 203.8-12 27.8-1.6 52.2-3 54.3-3h3.9l-.6-3.8c-9.1-61-23.7-103-48.8-140.4-33.2-49.6-83.4-84-151.4-103.7-32.9-9.5-63.3-14.9-105.9-18.6-21.2-1.9-90.2-2.8-113.5-1.5M632.8 593.2 527.3 874.5l-151 .3-151 .2-.6 9.8c-.4 5.3-.7 17.2-.7 26.4V928h779.9l2.6 8.5c1.4 4.7 2.8 9.2 3.1 10 .5 1.3-44.6 1.5-392.5 1.5H224v52h800.8l3.1 9.3c1.7 5 3.1 9.5 3.1 10 0 .4-181.6.7-403.5.7H224v51l113.9.2 113.8.3-8.8 24c-4.9 13.2-13.5 36.4-19 51.5-5.6 15.1-13.9 37.7-18.5 50.1-4.6 12.5-8.4 22.9-8.4 23.3 0 .3 64.5.6 143.3.6h143.2l9.8-33.3c5.4-18.2 15.3-51.9 22-74.7l12.2-41.5 159.6-.3 159.5-.2 1.6 5.2c1.4 4.3 37.3 122.8 42.4 140l1.5 4.8H1239c80.9 0 147-.2 147-.4s-10.4-27.9-23.1-61.7-42.4-112.9-66.1-175.9c-23.6-63-52.8-140.6-64.8-172.5s-39.8-105.9-61.8-164.5-54.5-145-72.2-192-36.9-98.2-42.7-113.8l-10.6-28.2H738.3zM945.5 735c13.6 44.3 28.7 93.5 33.6 109.3 4.9 15.9 8.9 29.3 8.9 29.8s-39.6.9-99.5.9c-54.7 0-99.5-.3-99.5-.6 0-.5 10.1-34 36.5-120.9 7.5-24.8 17-55.8 21-69s12.5-41.3 19-62.5c6.4-21.2 13.9-45.9 16.7-55 2.7-9.1 5.2-16.9 5.5-17.4.6-.9 5.6 15.1 57.8 185.4M2203 768v456h283V886.2l94.3-.5c95.6-.5 104.4-.8 136.7-4.8 112.5-13.9 188.4-62.1 229-145.4 21.4-43.9 31.3-95.1 29.7-154-1.5-53.1-10.6-94.1-29.2-132-12.5-25.3-26.1-44.1-45.6-63.1-40.5-39.3-96.9-62.7-170.9-70.9-28.6-3.1-58.4-3.5-292.2-3.5H2203zm406-267.6c39.9 6.4 60.2 17.8 76.9 43.2 16 24.4 20.4 59.7 10.9 88.1-8.4 25.5-28 45.9-53.9 56.1-9.5 3.7-24.7 7.6-37.4 9.6-17.4 2.7-36.8 3.6-78.7 3.6H2486V497.8l56.3.5c46.4.3 58 .7 66.7 2.1m417 267.5V1224h283V854h17.8c20.2 0 32.2 1.6 45.4 6 24.4 8.2 39 19.4 55.5 42.6 9.2 12.8 15.8 24 33 55.9 7.7 14.3 19.9 36.8 27 50 7.2 13.2 16.3 30.1 20.3 37.5s12.9 23.8 19.7 36.5c6.9 12.6 26.9 49.7 44.5 82.2l32 59.3h158.9c87.4 0 158.9-.2 158.9-.5 0-.2-2.2-4.6-4.9-9.7s-15.9-30.7-29.4-56.8c-13.4-26.1-31.2-60.6-39.4-76.5-8.3-16-26.4-51.1-40.3-78-26.9-52.2-34.3-64.5-53.2-88.7-22.8-29.3-41-49.2-54-58.8-4.2-3.2-13-8.5-19.5-11.8-10.6-5.4-38.5-17-48.8-20.2l-4-1.3 13-3.4c52.1-13.4 85.2-29.1 118-56 33.4-27.4 60.6-65.8 74-104.3 5.1-14.7 10-35.5 12.2-51.2 2.5-18.7 2.5-66 0-83.3-8.4-56.7-29.8-100.9-66.7-137.6-46.6-46.2-102.4-64.6-219.5-72.1-12.5-.8-96.7-1.2-275.7-1.5l-257.8-.4zm442-270c25.7 2.8 41.4 6.6 56 13.8 7.9 3.9 10.9 6.1 18.1 13.3 7.5 7.5 9.3 10 13.7 19.1 7.7 15.9 8.7 21 8.7 42.9 0 18.3-.1 18.6-3.3 28-7.1 20.5-19.7 36.1-37.3 46.3-7.2 4.2-14.9 6.5-37.8 11.3-44.8 9.3-37.5 8.7-111.3 9.1l-65.8.4V495.8l74.3.5c44.1.3 78.5 1 84.7 1.6M395 1321.5v6.5h3523v-13H395zm2474.7 41.6c-18.4 2-31.5 7.6-41.8 17.8-7.5 7.5-11.2 14.4-13.4 24.6-3.8 18.1.8 36.8 12.2 49.5 8.5 9.4 18.9 15.7 43.6 26.4 22.4 9.6 30.5 14.9 35.5 23.5 2.3 4 2.7 5.7 2.7 12.6s-.4 8.6-2.8 12.7c-5.8 9.9-14.5 13.8-32.2 14.5-17.8.7-37.8-3.1-55.8-10.7l-6.7-2.8.2 16.1.3 16.2 9.8 3.3c13.3 4.5 27.1 6.4 45.7 6.4 27.4.1 44.8-5.4 58.7-18.6 12.3-11.5 16.9-23.7 16-42.6-1.1-26.2-12.4-39.2-47.2-54.4-40.4-17.6-47.5-23.6-47.5-40.1 0-8.7 2.2-13.8 8.1-18.8 6-5.2 13-7.1 25.4-7.1 11.9.1 23.2 2.3 37.6 7.3l10.5 3.8 4.7-12.1c2.5-6.7 4.9-12.8 5.2-13.7.5-1.3-.8-2.2-6.3-4.3-20.7-7.9-44.2-11.5-62.5-9.5m-2401.9 22.7c-11.1 29.9-31.5 84.7-42.3 113.7-5.1 13.7-12.9 34.7-17.3 46.5s-8.4 22.3-8.7 23.3c-.7 1.6.4 1.7 17.1 1.5l17.8-.3 1.6-4.5c.9-2.5 5.4-15.2 10-28.3l8.4-23.7 39.4.2 39.4.3 10.2 28.2 10.1 28.3h17.8c13.9 0 17.8-.3 17.4-1.3-.6-1.6-70.1-188.3-73.5-197.4l-2.7-7.3h-37zm29.7 20.1c1.4 5.2 8 25 14.6 44 6.5 19 11.9 34.7 11.9 34.8 0 .2-13.5.3-30 .3h-29.9l5.6-15.8c8.7-24.7 21-62.1 22.4-68.5.7-3.2 1.6-5.4 2-5s1.9 5 3.4 10.2m764 20.1c-17.3 3.7-29.6 14.1-32.6 27.5-.6 2.9-1 9-.7 13.6.6 10.9 3.9 17.9 12 25.4 5.7 5.3 9.1 7.2 33.9 18.8 9.9 4.6 16.1 9.2 18.3 13.6 5.2 10.1.6 21.6-10.2 25.8-10.4 4-32.6 1.7-50.1-5.2l-6.1-2.4v22l4.3 1.9c12 5.3 41.2 7.2 54.7 3.7 18.5-4.9 29-14.9 32.1-30.5 2.6-13.8-1.2-26.9-10.4-35.5-4.9-4.7-12.7-8.9-37-20-4.2-2-9.4-4.9-11.4-6.4-7.2-5.5-9.4-16.1-4.8-23.9 6.1-10.5 23.4-12.1 46.5-4.3 4.6 1.5 8.5 2.7 8.6 2.6 0-.1 1.7-4.3 3.7-9.2l3.6-9-5-2.2c-9.1-4.2-20.6-6.5-33.4-6.9-6.6-.2-13.8.1-16 .6m690 .5q-29.25 6.45-41.4 31.8c-6 12.5-7.6 21.2-7.6 40.7.1 13.6.5 18.1 2.3 25.4 6 24 20.9 39.9 42.9 45.7 10.3 2.8 31.7 3 41.3.6 22.4-5.8 38.7-22.3 44.5-45.2 4-15.6 4-38.2-.1-53.8-6.3-24.3-23.3-40.7-46.8-45.2-9.4-1.8-26.9-1.8-35.1 0m36.2 22c7 3.1 13.8 9.6 17.3 16.5 7.1 14 8.8 37.8 3.9 56.8-3.3 13-9.4 21.4-19.3 26.2-11.5 5.7-27.1 6.1-39 1.1-16.1-7-24.5-26.7-23.3-55.1 1-23.5 8-37.5 22.4-44.9 6.6-3.3 11-4 21.8-3.7 8.4.2 11 .7 16.2 3.1m485.8-22c-10.8 2.4-22.7 8.6-29.9 15.9-14.6 14.6-21.5 39.5-18.7 67.2 3.4 33.4 19.1 53.8 47.1 61 8.9 2.3 30 2.3 39.4 0 11.7-2.8 19.3-7.1 27.7-15.5 8.6-8.6 13.5-17.4 17.1-30.6 1.8-6.8 2.1-10.7 2.1-26 0-15.4-.3-19.2-2.1-25.9-6.3-22.8-18.8-36.9-39.2-44-7.6-2.6-10-3-22.5-3.2-9.8-.3-16.1.1-21 1.1m35.8 21.5c10.5 4 18.4 13.9 22.4 28.3.7 2.9 1.7 10.4 2 16.8 1.4 28.1-6.4 47.7-22 55.3-16 7.8-40.4 4.1-50.1-7.7-8.7-10.6-11.9-22.1-11.9-42.2 0-29.7 9.4-46.4 29.3-52 7.8-2.1 22.7-1.4 30.3 1.5m1131.4-22c-23.3 4-41.5 16.6-50.5 35-6.6 13.4-7.7 18.9-7.7 38 0 19.9 1.6 28 8.1 40.9 12.4 24.9 35.9 35.3 72.7 32.2 13.2-1.1 22.6-2.8 32.4-5.6l5.3-1.6V1493h-53v20h29v18.4c0 15.6-.2 18.5-1.5 19-.9.3-6.5 1.1-12.5 1.8-18.6 2-31.8-1.3-41.8-10.6-9.9-9.2-14.4-22.2-14.6-41.6-.1-17.9 3.9-29.9 13.3-40.2 13.4-14.7 37.4-18.7 61.1-10.4 4.1 1.5 8.1 2.8 8.9 2.9.9.1 2.8-3 5.3-8.7 2.1-5 3.8-9.3 3.8-9.7 0-1.1-15.4-5.8-24.5-7.4-9.2-1.6-25.7-1.8-33.8-.5m207.1 0c-20.2 3.4-37.3 15.8-45.7 33.1-7.2 14.9-10 32.6-8.1 51 4.5 45 30.5 66.2 75.9 62 6.2-.6 14.9-2 19.2-3.2l7.9-2.1v-20.5l-8.7 2.4c-37.8 10.1-60.1.6-68-29-2.4-8.8-2.3-31.8.1-40.7 8.2-30 33.8-41.3 65.2-28.7 4.6 1.9 8.6 3.2 8.8 2.8 2.6-4.8 7.6-18.5 7-19.1-1.9-1.9-14.8-6.1-23-7.5-9.2-1.6-22.7-1.8-30.6-.5m-2245.1 71.7c-14.7 39.5-26.7 72.2-26.7 72.6s5.5.6 12.2.5l12.2-.3 7-19.8 6.9-19.7h55.2l7 19.8 7 19.7 12.7.3 12.6.3-2.8-7.3c-1.5-4-13.7-36.7-27-72.6l-24.3-65.2h-25.3zm49.8-18.6c5.5 16.6 10.2 30.5 10.3 31 .2.5-8.4.9-20.2.9-14.2 0-20.6-.3-20.6-1.1 0-.6 4.3-13.8 9.5-29.3s9.5-28.9 9.5-29.9c0-4.9 2.4 1 11.5 28.4m1605.8-51.9c-.5.7-6 14.8-12.1 31.3s-17.9 48.2-26.2 70.4c-8.2 22.2-15 40.7-15 41.2 0 .6 5.2.8 12.1.7l12.1-.3 3.2-9c1.8-5 5-13.8 7-19.8l3.8-10.7 27.6.2 27.5.3 7.1 19.5 7.1 19.5 12.3.3c7.4.2 12.2-.1 12.2-.7 0-.5-.5-2.2-1.1-3.8-1.5-3.9-27-72.2-39.6-106.3-5.8-15.7-11.2-29.7-11.9-31.3l-1.5-2.7h-11.8c-8.3 0-12.1.4-12.8 1.2m15.1 28.5c1.1 3.8 5.7 17.5 10.3 30.7 4.6 13.1 8.3 24 8.3 24.2s-9.2.4-20.5.4c-15.8 0-20.5-.3-20.5-1.3 0-.6 4.3-13.8 9.5-29.2s9.5-28.8 9.5-29.8c0-3.7 1.6-1.4 3.4 5M611 1499.1v72.1l28.3-.5c21.1-.4 30.1-.9 35.7-2.2 27.8-6.2 45.1-23.4 51.1-51 .8-3.5 1.3-11.9 1.3-20.5-.1-16.8-2-25.7-7.9-36.8-9.4-18-26.3-28.8-49.9-32.1-4.2-.6-19.2-1.1-33.2-1.1H611zm58.2-51c22.2 4.7 33.8 22.1 33.8 50.7-.1 16.5-4.3 29.3-12.7 38.3-9.1 9.7-18.6 12.9-40.5 13.6l-15.8.6V1447h15c8.2 0 17.3.5 20.2 1.1M761 1499v72h21.3l-.5-58.3c-.3-32-.9-59.1-1.3-60.2-.5-1.4-.5-1.7.2-1 .6.5 4.5 10.9 8.7 23s13.4 38.6 20.5 59l12.9 37 10.3.3 10.4.2 7.7-21.2c4.2-11.7 13.8-38.4 21.3-59.3s13.8-38.1 13.9-38.2c.1-.2 0 26.5-.2 59.2l-.5 59.5H909v-144h-33.6l-12.8 35.7c-7.1 19.7-16.3 45.4-20.5 57-4.2 11.7-7.8 21.3-8.1 21.3s-1.9-4.2-3.7-9.3c-4.3-12.7-31.9-91.9-34.5-99l-2.1-5.7H761zm188 0v72h23v-144h-23zm63 0v72h21.2l-.4-57c-.1-31.3 0-56.6.3-56.2s6.7 10.6 14.1 22.7c7.5 12.1 20.6 33.5 29.3 47.5s18.1 29.3 21 34l5.1 8.5 14.7.3 14.7.3V1427h-22l.1 42.2c.1 23.3.4 48.7.8 56.6.3 7.8.3 14.2 0 14.2s-16.3-25.4-35.5-56.5l-34.9-56.5H1012zm160 0v72h23v-144h-23zm160-62v10h42v124h23l.2-61.8.3-61.7 21.3-.3 21.2-.2v-20h-108zm132 61.9v72.1h23v-58.1l11.8.3 11.7.3 17.1 28.5 17.2 28.5 13.1.3c7.2.1 13.1-.1 13.1-.5-.1-.4-9-14.8-19.9-31.8l-19.8-31 5.6-3c8.3-4.4 16.3-12.8 19.1-20 3.3-8.4 3.4-24.3.1-32.6-3-7.8-8.9-14.2-16.4-17.8-11.9-5.8-15.6-6.4-46.9-6.8l-28.8-.5zm53.5-50.4c12.3 3.2 17 9.3 17 21.5 0 6.4-.5 8.3-2.8 12.3-5.1 8.6-13.8 11.7-33.2 11.7H1487v-47h12.3c7.9 0 14.4.6 18.2 1.5M1714 1437v10h42v124h23v-124h43v-20h-108zm132 62v72h23v-144h-23zm223 0v72h22v-42.3c0-23.2-.5-48.9-1-57.1-.6-8.2-.9-15-.7-15.3.2-.2 4.4 6.3 9.4 14.4 5 8.2 19.7 32.1 32.8 53.3s25 40.4 26.4 42.7l2.6 4.3h28.5v-144h-21.2l.4 56.9c.2 31.3 0 56.4-.4 55.8-.4-.7-16.2-26.2-35.1-56.7l-34.4-55.5-14.7-.3-14.6-.3zm253 0v72h23v-59h55v-20l-27.2-.2-27.3-.3-.3-22.3-.2-22.2h58v-20h-81zm270-.1v72.1h23l.2-28.8.3-28.7 11.5-.3 11.5-.2 17.3 29 17.3 29h26.9l-4.7-7.3c-2.5-3.9-9.2-14.4-14.8-23.2s-12.7-19.9-15.7-24.6l-5.6-8.6 5.1-2.5c8-3.9 15.2-10.9 18.9-18.6 3.1-6.3 3.3-7.2 3.3-17.7-.1-9-.5-12-2.3-16.6-3-7.5-8.7-13.8-16-17.7-10.6-5.7-15.7-6.4-47.4-6.9l-28.8-.5zm53.5-50.4c12.6 3.3 16.9 8.8 17 21.5 0 6.2-.4 8.3-2.5 12-4.9 8.8-10.9 11-30.7 11.7l-14.3.5V1447h12.3c7.8 0 14.4.6 18.2 1.5M2961 1437v10h42v124h23v-124h43v-20h-108zm132 62v72h23v-58.1l11.7.3 11.7.3 17.1 28.5 17.1 28.5 13.2.3c7.3.1 13.2-.1 13.2-.5-.1-.4-9-14.7-20-31.8l-19.8-31 5.6-3c8.1-4.2 16.5-13 19.3-20.2 3-7.6 3.3-23.2.6-30.8-3.8-10.9-11.9-18.4-24.1-22.4-9.7-3.3-18.5-4.1-44.3-4.1H3093zm57-49.6c9.2 3.4 13.3 9.7 13.4 20.1.2 17.6-9.7 24.4-35.6 24.5H3116v-47.2l14.8.4c10.4.4 16 1 19.2 2.2m192-12.4v10h43v124h23v-124h42v-20h-108zm132 62v72h82v-20h-58v-45h54v-20h-54v-39h58v-20h-82zm263 0v72h24v-144h-24zM394 1623.5v6.5h3522.8l.3-3.3c.2-1.7.3-4.7.1-6.5l-.3-3.2H394zm32 146.9V1873h34v-76.8l21.3-.5c18.6-.4 22.4-.8 30.9-3 32.4-8.5 49.8-30.4 49.8-62.6 0-18.5-5.1-32.5-15.9-43.1-8-7.9-15.9-12.3-28.8-15.7-9.7-2.6-10.3-2.7-50.5-3.1l-40.8-.4zm74.3-72.9c18.3 3.9 26.7 14.4 26.7 33.5 0 19-8.1 29.5-26.7 34.6-3.7 1-12 1.8-23 2.1l-17.3.6V1696h16.8c10.6 0 19.2.6 23.5 1.5m2337.7 73V1873h33v-82h33.6l24.5 41 24.4 40.9 19.2.1h19.3l-8.2-12.8c-4.4-7-16.3-25.5-26.3-41.2s-19.3-30.3-20.8-32.6l-2.5-4.1 6.1-3c15.3-7.6 26.6-19.9 31-33.8 2.9-9.2 3.1-27.9.3-37-5.8-19.1-19.8-31.8-40.6-36.9-12.6-3-20.9-3.6-56.7-3.6H2838zm79-71.7c15.6 5.1 21.9 13.4 22 29.3 0 13.9-4.8 23.5-14.6 29.1-7.9 4.4-16.5 5.8-36.1 5.8H2871v-67.3l19.8.5c16.3.5 20.8.9 26.2 2.6m-1081.5 28.8c-1.1.2-4.5.9-7.5 1.5-12.3 2.5-22.3 9.7-27.2 19.7-3.1 6.3-3.3 7.3-3.3 17.2 0 9.7.2 11 3.1 17 5.4 11.3 13.6 17.7 33.2 26.1 14.8 6.4 21.3 10.1 25 14.3 8.4 9.6 5.8 23.3-5.5 28.6-10.4 4.9-31.1 3.5-49.5-3.4l-8.8-3.3v22.6l7.9 2.5c4.4 1.4 11.7 3 16.2 3.6 32.1 4 55.9-4.6 64.5-23.3 2.6-5.6 2.9-7.2 2.9-16.7 0-9.3-.3-11.2-2.7-16.2-5-10.8-13.4-16.9-36.3-26.8-15.9-6.9-22.4-11.3-25.2-17-6.4-12.6 1.1-24.5 16.8-26.5 6.8-.8 20.9 1.4 30.9 5.1 3.9 1.4 7.3 2.4 7.5 2.2.3-.3 7.5-18 7.5-18.4 0-.7-12.4-4.8-19.5-6.5-7.7-1.9-25.9-3.3-30-2.3m111 .8c-15.1 2.9-27.1 11.7-31.5 23.1-1.7 4.6-2.3 8.1-2.3 14.5 0 20.3 9.7 31.5 37.4 43.4 23.6 10.1 29 15 29 26.1 0 9.3-4.8 15.2-14.9 18.1-10.6 3.1-31.2.5-47.2-5.9l-6-2.5v22.7l8 2.5c10.6 3.4 24.3 5 36.5 4.2 17.4-1 28.1-5 37-14 7.1-7.1 9.8-14.1 9.9-26.1.1-11.5-2-17.7-8.2-24.6-6.1-6.8-12.1-10.6-28.8-17.9-25.1-11.2-29.4-15-29.4-26.7 0-17.3 19.8-22.7 48.3-13.2 4.9 1.7 9 2.9 9.1 2.7.2-.2 1.9-4.4 3.8-9.5l3.5-9.2-7.1-2.5c-15.9-5.7-34-7.7-47.1-5.2m1223-.8c-1.1.2-4.5.9-7.5 1.5-11.9 2.4-21.9 9.5-27 19.1-3 5.5-3.5 7.4-3.8 15.4-.6 13.7 2.6 22.2 11.9 31 6 5.7 11.2 8.7 24.8 14.6 14.7 6.3 21.2 10 24.9 14.2 7.7 8.8 6.4 20.7-3.1 27.2-9.9 6.7-34 5.4-54.7-2.9l-6-2.5v22.7l7.9 2.5c20.4 6.5 46.3 5.9 61.6-1.2 8.6-4.1 14.8-10 18.8-18.1 3-6.1 3.2-7.2 3.2-17.1 0-8.7-.4-11.3-2.2-15.3-5.2-11.2-12.1-16.7-32.8-25.9-22.4-10-26.8-12.9-29.7-19.6-2.5-5.5-2-13 .9-17 7.5-10.1 23.7-11.5 45.6-4.1 4.9 1.7 9 2.9 9.2 2.7s2-4.4 3.9-9.3l3.4-9-4-1.8c-10.3-4.8-37.3-9-45.3-7.1m257 .9c-24.4 4.6-42.3 22.1-48.2 47.2-2.6 11-2.6 38.5 0 49.8 5.7 24.6 21.6 41.5 44.5 47.2 9.4 2.4 32.3 2.3 41.1-.1 21.8-5.9 36.6-21.1 43.3-44.1 2-7.1 2.3-10.2 2.3-27.5 0-17.4-.2-20.4-2.3-27.5-6.7-22.9-21.5-38.2-42.7-44-8.6-2.3-28.1-2.8-38-1m32.5 21c15 5.3 24 19.7 25.9 41.5 1.6 19.8-1.4 36.9-8.5 47.7-6.3 9.7-15.7 14.8-29.1 16-18.5 1.5-33.5-6.3-40.4-21.1-7.7-16.5-7.9-47.9-.5-64.2 5-10.8 15.1-18.9 26.9-21.4 5.8-1.3 20.3-.4 25.7 1.5m278.7-21.5c-18.3 3.3-30.4 12.4-34.3 25.7-2.2 7.7-1.6 22 1.3 28.5 5.1 11.2 14.5 18.7 33.7 26.8 23.6 9.9 29.9 15.6 29.9 26.5 0 7.7-3.4 12.9-11.3 17.1-2.9 1.6-5.6 1.9-16.5 1.8-13.8-.1-22-1.7-34.5-6.7l-6-2.5v22.7l8 2.5c20.8 6.6 47.9 5.7 63.3-2 15.2-7.7 22.9-23.8 19.9-41.5-2.8-16.5-10.9-23.8-39.7-36.3-20-8.7-26.5-14.6-26.5-24.3 0-5.5 1.4-9.1 5.2-13 7.3-7.6 22.8-7.9 43.3-1.1 4.9 1.7 9.1 2.6 9.3 2.2.1-.5 1.8-4.7 3.6-9.4l3.4-8.5-4-1.8c-11.7-5.4-36.5-8.8-48.1-6.7M602 1800.9v72.1h24v-57h22.9l17.1 28.5 17.1 28.5h26.8l-19.5-30.5c-10.7-16.8-19.7-31.2-20-32-.4-.9.1-1.8 1.2-2.2 3.7-1.3 12-7.1 15.7-10.9 2.1-2.1 5-6.4 6.5-9.4 2.5-5 2.7-6.5 2.7-17.5 0-10.9-.2-12.5-2.6-17.6-5.3-11.2-13.1-17.2-27.6-21-6.7-1.8-11.6-2.2-36-2.6l-28.3-.6zm50.5-50.8c13.9 2.5 20.2 9.2 20.4 21.4.1 7-1.5 12-5.2 16.2-5.5 6.3-10.1 7.7-26.9 8.1l-14.8.4V1749h10.3c5.7 0 13 .5 16.2 1.1M736 1801v72h81v-20h-58v-45h54v-20h-54v-39h58v-20h-81zm117-.1v72.1h24v-54h13.3c15.8 0 24.6-1.7 34.4-6.5 17-8.4 24-21.4 23.1-43.1-.3-8.1-.9-11-3.1-15.9-3.5-7.5-9.5-13.8-16.9-17.6-10.4-5.3-15.7-6-46.5-6.6l-28.3-.6zm57.8-49c9.8 4.4 13.8 11.8 13 24.3-.9 11.8-7.3 19.1-19 21.7-2.6.6-9.9 1.4-16.2 1.7l-11.6.7v-51.5l14.3.4c12.1.4 15 .8 19.5 2.7m105.4-21.2c-.4 1-12.4 33.3-26.8 71.8l-26.1 70 12 .3c6.6.1 12.2 0 12.5-.2.3-.3 3.5-9.2 7.2-19.8l6.7-19.3 27.5-.3c21.5-.2 27.7 0 28.1 1 .2.7 3.5 9.7 7.2 20l6.7 18.8h12.5c9.6 0 12.4-.3 12-1.3-.2-.6-12.3-33-26.8-72l-26.4-70.7h-12.8c-11.2 0-12.8.2-13.5 1.7m16.7 29.9c1.7 5.4 6.2 18.9 10 29.9 3.9 10.9 7.1 20.5 7.1 21.2 0 1-4.4 1.3-20.6 1.3-18.2 0-20.5-.2-20-1.5 3.2-8.4 19.6-58.5 19.6-60 0-3.2.9-1.2 3.9 9.1m87.1 40.3v72.1h24v-57.1l11.7.3 11.7.3 16.9 28.2 17 28.3h13.4c10.9 0 13.3-.2 12.6-1.3-.4-.8-9.5-15-20.2-31.6-10.6-16.6-19.2-30.3-19-30.5.2-.1 3.1-1.8 6.4-3.6 7.9-4.5 14-10.8 17.3-17.8 2.5-5.2 2.7-6.8 2.7-17.7 0-11.1-.2-12.5-2.9-18.2-4.9-10.6-12.9-16.6-27.4-20.5-6.6-1.7-11.7-2.1-35.9-2.5l-28.3-.6zm52.4-50.4c13.1 2.8 18.6 9.2 18.6 21.6-.1 10.4-4.6 17.7-13.5 21.5-3 1.3-7.6 1.9-18.7 2.2l-14.8.4V1749h10.8c5.9 0 13.8.7 17.6 1.5m81.6 50.5v72h81v-20h-58v-45h55v-20h-55v-39h58v-20h-81zm117.7-71.3c-.4.3-.7 32.8-.7 72.1v71.4l29.3-.5c25.8-.4 30.2-.7 37.7-2.6 25.1-6.4 41.3-22.3 47.6-46.6 1.4-5.4 1.9-10.8 1.9-23.5 0-14.2-.3-17.6-2.3-24.5-3.2-11-8.3-19.8-16.1-27.5-10.6-10.5-23.6-16-42.6-18-10.2-1.1-53.8-1.4-54.8-.3m56.4 20.3c3 .6 8.1 2.3 11.5 3.9 16.4 7.7 23.4 21.7 23.4 46.6 0 27.7-8.6 42-29.6 49.6-4.8 1.8-8.9 2.3-22.1 2.7l-16.3.4V1749h13.9c7.6 0 16.2.5 19.2 1m95.9 51v72h21.2l-.4-57c-.1-31.3 0-56.6.3-56.2s8.6 13.7 18.5 29.7c9.8 15.9 25.3 41.1 34.4 56l16.7 27 14.6.3 14.7.3v-144.2l-10.7.3-10.8.3.1 51c0 28 .4 53.6.7 56.8.4 3.2.4 5.6-.1 5.4-.4-.3-16.5-26-35.7-57.1l-35-56.6H1524zm163 0v72h81v-20h-58v-45h54v-20h-54v-39h58v-20h-81zm527-.9c-14.6 39.2-26.6 71.6-26.8 72-.2.5 5.2.9 12.1.9h12.4l7-19.8 6.9-19.7 27.6-.3 27.5-.2 6.3 17.7c3.5 9.8 6.7 18.8 7.2 20 .7 2.2 1.2 2.3 13.3 2.3h12.5l-3.3-8.8c-1.7-4.9-13.8-37.3-26.7-72l-23.5-63.2h-26zm60 12.1c0 .5-9.2.8-20.5.8s-20.5-.3-20.5-.6c0-.4 3.8-11.5 8.4-24.8 4.5-13.2 9.1-27.1 10.1-30.7l1.7-6.7 10.4 30.7c5.7 16.8 10.4 30.9 10.4 31.3m70-11.2v72h21.2l-.3-57c-.2-31.3-.1-56.6.2-56.2s11 17.6 23.7 38.2c12.6 20.6 28.1 45.8 34.4 56l11.5 18.5 14.6.3 14.7.3V1729h-22l.1 42.2c.1 23.3.4 48.9.8 57 .3 8.1.2 14.3-.2 13.9-.9-.9-8.3-12.9-45.7-73.4l-24.5-39.7H2344zm163 0v72h24.3c38.9 0 54.5-3.6 69.5-16.2 13.4-11.2 20.3-26 22.2-47.8 4-45.1-18.3-74.2-60.3-78.9-5.3-.6-20-1.1-32.7-1.1h-23zm58.3-50.5c21.8 4.6 33.6 22.2 33.6 50 0 28.3-12.5 46.1-35.7 51.1-3.8.8-12.4 1.4-19.9 1.4H2530v-104h14.3c8.5 0 16.9.6 21 1.5M3021 1801v72h81v-20h-58v-45h54v-20h-54v-39h58v-20h-81zm233 0v72h23v-53.7l16.8-.6c18.1-.5 23.4-1.6 33.4-6.9 15.3-8.1 22.9-23.3 21.5-43.2-1.6-23.3-15-35.5-42.2-38.5-5.2-.6-19.1-1.1-31-1.1H3254zm57.5-49.2c6.1 2.8 8.2 4.6 10.7 9.6 4.7 9.2 3.2 22.1-3.5 29.3-5.6 6-13.2 8.3-29.2 8.6l-12 .2-.3-25.4-.2-25.3 14.7.4c12.7.3 15.5.7 19.8 2.6m235.2-22.1c-.4.3-.7 32.7-.7 72v71.3h22v-39.8c0-21.8-.5-47.3-1-56.6-.6-9.3-.8-17.1-.6-17.3.4-.4 4.8 6.6 36.6 58.2 9.5 15.4 21.1 34.2 25.8 41.7l8.5 13.8h28.7v-144.1l-10.7.3-10.8.3-.3 30.5c-.1 16.8.2 42.2.7 56.5s.8 26.1.6 26.3-6.2-9.4-51.5-82.6l-19.4-31.2H3561c-7.5 0-14 .3-14.3.7M3825 1801v72h81v-20h-58v-45h54v-20h-54v-39h58v-20h-81zM395 1922.5v6.5h3523v-13H395z"/></svg>