<svg width="2558.572" height="628.714" viewBox="0 0 2558.572 628.714" xmlns:xlink="http://www.w3.org/1999/xlink" xmlns="http://www.w3.org/2000/svg" aria-labelledby="cdc-logo-title"><title id="cdc-logo-title">Centers for Disease Control and Prevention logo</title><defs><radialGradient xlink:href="#a" id="b" cx="566.494" cy="319.078" fx="566.494" fy="319.078" r="562.232" gradientTransform="matrix(1 0 0 .55934 0 140.604)" gradientUnits="userSpaceOnUse"/><linearGradient id="a"><stop style="stop-color:#000;stop-opacity:0" offset=".937"/><stop class="border" stop-color="#FFFFFF"/></linearGradient></defs><g fill="#005eaa"><path fill="#FFFFFF" d="M76.534 84.384h988.073v482.753H76.534z"/><path class="cls-5" d="M1233.747 508.223c-2.403-.484-6.296-1.813-8.653-2.954-6.158-2.981-12.776-10.504-15.43-17.54-1.814-4.809-2.163-7.388-1.816-13.45.262-4.602 1.232-9.307 2.508-12.176 2.958-6.647 9.38-13.2 15.532-15.846 7.096-3.053 15.892-3.653 23.045-1.574 3.12.907 7.25 3.034 9.178 4.726 1.927 1.693 3.5 3.368 3.497 3.724 0 .355-1.567 1.708-3.474 3.007l-3.467 2.36-3.071-2.584c-1.69-1.421-4.902-3.077-7.14-3.68-4.384-1.18-10.813-.502-14.862 1.568-3.669 1.876-7.878 6.369-10.27 10.962-1.561 2.997-2.102 5.912-2.133 11.513-.033 5.81.44 8.401 2.1 11.5 2.727 5.095 6.816 8.973 11.542 10.947 2.045.854 6.005 1.553 8.8 1.553 5.452 0 9.95-1.798 14.029-5.607l2.547-2.378 3.453 2.993 3.453 2.993-3.87 3.46c-6.052 5.409-17.003 8.194-25.498 6.483m59.138.013c-6.617-1.323-12.61-4.364-16.74-8.493-2.085-2.085-4.97-6.305-6.41-9.377-2.224-4.743-2.618-6.946-2.605-14.587.012-7.032.479-10.01 2.137-13.622 1.167-2.543 3.789-6.467 5.825-8.72s6.25-5.35 9.362-6.878c4.956-2.434 6.782-2.773 14.661-2.728 7.168.042 9.922.502 13.53 2.257 2.493 1.213 6.185 3.568 8.206 5.234 4.888 4.03 9.595 13.808 10.395 21.597.494 4.804.15 7.72-1.576 13.406-1.877 6.178-3.06 8.118-7.891 12.95-4.071 4.071-7.1 6.132-10.674 7.264-6.706 2.124-13.104 2.72-18.22 1.697m17.196-10.73c3.41-1.873 5.912-4.263 7.988-7.63 2.475-4.014 3.089-6.218 3.39-12.166.204-4.062-.168-8.882-.845-10.933-1.56-4.73-6.305-10.103-11.063-12.53-5.696-2.906-10.934-3.401-17.08-1.614-12.429 3.613-19.398 17.443-15.501 30.76.867 2.962 2.932 7.021 4.588 9.02 4.324 5.218 10.261 7.87 17.557 7.842 4.624-.018 7.14-.648 10.966-2.75m226.335 10.745c-6.325-1.066-14.279-5.544-18.402-10.36-1.86-2.175-4.327-6.464-5.48-9.533-2.623-6.98-2.819-16.855-.473-23.916 2.297-6.917 9.88-15.167 16.784-18.261 4.203-1.884 6.99-2.362 13.77-2.362s9.567.478 13.77 2.362c6.773 3.035 14.108 10.989 16.619 18.021 2.535 7.101 2.41 16.924-.308 24.156-1.153 3.069-3.687 7.438-5.631 9.708-4.28 5-13.974 9.864-20.95 10.512-2.75.256-7.115.109-9.699-.327m15.755-9.858c2.23-1.013 5.665-3.722 7.632-6.02s4.14-6.195 4.83-8.66c.74-2.64 1.03-6.976.705-10.551-.716-7.898-4.589-14.287-11.1-18.312-4.115-2.545-5.822-2.983-11.623-2.983s-7.508.438-11.623 2.983c-6.511 4.025-10.384 10.414-11.1 18.312-.324 3.575-.035 7.91.704 10.551.69 2.465 2.865 6.362 4.831 8.66s5.401 5.007 7.632 6.02c2.366 1.075 6.347 1.842 9.556 1.842s7.19-.767 9.556-1.842m755.175 9.87c-2.622-.453-6.775-1.795-9.227-2.982-5.973-2.892-12.934-10.822-15.17-17.282-2.344-6.778-2.327-18.73.037-24.22 2.696-6.263 6.658-11.423 11.134-14.503 2.262-1.557 6.754-3.598 9.982-4.536 12.106-3.52 25.49.161 33.444 9.198 2.202 2.5 4.918 6.992 6.036 9.981 2.493 6.664 2.666 16.426.41 23.075-.894 2.632-2.905 6.646-4.47 8.92-3.243 4.714-10.604 9.962-15.847 11.297-6.146 1.566-11.393 1.904-16.328 1.052zm15.051-9.537c7.53-3.145 12.857-10.6 13.906-19.46.317-2.682.04-7.038-.616-9.681s-2.372-6.522-3.812-8.62c-1.441-2.096-4.649-5.002-7.129-6.455-3.655-2.142-5.752-2.638-11.07-2.617-4.723.018-7.725.628-10.714 2.177-2.285 1.183-5.502 3.787-7.15 5.786-1.648 2-3.545 5.595-4.216 7.99-.67 2.395-1.035 7.25-.81 10.788.314 4.923 1.109 7.563 3.385 11.245 2.153 3.483 4.452 5.583 8.324 7.606 3.937 2.057 6.778 2.794 10.766 2.794 2.98 0 7.091-.699 9.136-1.553m-979.782-22.446v-31h11.694l16.403 24.648 16.403 24.647.268-24.647.267-24.648h8.965v62h-10.887l-16.807-24.875-16.806-24.874-.267 24.874-.267 24.875h-8.966Zm82 4v-27h-20v-8h49v8h-20v54h-9zm37-3.942v-31.058l14.25.022c11.885.018 14.952.34 18.48 1.942 2.429 1.103 5.076 3.314 6.22 5.195 2.928 4.813 3.542 10.727 1.599 15.378-.894 2.14-2.396 4.76-3.337 5.822s-3.654 2.8-6.027 3.862l-4.316 1.93 1.413 2.175c1.667 2.565 10.352 16.558 13.606 21.924l2.275 3.75h-10.951l-7.73-13.5-7.73-13.5h-8.694l-.279 13.25-.279 13.25-4.25.308-4.25.307zm28.677-6.659c2.245-1.67 2.884-3.018 3.12-6.58.211-3.163-.23-5.131-1.5-6.698-2.123-2.623-7.594-4.064-15.547-4.097l-5.75-.024v20.205l8.427-.352c6.629-.278 9.03-.801 11.25-2.454m96.323 6.601v-31h8v54h29v8h-37zm62.177 29.677c.178-.728 6.173-14.686 13.323-31.018l13-29.694 4.323.267 4.323.268 12.438 29c6.841 15.95 12.689 29.788 12.994 30.75.48 1.506-.134 1.75-4.394 1.75h-4.951l-2.932-7.25-2.931-7.25-14.945-.275-14.944-.275-2.873 7.525-2.873 7.525h-4.94c-3.596 0-4.854-.36-4.618-1.323m36.683-33.92c-2.768-6.735-5.413-12.922-5.876-13.75-.683-1.22-1.032-1.032-1.836.993-.8 2.013-7.6 18.433-9.836 23.75-.403.958 2.17 1.25 11.027 1.25h11.553zm32.14 4.3v-31.057l5.75.044 5.75.044 16.5 24.576 16.5 24.577.268-24.62.267-24.621h8.965v62.1l-5.69-.3-5.69-.3-16.56-24.48-16.56-24.48-.5 24.48-.5 24.48-4.25.307-4.25.308zm68-.034v-31.193l16.75.346 16.75.345 5.138 2.7c8.99 4.721 14.02 12.476 15.87 24.457.855 5.547-1.692 15.274-5.417 20.688-1.604 2.332-4.644 5.433-6.754 6.89-7.762 5.361-10.82 6.1-27.087 6.542l-15.25.415Zm29.694 20.956c2.306-.694 5.852-2.629 7.879-4.3s4.517-4.87 5.534-7.108c1.141-2.512 1.85-6.369 1.85-10.071s-.709-7.559-1.85-10.07c-2.19-4.823-8.215-10.084-13.107-11.445-1.925-.536-7.437-.976-12.25-.98l-8.75-.005v46.281l8.25-.52c4.538-.285 10.137-1.087 12.444-1.782m61.306-20.979v-31l14.25.022c11.885.018 14.952.34 18.48 1.942 7.123 3.234 10.543 11.596 8.24 20.149-1.596 5.926-6.54 10.415-12.998 11.8-2.789.598-8.423 1.087-12.521 1.087h-7.451v27h-8zm28.678-6.6c2.244-1.67 2.883-3.02 3.12-6.58.374-5.63-1.808-8.573-7.298-9.846-2.2-.51-6.812-.937-10.25-.95l-6.25-.024v20.199l8.928-.35c7.148-.28 9.491-.768 11.75-2.45m21.322 6.531V445.14l15.93.32 15.931.318 2.82 2.092c1.55 1.15 3.831 3.58 5.069 5.398 1.585 2.329 2.25 4.769 2.25 8.257 0 2.723-.74 6.509-1.643 8.413-1.75 3.687-7.657 8.34-10.59 8.34-.971 0-1.767.407-1.767.904s3.396 6.366 7.548 13.042c4.15 6.676 7.808 12.82 8.128 13.653.483 1.258-.323 1.462-4.754 1.208l-5.335-.307-7.544-13.222-7.543-13.222-4.75-.028-4.75-.027v27h-9zm27.452-5.346c1.863-.779 3.873-2.324 4.468-3.435 1.634-3.054 1.295-8.663-.67-11.089-2.12-2.616-7.624-4.005-16-4.037l-6.25-.023v20h7.532c4.233 0 9.016-.62 10.92-1.415m26.548 5.435v-31.02h40v8h-32v18h30v8h-30v20h34.12l-.31 3.75-.31 3.75-20.75.27-20.75.27zm69.081 28.788c-3.304-8.35-20.544-53.007-21.66-56.11l-1.369-3.8 5.094.3 5.093.302 7.88 22c4.335 12.1 8.375 23.125 8.977 24.5l1.096 2.5 9.178-24.5 9.179-24.5 4.811-.308 4.812-.309-.586 1.809c-.322.994-5.733 14.858-12.025 30.808l-11.439 29-4.064.308c-3.461.262-4.2-.035-4.977-2m40.586 1.525c-.367-.366-.667-14.316-.667-31v-30.333h41v8h-32v18h30v8h-30v20h33v8h-20.333c-11.184 0-20.634-.3-21-.667m52 0c-.367-.366-.667-14.338-.667-31.047v-30.381l6.25.297 6.25.298 16.75 24.956 16.75 24.956v-50.412h9.029l-.264 30.75-.265 30.75-5.5.246-5.5.246-17-25.246-17-25.246-.267 25.25-.267 25.25h-3.816c-2.1 0-4.117-.3-4.483-.667m82 0c-.367-.366-.667-12.516-.667-27v-26.333h-19v-8h48v8h-20v54h-3.833c-2.109 0-4.134-.3-4.5-.667m36.333-30.333v-31h9v62h-9zm96.667 30.333c-.367-.366-.667-14.316-.667-31v-30.333h11.932l16.784 25.027 16.784 25.026.267-25.026.267-25.027h8.995l-.265 30.75-.264 30.75-5.5.274-5.5.275-17-25.2-17-25.198-.267 25.174-.267 25.175h-3.816c-2.1 0-4.117-.3-4.483-.667M1229.98 399.19c-4.845-1.404-12.453-6.955-16.073-11.727-1.801-2.374-4.008-6.84-4.905-9.925-3.352-11.531.083-25.763 8.096-33.546 2.07-2.01 5.845-4.68 8.39-5.933 3.84-1.893 6.241-2.278 14.127-2.267 7.95.01 10.2.384 13.792 2.291 2.36 1.254 5.24 3.229 6.401 4.39l2.11 2.11-3.319 2.709-3.32 2.71-4.292-3.026c-3.108-2.19-5.78-3.15-9.685-3.473-4.07-.338-6.587.08-10.254 1.703-2.673 1.182-5.712 2.92-6.754 3.861-1.043.942-3.06 3.962-4.483 6.712-2.107 4.073-2.587 6.39-2.589 12.5 0 5.753.503 8.467 2.167 11.653 1.192 2.285 3.781 5.483 5.753 7.109 3.844 3.168 9.426 5.241 14.089 5.232 4.97-.01 10.106-1.932 13.411-5.02 1.752-1.635 3.474-2.958 3.829-2.938.354.02 1.899 1.063 3.432 2.318 1.795 1.47 2.57 2.852 2.176 3.88-.85 2.214-7.098 6.38-12.34 8.225-4.752 1.674-14.755 1.902-19.76.452m324.629.155c-3.943-1.2-8.34-3.686-10.248-5.795l-1.75-1.933 3.906-3.14c3.15-2.53 4.02-2.845 4.487-1.626.754 1.965 8.304 5.378 11.96 5.406 1.567.012 4.435-.73 6.373-1.65 4.375-2.077 7.002-7.444 5.382-10.999-1.326-2.91-6.116-5.913-12.496-7.833-8.084-2.433-13.18-5.98-15.512-10.798-1.153-2.381-2.086-5.875-2.074-7.764.035-5.508 3.327-11.475 8.06-14.607 3.467-2.294 5.584-2.872 11.64-3.178 5.227-.264 8.668.11 11.717 1.275 2.374.906 5.159 2.58 6.188 3.72l1.873 2.071-3.347 2.797-3.347 2.796-3.653-2.496c-3.059-2.09-4.517-2.425-8.968-2.066-3.993.323-5.946 1.06-7.85 2.964-1.834 1.834-2.535 3.598-2.535 6.378 0 2.904.639 4.393 2.614 6.092 1.438 1.237 5.634 3.181 9.326 4.321 3.69 1.14 8.576 3.166 10.855 4.502 2.397 1.405 4.832 3.877 5.775 5.864.896 1.89 1.62 5.167 1.608 7.284-.029 5.099-2.947 11.304-6.867 14.602-1.745 1.469-4.847 3.135-6.892 3.703-4.247 1.18-12.524 1.235-16.226.11m135.006.057c-9.723-3.194-17.488-10.493-20.962-19.704-1.828-4.847-2.155-7.368-1.806-13.919.322-6.04 1.057-9.225 2.998-13 1.414-2.75 4.258-6.68 6.32-8.733 5.727-5.702 11.54-8.08 20.909-8.554 6.443-.326 9.15.011 13.62 1.698 3.069 1.158 7.438 3.695 9.708 5.639 2.466 2.11 5.455 6.228 7.421 10.221l3.292 6.687-.028 8.021c-.023 6.474-.524 9.09-2.601 13.567-1.415 3.05-4.02 7.194-5.79 9.21-1.77 2.015-5.726 4.89-8.791 6.39-4.408 2.157-7.268 2.787-13.682 3.013-4.46.157-9.233-.085-10.608-.536m16.065-8.125c4.849-1.346 11.81-7.511 14.049-12.442 2.502-5.51 2.495-16.648-.014-22.056-2.294-4.943-7.402-9.899-12.318-11.95-9.407-3.923-21.605-.056-27.461 8.706-7.048 10.547-4.664 27.091 4.884 33.89 6.296 4.483 13.68 5.847 20.86 3.852m207.435 7.418c-2.2-.785-5.35-2.514-7-3.844l-3-2.417 3.41-3.54 3.41-3.54 3.319 2.913c1.825 1.602 4.946 3.219 6.936 3.592 4.805.901 10.83-1.009 13.371-4.239 1.13-1.436 2.054-3.92 2.054-5.521 0-1.707-.955-3.866-2.309-5.22-1.27-1.27-6.01-3.541-10.534-5.048-8.266-2.753-13.231-5.953-15.336-9.886-2.053-3.838-2.768-9.073-1.756-12.87.543-2.038 2.195-5.14 3.67-6.893s4.5-4.014 6.724-5.023c4.501-2.045 13.897-2.464 19.615-.876 1.966.546 4.644 2.132 5.952 3.524l2.377 2.53-3.046 3.046-3.046 3.047-3.795-2.576c-2.477-1.68-5.153-2.575-7.705-2.575-4.537 0-9.305 2.187-10.781 4.945-1.157 2.162-1.344 6.073-.407 8.516.79 2.057 6.696 5.085 14.8 7.588 3.466 1.07 7.497 2.887 8.959 4.037s3.324 3.379 4.138 4.953 1.48 5.207 1.48 8.073c0 7.454-3.416 12.92-10.182 16.291-3.98 1.983-6.641 2.578-11.264 2.518-3.33-.043-7.854-.72-10.054-1.505m166.03-.01c-2.184-.8-5.223-2.654-6.754-4.12l-2.784-2.668 2.691-2.809c1.48-1.545 3.105-2.809 3.61-2.809s2.234 1.107 3.842 2.46 4.529 2.762 6.49 3.13c4.757.892 10.792-1.033 13.321-4.249 1.13-1.436 2.054-4.092 2.054-5.903 0-2.333-.739-3.874-2.535-5.287-1.394-1.096-5.947-3.14-10.117-4.543-4.17-1.402-9.152-3.747-11.071-5.21s-4.117-4.163-4.883-5.998c-1.771-4.238-1.784-10.531-.03-14.729 1.687-4.037 6.406-8.11 11.247-9.708 2.178-.718 6.637-1.018 10.997-.738 5.832.375 8.186 1.035 11.495 3.224l4.16 2.754-3.474 3.475-3.475 3.475-3.797-2.577c-4.381-2.973-10.046-3.388-14.537-1.066-5.655 2.925-6.655 8.969-2.219 13.405 1.693 1.693 6.014 3.845 11.164 5.56 10.185 3.392 14.766 7.166 16.138 13.295a18.56 18.56 0 0 1-4.996 17.163c-1.988 1.988-5.457 4.167-7.707 4.841-5.378 1.611-13.877 1.445-18.83-.368m-806.863-.073c-.367-.366-.667-14.541-.667-31.5v-30.833h40v9h-31v18h29v8h-29v19h33v9h-20.333c-11.184 0-20.634-.3-21-.667m52.047.048c-.393-.393-.714-14.59-.714-31.548v-30.833l5.75.024 5.75.025 16.5 24.874 16.5 24.874.5-24.648.5-24.649 4.25-.308 4.25-.307v63.115h-4.826c-3.739 0-5.28-.507-6.846-2.25-1.111-1.237-8.952-12.544-17.424-25.125l-15.402-22.875-.5 24.875-.5 24.875-3.536.298c-1.944.163-3.857-.024-4.25-.417m82 0c-.393-.393-.714-12.548-.714-27.011v-26.298l-9.75-.286-9.75-.286-.307-4.25-.308-4.25h49.23l-.307 4.25-.308 4.25-9.734.286-9.733.286-.267 26.714-.266 26.714-3.536.298c-1.944.163-3.857-.024-4.25-.417m36.286-30.86v-31.521h40v9h-31v18h29v8h-29v18.95l16.25.275 16.25.275v8l-20.75.27-20.75.27zm52-.073v-31.666l14.75.401c16.162.44 18.892 1.226 23.57 6.786 1.478 1.756 2.846 4.958 3.24 7.578 1.266 8.444-3.728 16.496-11.837 19.084l-2.777.887 8.147 12.991c4.48 7.145 8.366 13.553 8.634 14.241.35.9-.927 1.25-4.552 1.25-5.888 0-5.477.453-15.215-16.75l-6.368-11.25h-8.536l-.278 13.75-.278 13.75-4.25.308-4.25.307zm28.946-6.278c1.346-.993 2.77-3.017 3.167-4.499.396-1.48.276-4.299-.266-6.262-.74-2.68-1.831-3.922-4.384-4.989-1.915-.8-6.686-1.42-10.93-1.42h-7.533v20.295l8.75-.66c6.05-.455 9.505-1.216 11.196-2.465m97.507 36.57c-.266-.694-.364-14.757-.218-31.25l.265-29.99h39v8l-15.25.276-15.25.276v18.948h29.12l-.31 3.75-.31 3.75-14.25.277-14.25.278v26.945h-4.031c-2.322 0-4.237-.535-4.516-1.26m121.547-30.292V336.06l14.75.401c11.282.307 15.486.795 17.88 2.073 7.778 4.153 11.092 12.948 7.965 21.135-.905 2.37-2.666 5.267-3.915 6.44-1.248 1.172-3.945 2.712-5.994 3.421l-3.725 1.29 8.139 12.979c4.477 7.138 8.368 13.567 8.648 14.286.39.998-.76 1.234-4.87 1l-5.378-.307-8-13.75-8-13.75h-8.444l-.278 13.75-.278 13.75-4.25.308-4.25.307zm28.946-6.279c3.164-2.335 4.335-6.737 2.932-11.017-1.458-4.448-5.71-6.153-15.346-6.153h-7.532v20.295l8.75-.66c6.05-.455 9.505-1.216 11.196-2.465m47.804 37.277c-.412-.429-.75-14.71-.75-31.733v-30.953l15.75.429c13.54.368 16.444.74 20.695 2.65 2.72 1.22 6.405 3.334 8.19 4.695s4.615 5.285 6.29 8.72c4.009 8.22 4.832 15.626 2.594 23.332-.944 3.252-2.985 7.638-4.535 9.746s-4.542 5.074-6.65 6.59c-7.12 5.117-11.733 6.29-26.834 6.816-7.7.27-14.337.138-14.75-.292m32.25-10.865c4.85-2.517 7.866-5.441 10.097-9.792 1.314-2.562 1.903-5.792 1.903-10.434 0-8.82-2.596-14.284-8.849-18.626l-4.651-3.23-11.25-.336-11.25-.336v45.399l10.25-.414c7.305-.296 11.256-.937 13.75-2.23m33-20.025v-31.557h9.029l-.265 31.25-.264 31.25-4.25.308-4.25.307zm72-.037v-31.52h40v9h-31v18h29v8h-29v18.95l16.25.275 16.25.275v8l-20.75.27-20.75.27zm48 30.261c0-1.226 23.09-54.362 25.894-59.587 1.006-1.877 1.924-2.25 4.921-2l3.685.306 13.093 30.5c7.201 16.775 12.775 30.866 12.386 31.314s-2.628.673-4.977.5l-4.269-.314-3.02-7.75-3.021-7.75-14.596.003-14.596.003-3.034 7.747-3.034 7.746-4.716.305c-3.408.221-4.716-.063-4.716-1.023m40.729-24.031c-4.4-11.33-10.201-24.75-10.7-24.75-.49 0-6.432 13.754-10.862 25.143-.184.471 4.702.857 10.857.857 8.544 0 11.075-.296 10.705-1.25m77.271-6.23v-31.52h40v9h-31v18h29v8h-29v18.95l16.25.275 16.25.275v8l-20.75.27-20.75.27zm-245.804-77.356c-2.917-1.041-6.67-3.192-8.341-4.779s-4.01-4.685-5.197-6.885l-2.158-4-.316-23.25-.317-23.25h14.133v20.25c0 17.276.258 20.764 1.75 23.75.962 1.925 3.345 4.355 5.296 5.4 2.664 1.426 4.497 1.72 7.361 1.183 2.098-.394 4.853-1.753 6.12-3.022 1.27-1.268 2.791-4.05 3.384-6.183.592-2.133 1.079-12.315 1.082-22.628l.007-18.75h14v19.95c0 10.974-.491 22.243-1.092 25.044-.608 2.835-2.496 6.932-4.26 9.244-4.364 5.723-10.966 8.93-19.394 9.424-4.904.287-8.207-.124-12.058-1.498m295.128.397c-4.683-1.465-11.324-5.297-11.324-6.534 0-.446 2.086-3.13 4.635-5.966l4.635-5.156 2.115 1.981c2.423 2.269 6.808 4.114 9.779 4.114 1.119 0 3.564-.726 5.435-1.614 2.875-1.364 3.401-2.135 3.401-4.98 0-2.884-.536-3.637-3.75-5.266-2.062-1.046-6.361-2.72-9.553-3.72-7.39-2.316-13.32-7.303-14.676-12.343-1.098-4.077-.517-9.036 1.533-13.077 1.81-3.57 6.375-7.656 10.446-9.352 6.124-2.55 12.237-2.959 18.869-1.26 5.854 1.5 11.155 4.113 11.11 5.477-.01.35-1.949 2.84-4.307 5.534l-4.286 4.9-2.755-1.805c-3.625-2.376-10.47-2.484-13.924-.221-3.096 2.028-3.507 5.185-1.033 7.92.92 1.016 5.416 2.99 9.99 4.385 9.787 2.985 14.562 6.834 16.248 13.095.815 3.027.814 5.509-.01 9.331-.825 3.847-2.12 6.21-4.956 9.046-6.271 6.271-17.823 8.575-27.626 5.51zm254.757-.09c-2.98-.834-6.874-2.416-8.653-3.515-5.17-3.196-10.02-9.249-12.307-15.363-2.542-6.793-2.777-16.02-.595-23.367.839-2.826 2.995-7.07 4.79-9.432 4.437-5.834 12.293-10.364 20.53-11.836 5.127-.916 8.003-.924 12.298-.032 6.02 1.25 14.883 6.217 14.813 8.302-.023.7-2.268 2.989-4.989 5.086l-4.946 3.815-2.261-1.59c-1.244-.873-3.948-2.045-6.011-2.602-8.744-2.364-18.548 4.23-20.614 13.866-1.15 5.365-.594 11.225 1.454 15.299 2.018 4.014 7.976 8.726 11.985 9.478 4.586.86 10.567-.906 13.545-4.001l2.307-2.397 4.036 2.944a639 639 0 0 1 5.976 4.407l1.938 1.464-2.806 2.929c-1.543 1.61-5.116 3.922-7.938 5.137-6.528 2.808-15.54 3.37-22.552 1.408m98.257-.091c-2.839-.873-6.552-2.778-8.25-4.234l-3.09-2.646 5.16-5.342c4.132-4.278 5.328-5.041 6.005-3.831.465.83 2.86 2.28 5.323 3.22 4.978 1.902 9.76 1.445 12.698-1.214.999-.904 1.816-2.666 1.816-3.915 0-1.263-1.169-3.192-2.63-4.342-1.447-1.138-5.61-2.96-9.25-4.049-3.641-1.089-8.243-3.088-10.227-4.442s-4.346-4.02-5.25-5.925c-.904-1.904-1.643-5.165-1.643-7.245 0-4.989 3.419-11.87 7.409-14.913 4.375-3.338 14.633-5.861 20.478-5.039 5.02.707 15.398 5.248 14.914 6.526-.166.436-2.203 2.846-4.529 5.355l-4.228 4.563-4.571-2.022c-3.196-1.414-5.535-1.818-7.772-1.342-1.76.374-3.988 1.374-4.951 2.223-2.14 1.888-2.269 5.572-.265 7.576.817.817 4.529 2.475 8.25 3.685 9.59 3.119 14.722 6.308 16.635 10.34 1.861 3.922 2.13 11.176.569 15.318-1.466 3.887-6.743 9.175-10.939 10.96-5.28 2.247-15.604 2.597-21.662.735m-1315.338-31.38v-31h14v23h26v-23h14v62h-14v-26h-26v26h-14zm66 0v-31h42v13h-28v10.941l13.25.28 13.25.279.298 6.25.297 6.25h-27.095v12h30v13h-44zm48 30.456c0-.345 5.92-14.334 13.154-31.086l13.153-30.457 5.93.293 5.928.294 2.796 6.5c1.538 3.575 7.55 17.43 13.359 30.79l10.562 24.289-8.05-.29-8.048-.289-2.51-6.28-2.51-6.28-11.994.28-11.994.28-2.234 6-2.234 6-7.654.292c-4.21.16-7.654.01-7.654-.336m37.088-29.206a2265 2265 0 0 0-3.66-9.163l-1.776-4.414-3.287 8.414c-1.808 4.627-3.305 8.75-3.326 9.163s3.104.75 6.946.75h6.986zm32.912-1.25v-31h14v49h25v13h-39zm50 6v-25h-18v-12h50v12h-18v50h-14zm37-6v-31h14v23h26v-23h14v62h-14v-26h-26v26h-14zm84.544 29.75c.264-.687 6.233-14.525 13.265-30.75l12.785-29.5 5.953-.272 5.953-.273 13 30.057c7.15 16.532 13.15 30.492 13.333 31.023.196.567-2.9.963-7.5.96l-7.833-.005-2.57-6.245-2.568-6.245-11.955-.279-11.954-.279-2.442 6.53-2.442 6.528h-7.753c-5.792 0-7.632-.316-7.273-1.25zm38.033-25.5c-.307-.962-1.87-5.125-3.473-9.25-2.334-6.006-3.064-7.102-3.667-5.5-.414 1.1-1.628 4.25-2.697 7l-2.817 7.25-.873 2.25h14.085zm31.423-4.25v-31h18.871l12.815 20.957 12.814 20.957.27-20.957.27-20.957h13.96v62l-9.25-.04-9.25-.04-13-21.334-13-21.336-.27 21.375-.269 21.375h-13.961Zm70-.115v-31.116l16.75.455c14.175.385 17.622.794 22.424 2.66 3.147 1.221 7.533 4.007 9.848 6.253 2.295 2.228 5.12 6.146 6.277 8.707 1.557 3.447 2.113 6.734 2.144 12.656.032 6.284-.452 9.072-2.255 13-2.613 5.693-6.083 9.7-11.285 13.03-6.648 4.255-13.108 5.47-29.084 5.47h-14.819Zm35.337 15.216c2.049-1.267 4.611-4.04 5.694-6.162 2.356-4.619 2.602-12.815.505-16.87-2.026-3.917-6.888-7.795-11.317-9.025-2.046-.568-6.532-1.035-9.969-1.038l-6.25-.006v36.245l8.806-.421c6.954-.333 9.59-.906 12.531-2.723m55.663-15.101v-31h14v23h26v-23h14v62h-14v-26h-26v26h-14zm129 0v-31h20.727l6.811 19.5c3.746 10.725 7.134 19.5 7.528 19.5.395 0 .99-1.084 1.322-2.41.333-1.325 3.358-10.1 6.724-19.5l6.12-17.09h20.768v62h-13.962l-.27-22.75-.268-22.75-5.899 17.5c-3.244 9.625-6.764 19.863-7.822 22.75l-1.923 5.25h-10.689l-7.505-22.25-7.504-22.25-.08 22.25-.078 22.25h-14zm75.302 29.656c.302-.787 6.315-14.776 13.361-31.085l12.812-29.654 5.911.291 5.911.292 12.827 29.465c7.055 16.206 13.05 30.044 13.32 30.75.376.98-1.377 1.285-7.37 1.285h-7.862l-2.5-6.25-2.498-6.25-11.99-.28-11.988-.28-2.51 6.28-2.509 6.28-7.732.294c-6.38.243-7.637.044-7.183-1.138m38.531-24.484c-.183-.455-1.675-4.28-3.314-8.5s-3.256-7.672-3.592-7.672c-.505 0-3.289 6.536-6.497 15.25l-.644 1.75h7.19c3.955 0 7.04-.372 6.857-.828m31.167-5.172v-31h18.581l12.96 21.25 12.959 21.25.27-21.25.27-21.25h13.96v62h-18.699l-12.9-21.165-12.901-21.165-.27 21.165-.27 21.165h-13.96Zm144 0v-31h43.095l-.297 6.25-.298 6.25-14.25.277-14.25.278v10.945h27v13h-27v12h30v13h-44zm53 0v-31l15.25.006c8.388.003 17.05.497 19.25 1.098 5.36 1.464 10.403 5.42 12.106 9.496.767 1.835 1.394 5.53 1.394 8.211 0 6.832-3.43 12.992-8.715 15.653l-4.108 2.069 7.411 12.282c4.077 6.754 7.412 12.485 7.412 12.733s-3.712.444-8.25.434l-8.25-.019-6.045-11.731-6.045-11.732-3.205-.313-3.205-.314v24.127h-15zm26.83-5.924c2.382-.46 4.82-1.326 5.417-1.923.598-.598 1.086-2.521 1.086-4.276 0-2.112-.769-3.811-2.277-5.033-1.72-1.393-3.962-1.844-9.167-1.844h-6.889v14l3.75-.043c2.063-.024 5.699-.42 8.08-.88m34.894 7.674c-6.411-16.087-11.945-30.037-12.297-31l-.641-1.75h15.86l7.328 19.5c4.031 10.725 7.598 19.5 7.927 19.499.33 0 3.941-8.776 8.026-19.5l7.426-19.499h7.324c4.027 0 7.323.248 7.323.55 0 .465-6.741 16.937-22.182 54.2l-3.005 7.25h-11.433zm53.276-1.751v-31h14v62h-14zm83 0v-31h43v13h-28v11h26v13h-26v11.947l14.75.276 14.75.277.298 6.25.297 6.25h-45.095Zm-1234.656-76.042c-5.78-1.143-11.618-4.306-14.694-7.962-4.706-5.593-5.65-11.301-5.65-34.178v-20.818h14v19.935c0 10.964.445 21.106.99 22.538s2.185 3.711 3.646 5.065c2.052 1.902 3.743 2.462 7.433 2.462 3.669 0 5.485-.595 7.825-2.564 1.676-1.41 3.508-4.223 4.071-6.25s1.026-12.124 1.03-22.436l.005-18.75h14v20.341c0 21.971-.75 26.66-5.38 33.658-4.513 6.82-17.134 10.965-27.276 8.96m79.576.042c-5.048-.866-11.85-4.006-13.82-6.38-1.067-1.285-.53-2.314 3.383-6.498l4.65-4.971 3.573 2.424c2.646 1.796 4.92 2.425 8.76 2.425 4.127 0 5.629-.472 7.36-2.314 1.196-1.273 2.174-3.04 2.174-3.928 0-2.477-4.423-5.407-11.804-7.818-3.683-1.203-8.205-3.097-10.049-4.209-4.923-2.968-7.14-7.232-7.138-13.731 0-3.931.642-6.558 2.247-9.21 1.235-2.04 3.747-4.817 5.582-6.17 4.53-3.343 12.103-5.016 19.298-4.264 5.64.59 13.032 3.49 14.355 5.63.345.558-1.244 3.234-3.531 5.947l-4.159 4.931-3.947-2.057c-2.867-1.495-5.051-1.91-7.978-1.517-4.506.604-7.876 3.097-7.876 5.826 0 3.083 4.038 5.775 12.563 8.375 6.681 2.038 8.855 3.229 11.76 6.445 2.077 2.3 3.86 5.518 4.271 7.716.85 4.527-.835 11.473-3.788 15.62-2.509 3.523-10.477 7.326-16.806 8.02-2.475.272-6.56.14-9.08-.292m739.546-.078c-2.768-.464-6.736-1.555-8.817-2.424-4.916-2.054-12.305-8.904-14.728-13.652-1.05-2.06-2.426-6.805-3.057-10.545-.873-5.174-.864-8.144.038-12.418 1.677-7.95 6.61-15.713 12.48-19.642 7.069-4.73 14.464-6.617 23.309-5.948 18.658 1.411 30.406 13.82 30.57 32.286.087 9.866-2.473 16.602-8.76 23.044-3.445 3.528-6.712 5.742-10.5 7.113-6.93 2.509-14.071 3.269-20.534 2.186zm15.465-14.386c3.777-1.953 7.624-6.658 9.1-11.127 1.508-4.572.857-11.748-1.519-16.748-1.003-2.112-3.565-4.991-5.693-6.4-4.577-3.028-12.002-4.016-17.228-2.291-8.655 2.856-13.163 10.449-12.407 20.898.329 4.544 1.088 6.8 3.239 9.62 4.327 5.673 8.076 7.504 15.377 7.508 3.582.002 7.52-.628 9.13-1.46m-788.75 12.898c-1.749-.735-3.687-2.45-4.307-3.812-.62-1.36-.84-3.62-.489-5.02.874-3.483 4.456-6.602 7.581-6.602 3.303 0 6.897 2.51 8.09 5.649 1.368 3.597-1.098 8.822-4.769 10.101-2.152.75-3.77.667-6.107-.316m73.993-1.748c-2.981-3.174-2.858-8.093.28-11.231 3.19-3.19 7.46-3.19 10.9-.002 3.242 3.004 3.465 7.237.573 10.912-1.58 2.01-2.962 2.635-5.825 2.635-2.63 0-4.404-.692-5.928-2.314m50.828-28.584v-31.103l14.75.012c19.515.016 27.15 2.043 34.183 9.074 5.285 5.286 7.361 10.482 7.866 19.688.35 6.382.044 9.348-1.34 12.972-2.543 6.66-9.272 13.438-16.725 16.847l-6.234 2.851-16.25.38-16.25.382zm29.632 16.76c8.935-2.25 14.344-10.866 12.894-20.537-.369-2.46-1.787-5.67-3.295-7.464-3.965-4.712-9.492-6.814-17.981-6.84l-7.25-.022v36h5.557c3.057 0 7.59-.512 10.075-1.137m36.368-16.863v-31h43.095l-.297 6.25-.298 6.25-14.25.277-14.25.278v10.945h27v13h-27v12h30v13h-44zm54.708 30.374c-.39-.389-.708-14.386-.708-31.105v-30.399l17.25.315c14.426.263 17.867.62 21.02 2.187 2.073 1.03 4.764 3.27 5.98 4.978 1.615 2.269 2.314 4.932 2.594 9.895.227 4.012-.122 8.012-.853 9.777-1.911 4.614-7.196 8.64-12.961 9.877-2.82.605-8.017 1.1-11.547 1.1h-6.42l-.281 11.75-.282 11.75-6.542.291c-3.599.16-6.861-.028-7.25-.417m30.412-38.274c1.034-1.277 1.88-3.255 1.88-4.396s-.978-3.117-2.174-4.39c-1.861-1.98-3.158-2.314-9-2.314h-6.826v14.226l7.12-.403c5.966-.337 7.426-.779 9-2.723m12.937 37.65c.03-.687 5.817-14.525 12.86-30.75l12.802-29.5h12.378l12.951 29.804c7.124 16.392 12.952 30.249 12.952 30.792 0 .59-3.068.87-7.608.696l-7.609-.292-2.51-6.28-2.509-6.28-12.092.28-12.092.28-2.448 6.25-2.447 6.25h-7.343c-5.237 0-7.326-.358-7.285-1.25m37.031-28.5c-4.54-11.454-5.36-13.311-5.717-12.955-.208.209-1.909 4.277-3.78 9.042l-3.4 8.663h14.78zm32.912-1.249v-31l16.25.044c16.878.045 21.808.921 25.957 4.61 3.026 2.691 5.75 9.25 5.75 13.846 0 7.418-4.717 14.46-11.27 16.83-.998.36-1.625.997-1.395 1.413s3.633 6.045 7.563 12.51c3.93 6.463 7.145 11.975 7.145 12.25 0 .273-3.712.49-8.25.481l-8.25-.016-6.5-12.482-6.5-12.481-3.25-.002-3.25-.003v25h-14zm30.778-7.557c1.552-1.087 2.222-2.577 2.222-4.943 0-4.954-2.789-6.5-11.722-6.5h-7.278v13h7.278c4.968 0 7.982-.494 9.5-1.557m38.889 37.89c-.367-.366-.667-11.616-.667-25v-24.333h-17v-12h49v12h-18v50h-6.333c-3.484 0-6.634-.3-7-.667m37.333-30.367v-31.034l10.612.284 10.611.284 6.475 18.5c3.56 10.175 6.777 18.819 7.147 19.208.37.39 3.77-8.047 7.555-18.75l6.883-19.458h20.717v62h-13.962l-.27-22.476-.268-22.477-7.621 22.227-7.621 22.226-5.414.293-5.414.294-7.676-23.294-7.677-23.293-.039 23.25-.038 23.25h-14zm83 .034v-31h42v13h-28v11h27.095l-.297 6.25-.298 6.25-13.25.279-13.25.28v11.941h30v13h-44zm54-.036v-31.036l9.675.286 9.675.286 12.825 20.972 12.825 20.971v-42.443h14v62.075l-9.199-.287-9.198-.288-13.052-21.276-13.051-21.275-.27 21.525-.269 21.526h-13.961Zm82.708 30.41c-.39-.389-.708-11.657-.708-25.04v-24.334h-17v-12h49v12h-16.965l-.268 24.75-.267 24.75-6.542.291c-3.599.16-6.861-.028-7.25-.417m137 0c-.39-.389-.708-14.357-.708-31.04v-30.334h42v13h-27v12h25v13h-24.937l-.281 11.75-.282 11.75-6.542.291c-3.599.16-6.861-.028-7.25-.417"/><path stroke-width="7.559" style="stroke:url(#b)" d="M122 629.48c-.826-.165-4.876-.84-9-1.5-17.692-2.832-39.035-11.943-54.038-23.067-4.283-3.176-11.251-9.292-15.484-13.593-4.234-4.3-10.632-12.226-14.22-17.611-3.586-5.386-8.312-13.936-10.501-19-2.19-5.065-5.07-13.483-6.401-18.708s-2.88-15.125-3.443-22c-.667-8.155-.895-79.074-.656-204l.366-191.5 1.657-8c3.8-18.345 12.354-37.52 23.121-51.827C40.441 49.32 53.383 37 62.779 30.71c14.585-9.767 31.572-16.734 49.72-20.393l9-1.815h890l9 1.815c11.687 2.356 25.082 6.853 34.592 11.612 12.163 6.086 22.71 13.76 33.01 24.013 5.281 5.258 11.856 12.935 14.612 17.06 9.122 13.657 15.315 27.765 18.844 42.928.823 3.535 1.958 12.085 2.523 19 .675 8.252.895 78.205.64 203.572-.282 139.562-.699 192.51-1.546 196.61-3.737 18.092-10.763 35.462-19.95 49.326-5.918 8.931-19.46 23.06-28.951 30.202-13.393 10.08-30.537 17.97-49.274 22.677l-8.5 2.135-446.5.163c-245.575.09-447.175.03-448-.135zm259.451-77.158c3.375-1.174 13.108-6.297 17.332-9.122.706-.473 1.001-1.596.655-2.497-.502-1.31-1.506-1.518-5.02-1.036-2.434.334-6.354.052-8.798-.632-2.425-.68-6.044-2.583-8.044-4.231-1.999-1.648-4.624-4.866-5.833-7.15-1.695-3.204-2.203-5.884-2.22-11.726-.02-6.58.331-8.11 2.683-11.664 1.49-2.25 6.528-7.308 11.199-11.241 10.289-8.664 14.596-14.7 14.59-20.444-.002-2.292-.866-5.494-1.974-7.31-1.084-1.778-4.12-4.594-6.746-6.258-7.19-4.555-24.868-13.032-42.776-20.511-19.593-8.183-61.494-22.315-80.183-27.043-15.181-3.84-25.507-5.105-32.778-4.014-3.76.563-5.635 1.601-9.03 4.996-3.312 3.312-4.542 5.488-5.423 9.596-.665 3.102-.769 5.683-.25 6.202.52.52 2.508-.22 4.777-1.778l3.887-2.668 7 .586c12.516 1.048 53.365 13.415 82 24.824 17.377 6.924 45.302 20.425 51.433 24.866 2.322 1.682 4.842 4.544 5.601 6.36 1.065 2.55 1.135 4.188.307 7.187-.822 2.977-3.807 6.574-12.767 15.386-6.566 6.456-12.522 13.255-13.58 15.5-1.035 2.2-2.069 6.751-2.296 10.113-.31 4.577.076 7.214 1.536 10.5 2.452 5.519 6.632 10.509 10.462 12.489 6.493 3.358 15.872 3.636 24.256.72zM310 547c0-.55-.713-1-1.585-1-1.368 0-1.494-1.063-.92-7.75.365-4.263.874-8.509 1.131-9.436.258-.927 1.235-1.864 2.171-2.083 1.744-.407-3.583-1.32-12.047-2.067-3.1-.273-4.755-.027-4.763.709-.008.62-.285 2.14-.617 3.377-.362 1.35-.156 2.25.514 2.25.614 0 1.116-.62 1.116-1.378 0-2.419 2.48-3.58 6.313-2.959 2.908.472 3.684 1.046 3.674 2.718-.024 3.636-1.165 6.619-2.532 6.619-.722 0-1.987-.675-2.812-1.5s-1.757-1.5-2.071-1.5-.572 1.645-.572 3.655v3.655l1.963-1.776c2.825-2.558 5.037-1.295 5.037 2.875 0 1.91-.404 3.722-.897 4.027-.494.305-2.354.264-4.133-.092-1.95-.39-3.429-1.382-3.72-2.496-.758-2.898-2.25-2.163-2.25 1.108v2.956l7.25.345c3.988.19 7.813.435 8.5.544S310 547.55 310 547zm26 0c0-.55-.627-1-1.393-1s-1.666-.712-2-1.582-.607-4.934-.607-9.032v-7.45l2.25-.905c1.623-.652-.07-.922-6.077-.968l-8.327-.063-2.923 2.923c-2.391 2.391-2.923 3.768-2.923 7.566 0 2.553.486 5.55 1.079 6.658s2.506 2.636 4.25 3.395C323.004 548.14 336 548.497 336 547zm-14.6-1.766c-3.594-2.4-4.595-11.573-1.65-15.12.963-1.16 3.147-2.378 4.854-2.707l3.103-.599.636 3.846c.35 2.115.64 6.433.646 9.596L329 546l-3.25-.015c-1.787-.008-3.745-.346-4.35-.75zM288 545c0-.55-.675-1-1.5-1-.9 0-1.486-.901-1.465-2.25.047-2.965 2.454-14.115 3.367-15.592.394-.637 1.477-1.187 2.407-1.222 1.358-.05 1.297-.218-.309-.85-3.44-1.354-9.5-2.007-9.5-1.023 0 .515.675.937 1.5.937 1.683 0 1.762.44.875 4.875L282.75 532h-4.546c-5.117 0-8.204 2.07-8.204 5.5 0 1.204.89 2.996 1.979 3.98 1.575 1.426 7.749 3.205 15.271 4.4.413.066.75-.33.75-.88zm-11.203-2.68c-2.26-.595-3.173-3.75-1.817-6.282.72-1.347 2.096-2.038 4.055-2.038 3.159 0 3.396.595 2.34 5.875-.613 3.064-1.145 3.348-4.578 2.445zm-11.68-10.82c5.792-7.821 6.995-8.956 9.133-8.619.413.065.75-.31.75-.834 0-1.073-7.097-3.284-7.915-2.466-.29.29.135.94.944 1.445 1.135.707 1.218 1.323.364 2.695-.609.978-1.77 1.91-2.579 2.07s-2.673-.168-4.143-.726c-1.921-.73-2.67-1.724-2.67-3.54 0-1.923.516-2.525 2.166-2.525 1.192 0 1.844-.323 1.45-.717s-4.406-1.979-8.917-3.522c-13.257-4.536-12.388-4.338-10.868-2.483 1.096 1.336 1.105 2.256.05 5.173-.706 1.952-1.86 3.549-2.564 3.549-1.277 0-1.625-.949-3.115-8.492-.545-2.756-1.54-4.366-3.212-5.2-2.75-1.371-3.754-.967-2.278.918.84 1.07 3.287 9.424 3.287 11.217 0 .306-1.035.557-2.3.557s-2.84.54-3.5 1.2c-1.571 1.571-1.54 6.276.05 7.578.688.562 4.138 2.192 7.669 3.62 6.364 2.577 8.919 2.726 5.829.341l-1.606-1.24 3.378-8c2.944-6.97 3.673-7.963 5.675-7.717 1.264.155 2.814.83 3.446 1.5s1.646 5.57 2.254 10.888c.608 5.319 1.105 10.156 1.105 10.75 0 2.57 2.222.539 8.116-7.42zm-5.13 1.944c-.008-1.07-.285-2.957-.617-4.194-.468-1.748-.186-2.247 1.264-2.235 1.026.008 2.428.372 3.115.808.936.595.624 1.638-1.25 4.18-1.989 2.694-2.502 2.988-2.512 1.441zm-26.976-4.931c-.708-.853-.965-2.559-.603-4 .522-2.082 1.227-2.513 4.111-2.513 3.815 0 4.293 1.124 2.32 5.453-1.293 2.84-3.95 3.323-5.828 1.06zm-8.197-7.358c-.484-.19-1.52.185-2.3.833s-2.33.887-3.446.533l-2.029-.644 3.957-7.87c3.353-6.668 4.381-7.921 6.73-8.208l2.774-.337-5.35-2.799c-2.941-1.539-5.638-2.509-5.99-2.155-.354.353.13 1.074 1.074 1.603l1.716.96-4.165 8.398c-3.618 7.296-4.402 8.27-5.975 7.43-.995-.534-1.81-2.079-1.81-3.434 0-1.356-.378-2.465-.84-2.465s-1.346 1.113-1.966 2.473l-1.127 2.474 8.217 4.276 8.216 4.277 1.598-2.5c.879-1.375 1.201-2.655.716-2.845zm200.284 1.9c2.816-1.07 8.67-4.277 13.01-7.126 8.451-5.548 10.355-8.635 4.642-7.525-9.482 1.843-12.21 1.747-16.75-.589-5.857-3.013-9.383-9.153-9.451-16.456-.04-4.2.525-5.999 2.983-9.497 1.995-2.84 7.089-7.06 14.895-12.34 6.524-4.412 13.232-9.717 14.905-11.788 2.437-3.015 3.129-4.954 3.475-9.737l.432-5.972-3.21-2.998c-1.766-1.65-5.067-3.499-7.337-4.11-2.49-.67-6.957-.846-11.261-.443-15.856 1.486-22.617.399-26.812-4.31-1.346-1.51-1.85-3.514-1.77-7.039.082-3.654-.3-5.084-1.48-5.537-1.12-.43-1.462-1.5-1.154-3.6.375-2.552.115-2.988-1.781-2.988-1.22 0-2.493-.712-2.827-1.582s-.607-3.134-.607-5.031c0-1.898-.562-3.639-1.25-3.87-.687-.23-3.162-.908-5.5-1.506-3.313-.849-4.25-1.553-4.25-3.198 0-1.16 2.025-5.825 4.5-10.366s4.5-9.173 4.5-10.294-.94-3.631-2.088-5.577l-2.087-3.539 1.658-10.574c.912-5.816 2.344-12.912 3.183-15.769 3.494-11.907 4.687-13.197 39.83-43.076 82.036-69.746 91.888-78.463 96.426-85.314 3.259-4.92 4.667-11.354 3.66-16.725-.385-2.045-2.489-5.484-5.206-8.506-2.509-2.79-5.141-5.073-5.85-5.073s-1.815 2.093-2.46 4.65c-1.5 5.96-3.313 9.422-7.334 14.008-4.715 5.376-45.549 41.106-89.957 78.713-22.377 18.95-40.216 34.824-42.256 37.603-1.942 2.646-4.192 6.393-5 8.329-1.95 4.665-6.206 26.043-7.306 36.697-.77 7.452-.652 8.87.951 11.5 1.006 1.65 1.83 4.035 1.832 5.3.004 2.753-2.23 7.32-4.508 9.21-2.529 2.098-6.488 10.574-6.488 13.89 0 2.128.59 3.152 2.087 3.627 1.148.365 3.579.383 5.402.04 2.375-.445 3.78-.156 4.954 1.019l1.64 1.64-1.542 2.351c-.847 1.294-1.54 3.493-1.54 4.888 0 1.791.537 2.535 1.833 2.535 1.008 0 2.106.273 2.44.608s.1 1.422-.522 2.418c-.862 1.38-.818 2.189.18 3.393.723.87 1.917 1.58 2.655 1.58 2.12 0 3.386 3.391 2.745 7.344-.325 2.005-.043 4.94.632 6.57.726 1.752 2.691 3.644 4.85 4.668 3.176 1.508 4.87 1.596 13.6.712 7.628-.773 11.118-.708 14.842.274 2.678.707 6.004 2.028 7.39 2.937 3.362 2.202 5.697 7.995 4.987 12.37-.684 4.216-5.199 9.095-16.133 17.433-4.4 3.356-9.27 7.442-10.824 9.082-1.553 1.64-3.745 4.787-4.87 6.993-1.627 3.187-1.947 5.265-1.56 10.095.526 6.554 3.15 12.708 6.914 16.219 3.586 3.345 8.783 5.221 14.58 5.265 2.881.021 7.542-.837 10.358-1.906zm-222.315-8.701-1.647-1.646 4.995-7.402c4.036-5.98 5.366-7.283 6.932-6.786 3.083.978 2.226-.817-1.561-3.27-1.91-1.238-3.709-2.25-3.996-2.25-.288 0 .012.856.666 1.903 1.01 1.619.545 2.891-3.109 8.5-2.364 3.628-4.437 6.597-4.608 6.597s.794-4.128 2.144-9.173c1.382-5.162 2.077-9.552 1.59-10.038-.724-.724-5.234 2.129-15.172 9.597-1.497 1.125-.784-.16 4.831-8.706 1.771-2.695 3.046-3.68 4.331-3.344 2.986.781 2.076-.901-1.929-3.565-2.062-1.372-6-4.612-8.75-7.2-2.75-2.586-5.98-5.38-7.18-6.206l-2.18-1.503-2.561 1.678c-3.124 2.047-2.44 3.809.891 2.292 2.008-.915 2.889-.706 5.41 1.287 1.655 1.31 3.034 2.634 3.065 2.944.03.31-1.279 1.84-2.909 3.402-2.48 2.376-3.214 2.631-4.5 1.565-.845-.701-1.536-2.175-1.536-3.275 0-1.696-.236-1.804-1.554-.71-.855.71-2.033 2.183-2.617 3.274-.904 1.689-.8 1.884.7 1.308 1.063-.408 2.504-.003 3.637 1.022l1.876 1.698-2.712 2.83-2.712 2.831-2.661-2.55c-1.947-1.865-2.547-3.276-2.233-5.254l.429-2.704-2.052 2.5-2.052 2.5 6.225 5.643c3.425 3.103 6.586 5.426 7.025 5.16.439-.264.28-1.106-.354-1.87-.917-1.105.02-2.724 4.573-7.911 3.15-3.587 6.053-6.522 6.451-6.522 1.293 0 5.24 3.88 4.88 4.797-.192.49-2.374 3.887-4.849 7.548-3.92 5.798-4.822 6.59-7 6.143l-2.5-.513 3 2.508c1.65 1.379 3.57 2.51 4.266 2.512s4.04-2.014 7.43-4.481c3.391-2.467 6.372-4.28 6.624-4.027.382.381-.75 5.231-3.417 14.646-.298 1.05.707 2.382 2.817 3.733 3.928 2.515 5.853 2.778 3.563.488zm-42.298-33.403c-.517-1.627.654-3.253 5.682-7.89 5.032-4.641 6.693-5.651 8.083-4.916.963.509 1.75.596 1.75.195 0-1.088-5.227-6.34-6.31-6.34-.514 0-.35.703.363 1.563 1.11 1.337.548 2.312-3.878 6.738-6.01 6.01-6.235 5.53-3.145-6.737 1.1-4.364 1.635-8.3 1.19-8.744-.445-.446-4.047 2.145-8.004 5.756-5.513 5.032-7.663 6.417-9.205 5.927-1.106-.35-2.01-.242-2.01.242 0 1.429 5.915 6.672 6.672 5.915.382-.381.159-1.229-.495-1.883-.92-.919-.232-2.165 3.024-5.483 2.318-2.362 4.502-4.294 4.853-4.294.352 0-.24 3.788-1.316 8.418l-1.955 8.419 1.858 2.55c1.022 1.402 2.226 2.564 2.676 2.581.45.018.524-.89.167-2.017zm-15.419-18.986c2.84-1.52 2.382-3.116-.673-2.349-1.726.433-2.904.186-3.485-.73-.482-.763-.884-1.681-.892-2.042s3.142-2.996 7.002-5.857c5.843-4.332 7.27-4.993 8.524-3.952.829.687 1.715 1.041 1.97.787.61-.61-5.445-8.822-6.505-8.822-.45 0-.596.854-.323 1.898.376 1.438-1.145 3.141-6.274 7.023-3.723 2.82-7.251 4.953-7.84 4.743s-.963-2.085-.833-4.166l.237-3.784-2.237 1.882c-1.23 1.035-2.382 1.957-2.559 2.049s1.96 2.998 4.75 6.46S141 461.76 141 462.2c0 1.103 1.755 1.001 4.066-.235zm820.474-22.517c11.716-3.05 21.163-10.549 26.794-21.264 2.078-3.955 3.99-9.449 4.603-13.225.68-4.196 1.05-41.928 1.056-107.71l.01-101.25-170.75.02c-97.433.012-173.458.413-177.056.933-3.469.501-9.202 2.267-12.741 3.923-3.674 1.719-8.551 5.127-11.366 7.943-5.628 5.627-10.32 14.25-11.962 21.981-.792 3.73-1.125 35.653-1.125 107.75V441h346.58zm-345.096-6.54c-.742-1.2 41.597-112.854 42.806-112.887.413-.012.75.818.75 1.844s1.585 5.034 3.522 8.907c2.455 4.907 5.474 8.866 9.964 13.065 3.617 3.384 9.26 7.37 12.87 9.094 3.537 1.688 6.928 3.069 7.537 3.069.61 0 1.107.375 1.107.833 0 .865-66.468 75.106-68.403 76.401-1.704 1.142-9.399.895-10.153-.325zm19.556.197c0-.492 14.939-17.48 33.197-37.75l33.196-36.855 6.554.34c8.405.435 18.118-1.34 24.907-4.551 5.824-2.755 12.174-7.815 12.1-9.643-.025-.63-2.939-4.295-6.473-8.144l-6.427-6.998-2.777 1.808c-8.748 5.694-19.02 7.927-26.792 5.824-2.209-.598-6.062-2.385-8.563-3.97-5.059-3.21-10.33-10.424-12.13-16.607-1.808-6.212-1.512-17.264.631-23.509 2.165-6.306 8.958-14.145 15.053-17.368 3.13-1.655 5.826-2.134 12.13-2.155 6.974-.023 8.98.391 14.385 2.972l6.281 2.999 6.364-6.953c3.5-3.824 6.364-7.457 6.364-8.075 0-1.767-4.051-5.097-9.5-7.81-5.77-2.871-14.449-4.668-22.433-4.643-7.397.023-17.979 2.338-24.652 5.393-2.978 1.364-5.415 2.304-5.415 2.09 0-.659 20.877-54.71 21.292-55.125.214-.214 29.412-.274 64.885-.133l64.495.258-23.07 24.25L790.53 253h-30.531v102.7l-55.926 39.15L648.147 434h-4.074c-2.24 0-4.074-.403-4.074-.895zm21.036-.514c.805-.775 25.647-18.325 55.203-39L769.976 356h19.118c21.185 0 26.891-.945 37.236-6.167 3.295-1.663 8.348-5.381 11.229-8.262 5.668-5.669 9.962-13.16 12.079-21.071 1.628-6.085 1.77-23.45.252-30.701-1.633-7.797-7.455-18.244-12.788-22.948-2.532-2.233-6.783-5.167-9.449-6.52-6.078-3.088-18.577-6.331-24.397-6.331-2.433 0-4.273-.395-4.09-.878.183-.482 10.648-11.732 23.255-25L845.341 204h65.03c35.765 0 64.6.376 64.078.836-2.152 1.893-81.457 51.093-87.437 54.245-3.568 1.88-9.036 5.962-12.152 9.071-6.202 6.188-10.95 14.99-12.756 23.647-1.426 6.84-1.416 20.637.02 27.402.62 2.914 2.513 8.157 4.21 11.651 3.276 6.75 11.594 16.025 16.772 18.703 1.717.888 2.734 1.966 2.258 2.396s-46.174 19.066-101.552 41.415L683.124 434h-11.777c-10.157 0-11.575-.194-10.312-1.41zm41.514.49c.523-.505 43.811-18.236 96.197-39.403l95.247-38.484 4.532 1.364c7.184 2.162 18.477 2.82 25.973 1.515 3.72-.648 9.339-2.477 12.484-4.065 6.042-3.05 12.017-7.572 12.017-9.094 0-.5-1.618-2.7-3.596-4.889l-3.596-3.98 2.346-1.022c7.904-3.441 44.32-18.023 45.011-18.023.46 0 .835 19.783.835 43.962v43.963l-2.07 5.534c-2.548 6.81-10.523 15.8-16.838 18.98-2.525 1.272-6.976 2.818-9.891 3.436-3.765.8-42.115 1.125-132.45 1.125-77.273 0-126.778-.36-126.2-.919zm-82.33-110.6.28-89.981 2.32-5.747c3.065-7.587 10.49-16.508 17.99-19.459 10.088-3.969 22.1-2.98 33.036-3.104 15.04-.17 27.12.055 26.846.5-.275.446-5.719 14.443-12.097 31.105-8.591 22.44-12.606 31.645-15.484 35.5-2.137 2.863-4.838 7.103-6.002 9.423-2.529 5.038-5.073 15.31-5.094 20.558-.01 2.472-6.973 21.976-20.172 56.5-11.087 28.998-20.551 53.165-21.031 53.705-.498.56-.753-37.67-.593-89zm284.152 14.307c-1.72-.554-5.32-2.663-8-4.685-3.508-2.649-5.852-5.6-8.372-10.54-2.608-5.202-3.105-10.305-3.5-15.962-.087-1.252.395-9.942 2.62-14.688 1.44-3.072 4.265-7.232 6.277-9.243 2.01-2.011 5.557-4.66 7.88-5.886 3.33-1.759 5.914-2.236 12.223-2.257 6.737-.023 8.884.407 13.6 2.723 3.08 1.512 6.07 2.75 6.647 2.75 1.237 0 13.253-13.337 13.253-14.71 0-1.58-4.225-4.932-9.611-7.626-4.93-2.467-13.464-4.374-21.964-4.908l-4.075-.256 37.437-23.5c20.59-12.925 38.29-23.645 39.334-23.82l1.897-.322-.259 53.162-.259 53.162L964 320.55c-14.753 5.999-26.265 10.137-27.317 9.82-1.039-.313-3.429.52-5.583 1.945-2.07 1.37-5.882 3.21-8.468 4.088-5.197 1.765-13.437 1.939-18.26.385zm-120.867-1.915c-.295-.768-.416-14.666-.27-30.885l.265-29.488 10.051.103c16.837.174 26.612 3.117 31.09 13.907 2.144 5.167 2.834 10.723 2.795 16.49-.05 7.65-.513 10.523-2.376 14.757-4.517 10.27-12.897 14.63-30.367 15.8-8.678.58-10.751.454-11.188-.684zM529 432.404c5.5-1.736 16.19-9.656 21.214-15.717l3.714-4.481-11.214.065-11.214.064-12.5-3.717c-7.013-2.085-15.873-3.977-20.184-4.31-4.583-.354-10.216-.095-13.959.641-3.452.68-9.977 2.767-14.502 4.64-4.524 1.873-10.423 3.877-13.11 4.453-6.854 1.47-9.844.161-11.208-4.904-.83-3.085-1.743-4.188-4.162-5.031-2.653-.925-3.007-1.442-2.467-3.593.509-2.028.261-2.513-1.282-2.513-2.088 0-3.126-1.844-3.126-5.553 0-1.857-.725-2.578-3.248-3.232-1.93-.5-3.392-1.586-3.602-2.676-.194-1.009.649-3.974 1.873-6.588l2.226-4.753-.966-6.72c-1.17-8.131-.058-15.388 3.22-21.035 1.594-2.746 11.798-11.95 31.595-28.5 40.317-33.703 42.07-35.26 47.454-42.112 5.346-6.805 6.77-11.762 5.427-18.903-.98-5.218-3-10.112-4.003-9.704-.373.152-2.679 2.75-5.124 5.776s-9.415 9.55-15.491 14.5c-13.183 10.74-59.842 50.184-70.158 59.31-4.013 3.55-8.221 8.266-9.351 10.48-2.423 4.75-5.852 20.914-5.852 27.584 0 2.627.686 5.66 1.564 6.914 1.873 2.674 1.274 5.088-2.7 10.892-1.612 2.353-2.864 5.514-2.864 7.23 0 3.211.866 3.71 7.5 4.316 2.575.235 3.017.699 3.116 3.274.195 5.085.337 5.5 1.884 5.5.859 0 1.5.9 1.5 2.106 0 1.158 1.051 2.933 2.335 3.943 1.738 1.367 2.227 2.573 1.913 4.716-.61 4.162 2.152 10.056 5.269 11.241 5.236 1.99 14.693 1.107 27.536-2.573 16.954-4.86 20.007-4.563 36.982 3.583 16.75 8.04 24.081 9.137 35.965 5.387zM991.063 429c.515 0 .972 1.462 1.015 3.25.044 1.787.312 2.669.597 1.958.398-.992.844-1.021 1.921-.127 1.088.902 1.407.855 1.419-.209.012-1.078.223-1.05.984.128.713 1.103.964.442.95-2.5l-.02-4-1.444 2.5-1.443 2.5-1.328-2.25c-.95-1.608-.67-2.25-3.531-2.25-2.787 0-3.317.266-2.384 1.2.66.66 1.272 2.347 1.36 3.75.127 2.013.245 1.866.564-.7.222-1.788.825-3.25 1.34-3.25zm-859.7 1.621c1.815-.758 4.276-2.62 5.468-4.135 1.193-1.516 2.168-4.068 2.168-5.67 0-4.269-2.48-8.358-5.936-9.79-4.143-1.716-9.451-.545-13.358 2.945-2.704 2.416-3.206 3.566-3.206 7.342 0 3.07.63 5.176 2 6.7 2.17 2.41 4.971 3.823 7.782 3.923.98.035 3.267-.557 5.082-1.315zm-11.799-4.55c-2.079-2.297-1.483-4.86 1.858-7.998 2.897-2.722 9.143-5 11.803-4.304 1.069.28 2.42 1.552 3 2.829.824 1.807.683 2.892-.638 4.909-2.3 3.51-7.425 6.485-11.183 6.49-1.79.001-3.83-.81-4.84-1.926zm.501-20.098c6.53-2.632 8.221-2.98 9.467-1.946.833.692 1.678 1.081 1.876.865s-.675-2.642-1.94-5.392c-1.889-4.101-2.317-4.542-2.386-2.451-.065 1.99-.877 2.836-3.706 3.86-3.022 1.092-3.767 1.084-4.485-.05-1.191-1.88-1.1-3.25.308-4.66.88-.878.892-1.2.047-1.2-1.711 0-6.247 2.21-6.247 3.045 0 .397.9.958 2 1.246 1.103.288 2 1.364 2 2.397 0 1.184-1.16 2.312-3.146 3.062-1.731.653-3.496.972-3.923.708s-1.079-1.855-1.448-3.536c-.486-2.213-.19-3.588 1.078-4.988.962-1.063 1.476-1.933 1.141-1.933s-1.771.53-3.193 1.178-2.394 1.66-2.16 2.25c4.938 12.394 6.168 14.857 6.452 12.91.243-1.666 2.133-2.893 8.265-5.365zm131.426-2.947c.345-1.086 1.786-2.886 3.202-4L257.27 397l15.115-.083c8.313-.045 22.346-.4 31.183-.788l16.067-.706 5.713-2.89c3.142-1.59 7.872-4.961 10.511-7.491 8.158-7.822 9.635-11.38 13.091-31.542 3.474-20.26 7.09-34.566 10.64-42.087 1.423-3.014 4.957-7.498 8.67-11 3.449-3.252 31.075-26.735 61.393-52.184 30.317-25.45 58.462-49.767 62.543-54.039 4.082-4.272 8.52-10 9.863-12.729 1.89-3.842 2.441-6.556 2.441-12.034 0-5.893-.414-7.679-2.483-10.697-1.365-1.993-4.125-4.546-6.131-5.674l-3.65-2.051-1.189 4.747c-.654 2.611-1.992 6.548-2.974 8.748-3.383 7.579-11.274 16.524-25.404 28.798-18.785 16.317-83.632 71.258-95.097 80.57-13.096 10.635-23.38 20.958-26.036 26.132-6.04 11.769-10.26 27.899-14.438 55.169-1.067 6.968-2.44 13.6-3.049 14.74-.61 1.138-2.422 2.75-4.029 3.58-2.366 1.224-7.46 1.51-26.834 1.51-13.152 0-26.26.446-29.13.99s-6.541 1.932-8.16 3.084c-1.617 1.153-3.89 3.957-5.051 6.232-2.112 4.14-3.64 15.181-2.508 18.13.83 2.163 2.403 1.959 3.155-.41zM101.372 381.53c-.545-1.421.232-1.72 12.026-4.632l4.9-1.21 1.34 1.834c.737 1.008 1.547 1.626 1.8 1.374.624-.625-1.502-9.16-2.577-10.345-.51-.563-.862-.101-.862 1.133 0 2.118-2.336 3.276-6.662 3.303-1.752.011-2.292-.757-2.85-4.054-.377-2.237-.44-4.314-.138-4.616s2.034-.859 3.85-1.239c2.405-.503 3.658-.268 4.618.866 1.115 1.316 1.225.875.714-2.848-.333-2.422-.888-4.862-1.233-5.42-.348-.564-.956-.132-1.362.967-.558 1.507-2.685 2.43-8.853 3.839l-8.118 1.854-1.551-1.918-1.551-1.917.604 4.404c.333 2.422 1.025 5.122 1.538 6l.933 1.596.03-1.775c.03-1.675 3.592-3.725 6.475-3.725 1.44 0 3.898 8.108 2.762 9.112-.388.343-2.168.897-3.956 1.23-2.472.462-3.25.255-3.25-.867 0-.811-.45-1.475-1-1.475-1.277 0-1.258 1.09.116 6.545.613 2.436 1.494 4.196 1.956 3.91.463-.285.598-1.152.301-1.926zm-5.373-26.95c0-1.52 2.125-2.113 11.301-3.16 4.958-.566 6.018-.39 7.295 1.21l1.494 1.87-.587-5.5c-.322-3.024-.832-7.187-1.132-9.25l-.547-3.75h-2.912c-1.601 0-2.912.344-2.912.764s1.013 1.207 2.25 1.75c1.794.787 2.25 1.798 2.25 4.987v4l-3.758.31c-2.723.226-3.927-.129-4.371-1.287-.34-.885.178-2.473 1.163-3.56l1.776-1.963h-2.073c-1.14 0-2.773.269-3.63.597l-1.555.597 1.524 1.524c.838.839 1.385 2.257 1.216 3.153-.394 2.08-6.724 2.841-7.922.953-1.486-2.344-.926-5.724 1.13-6.824 2.936-1.572 2.437-2.948-.75-2.067-3.005.832-3.038 1.039-1.8 11.317.382 3.162 1.112 5.75 1.622 5.75s.928-.64.928-1.42zm18-24.08c0-2.474-.45-4.5-1-4.5s-1 .676-1 1.5c0 1.57-1.738 1.922-4.418.894-2.18-.837-2.18-7.95 0-8.786 2.78-1.067 4.415-.656 4.547 1.143.071.962.72-4.765 1.442-12.727 1.415-15.595 1.329-15.983-3.57-16.003l-2.5-.01 2.837 2.27c2.19 1.753 2.761 2.949 2.5 5.237-.223 1.961-.983 3.088-2.242 3.327-1.047.2-5.21.052-9.25-.327-6.33-.593-7.346-.953-7.346-2.603 0-1.053-.45-1.914-1-1.914-.558 0-.972 2.54-.936 5.75.048 4.363.276 5.22.947 3.554.718-1.781 1.507-2.117 4.187-1.779a547 547 0 0 0 9.052 1.018l5.75.6v2.806c0 1.543-.562 3.24-1.25 3.772-.687.53-5.412 2.706-10.5 4.832-5.087 2.127-9.25 4.246-9.25 4.708 0 .882 1.87 1.723 13.75 6.189 4.292 1.613 7.25 3.3 7.25 4.137 0 .777.45 1.413 1 1.413s1-2.025 1-4.5zm-14.387-4.937c-2.986-1.318-2.746-1.8 1.743-3.507L104 321.05v2.976c0 1.636-.337 2.938-.75 2.894-.412-.045-2.049-.655-3.637-1.357zm-.613-35.527c0-.53-.9-1.447-2-2.035s-1.993-1.392-1.984-1.785c.008-.394.406-1.333.884-2.088.719-1.134 2.064-1.17 7.735-.207 3.776.642 7.653 1.402 8.615 1.69s1.75 1.484 1.75 2.657c0 1.337.35 1.778.939 1.183.516-.523 1.218-3.425 1.56-6.45.516-4.56.416-5.158-.586-3.5-.664 1.1-1.285 2.106-1.379 2.235-.094.13-3.965-.433-8.602-1.249s-8.544-1.484-8.682-1.485c-.137 0-.25-.912-.25-2.026 0-1.24.97-2.393 2.5-2.975 1.375-.523 2.5-1.136 2.5-1.362s-1.318-.605-2.93-.841l-2.928-.43-1.096 6.566c-.602 3.612-1.337 7.77-1.633 9.24-.542 2.694-.507 2.72 4.837 3.69.413.076.75-.297.75-.828zm20.378-20.249c.84-2.867 1.32-5.422 1.065-5.677s-1.021.29-1.703 1.21c-1.04 1.404-1.846 1.505-4.99.63-2.062-.574-3.747-1.36-3.744-1.746.003-.387.486-2.435 1.074-4.55l1.068-3.848 3.668.688c2.018.379 4.04.918 4.495 1.199.454.28.59 1.125.301 1.877-.288.752-.164 1.59.277 1.862.441.273 1.487-1.963 2.323-4.968s1.117-5.463.623-5.463-1.14.632-1.437 1.405c-.45 1.175-1.794 1.07-8.218-.645-4.224-1.127-8.216-2.467-8.87-2.978-.655-.51-.945-1.57-.643-2.355.3-.785.12-1.427-.402-1.427-1.022 0-3.265 6.565-3.265 9.557v1.825l1.29-1.763c.96-1.313 2.001-1.584 4.08-1.062 1.536.385 3.021 1.299 3.302 2.03.636 1.658-1.52 8.413-2.684 8.413-.472 0-1.977-.426-3.346-.946-1.417-.54-2.66-1.938-2.887-3.25l-.398-2.304-1.05 2.5c-.579 1.375-1.356 4.075-1.727 6l-.674 3.5 1.42-1.768c.781-.972 2.04-1.559 2.797-1.304s4.64 1.406 8.627 2.56c5.817 1.682 7.25 2.483 7.25 4.054 0 1.077.191 1.958.425 1.958s1.113-2.346 1.953-5.214zm11.168-33.24c1.447-1.448 2.454-3.614 2.454-5.278 0-1.586.877-3.574 2-4.536 1.286-1.1 1.972-2.877 1.921-4.972l-.079-3.26-.975 2.664c-1.482 4.044-3.486 4.188-5.816.417-1.128-1.824-2.05-4.052-2.05-4.95 0-2.174-1.636-2.089-2.27.119-.277.962-.848 2.59-1.269 3.615-.64 1.56-.423 1.757 1.326 1.202 1.493-.474 2.387-.11 3.127 1.274.861 1.609.66 2.04-1.189 2.535-1.224.328-3.463.603-4.976.61-1.986.01-2.75-.486-2.75-1.786 0-2.284-1.89-4.2-4.143-4.2-1.81 0-4.857 3.545-4.857 5.65 0 1.968 2.973 4.35 5.427 4.35 1.717 0 2.514.803 3.212 3.237.875 3.05 4.193 5.714 7.157 5.748.712.008 2.4-1.09 3.75-2.44zm-7.296-2.587c-1.301-.517-2.25-1.751-2.25-2.927 0-1.772.64-2.032 5-2.032 3.342 0 4.995.414 4.985 1.25-.04 3.315-3.978 5.204-7.735 3.71zm-9.204-8.404c-1.046-1.26-.986-1.641.342-2.15 2.18-.837 4.876.303 4.362 1.845-.622 1.871-3.262 2.042-4.704.305zm32.942-19.037 3.084-4.482-2.786.504q-2.786.505-5.286-1.469l-2.5-1.973 1.683-2.799c2.657-4.419 4.158-4.905 7.592-2.46 2.302 1.64 2.906 2.707 2.495 4.412-.62 2.572.067 1.991 3.992-3.378 2.64-3.61 2.668-5.89.045-3.712-1.081.896-2.889.111-8.383-3.643-4.21-2.877-6.942-5.43-6.849-6.402.344-3.581-.213-3.421-3.075.884-3.217 4.84-3.878 6.973-1.564 5.053 1.022-.848 1.96-.893 3.25-.156 4.624 2.64 4.628 2.65 2.16 6.459-1.29 1.99-2.808 3.625-3.373 3.631-.565.007-2.067-.715-3.336-1.604-1.488-1.042-2.134-2.287-1.816-3.5.27-1.036.144-1.883-.282-1.883-1.174 0-6.28 8.092-5.56 8.813.347.346 1.02-.003 1.498-.776.69-1.116 2.37-.36 8.196 3.686 5.673 3.941 7.257 5.563 7.014 7.184-.172 1.151-.08 2.093.202 2.093s1.903-2.017 3.599-4.482zm20.262-25.57c1.585-1.717 2.75-4.123 2.75-5.68 0-2.012-1.52-4.11-5.97-8.24-5.044-4.682-5.875-5.929-5.357-8.035l.612-2.493-3.142 2.937c-1.729 1.615-3.143 3.583-3.143 4.372 0 1.147.294 1.192 1.465.22 1.176-.976 2.04-.806 4.383.862 3.758 2.677 9.152 8.818 9.152 10.421 0 .684-.7 2.243-1.556 3.465-2.456 3.506-6.045 2.807-12.086-2.354-4.673-3.993-5.274-4.919-4.708-7.25l.65-2.673-2.258 2c-1.242 1.1-3.154 3.257-4.25 4.794l-1.99 2.794 2.524-.634c2.018-.506 3.392.156 6.85 3.303 2.378 2.164 5.224 4.452 6.324 5.083s3.125.91 4.5.618c1.375-.291 3.738-1.87 5.25-3.51zm300.316-8.638c-.36-.94.985-6.274 3.034-12.025 2.026-5.685 3.441-10.577 3.146-10.872s-4.97 1.66-10.39 4.343c-5.435 2.69-10.753 4.691-11.856 4.459-1.695-.357-1.553.051.937 2.682 1.616 1.706 3.298 3.103 3.739 3.103s.693-.949.562-2.109.53-2.607 1.467-3.216c1.362-.885 2.218-.626 4.25 1.283 2.661 2.5 3.136 4.56 1.606 6.977-.753 1.19-1.178 1.212-2.485.128-2.815-2.337-1.663.251 1.62 3.64 3.47 3.58 5.4 4.29 4.37 1.607zm-3.474-13.437c-1.306-1.058-2.199-2.08-1.983-2.271s1.854-1.092 3.641-2c1.788-.91 3.25-1.244 3.25-.743s-.57 2.267-1.267 3.924l-1.266 3.013zm-286.169 10.538c3.444-2.897 4.176-5.07 1.166-3.459-1.631.873-2.673.145-7.1-4.964-2.852-3.294-4.93-5.988-4.617-5.988.314 0 4.029 2.044 8.256 4.543 4.435 2.622 8.058 4.171 8.566 3.663.51-.51-.403-4.219-2.156-8.771-1.67-4.34-3.038-8.239-3.038-8.665 0-.427 1.668 1.138 3.707 3.477 6.884 7.897 6.693 7.566 5.309 9.234-2.143 2.582.337 1.677 4.256-1.554 3.979-3.28 5.093-5.728 1.807-3.97-1.649.883-2.741.096-7.692-5.543-5.044-5.745-5.619-6.813-4.57-8.493.66-1.057.928-1.921.596-1.921s-1.952.96-3.6 2.133c-2.137 1.522-2.865 2.74-2.542 4.25.249 1.164 1.631 5.186 3.072 8.937l2.62 6.82-3.231-1.938a589 589 0 0 0-7.908-4.622l-4.676-2.684-3.324 3.136-3.324 3.135 2.32-.508c1.773-.389 3.14.398 5.788 3.328 1.906 2.11 4.424 5.055 5.595 6.544 1.744 2.217 1.917 3.047.955 4.588-.646 1.034-.755 1.88-.243 1.88s2.316-1.164 4.008-2.588zm274.52-16.634c.857-1.222 1.557-2.87 1.557-3.662s-1.416-3.647-3.147-6.345l-3.147-4.904 1.673-1.674 1.674-1.673 2.723 1.557c2.14 1.222 2.693 2.24 2.577 4.74-.081 1.751.144 3.17.5 3.152s1.43-1.107 2.385-2.421l1.737-2.39-3.064-2.58c-1.686-1.417-4.188-2.86-5.562-3.204-3.4-.854-7.165 1.045-7.903 3.985-.567 2.26-.15 3.337 4.252 10.983.855 1.487.892 2.448.127 3.37-1.385 1.67-3.961 1.64-6.301-.07-1.28-.936-1.816-2.492-1.722-5 .076-2.003-.227-3.641-.672-3.641s-1.368 1.228-2.052 2.73l-1.244 2.73 3.568 3.27c2.592 2.375 4.515 3.27 7.027 3.27 2.44 0 3.916-.655 5.015-2.223zm-251.393-2.303c3.15-1.629 4.018-3.756 1.334-3.268-.923.168-1.976-.656-2.455-1.92-.681-1.801-.304-2.595 2.021-4.25 1.572-1.12 3.282-2.036 3.8-2.036s1.714.855 2.66 1.9c1.126 1.245 1.353 2.129.655 2.56-.585.362-1.065 1.103-1.065 1.647s2.138-.495 4.75-2.31l4.75-3.297-2.454-.347c-1.35-.19-6.193-3.003-10.762-6.25-4.568-3.247-8.782-5.903-9.363-5.903s-.83.787-.554 1.75c1.622 5.659 3.75 18.863 3.364 20.878-.25 1.305-.268 2.372-.042 2.372s1.738-.687 3.36-1.526zm-3.318-13.724c-.272-1.788-.349-3.412-.17-3.61.177-.197 1.721.637 3.43 1.854l3.108 2.213-1.8 1.364c-.99.751-2.311 1.38-2.936 1.397s-1.36-1.43-1.632-3.218zm234.226 5.272c1.005-.537 3.544-3.913 5.643-7.501 2.965-5.07 4.216-6.397 5.608-5.955.985.313 1.788.2 1.785-.249-.007-.902-5.61-4.317-7.083-4.317-.51 0-.4.846.246 1.88.969 1.55.683 2.732-1.63 6.75-3.745 6.504-5.468 8.37-7.727 8.37-1.04 0-2.993-1.102-4.34-2.45-2.79-2.79-2.595-3.835 2.253-12.05 2.295-3.888 3.434-4.93 5.12-4.687 1.192.172 2.167.102 2.167-.155 0-.258-2.06-1.676-4.578-3.151-2.518-1.476-4.881-2.357-5.25-1.958-.37.398-.11.926.578 1.171.688.246 1.25.835 1.25 1.31 0 .474-1.575 3.55-3.5 6.834-1.925 3.285-3.5 6.939-3.5 8.12 0 3.147 1.687 5.78 4.775 7.457 3.221 1.748 5.677 1.922 8.183.581zm-209.492-4.707c3.733-1.78 4.906-3.885 1.576-2.828-1.619.513-2.485-.423-5-5.405-1.673-3.314-3.042-6.229-3.042-6.478 0-.44 11.296 5.615 15.705 8.418 1.212.771 2.537 1.07 2.943.664s-1.227-4.748-3.63-9.65c-3.678-7.504-4.163-9.157-3.07-10.473.933-1.124.968-1.563.125-1.563-1.791 0-7.073 2.936-7.073 3.932 0 .484.813.668 1.806.408 1.354-.354 2.503.81 4.599 4.662 1.536 2.823 2.567 5.36 2.29 5.637s-3.81-1.373-7.85-3.666c-5.866-3.331-7.832-4-9.763-3.322-1.33.467-2.605 1.412-2.834 2.1-.258.779.161 1.029 1.114.663 1.136-.435 2.603 1.55 5.701 7.71 2.55 5.072 3.737 8.442 3.054 8.67-1.07.357-1.616 2.206-.65 2.206.256 0 2.056-.759 4-1.685zm178.004-12.282c.98-1.082 1.78-3.191 1.78-4.688 0-1.965-1.177-3.725-4.236-6.334-2.877-2.452-4.118-4.239-3.865-5.562.216-1.131 1.346-2.088 2.694-2.28 2.745-.39 6.157 2.373 6.157 4.986 0 2.775 1.69 2.216 2.45-.81.755-3.008-.027-3.76-5.735-5.517l-3.785-1.166-2.715 2.018c-1.493 1.11-2.846 3.098-3.007 4.419-.212 1.742.94 3.611 4.2 6.81 3.673 3.605 4.313 4.745 3.507 6.25-.542 1.012-1.946 1.84-3.121 1.84-2.848 0-5.794-2.79-5.794-5.488 0-3.65-1.384-3.82-2.591-.32l-1.142 3.309 3.617 2.245c1.989 1.234 5.009 2.247 6.711 2.25 1.813.003 3.833-.81 4.875-1.962zm14.53-2.107c0-1.43-.538-1.97-1.738-1.738-.956.184-1.89 1.117-2.074 2.073-.23 1.2.308 1.739 1.739 1.739s2.073-.642 2.073-2.074zm-154.712-1.148c4.89-1.846 6.247-7.243 2.712-10.778-1.396-1.397-3.333-2-6.418-2-5.31 0-7.582-.76-7.582-2.536 0-2.075 2.916-4.464 5.45-4.464 1.268 0 2.866.675 3.55 1.5 2.054 2.474 2.966 1.7 1.832-1.554l-1.065-3.054-3.133.63c-4.968 1-8.092 3.754-8.457 7.454-.177 1.803.181 3.783.796 4.401.616.618 3.908 1.573 7.316 2.123 4.885.788 6.274 1.409 6.563 2.934.418 2.208-2.282 4.566-5.228 4.566-1.097 0-3.035-.977-4.305-2.17-1.271-1.195-2.53-1.952-2.797-1.685-.268.268.043 1.89.69 3.607l1.178 3.12 3.055-.52c1.68-.287 4.31-.995 5.843-1.574zm122.59-2.407c1.462-3.211.48-4.582-1.42-1.982-1.085 1.484-2.16 1.759-5.042 1.29-2.015-.326-3.883-.813-4.152-1.082-.85-.85 1.224-7.926 2.443-8.333.643-.214 2.08.523 3.194 1.637 1.115 1.114 2.205 1.705 2.424 1.312.22-.392.694-1.95 1.056-3.463.39-1.631.243-2.75-.362-2.75-.56 0-1.019.45-1.019 1s-1.184 1-2.63 1h-2.631l.588-3.624c.323-1.993.824-3.86 1.113-4.15.29-.289 1.996-.106 3.793.408 2.243.64 3.367 1.627 3.587 3.15.448 3.11 1.984 2.763 2.364-.534l.316-2.75-8-2.158c-7.726-2.084-10.77-2.193-7.318-.26l1.664.931-2.242 8.243c-1.568 5.763-2.748 8.34-3.923 8.567-3.342.643-1.543 1.915 5.57 3.938 3.987 1.134 7.74 2.102 8.339 2.15s1.628-1.094 2.287-2.54zm-105.406-2.025 7.528-1.655v-3.545c0-2.145-.357-3.17-.903-2.596-.496.522-1.062 1.834-1.257 2.914-.24 1.333-1.574 2.253-4.151 2.862-2.089.494-3.978.718-4.197.498-.22-.22-.703-2.295-1.074-4.612l-.673-4.212h2.427c1.336 0 3.028.562 3.76 1.25 1.1 1.032 1.22.651.69-2.177-.353-1.885-.897-3.681-1.207-3.992s-1.003.22-1.54 1.177c-.536.958-1.816 1.742-2.845 1.742-1.262 0-2.083-.968-2.524-2.976-.36-1.636-.37-3.436-.02-4 .347-.563 2.158-1.024 4.024-1.024 2.183 0 3.738.62 4.366 1.741 1.463 2.616 2.332.935 1.138-2.204-.702-1.847-1.537-2.55-2.56-2.158-.836.321-4.43 1.12-7.987 1.775S264 97.666 264 98.057c0 .39.817.924 1.815 1.185 1.379.36 2.13 2.249 3.131 7.867.725 4.065 1.531 7.954 1.793 8.642.261.687-.248 1.25-1.132 1.25s-1.607.45-1.607 1 .437 1 .972 1 4.36-.745 8.5-1.654zm85.055-2.956c1.35-.885 2.205-2.015 1.899-2.51-.306-.496-1.528-.222-2.714.61-1.186.83-3.606 1.51-5.378 1.51-2.194 0-3.716-.708-4.777-2.223-1.981-2.828-2-9.02-.039-12.812.835-1.615 2.594-3.206 3.907-3.536 3.176-.797 6.406 1.05 7.172 4.1.34 1.359 1.021 2.47 1.512 2.47.49 0 .891-1.566.891-3.48 0-2.96-.411-3.587-2.75-4.186-4.88-1.251-9.172-.782-11.993 1.312-3.286 2.439-5.438 8.2-4.61 12.342.329 1.641 1.729 4.116 3.112 5.499 1.923 1.923 3.547 2.514 6.913 2.514 2.42 0 5.504-.724 6.855-1.61zm-65.027-.443 2-.074-2.132-.86c-1.492-.603-2.26-1.965-2.56-4.541-.273-2.328.019-3.852.793-4.15.673-.257 3.12 1.59 5.439 4.105 3.126 3.39 4.957 4.573 7.088 4.573 1.58 0 2.872-.45 2.872-1s-.637-1-1.416-1-2.86-1.824-4.625-4.052l-3.21-4.052 2.126-2.263c1.169-1.244 2.125-2.873 2.125-3.619s-.745-2.18-1.655-3.185c-1.764-1.95-5.676-2.294-13.656-1.2l-4.591.63 1.9 1.62c1.453 1.238 2.062 3.567 2.581 9.87.596 7.236.48 8.25-.95 8.25-.896 0-1.629.51-1.629 1.132 0 .75 1.262.922 3.75.51 2.063-.34 4.65-.653 5.75-.694zm-3.742-15.642c-.26-2.093-.332-3.974-.158-4.18s1.538-.375 3.03-.375c1.493 0 3.31.815 4.04 1.812 1.102 1.508 1.096 2.16-.036 3.875-.748 1.135-2.495 2.2-3.881 2.368l-2.521.305zm48.242 14.695c0-.55-.675-1-1.5-1-1.104 0-1.5-1.151-1.5-4.36 0-2.399.292-6.488.648-9.088.48-3.506 1.19-4.945 2.75-5.576l2.102-.85-2.625-.063c-1.444-.035-4.031-.344-5.75-.688-2.018-.404-3.125-.227-3.125.5 0 .619.675 1.125 1.5 1.125 1.695 0 1.857 2.295.844 11.988-.546 5.224-1.01 6.378-2.75 6.858-1.833.505-1.72.66.906 1.247 4.682 1.046 8.5 1.004 8.5-.093zm-18.322-10.029c1.93-5.209 4.227-10.034 5.106-10.721 1.342-1.05.885-1.232-2.843-1.134-2.442.064-3.653.322-2.69.573.962.252 1.75.818 1.75 1.258 0 .818-1.847 6.162-3.99 11.553l-1.194 3-2.833-7-2.833-7 1.616-1.25c1.35-1.044.719-1.245-3.826-1.218-4.706.027-5.207.209-3.712 1.344 1.48 1.124 5.361 9.155 8.814 18.237.533 1.402 1.455 2.387 2.049 2.19s2.657-4.622 4.586-9.832z" transform="translate(-4.385 -4.721)"/></g></svg>