<svg xmlns="http://www.w3.org/2000/svg" version="1.1" viewBox="0 0 1133.1 281.2" aria-labelledby="cdc-logo-title"><title id="cdc-logo-title">Centers for Disease Control and Prevention logo</title><defs id="defs1"><clipPath id="clippath"><path style="fill:none" d="M-5.2 0h1116.3v286H-5.2z" id="path1"/></clipPath><style id="style1">.cls-30{fill:#0057b7}.cls-4{fill:#FF0000}</style></defs><g class="cls-1" id="g10"><path class="cls-30" d="M490.3 59.7c0-30.5-25.3-55.3-56.6-55.3H60.4C29.2 4.4 3.8 29.2 3.8 59.7v162c0 30.5 25.3 55.3 56.6 55.3h373.3c24.5 0 45.2-15.2 53.1-36.4 2.2-5.9 3.5-12.2 3.5-18.9z" id="path2" style="display:inline"/><path d="M490.3 59.7c0-30.5-25.3-55.3-56.6-55.3H60.4C29.2 4.4 3.8 29.2 3.8 59.7v162c0 30.5 25.3 55.3 56.6 55.3h373.3c24.5 0 45.2-15.2 53.1-36.4 2.2-5.9 3.5-12.2 3.5-18.9z" style="display:inline;fill:none;stroke:#fff;stroke-opacity:1;stroke-width:4;stroke-dasharray:none;stroke-linejoin:bevel;stroke-miterlimit:4;stroke-linecap:butt;paint-order:normal" id="path3"/><path class="cls-4" d="M220.5 75.1c.3 6.9-5.2 11.2-9.3 15.2l-42.5 35.8c-3.8 3.6-9.3 6.5-11.5 11.8-2.8 7-3.9 14.9-5.1 22.7-.7 5.6-5.9 10.5-10.8 12.5-3.8 1.3-8.3.7-12.5 1H114c-1.2.4-2.3 1-3 2.1l-.6 1.5c-1.6.2-1.1-1.1-1.3-2.1 0-3.3.8-6.7 3.2-8.6 1.3-1.3 3.1-1.6 4.9-1.9l21.6-.3c1.2 0 2.2-.8 3-1.4l.9-1.7c1.7-10.8 2.7-21.9 8.1-31.1 5-5.8 11.2-9.8 16.8-14.9 12.8-10.9 26.1-22 38.8-33 3.6-3.4 7.4-7.9 8.3-13.2l.5-1.4c2.9 1 5.2 3.8 5.4 7" id="path4"/><path class="cls-4" d="M232.9 87.2c.6 6.7-4.6 9.9-8.8 14.1l-17.4 14.9-30.8 26.2c-4.4 4.9-4.6 11.9-5.7 18.2.2 2.1 2.3 2.9 1.9 5l-4.3 7.7c.2 3.1 4 1.3 5.2 3.2 0 1.1-.7 2.5.2 3.4.6 1.1 3.1-.4 1.8 1.3-.4.3-.2 1-.1 1.3.5.7 1.5.7 1.6 1.7-.5 1.3-.5 3.1.3 4.2 5.4 5.8 14.6-1.4 20.1 4.1 1.4 1.2 1.4 3.6 1 5.3-3 8.7-20.6 9.4-14.6 21.8 1 2 3.4 3.4 5.7 3.6 2 .3 3.5-.5 5.2-1 .5 0 .6.5.8.8v.3c-5.1 3.6-11.7 9-18.4 5.1-3.4-2.2-5.1-6.6-4.3-10.9 2.1-6.9 9.9-8.6 13.9-14.4.9-1.7.7-3.9-.2-5.5-1.2-2.2-4.2-2.9-6.7-3.3-4.2 0-10.7 2.6-12.6-2.4-.6-1.9 1.4-5.2-1.7-5.7-.4-.5-1.4-1-.9-1.9.1-.5 1-.6.6-1.2-.6-.2-1.4 0-1.9-.6-1.7-1.9 3-3.9-.2-5.2-1.6-.2-3.8 1-4.9-.9-.5-1.7.8-3 1.4-4.4 1.1-2.4 4.3-4.1 3.4-7.2l-1.6-2.7c.5-6.2 1.5-12.3 3.1-18.2 2.1-6.5 8.4-10.2 13.3-14.7l25.9-21.9 18.3-16.1c3.2-2.9 5.9-6.3 5.8-10.7 1-.3 1.6.8 2.5 1.2 1.5 1.7 2.8 3 3.2 5.2" id="path5"/><path class="cls-4" d="M226 119.8c-3.4 5.4-9.1 9.5-14.2 13.8l-19.9 16.7c-3.6 3.3-4.6 9-3 13.5.2 2.2-1.6 3.7-2.1 5.7 0 .6.2 1.3.8 1.5.8.3 2.1 0 2.5 1 .1 1.2-.4 2.4.9 2.9.5.3 1.3-.6 1.3.3-.3.5-.5 1-.5 1.6.6 1.2 2.1.5 2.6 1.5.3 1.3.3 3.1 1.8 3.6 5.2.9 9.1-2.6 13.7-3.6 7.4-2.3 14.5.6 21.1 2.5 3.3.6 6.9.4 10.2 0l.2.2c-4.2 5.1-9.3 10.1-16.7 9.6-7.7-.3-12.6-7.5-20.9-6.1-5.6 1.1-11.1 4.5-17.1 2.2-1.5-1.2-2.2-3.4-1.6-5.6-.3-1.3-3.5-1.6-1.5-3.4-.6-.4-1.7 0-2-.9-.5-1.1.8-2.6-.6-3.3-1.2-.2-2.8.5-3.8-.5-.5-.6-.4-1.5-.2-2.3.9-2.1 3.3-3.8 2.8-6.3-1.6-1.5-1.1-4.1-.9-6.2.9-4.9 1.3-10 5.8-13.3l24.4-20.7c5.2-4.9 11.5-8.1 15.2-14.6 1.9 2.7 2.8 7 1.3 10.2m-74.4 72.4c6.9 2.9 14.2 5.9 20.4 9.9 1.5 1.2 2.9 3.1 2.6 5.4-2.1 8.8-14.4 9.7-12.6 20.1.6 3.9 3.1 7.2 6.9 8.3 1.7.5 4 .5 5.7 0 .3.7 1.5 1.3.1 1.8-5 3.2-11.5 6.8-17.6 3.7-3-1.4-4.8-4.6-5.5-7.7-1.2-9.4 7.5-12.3 11.9-18.6.7-1.2 1-2.7.7-4.2-.9-1.8-2.1-2.8-3.8-3.9-16.5-9.2-34.4-15.5-52.8-20.2-3.1-.3-7.8-2.1-9.8 1.5v.2c-1.6.3-1-1.6-1-2.5.5-3 2.3-5.4 5.1-6.6 4.8-1.4 9.8.3 14.5 1.1 11.9 3.4 23.7 7.1 35.1 11.8" id="path6"/><path class="cls-4" d="M147.3 230.6c-1.5.1-1.5.2-1.6.5v3.7c0 2.1 0 3.2.1 3.7 0 .4.1.4 1.6.5v.6h-4.6c-1.9 0-2.8-.4-3.7-1.2-.8-.7-1.4-1.9-1.4-3.4 0-2.4 1.4-4.8 5.1-4.9h4.4v.5Zm-3.2.7c0-.5-.1-.6-1-.6-2.6 0-3.7 1.3-3.6 4.2 0 3 1.2 4.1 3.8 4.1.9 0 1 0 1-.3l-.2-7.3Zm-7.3-.6c-1.3 0-1.3 0-1.4.4 0 .5-.2 1.5-.4 3.7-.2 2.1-.3 3.2-.3 3.6s0 .4 1.3.6v.6l-5.1-.4h-2.1v-2.6h.6c.2 1.7.5 2 2.4 2.1h1.2c.2.1.2 0 .3-.1l.3-3.1c0-.2 0-.2-.4-.3h-.4c-1.5-.2-1.6 0-1.8 1h-.6c0-.5.1-.9.2-1.6v-1.5h.6c0 1.1.1 1.3 1.2 1.4h.9c.2 0 .2 0 .3-.1l.3-3.4c0-.2 0-.3-.2-.3l-2.3-.2c-1.1 0-1.4.2-1.8 1.1l-.4.9-.6-.2c.2-.7.5-2 .6-2.6l7.6.6v.6Zm-8.7-.7c-1.4-.2-1.5-.1-1.6.2-.1.4-.3 1.5-.7 3.6s-.6 3.1-.6 3.6c0 .4 0 .4 1.4.8v.6l-5-.9c-1-.2-1.8-.6-2.2-1.2-.4-.5-.6-1.1-.5-1.8.4-1.9 2.1-2.4 4.5-1.9.4 0 .7.2.9.2l.6-3.2c0-.4 0-.4-1.6-.8v-.6l4.9.9v.6Zm-3.9 3.8c-.2 0-.4-.1-.6-.1-1.3-.2-2.6-.2-3 1.6-.3 1.7.7 2.1 2.2 2.4.6.1.7 0 .7-.2l.7-3.6Zm-3.4-5.1c-1.1-.2-1.3 0-2.1 1l-3.9 5.1c-.6.9-.8 1.1-1.1 1.5l-.7-.2v-1.7l-.8-7.1c0-1-.2-1.1-1.3-1.4l.2-.6 4.5 1.3-.2.5c-1.3-.3-1.5-.2-1.6.1v2.1s0 .1.1.2c.3.1 1 .3 2.3.7.8.2.9.2 1.1 0 .5-.7.9-1.4 1-1.5.1-.4 0-.5-1.2-1l.2-.5 3.5 1v.6Zm-6.5 1.6h-.2v.3l.3 3.6 2.2-3s.1-.1.1-.2l-.1-.1-2.4-.7Zm-3.6-4.5c-1.3-.4-1.4-.4-1.5 0-.3.4-.6 1.4-1.4 3.4s-1.2 3-1.3 3.4 0 .4 1.1 1l-.2.5-4.7-1.9c-1-.4-1.4-.7-1.8-1.3-.4-.5-.4-1.2 0-2 .7-1.9 2.9-1.4 2.9-1.5v-.4l-.9-3.5c-.2-.9-.3-1.1-.9-1.3l.2-.5 2.1.9 1.1 5.1c0 .2.1.2.6.4s.5.2.6 0c.9-2.3 1.1-2.6 1.2-3s0-.4-1.1-1l.2-.5 4.2 1.7-.2.5Zm-4.7 3.4c0-.2 0-.3-.7-.6-1.9-.8-2.7.2-3 .9-.4 1 0 2.1 1.4 2.6.9.4.9.3 1.1 0zm-4.9-7.5c-1.3-.6-1.4-.6-1.7-.3-.1.2-.4.6-.8 1.4l-2.9 5.6 1.4.7c.4.2.8 0 2-1.2l.5.4c-.4.4-.8 1.1-1.4 2.2-.2-.2-.4-.3-.7-.5-.2-.1-.4-.3-.7-.4l-4.2-2.2q-.75-.45-1.5-.6.75-1.65.9-2.4l.6.2c-.2 1.7-.2 2.1.2 2.3l1.4.7 2.9-5.6c.4-.7.6-1.2.7-1.4.1-.4 0-.4-1.2-1.2l.3-.5 4.3 2.2-.3.5Zm-6.3-3.1c-1.3-.8-1.4-.8-1.6-.5-.3.4-.9 1.3-2.1 3s-1.8 2.6-2 3c-.1.4-.1.4 1 1.3l-.3.5-3-2.1.2-.4 1.9-7.3-6.4 4.6-3-2 .3-.5c1.3.8 1.4.8 1.6.5.3-.4.9-1.3 2.1-3s1.8-2.6 2-3.1c.2-.3.1-.4-1-1.3l.3-.5 3.9 2.7-.3.5c-1.2-.7-1.4-.7-1.5-.4l-4.3 6.2 6.7-4.8c.2-.1.4-.3.6-.4l.8.6c0 .1-.1.3-.2.6l-2.2 8 3.6-5.2c.2-.4.5-.9.6-1.1.2-.3.1-.4-.9-1.2l.3-.5 3.2 2.2-.3.5Zm-10.5-7.3c-1-.8-1.1-.8-1.4-.5-.4.3-1.1 1.1-2.4 2.7-1.4 1.6-2.1 2.4-2.4 2.8-.2.3-.2.4.7 1.3l-.4.4-3.8-3.4c-.6-.5-1.2-1-1.7-1.3.4-.5 1.3-1.8 1.5-2.1l.5.3c-.9 1.6-.8 1.9.7 3.2l.9.8c.1.1.2 0 .4 0l2-2.3c.1-.1.1-.2-.2-.5l-.3-.3c-1.1-1-1.3-.9-2.1-.2l-.4-.4c.3-.3.6-.6 1-1.1.4-.4.7-.9 1-1.2l.5.4c-.6.8-.6 1.1.2 1.8l.7.6c.1 0 .2.1.3 0l2.3-2.6c.1-.1.1-.3 0-.4l-1.8-1.5c-.8-.7-1.2-.7-2-.2l-.8.5-.4-.6c.6-.5 1.6-1.3 2-1.7l5.7 5-.4.4Zm-6.5-5.7c-1-.9-1.1-.9-1.3-.7-.4.3-1.2 1-2.7 2.4s-2.4 2.2-2.6 2.5-.2.4.6 1.4l-.4.4-1.9-2.1c0-.2.1-.4.2-.7l1.7-7.4-1.6 1.4c-1.5 1.4-2.3 2.2-2.6 2.5-.2.3-.2.4.7 1.5l-.4.4-2.6-2.8.4-.4c.9.9 1 1 1.6.5s1.2-1 1.7-1.5c1.9-1.8 3.6-3.3 4.3-4.1l.7.7c-.4 1.1-.6 2-.9 3.3l-1.2 5.7 2-1.9c1.5-1.4 2.3-2.2 2.7-2.5.2-.3.2-.4-.9-1.7l.4-.4 2.7 2.9-.4.4Zm-8-9c-1-1.1-1-1.1-1.4-1-.2.1-.6.4-1.3.9l-5 3.8.9 1.2c.3.4.7.3 2.3-.2l.3.6c-.5.2-1.2.6-2.2 1.3-.1-.2-.3-.5-.4-.7s-.3-.4-.5-.7l-2.8-3.7c-.4-.5-.7-.9-1.1-1.2 1-.8 1.6-1.3 1.9-1.7l.5.4c-.9 1.4-1.1 1.8-.9 2.2l.9 1.3 5-3.8c.6-.5 1-.8 1.2-1 .3-.3.3-.3-.6-1.6l.5-.3 2.9 3.9-.5.4Zm-17.1-9.5c-1.2-2.2-.3-4.9 2.3-6.3s5.3-.6 6.5 1.6.3 4.9-2.3 6.3-5.3.6-6.5-1.6m8.2-4.4c-.7-1.3-2.5-1.7-5.1-.4-2.6 1.4-3.2 3.1-2.5 4.4s2.5 1.7 5.1.4c2.6-1.4 3.2-3.1 2.5-4.4m-2.6-4.7c-.6-1.1-.6-1.2-1-1.1s-1.5.5-3.4 1.3c-2 .8-3 1.2-3.4 1.4-.3.2-.3.2 0 1.5l-.5.2-1.9-4.7c-.3-.7-.7-1.4-.9-1.9.6-.3 2-1 2.3-1.2l.3.5c-1.5 1-1.5 1.4-.8 3.1l.5 1.1c0 .1.2.2.4.1l2.9-1.1c.1 0 .2-.1 0-.5v-.4c-.7-1.4-.9-1.4-1.9-1.1l-.2-.6c.4-.2.8-.3 1.4-.5.5-.2 1.1-.4 1.4-.6l.2.6c-.9.4-1 .7-.6 1.7l.4.9c0 .1.1.2.3.1l3.1-1.3c.3-.1.3-.2-.1-1.7l.5-.2 1.7 4.1-.6.2ZM54 166.6c-.4-1.3-.5-1.4-.9-1.4s-1.5.3-3.6.8-3.1.7-3.6.9c-.4.1-.4.2-.1 1.6h-.6c0 .1-1.1-4.5-1.1-4.5h.6c.4 1.2.5 1.3.8 1.2.3 0 1.1-.2 1.7-.3l.9-.2c.4 0 .4-.2.4-.5l-.8-3.5c0-.3-.2-.4-.5-.3l-.9.2c-.6.2-1.4.4-1.7.4-.4.1-.4.2-.2 1.6h-.6c0 .1-1.1-4.4-1.1-4.4h.6c.4 1.2.5 1.3.8 1.2.5 0 1.5-.3 3.6-.8 2-.5 3.1-.7 3.5-.9.4-.1.4-.2.1-1.6h.6c0-.1 1.1 4.5 1.1 4.5h-.6c-.4-1.2-.5-1.3-.8-1.2-.4 0-1.5.3-3 .7-.4 0-.4.1-.3.5l.8 3.5c0 .3.1.4.5.3 1.6-.4 2.6-.6 3-.8.4-.1.4-.2.1-1.6h.6c0-.1 1.1 4.5 1.1 4.5h-.6Zm-2.4-10.9c-.2-1.2-.3-1.3-.7-1.3-.5 0-1.5.1-3.6.4s-3.2.4-3.6.5c-.4 0-.4.1-.3 1.4h-.6l-.6-5c0-.8-.3-1.6-.4-2.1.6 0 2.2-.4 2.5-.6l.2.6c-1.7.6-1.9.9-1.6 2.8v1.2c.2.2.3.2.4.2l3.1-.4c.2 0 .2 0 .2-.5v-.4c-.2-1.5-.5-1.5-1.5-1.6v-.6c.4 0 .8 0 1.5-.2.5 0 1.1-.2 1.5-.2v.6c-.9.2-1.1.4-1 1.5v.9c.1.2.2.2.4.2l3.4-.4c.2 0 .3-.1.2-.3l-.3-2.3c-.1-1.1-.5-1.3-1.4-1.5l-1-.2v-.7c.9 0 2.1.1 2.8 0l.9 7.6h-.6Zm-1.1-8.3c0-1.1-.4-1.2-1.6-1.7l-5.9-2.2c-1-.4-1.3-.5-1.8-.6v-.7c.4 0 1.2-.3 1.6-.5l6.6-2.8c.9-.4 1-.5 1-1.6h.6v4.6h-.6c0-1.4-.2-1.5-.5-1.5s-1.8.6-1.9.7c0 0-.1 0-.1.2v2.4c0 .9 0 .9.4 1 .8.3 1.6.5 1.7.5.4 0 .5-.2.6-1.4h.6v3.6h-.6Zm-3.4-5.8v-.2h-.3l-3.4 1.3 3.5 1.3h.2v-2.7Zm3.3-4.8c0-1.3 0-1.4-.4-1.4s-1.5-.2-3.6-.4-3.2-.3-3.7-.3c-.4 0-.4 0-.6 1.4h-.6l.4-4.4h.6c0 1.4 0 1.4.4 1.5.3 0 1.1.1 1.7.2l5.4.5c.5 0 .6 0 .6-.5v-1.6c.2-1.3-.1-1.6-2-2.5l.2-.6c.5.2 2.1.5 2.7.6l-.7 7.5h-.6Zm.9-8.9c.1-1.5.1-1.5-.2-1.7-.3 0-.7-.2-1.5-.3l-6.2-1.1-.2 1.5c0 .5.3.7 1.7 1.5l-.2.6c-.5-.2-1.3-.4-2.5-.7 0-.3.2-.5.2-.8s.1-.5.2-.8l.8-4.6c.1-.6.2-1.1.2-1.6 1.2.2 2 .2 2.6.2v.6c-1.6.3-2 .4-2.1.9l-.3 1.6 6.2 1.1c.8.1 1.3.2 1.5.2.4 0 .4 0 .8-1.5h.6l-.8 4.9h-.6Zm1.1-6.5c.3-1.4.3-1.4 0-1.6-.4-.2-1.5-.5-3.5-1.1s-3.1-.9-3.5-.9-.4 0-.9 1.3l-.6-.2 1.3-4.5.6.2c-.3 1.4-.3 1.5 0 1.6s1 .4 1.7.5l.9.3c.4.1.4 0 .5-.3l1-3.4c0-.4 0-.4-.3-.5l-.9-.3c-.6-.2-1.4-.4-1.7-.4-.4 0-.4 0-.9 1.3l-.6-.2 1.3-4.5.6.2c-.3 1.4-.3 1.5 0 1.6.4.2 1.5.5 3.5 1 2 .6 3.1.9 3.6.9.4 0 .4 0 .9-1.3h.6c0 .1-1.3 4.7-1.3 4.7l-.6-.2c.3-1.4.3-1.5 0-1.6q-.6-.3-3-.9c-.4-.1-.4 0-.6.2l-1 3.5c0 .3 0 .4.3.5 1.5.4 2.6.7 3 .8.4 0 .4 0 .9-1.3h.5c0 .1-1.3 4.7-1.3 4.7h-.6Zm8.9-23.7c.1.9 0 1.6-.2 2.2-.3.6-.8.9-1.8 1.3.3.9.3 1.9-.2 2.9-.8 1.7-2.5 2-3.8 1.4-1.2-.6-1.8-1.6-1.8-3.6-1.5.1-1.9 0-2.4-.1-.8-.4-1.3-1.3-.7-2.6.6-1.2 1.4-1.7 2.5-1.2 1 .5 1.2 1.5 1.2 2.5 1.5 0 2.8-.2 4.2-.4-.3-.8-.9-1.6-1.3-1.8s-.6 0-.9.5l-.5-.2 1.3-2.8.5.2c-.3.6-.3 1.2.3 2 .3.4.8 1.1 1.2 2 1.1-.3 1.4-.4 1.7-.9.2-.4.2-.9.1-1.6l.6.3Zm-7.8 2.9c0-.7-.5-1.3-1-1.5s-1.2-.3-1.5.3c-.2.4 0 .9.6 1.2.4.2 1 .3 1.9 0m5 2.5c.2-.4.3-1 .1-1.7-1.2.3-3.5.5-4.6.5 0 1 .3 1.6 1.2 2 1 .5 2.7.4 3.3-.9m5.1-9.4c.7-1.2.7-1.3.4-1.5-.3-.3-1.2-.9-3-2.1-1.7-1.2-2.6-1.8-3-2.1-.3-.2-.4-.1-1.3.9l-.5-.3 2.7-3.9.5.3c-.7 1.2-.7 1.3-.5 1.5s.9.7 1.4 1.1l.7.5c.3.2.4.2.6 0l2.1-2.9c.2-.3.2-.4-.2-.6l-.8-.5c-.5-.4-1.2-.8-1.5-1s-.4-.1-1.3 1l-.5-.3 2.7-3.9.5.3c-.7 1.2-.7 1.3-.5 1.5.4.3 1.2.9 3 2.2 1.7 1.2 2.6 1.8 3 2.1.3.2.4.1 1.3-1l.5.3-2.7 3.9-.5-.3c.7-1.2.7-1.3.5-1.5-.3-.2-1.2-.9-2.5-1.8-.3-.2-.4-.2-.6 0L62 88.4c-.2.3-.2.4.2.6 1.3.9 2.2 1.5 2.6 1.7.3.2.4.1 1.3-1l.4.3-2.7 3.9-.5-.3Zm-.2-15.1 3.2-3.5.4.4c-.9 1.1-.9 1.2-.6 1.5s1.1 1.1 3.7 3.4c.8.7 2.3 1.6 3.7 0 1.6-1.8.9-2.8-1.2-4.7-1.6-1.5-2.5-2.2-2.9-2.5-.3-.2-.4-.2-1.4.8l-.4-.4 2.6-2.9.4.4c-.9 1.1-.9 1.2-.6 1.5s1.1 1.1 3.3 3.1c1.6 1.4 2.9 3 .5 5.5-1.4 1.6-3.3 2-5.2.3-2.5-2.3-3.3-3-3.7-3.3-.3-.2-.4-.2-1.4.8zm13.5-1.8c1.1-1 1.1-1.1.9-1.4-.3-.4-1-1.2-2.3-2.8-1.4-1.6-2.1-2.4-2.5-2.7-.3-.3-.4-.2-1.5.6l-.4-.4 2.8-2.4s.2.2.3.2l6.5 3.8-2.9-7.5 2.7-2.3.4.4c-1.1 1-1.1 1.1-.9 1.4.3.4 1 1.2 2.3 2.8 1.4 1.6 2.1 2.4 2.4 2.7s.3.2 1.5-.7l.4.4-3.6 3.1-.4-.4c1-1 1-1.1.8-1.4l-4.9-5.7 2.9 7.7c0 .2.2.5.3.7l-.8.7c-.1-.1-.3-.2-.5-.3L73.2 69l4.1 4.8c.3.3.7.8.9.9.3.2.4.2 1.4-.5l.4.4-3 2.5-.4-.4Zm10.2-8.6c.8-.6.8-1 .6-2.2l-1.3-6.2c-.2-1-.3-1.3-.4-1.8l.6-.4c.3.3.9.8 1.3 1.1l5.9 4.1c.8.6.9.6 1.9 0l.3.5-3.9 2.5-.3-.5c1.1-.8 1.2-.9 1-1.2-.1-.2-1.5-1.2-1.6-1.3H91c-.3.2-.9.5-2.1 1.2-.7.5-.7.6-.7.9.2.9.4 1.6.5 1.7.2.3.4.3 1.5-.3l.3.5-3.1 2-.3-.5Zm3.1-5.9s.1-.1 0-.2c0 0-.2-.1-.2-.2l-2.9-2.1.7 3.7v.2h.2l2.1-1.4Zm5.9.1c1.1-.7 1.2-.8 1-1.1-.1-.4-.6-1.4-1.6-3.3-.9-1.9-1.4-2.9-1.7-3.2-.2-.3-.3-.3-1.5.2l-.3-.5 2.5-1.2c.1 0 .4.2.6.4l6.6 3.7-.9-1.9c-.9-1.9-1.4-2.8-1.7-3.2-.2-.3-.3-.3-1.7.2l-.3-.5 3.5-1.7.3.5c-1.1.6-1.2.7-.9 1.4.3.6.6 1.4 1 2.1 1.2 2.4 2.2 4.4 2.8 5.3l-.9.4c-1-.7-1.8-1.2-2.9-1.8l-5.1-2.8 1.2 2.5c.9 1.9 1.4 2.9 1.7 3.2.2.3.3.3 1.8-.3l.3.5-3.6 1.8-.2-.5Zm14.2-9.1c.9 1.4 1.9 2.3 3.3 1.8 1.4-.4 1.9-1.5 1.7-2.3-.3-.9-1-.9-2.1-1h-1.1c-2.6 0-3.1-.8-3.4-1.8-.5-1.7.5-3.2 2.5-3.9 1-.3 1.9-.4 2.6-.5 0 .2 0 .4.2.6.2.6.4 1.2.7 1.9l-.6.2c-.7-1.5-1.7-1.9-2.9-1.5-1.1.3-1.7 1.3-1.5 2.1.2.6.6.9 1.7.9h2.4c1.5.2 2.3.7 2.7 1.9.5 1.7-.6 3.3-2.7 3.9-1 .3-2.1.2-3 .5-.2-.7-.7-1.8-1.1-2.7l.6-.3Zm7.6.4c1.2-.4 1.3-.4 1.2-.8 0-.5-.3-1.5-.7-3.6s-.7-3.1-.8-3.6c-.1-.4-.2-.4-1.4-.2v-.5c-.1 0 4.9-1.1 4.9-1.1.8-.2 1.5-.4 2-.6.1.6.6 2.1.8 2.5l-.5.2c-.7-1.6-1.1-1.8-2.9-1.4l-1.2.2c-.1 0-.2.1-.2.3l.6 3c0 .2 0 .2.5.2h.4c1.5-.4 1.5-.6 1.4-1.6h.6c0 .3.1.7.3 1.4.1.5.3 1.1.4 1.5h-.6c-.3-.8-.5-1-1.6-.8l-.9.2c-.1 0-.2.1-.2.3l.7 3.4c0 .2.1.2.3.2l2.3-.5c1.1-.2 1.3-.6 1.4-1.5v-1h.7c0 .8 0 2.1.2 2.6l-7.5 1.6v-.6Zm8.6-1.8c1.4-.2 1.4-.3 1.4-.7 0-.5 0-1.6-.3-3.6-.2-2.1-.3-3.2-.4-3.6 0-.4-.2-.4-1.6-.4v-.6l5.2-.5c1.1-.1 1.7 0 2.3.3s1 .9 1.1 1.7c.2 2-2 2.6-2 2.7 0 0 0 .1.2.3l2.5 2.7c.6.7.8.8 1.5.7v.6l-2.3.2-3.5-4c-.1-.1-.2-.1-.8 0-.5 0-.6 0-.6.2.2 2.4.3 2.8.4 3.2 0 .4.2.4 1.6.4v.6l-4.6.5v-.6Zm2.7-5.2c0 .2 0 .3 1 .2 2.1-.2 2.4-1.4 2.3-2.1-.1-1.1-1.1-1.8-2.6-1.6-1 0-1 .1-1 .5l.3 3.1Zm5.4-4.6h4.7v.5h-.6c-.6 0-.8.2-.8.4 0 .3.7 2.1 1.4 3.9l1 2.6 1-2.8c.6-1.6 1.3-3.4 1.3-3.8s-.2-.4-1.4-.4v-.6h3.7v.6h-.4c-.6 0-.9.3-1.5 1.9-2.1 5.5-2.3 6.1-2.5 7.3h-.9c-.1-.9-2.5-6.4-3.2-7.9-.6-1.2-.7-1.2-1.7-1.2v-.6Zm10.6 8.9c1.5 0 1.6 0 1.6-.4 0-.5.2-1.5.3-3.6.2-2.1.3-3.2.2-3.7 0-.4 0-.4-1.6-.6V42l4.9.4v.6c-1.5 0-1.6 0-1.7.4-.1.5-.2 1.5-.4 3.6s-.3 3.2-.2 3.6c0 .4 0 .4 1.6.6v.6l-4.9-.4v-.6Zm14.5.3c-1.4 1.4-2.7 2-4.5 1.7-2.2-.4-4.2-2.2-3.7-5.6.4-2.5 2.4-4.7 5.7-4.2.9.1 2 .5 2.8.9v2.6h-.7c-.2-1.6-.9-2.6-2.4-2.9-1.7-.3-3.1 1.2-3.5 3.8-.4 2.7.8 4.4 2.4 4.6 1.4.2 2.6-.3 3.6-1.3l.5.5Zm.2 1.7c1.2.2 1.3.2 1.4-.1.2-.4.5-1.5 1-3.5.6-2.1.8-3.1.9-3.6 0-.4 0-.4-1.2-.9v-.6c.1 0 5.1 1.3 5.1 1.3.8.2 1.5.3 2.1.4-.2.6-.4 2.2-.4 2.6h-.6c0-1.9-.1-2.1-2-2.6l-1.2-.3c-.2 0-.3 0-.3.2l-.8 3c0 .2 0 .2.3.4h.4c1.4.5 1.6.3 2-.6l.6.2c-.1.4-.3.8-.4 1.5-.1.5-.3 1.1-.4 1.5h-.6c.2-1.1 0-1.4-1-1.7l-.9-.3c-.1 0-.3 0-.3.2l-.9 3.3c0 .2 0 .3.2.3l2.3.6c1.1.3 1.4 0 1.9-.7l.5-.8.6.4c-.3.7-.8 1.9-1 2.4l-7.4-2 .2-.6Zm10.3.2c-.2 1.7.1 3 1.5 3.5s2.4 0 2.7-.8-.2-1.4-1-2l-.9-.7c-2-1.6-2-2.5-1.6-3.5.6-1.7 2.4-2.2 4.4-1.5 1 .3 1.8.8 2.4 1.2 0 .2-.1.4-.2.6-.2.6-.4 1.2-.6 1.9l-.6-.2c.4-1.7-.2-2.5-1.4-2.9-1.1-.4-2.2 0-2.5.8-.2.6 0 1.1.8 1.7l1.8 1.6c1.2 1 1.4 1.9 1 3.1-.7 1.7-2.4 2.2-4.5 1.5-.9-.3-1.8-1.1-2.7-1.4.2-.7.6-1.9.8-2.8h.7Zm11 1.9c.5.2.7.8.4 1.3-.2.5-.8.7-1.3.4-.5-.2-.7-.8-.4-1.2.2-.5.8-.7 1.3-.5m4.4-2.3 4.1 2.4-.3.5c-1.3-.6-1.3-.6-1.6-.3-.3.4-.8 1.3-2.6 4.3-.5.9-1.1 2.6.7 3.6 2.1 1.2 2.9.4 4.4-2.1 1.1-1.9 1.7-2.9 1.9-3.3.1-.3 0-.4-1.1-1.3l.3-.5 3.4 2-.3.5c-1.2-.6-1.3-.6-1.6-.3-.3.4-.8 1.3-2.3 3.9-1.1 1.8-2.3 3.4-5.3 1.7-1.9-1.1-2.6-2.8-1.3-5 1.7-2.9 2.3-3.9 2.4-4.3.2-.4.1-.4-1-1.2l.3-.5Zm7.4 11.9c-.6 1.6-.7 2.9.5 3.8s2.4.6 2.9 0c.5-.7.1-1.4-.4-2.2l-.6-.9c-1.5-2.1-1.2-2.9-.5-3.8 1-1.4 2.9-1.5 4.6-.3.8.6 1.5 1.3 1.9 1.8 0 .1-.3.3-.4.5-.4.5-.7 1.1-1.1 1.7l-.5-.4c.8-1.5.5-2.4-.5-3.2-1-.7-2.1-.6-2.6 0-.4.5-.4 1 .2 1.9l1.4 2c.9 1.3.9 2.2.1 3.2-1.1 1.5-3 1.5-4.7.2-.8-.6-1.4-1.6-2.2-2.1.4-.6 1.1-1.6 1.5-2.4l.6.3Zm4.1 6.2c.8.7 1.2.5 2.3 0l5.7-2.8c1-.5 1.2-.6 1.7-.9l.5.5c-.2.4-.5 1.1-.7 1.5l-2.4 6.7c-.3.9-.4 1 .5 1.8l-.4.4-3.4-3.1.4-.4c1.1.9 1.2.9 1.5.6.2-.2.8-1.7.8-1.9V73c-.2-.3-.7-.8-1.7-1.7-.6-.6-.7-.6-1-.4-.8.4-1.5.8-1.6.9-.3.3-.2.5.7 1.4l-.4.4-2.7-2.5.4-.4Zm6.5 1.4h.2s.1-.2.1-.3l1.3-3.4-3.3 1.7s-.2 0-.2.1v.2l1.8 1.7Z" id="path7"/><path d="M550 73.1c0 1.6-.2 3.1-.7 4.4s-1.2 2.5-2.1 3.5-2.1 1.8-3.5 2.3c-1.4.6-3 .8-4.9.8s-3.5-.3-4.9-.8c-1.4-.6-2.6-1.3-3.5-2.3s-1.7-2.1-2.1-3.5c-.5-1.3-.7-2.8-.7-4.4V56.6h5.9v16.2c0 .8.1 1.6.4 2.3s.6 1.3 1.1 1.8 1.1.9 1.7 1.2c.7.3 1.4.4 2.2.4s1.5-.1 2.2-.4 1.2-.7 1.7-1.2.9-1.1 1.1-1.8c.3-.7.4-1.5.4-2.3V56.6h5.9v16.5Zm3.8 7c0-.5 0-.9.3-1.4.2-.4.4-.8.7-1.1s.7-.6 1.1-.7c.4-.2.9-.3 1.4-.3s.9 0 1.4.3c.4.2.8.4 1.1.7s.6.7.7 1.1c.2.4.3.9.3 1.4s0 .9-.3 1.4c-.2.4-.4.8-.7 1.1s-.7.6-1.1.7c-.4.2-.9.3-1.4.3s-.9 0-1.4-.3c-.4-.2-.8-.4-1.1-.7s-.6-.7-.7-1.1c-.2-.4-.3-.9-.3-1.4m25.5-17c-.5-.6-1.1-1.1-1.9-1.3-.8-.3-1.6-.4-2.3-.4s-.9 0-1.3.1c-.5.1-.9.3-1.3.5s-.7.5-1 .9-.4.8-.4 1.3c0 .8.3 1.4.9 1.9.6.4 1.4.8 2.3 1.1q1.35.45 3 .9c1.1.3 2 .7 3 1.3.9.6 1.7 1.3 2.3 2.2s.9 2.2.9 3.7-.3 2.8-.8 3.9c-.6 1.1-1.3 2-2.3 2.8-.9.7-2.1 1.3-3.3 1.6-1.2.4-2.6.5-4 .5s-3.4-.3-4.8-.8c-1.5-.5-2.9-1.4-4.2-2.6l4.2-4.6c.6.8 1.4 1.4 2.3 1.9.9.4 1.9.7 2.9.7s1 0 1.5-.2c.5-.1.9-.3 1.3-.5q.6-.3.9-.9c.2-.4.4-.8.4-1.2 0-.8-.3-1.4-.9-1.9s-1.4-.9-2.3-1.2-1.9-.7-3-1-2.1-.8-3-1.3c-.9-.6-1.7-1.3-2.3-2.2q-.9-1.35-.9-3.6c0-2.25.3-2.7.9-3.8s1.3-2 2.3-2.7c.9-.7 2-1.3 3.3-1.6 1.2-.4 2.5-.6 3.8-.6s3 .2 4.4.6 2.7 1.1 3.8 2.2l-4.1 4.4Zm7.7 17c0-.5 0-.9.3-1.4.2-.4.4-.8.7-1.1s.7-.6 1.1-.7c.4-.2.9-.3 1.4-.3s.9 0 1.4.3c.4.2.8.4 1.1.7s.6.7.7 1.1c.2.4.3.9.3 1.4s0 .9-.3 1.4c-.2.4-.4.8-.7 1.1s-.7.6-1.1.7c-.4.2-.9.3-1.4.3s-.9 0-1.4-.3c-.4-.2-.8-.4-1.1-.7s-.6-.7-.7-1.1c-.2-.4-.3-.9-.3-1.4m23-23.5h8.9c2.1 0 4.2.2 6.1.7s3.6 1.3 5.1 2.3c1.4 1.1 2.6 2.5 3.4 4.2s1.3 3.8 1.3 6.2-.4 4.1-1.2 5.7c-.8 1.7-1.9 3-3.3 4.2-1.4 1.1-3 2-4.8 2.6q-2.7.9-5.7.9h-9.7V56.6Zm5.9 21.3h3.1c1.4 0 2.6-.1 3.8-.4s2.2-.7 3-1.4c.9-.6 1.5-1.5 2-2.5s.7-2.3.7-3.8-.2-2.5-.7-3.4c-.5-1-1.2-1.8-2-2.4s-1.8-1.1-2.9-1.4-2.3-.5-3.5-.5h-3.5V78Zm22.8-21.3h18.2V62h-12.3v5h11.7v5.5h-11.7v5.4h13v5.5h-18.9zm23.5 0h10c1.4 0 2.7.1 3.9.4s2.3.7 3.2 1.3 1.7 1.4 2.2 2.5c.5 1 .8 2.4.8 4s-.3 2.9-.8 3.9-1.2 1.9-2.1 2.5-1.9 1.1-3.1 1.3c-1.2.3-2.5.4-3.9.4h-4.3v10.4h-5.9V56.5Zm5.9 11.3h3.9c.5 0 1 0 1.5-.1s.9-.3 1.3-.5.7-.6.9-1 .4-.9.4-1.6-.2-1.2-.5-1.6-.7-.7-1.2-1c-.5-.2-1-.4-1.6-.4h-4.7v6.4Zm24.2-11.3h4.9l11.7 26.8h-6.7l-2.3-5.7h-10.4l-2.2 5.7h-6.5l11.6-26.8Zm2.3 7.8-3.3 8.3h6.6zm16.8-7.8h10.4c1.4 0 2.7.1 3.9.4s2.3.7 3.2 1.3 1.7 1.5 2.2 2.5c.5 1.1.8 2.4.8 3.9s-.5 3.5-1.5 4.8-2.4 2.2-4.3 2.5l6.8 11.3h-7.1l-5.6-10.7h-2.9v10.7h-5.9V56.5Zm5.9 11.1h5.2c.6 0 1.1-.1 1.6-.3q.75-.3 1.2-.9c.3-.4.5-1 .5-1.7s-.1-1.2-.4-1.6-.6-.7-1.1-.9c-.4-.2-.9-.4-1.5-.4s-1.1-.1-1.6-.1h-3.9v6.1Zm24.1-5.9h-7.7v-5.2h21.2v5.2h-7.6v21.6h-5.9zm16.2-5.2h8.9l6.2 17.5h.1l6.2-17.5h8.9v26.8H782V62.8h-.1l-7 20.6h-4.5l-6.8-20.6h-.1v20.6h-5.9zm35.8 0h18.2V62h-12.3v5h11.6v5.5h-11.6v5.4h13v5.5h-18.9zm23.5 0h8l11.4 18.6h.1V56.6h5.9v26.8h-7.7l-11.7-19.1h-.1v19.1h-5.9zm35.7 5.2H845v-5.2h21.2v5.2h-7.7v21.6h-5.9zm26.3 8.2c0-2.1.4-4.1 1.1-5.8s1.7-3.2 3-4.4 2.8-2.2 4.6-2.8c1.8-.7 3.7-1 5.8-1s4 .3 5.8 1 3.3 1.6 4.6 2.8 2.3 2.7 3 4.4 1.1 3.7 1.1 5.8-.4 4.1-1.1 5.8-1.7 3.2-3 4.4-2.8 2.2-4.6 2.8c-1.8.7-3.7 1-5.8 1s-4-.3-5.8-1-3.3-1.6-4.6-2.8-2.3-2.7-3-4.4-1.1-3.7-1.1-5.8m6.2 0c0 1.3.2 2.4.6 3.5s1 2 1.7 2.7c.7.8 1.6 1.4 2.6 1.8s2.2.6 3.4.6 2.4-.2 3.4-.6 1.9-1 2.6-1.8 1.3-1.7 1.7-2.7.6-2.2.6-3.5-.2-2.4-.6-3.4c-.4-1.1-.9-2-1.7-2.7-.7-.8-1.6-1.4-2.6-1.8s-2.2-.6-3.4-.6-2.4.2-3.4.6-1.9 1-2.6 1.8-1.3 1.7-1.7 2.7c-.4 1.1-.6 2.2-.6 3.4m26.8-13.4h18V62h-12.1v5.5H929v5.4h-11.2v10.5h-5.9zm-384.5 46.9h5.9v10h11.5v-10h5.9v26.8h-5.9v-11.6h-11.5v11.6h-5.9zm28.4 0h18.3v5.4h-12.3v5h11.6v5.5h-11.6v5.4h12.9v5.5h-18.9zm32.3 0h4.9l11.7 26.8H598l-2.3-5.7h-10.4l-2.2 5.7h-6.5l11.6-26.8Zm2.3 7.8-3.3 8.3h6.6zm16.5-7.8h5.9v21.3h11v5.5h-16.9zm21.8 5.2h-7.6v-5.2h21.2v5.2h-7.7v21.6h-5.9zm15.9-5.2h5.9v10H662v-10h5.9v26.8H662v-11.6h-11.5v11.6h-5.9zm48 0h4.9l11.7 26.8h-6.7l-2.3-5.7h-10.4l-2.2 5.7h-6.5l11.6-26.8Zm2.3 7.8-3.3 8.3h6.6zm16.4-7.8h8l11.4 18.6h.1v-18.6h5.9v26.8H729l-11.7-19.1h-.1v19.1h-5.9zm30.4 0h8.9c2.1 0 4.2.2 6.1.7s3.6 1.3 5.1 2.3c1.4 1.1 2.6 2.5 3.4 4.2s1.3 3.8 1.3 6.2-.4 4.1-1.2 5.7c-.8 1.7-1.9 3-3.3 4.2-1.4 1.1-3 2-4.8 2.6q-2.7.9-5.7.9h-9.7v-26.8Zm5.9 21.3h3.1c1.4 0 2.6-.1 3.8-.4s2.2-.7 3-1.4c.9-.6 1.5-1.5 2-2.5s.7-2.3.7-3.8-.2-2.5-.7-3.4c-.5-1-1.2-1.8-2-2.4s-1.8-1.1-2.9-1.4-2.3-.5-3.5-.5h-3.5v15.9Zm33.3-21.3h5.9v10h11.5v-10h5.9v26.8h-5.9v-11.6h-11.5v11.6h-5.9zm50.9 16.4c0 1.6-.2 3.1-.7 4.4s-1.2 2.5-2.1 3.5-2.1 1.8-3.5 2.3c-1.4.6-3 .8-4.9.8s-3.5-.3-4.9-.8c-1.4-.6-2.6-1.3-3.5-2.3s-1.7-2.1-2.1-3.5c-.5-1.3-.7-2.8-.7-4.4v-16.5h5.9v16.2c0 .8.1 1.6.4 2.3s.6 1.3 1.1 1.8 1.1.9 1.7 1.2c.7.3 1.4.4 2.2.4s1.5-.1 2.2-.4 1.2-.7 1.7-1.2.9-1.1 1.1-1.8c.3-.7.4-1.5.4-2.3v-16.2h5.9v16.5Zm4.9-16.4h8.9l6.2 17.5h.1l6.2-17.5h8.9v26.8h-5.9v-20.6h-.1l-7 20.6h-4.5l-6.8-20.6h-.1v20.6h-5.9zm44 0h4.9l11.7 26.8h-6.7l-2.3-5.7h-10.4l-2.2 5.7h-6.5l11.6-26.8Zm2.3 7.8-3.3 8.3h6.6zm16.4-7.8h8.1l11.4 18.6v-18.6h5.9v26.8h-7.7l-11.7-19.1h-.1v19.1h-5.9zM954 110c-.5-.6-1.1-1.1-1.9-1.3-.8-.3-1.6-.4-2.3-.4s-.9 0-1.3.1c-.5.1-.9.3-1.3.5s-.7.5-1 .9-.4.8-.4 1.3c0 .8.3 1.4.9 1.9.6.4 1.4.8 2.3 1.1q1.35.45 3 .9c1.1.3 2 .7 3 1.3.9.6 1.7 1.3 2.3 2.2s.9 2.2.9 3.7-.3 2.8-.8 3.9c-.6 1.1-1.3 2-2.3 2.8-.9.7-2.1 1.3-3.3 1.6-1.2.4-2.6.5-4 .5s-3.4-.3-4.8-.8c-1.5-.5-2.9-1.4-4.2-2.6l4.2-4.6c.6.8 1.4 1.4 2.3 1.9.9.4 1.9.7 2.9.7s1 0 1.5-.2c.5-.1.9-.3 1.3-.5s.7-.5.9-.9.4-.8.4-1.2c0-.8-.3-1.4-.9-1.9s-1.4-.9-2.3-1.2-1.9-.7-3-1-2.1-.8-3-1.3c-.9-.6-1.7-1.3-2.3-2.2q-.9-1.35-.9-3.6c0-2.25.3-2.7.9-3.8s1.3-2 2.3-2.7c.9-.7 2-1.3 3.3-1.6 1.2-.4 2.5-.6 3.8-.6s3 .2 4.4.6 2.7 1.1 3.8 2.2l-4.1 4.4Zm7.9-6.5h18.3v5.4h-12.4v5h11.7v5.5h-11.7v5.4h13v5.5h-18.9zm23.2 0h10.4c1.4 0 2.7.1 3.9.4s2.3.7 3.2 1.3 1.7 1.5 2.2 2.5c.5 1.1.8 2.4.8 3.9s-.5 3.5-1.5 4.8-2.4 2.2-4.3 2.5l6.8 11.3h-7.1l-5.6-10.7H991v10.7h-5.9v-26.8Zm5.9 11.1h5.2c.6 0 1.1-.1 1.6-.3q.75-.3 1.2-.9c.3-.4.5-1 .5-1.7s-.1-1.2-.4-1.6-.6-.7-1.1-.9c-.4-.2-.9-.4-1.5-.4s-1.1-.1-1.6-.1H991v6.1Zm14.9-11.1h6.8l6.6 17.5h.1l6.7-17.5h6.4l-11.1 26.8h-4.7zm28.7 0h5.9v26.8h-5.9zm28.4 6.9c-.6-.7-1.3-1.2-2.1-1.6-.9-.4-1.8-.6-2.9-.6s-2.1.2-3.1.6c-.9.4-1.8 1-2.5 1.8s-1.2 1.7-1.6 2.7c-.4 1.1-.6 2.2-.6 3.4s.2 2.4.6 3.5.9 2 1.6 2.7q1.05 1.2 2.4 1.8t3 .6c1.65 0 2.3-.3 3.2-.8s1.7-1.2 2.3-2.1l4.9 3.7c-1.1 1.6-2.6 2.8-4.3 3.5-1.7.8-3.5 1.1-5.4 1.1s-4-.3-5.8-1-3.3-1.6-4.6-2.8-2.3-2.7-3-4.4-1.1-3.7-1.1-5.8.4-4.1 1.1-5.8 1.7-3.2 3-4.4 2.8-2.2 4.6-2.8c1.8-.7 3.7-1 5.8-1s1.5 0 2.4.2c.8.1 1.6.4 2.4.7s1.6.7 2.3 1.2 1.4 1.1 2 1.9l-4.5 3.7Zm7.8-6.9h18.2v5.4h-12.3v5h11.6v5.5h-11.6v5.4h13v5.5h-18.9zm36.3 6.5c-.5-.6-1.1-1.1-1.9-1.3-.8-.3-1.6-.4-2.3-.4s-.9 0-1.3.1c-.5.1-.9.3-1.3.5s-.7.5-1 .9-.4.8-.4 1.3c0 .8.3 1.4.9 1.9.6.4 1.4.8 2.3 1.1q1.35.45 3 .9c1.1.3 2 .7 3 1.3.9.6 1.7 1.3 2.3 2.2s.9 2.2.9 3.7-.3 2.8-.8 3.9c-.6 1.1-1.3 2-2.3 2.8-.9.7-2.1 1.3-3.3 1.6-1.2.4-2.6.5-4 .5s-3.4-.3-4.8-.8c-1.5-.5-2.9-1.4-4.2-2.6l4.2-4.6c.6.8 1.4 1.4 2.3 1.9.9.4 1.9.7 2.9.7s1 0 1.5-.2c.5-.1.9-.3 1.3-.5s.7-.5.9-.9.4-.8.4-1.2c0-.8-.3-1.4-.9-1.9s-1.4-.9-2.3-1.2-1.9-.7-3-1-2.1-.8-3-1.3c-.9-.6-1.7-1.3-2.3-2.2q-.9-1.35-.9-3.6c0-2.25.3-2.7.9-3.8s1.3-2 2.3-2.7c.9-.7 2-1.3 3.3-1.6 1.2-.4 2.5-.6 3.8-.6s3 .2 4.4.6 2.7 1.1 3.8 2.2l-4.1 4.4Zm-560.3 46.2c-.8-1-1.7-1.7-2.9-2.3-1.2-.5-2.4-.8-3.6-.8s-2.9.3-4.1.9-2.3 1.3-3.1 2.3c-.9 1-1.5 2.1-2 3.5-.5 1.3-.7 2.7-.7 4.3s.2 2.8.7 4 1.1 2.4 2 3.3c.9 1 1.9 1.7 3.1 2.3s2.6.8 4.2.8 2.9-.3 4.1-.9 2.1-1.5 2.9-2.7l3.1 2.3c-.2.3-.6.7-1.1 1.2s-1.2 1-2 1.6c-.8.5-1.8 1-3 1.4s-2.5.6-4.1.6-4-.4-5.7-1.2-3.2-1.9-4.4-3.2-2.1-2.8-2.7-4.4c-.6-1.7-.9-3.3-.9-5s.3-4 1-5.7c.7-1.8 1.6-3.3 2.9-4.5 1.2-1.3 2.7-2.3 4.4-3s3.6-1.1 5.7-1.1 3.5.3 5.2 1 3.1 1.7 4.2 3.1l-3 2.3Zm7.5-5.8h17.3v3.4h-13.7v8h12.7v3.4h-12.7v8.6h14.3v3.4h-17.9zm22.5 0h4.8l14.7 22h.1v-22h3.6v26.8h-4.6l-14.9-22.1h-.1v22.1h-3.6zm35.5 3.4h-8.6v-3.4h20.9v3.4h-8.7v23.4h-3.6zm15.9-3.4h17.3v3.4h-13.7v8h12.7v3.4h-12.7v8.6h14.3v3.4h-17.9zm22.5 0h9.4c1.7 0 3.1.2 4.2.7s2 1.1 2.6 1.8 1.1 1.5 1.3 2.4.4 1.8.4 2.6-.1 1.7-.5 2.5c-.3.8-.7 1.5-1.3 2.2-.6.6-1.3 1.2-2.1 1.6s-1.7.7-2.8.8l7.6 12.2H665l-6.8-11.8h-4.1v11.8h-3.6v-26.8Zm3.6 11.8h4.8c.7 0 1.4 0 2.1-.2.7-.1 1.3-.3 1.9-.6.5-.3 1-.7 1.3-1.3s.5-1.3.5-2.2-.2-1.6-.5-2.2-.8-1-1.3-1.3-1.2-.5-1.9-.6-1.4-.2-2.1-.2h-4.8zm20.3 9.4c.7 1 1.5 1.7 2.5 2.2s2.1.7 3.2.7 1.2 0 1.9-.3c.6-.2 1.2-.5 1.7-.9s.9-.8 1.3-1.4c.3-.6.5-1.2.5-1.9s-.3-1.8-1-2.4c-.7-.5-1.5-1-2.4-1.4-1-.4-2-.7-3.2-1.1-1.1-.3-2.2-.8-3.2-1.4q-1.5-.9-2.4-2.4c-.6-1-1-2.4-1-4.1s.2-1.6.5-2.5.9-1.7 1.6-2.4 1.7-1.3 2.8-1.8 2.5-.7 4.1-.7 2.9.2 4.2.6 2.5 1.2 3.5 2.5l-3 2.7c-.4-.7-1.1-1.3-1.9-1.7s-1.8-.6-2.8-.6-1.8.1-2.5.4-1.2.6-1.6 1-.7.9-.9 1.3c-.2.5-.2.9-.2 1.3 0 1.1.3 2 1 2.6.6.6 1.5 1.1 2.4 1.5 1 .4 2 .7 3.2 1 1.1.3 2.2.7 3.2 1.3 1 .5 1.8 1.3 2.4 2.2.7.9 1 2.2 1 3.8s-.2 2.4-.7 3.5c-.5 1-1.2 1.9-2 2.6s-1.8 1.2-3 1.6q-1.65.6-3.6.6c-1.95 0-3.4-.3-4.9-.9s-2.8-1.5-3.7-2.8l3-2.6Zm30.8-21.2h16.9v3.4h-13.2v8.4h12.3v3.4h-12.3v11.6h-3.7zm33.7 27.5c-2 0-3.9-.4-5.6-1.1s-3.2-1.7-4.4-3-2.2-2.8-2.9-4.5-1-3.6-1-5.6.3-3.8 1-5.6c.7-1.7 1.7-3.2 2.9-4.5s2.7-2.3 4.4-3 3.6-1.1 5.6-1.1 3.9.4 5.6 1.1 3.2 1.7 4.4 3 2.2 2.8 2.9 4.5 1 3.6 1 5.6-.3 3.9-1 5.6-1.7 3.2-2.9 4.5-2.7 2.3-4.4 3-3.6 1.1-5.6 1.1m0-3.5q2.25 0 4.2-.9c1.2-.6 2.3-1.3 3.2-2.3s1.6-2.1 2.1-3.4.7-2.7.7-4.1-.2-2.8-.7-4.1-1.2-2.4-2.1-3.4-1.9-1.7-3.2-2.3q-1.8-.9-4.2-.9c-2.4 0-2.9.3-4.2.9-1.2.6-2.3 1.3-3.2 2.3s-1.6 2.1-2 3.4c-.5 1.3-.7 2.7-.7 4.1s.2 2.9.7 4.1c.5 1.3 1.2 2.4 2 3.4.9 1 1.9 1.7 3.2 2.3q1.8.9 4.2.9m18.9-24h9.4c1.7 0 3.1.2 4.2.7s2 1.1 2.6 1.8 1.1 1.5 1.4 2.4.4 1.8.4 2.6-.1 1.7-.5 2.5c-.3.8-.7 1.5-1.3 2.2-.6.6-1.3 1.2-2.1 1.6s-1.7.7-2.7.8l7.6 12.2h-4.5l-6.8-11.8h-4.1v11.8H758zm3.7 11.8h4.8c.7 0 1.4 0 2.1-.2.7-.1 1.3-.3 1.9-.6.5-.3 1-.7 1.3-1.3s.5-1.3.5-2.2-.2-1.6-.5-2.2-.8-1-1.3-1.3-1.2-.5-1.9-.6-1.4-.2-2.1-.2h-4.8zm29.4-11.8h9.4c1.9 0 3.6.2 5 .6s2.7 1 3.7 1.7c1.1.7 1.9 1.6 2.6 2.5s1.2 1.9 1.6 2.9.7 2 .9 2.9q.3 1.5.3 2.7c0 1.7-.3 3.4-.9 5s-1.6 3-2.8 4.3-2.8 2.3-4.6 3c-1.8.8-3.9 1.1-6.3 1.1h-8.8v-26.8Zm3.6 23.4h4.6c1.5 0 3-.2 4.4-.6s2.6-1 3.6-1.9c1-.8 1.9-1.9 2.5-3.1.6-1.3.9-2.7.9-4.4s-.1-1.9-.4-3-.8-2.2-1.6-3.3c-.8-1-1.8-1.9-3.2-2.6s-3.1-1.1-5.3-1.1h-5.5zm24.8-23.4h3.6v26.8h-3.6zm11.1 21.2c.7 1 1.5 1.7 2.5 2.2s2.1.7 3.2.7 1.2 0 1.9-.3c.6-.2 1.2-.5 1.7-.9s.9-.8 1.3-1.4c.3-.6.5-1.2.5-1.9s-.3-1.8-1-2.4c-.7-.5-1.5-1-2.4-1.4-1-.4-2-.7-3.2-1.1-1.1-.3-2.2-.8-3.2-1.4q-1.5-.9-2.4-2.4c-.6-1-1-2.4-1-4.1s.2-1.6.5-2.5.9-1.7 1.6-2.4 1.7-1.3 2.8-1.8 2.5-.7 4.1-.7 2.9.2 4.2.6 2.5 1.2 3.5 2.5l-3 2.7c-.4-.7-1.1-1.3-1.9-1.7s-1.8-.6-2.8-.6-1.8.1-2.5.4-1.2.6-1.6 1-.7.9-.9 1.3c-.2.5-.2.9-.2 1.3 0 1.1.3 2 1 2.6q1.05.9 2.4 1.5c1 .4 2 .7 3.2 1 1.1.3 2.2.7 3.2 1.3 1 .5 1.8 1.3 2.4 2.2.7.9 1 2.2 1 3.8s-.2 2.4-.7 3.5c-.5 1-1.2 1.9-2 2.6s-1.8 1.2-3 1.6q-1.65.6-3.6.6c-1.95 0-3.4-.3-4.9-.9s-2.8-1.5-3.7-2.8l3-2.6Zm20-21.2h17.3v3.4h-13.7v8h12.7v3.4h-12.7v8.6h14.3v3.4h-17.9zm32.3 0h3.3l11.5 26.8h-4.2l-2.7-6.6H878l-2.6 6.6h-4.2l11.8-26.8Zm6.5 17-5-12.3-5.1 12.3zm13.1 4.2c.7 1 1.5 1.7 2.5 2.2s2.1.7 3.2.7 1.2 0 1.9-.3c.6-.2 1.2-.5 1.7-.9s.9-.8 1.3-1.4c.3-.6.5-1.2.5-1.9s-.3-1.8-1-2.4c-.7-.5-1.5-1-2.4-1.4-1-.4-2-.7-3.2-1.1-1.1-.3-2.2-.8-3.2-1.4q-1.5-.9-2.4-2.4c-.6-1-1-2.4-1-4.1s.2-1.6.5-2.5.9-1.7 1.6-2.4 1.7-1.3 2.8-1.8 2.5-.7 4.1-.7 2.9.2 4.2.6 2.5 1.2 3.5 2.5l-3 2.7c-.4-.7-1.1-1.3-1.9-1.7s-1.8-.6-2.8-.6-1.8.1-2.5.4-1.2.6-1.6 1-.7.9-.9 1.3c-.2.5-.2.9-.2 1.3 0 1.1.3 2 1 2.6q1.05.9 2.4 1.5c1 .4 2 .7 3.2 1 1.1.3 2.2.7 3.2 1.3 1 .5 1.8 1.3 2.4 2.2.7.9 1 2.2 1 3.8s-.2 2.4-.7 3.5c-.5 1-1.2 1.9-2 2.6s-1.8 1.2-3 1.6q-1.65.6-3.6.6c-1.95 0-3.4-.3-4.9-.9s-2.8-1.5-3.7-2.8l3-2.6Zm20-21.2h17.3v3.4h-13.7v8h12.7v3.4h-12.7v8.6h14.4v3.4h-18zM546.8 203c-.8-1-1.7-1.7-2.9-2.3-1.2-.5-2.4-.8-3.6-.8s-2.9.3-4.1.9-2.3 1.3-3.1 2.3c-.9 1-1.5 2.1-2 3.5-.5 1.3-.7 2.7-.7 4.3s.2 2.8.7 4c.5 1.3 1.1 2.4 2 3.3.9 1 1.9 1.7 3.1 2.3s2.6.8 4.2.8 2.9-.3 4.1-.9 2.1-1.5 2.9-2.6l3.1 2.3c-.2.3-.6.7-1.1 1.2s-1.2 1-2 1.6c-.8.5-1.8 1-3 1.4s-2.5.6-4.1.6-4-.4-5.7-1.2-3.2-1.9-4.4-3.2-2.1-2.8-2.7-4.4c-.6-1.7-.9-3.3-.9-5s.3-4 1-5.7c.7-1.8 1.6-3.3 2.9-4.5 1.2-1.3 2.7-2.3 4.4-3s3.6-1.1 5.7-1.1 3.5.3 5.2 1 3.1 1.7 4.2 3.1l-3 2.3Zm19.2 21.7c-2 0-3.9-.4-5.6-1.1s-3.2-1.7-4.4-3-2.2-2.8-2.9-4.5-1-3.6-1-5.6.3-3.8 1-5.6c.7-1.7 1.7-3.2 2.9-4.5s2.7-2.3 4.4-3 3.6-1.1 5.6-1.1 3.9.4 5.6 1.1 3.2 1.7 4.4 3 2.2 2.8 2.9 4.5 1 3.6 1 5.6-.4 3.9-1 5.6c-.7 1.7-1.6 3.2-2.9 4.5-1.2 1.3-2.7 2.3-4.4 3s-3.6 1.1-5.6 1.1m0-3.4q2.25 0 4.2-.9c1.2-.6 2.3-1.3 3.2-2.3s1.6-2.1 2-3.4c.5-1.3.7-2.7.7-4.1s-.2-2.8-.7-4.1-1.2-2.4-2-3.4c-.9-1-1.9-1.7-3.2-2.3q-1.8-.9-4.2-.9c-2.4 0-2.9.3-4.2.9-1.2.6-2.3 1.3-3.2 2.3s-1.6 2.1-2.1 3.4-.7 2.7-.7 4.1.2 2.9.7 4.1c.5 1.3 1.2 2.4 2.1 3.4s1.9 1.7 3.2 2.3q1.8.9 4.2.9m19-24.1h4.7l14.8 22.1h.1v-22.1h3.6v26.9h-4.6L588.7 202h-.1v22.1H585zm35.5 3.5h-8.7v-3.5h20.9v3.5h-8.6v23.4h-3.6zm15.8-3.5h9.4c1.7 0 3.1.2 4.2.7s2 1.1 2.6 1.8 1.1 1.5 1.4 2.4.4 1.8.4 2.6-.1 1.7-.5 2.5c-.3.8-.7 1.5-1.3 2.2-.6.6-1.3 1.2-2.1 1.6s-1.7.7-2.7.8l7.6 12.2h-4.5l-6.8-11.8h-4.1V224h-3.6zm3.7 11.9h4.8c.7 0 1.4 0 2.1-.2.7-.1 1.3-.3 1.9-.6.5-.3 1-.7 1.3-1.3s.5-1.3.5-2.2-.2-1.6-.5-2.2-.8-1-1.3-1.3-1.2-.5-1.9-.6-1.4-.2-2.1-.2H640zm31.4 15.6c-2 0-3.9-.4-5.6-1.1s-3.2-1.7-4.4-3-2.2-2.8-2.9-4.5-1-3.6-1-5.6.3-3.8 1-5.6c.7-1.7 1.7-3.2 2.9-4.5s2.7-2.3 4.4-3 3.6-1.1 5.6-1.1 3.9.4 5.6 1.1 3.2 1.7 4.4 3 2.2 2.8 2.9 4.5 1 3.6 1 5.6-.3 3.9-1 5.6-1.7 3.2-2.9 4.5-2.7 2.3-4.4 3-3.6 1.1-5.6 1.1m0-3.4q2.25 0 4.2-.9c1.2-.6 2.3-1.3 3.2-2.3s1.6-2.1 2.1-3.4.7-2.7.7-4.1-.2-2.8-.7-4.1-1.2-2.4-2.1-3.4-1.9-1.7-3.2-2.3q-1.8-.9-4.2-.9c-2.4 0-2.9.3-4.2.9-1.2.6-2.3 1.3-3.2 2.3s-1.6 2.1-2 3.4c-.5 1.3-.7 2.7-.7 4.1s.2 2.9.7 4.1c.5 1.3 1.2 2.4 2 3.4.9 1 1.9 1.7 3.2 2.3q1.8.9 4.2.9m19-24.1h3.6v23.4h12.3v3.5h-15.9zm38.6 0h3.3l11.5 26.8h-4.2l-2.7-6.6h-12.8l-2.6 6.6h-4.2l11.8-26.8Zm6.5 17-5-12.3-5.1 12.3zm11.7-17h4.7l14.8 22.1h.1v-22.1h3.6v26.9h-4.6L750.9 202h-.1v22.1h-3.6zm29.5 0h9.4c1.9 0 3.6.2 5 .6s2.7 1 3.7 1.7 1.9 1.5 2.6 2.5c.7.9 1.2 1.9 1.6 2.9s.7 2 .9 2.9q.3 1.5.3 2.7c0 1.7-.3 3.4-.9 5s-1.6 3-2.8 4.3-2.8 2.3-4.6 3c-1.8.8-3.9 1.1-6.3 1.1h-8.7v-26.8Zm3.7 23.4h4.6c1.5 0 3-.2 4.4-.6s2.6-1 3.6-1.9c1-.8 1.9-1.9 2.5-3.1.6-1.3.9-2.7.9-4.4s-.1-1.9-.4-3-.8-2.2-1.6-3.3c-.8-1-1.8-1.9-3.2-2.6s-3.1-1.1-5.3-1.1h-5.4v20Zm35.5-23.4h9.4c1.7 0 3.1.2 4.2.7s2 1.1 2.6 1.8 1.1 1.5 1.3 2.4.4 1.8.4 2.6-.1 1.7-.4 2.6-.7 1.7-1.3 2.4-1.5 1.3-2.6 1.8-2.5.7-4.2.7h-5.8V224h-3.6zm3.7 11.9h4.8c.7 0 1.4 0 2.1-.2.7-.1 1.3-.3 1.9-.6.5-.3 1-.7 1.3-1.3s.5-1.3.5-2.2-.2-1.6-.5-2.2-.8-1-1.3-1.3c-.6-.3-1.2-.5-1.9-.6s-1.4-.2-2.1-.2h-4.8zm18.2-11.9h9.4c1.7 0 3.1.2 4.2.7s2 1.1 2.6 1.8 1.1 1.5 1.3 2.4.4 1.8.4 2.6-.1 1.7-.5 2.5c-.3.8-.7 1.5-1.3 2.2-.6.6-1.3 1.2-2.1 1.6s-1.7.7-2.8.8l7.6 12.2h-4.5l-6.8-11.8h-4.1V224h-3.6v-26.8Zm3.7 11.9h4.8c.7 0 1.4 0 2.1-.2.7-.1 1.3-.3 1.9-.6.5-.3 1-.7 1.3-1.3s.5-1.3.5-2.2-.2-1.6-.5-2.2-.8-1-1.3-1.3c-.6-.3-1.2-.5-1.9-.6s-1.4-.2-2.1-.2h-4.8zm19.4-11.9h17.3v3.5h-13.7v7.9h12.8v3.5h-12.8v8.5h14.4v3.5h-18zm20 0h4.2l7.9 21.9h.1l8.2-21.9h3.9l-10.5 26.9h-3.4zm27.6 0h17.3v3.5h-13.7v7.9h12.7v3.5h-12.7v8.5h14.3v3.5h-17.9zm22.5 0h4.8l14.7 22.1h.1v-22.1h3.6v26.9h-4.6L934.7 202h-.1v22.1H931zm35.5 3.5h-8.6v-3.5h20.9v3.5h-8.7v23.4h-3.6zm15.8-3.5h3.6V224h-3.6zm22.7 27.5c-2 0-3.9-.4-5.6-1.1s-3.2-1.7-4.4-3-2.2-2.8-2.9-4.5-1-3.6-1-5.6.3-3.8 1-5.6c.7-1.7 1.7-3.2 2.9-4.5s2.7-2.3 4.4-3 3.6-1.1 5.6-1.1 3.9.4 5.6 1.1 3.2 1.7 4.4 3 2.2 2.8 2.9 4.5 1 3.6 1 5.6-.4 3.9-1 5.6c-.7 1.7-1.6 3.2-2.9 4.5-1.2 1.3-2.7 2.3-4.4 3s-3.6 1.1-5.6 1.1m0-3.4q2.25 0 4.2-.9c1.2-.6 2.3-1.3 3.2-2.3s1.6-2.1 2-3.4c.5-1.3.7-2.7.7-4.1s-.2-2.8-.7-4.1-1.2-2.4-2-3.4c-.9-1-1.9-1.7-3.2-2.3q-1.8-.9-4.2-.9c-2.4 0-2.9.3-4.2.9-1.2.6-2.3 1.3-3.2 2.3s-1.6 2.1-2.1 3.4-.7 2.7-.7 4.1.2 2.9.7 4.1c.5 1.3 1.2 2.4 2.1 3.4s1.9 1.7 3.2 2.3q1.8.9 4.2.9m19-24.1h4.8l14.7 22.1h.1v-22.1h3.6v26.9h-4.6l-14.9-22.1h-.1v22.1h-3.6z" id="path8" class="cls-6" /><path class="cls-30" d="M270.4 190.3H415c8 0 14.6-6.1 15.4-13.9V90.7H285.8c-5.3 0-10.1 2.7-12.8 6.8-.6.8-1 1.7-1.4 2.6q-1.2 2.85-1.2 6v84.1Z" id="path9"/><path class="cls-4" d="M285.9 87.6c-10.3 0-18.6 8.3-18.6 18.6v87.2H415c10.3 0 18.6-8.3 18.6-18.6V87.6zM407 145.4c-.1-.2-.4-.2-.6 0-1 .9-4.3 3.5-9.3 3.6-6.3.1-12.7-5.1-12.7-14.2s6.6-14.2 12.7-14.2 7.5 2.2 8.4 2.9q.3.15.6 0l5.6-6.2c.1-.1.1-.4 0-.5-.9-1.1-4.8-5.1-13.6-5.1s-1.7 0-2.5.1l33.6-21.1h1.3v46l-23 9.3-.6-.6Zm-61.3 2.4H341c-.2 0-.4-.2-.4-.4v-25.6c0-.2.2-.4.4-.4h5.4c8.3 0 13.8 4.1 13.8 12.9s-5.4 13.6-14.5 13.6m-1.8-35.6h-12.8c-.2 0-.4.2-.4.4v44l-48.1 33.7h-4.5l29.5-32.8c1.5.2 3 .4 4.4.4 8.7 0 13.4-4.6 14.4-5.8q.15-.3 0-.6l-5.5-6.2c-.1-.2-.4-.2-.6 0-1 .9-4.3 3.5-9.3 3.6-6.3.1-12.7-5.1-12.7-14.2s6.6-14.2 12.7-14.2 7.5 2.2 8.4 2.9q.3.15.6 0l5.6-6.2c.1-.1.1-.4 0-.5-.9-1.1-4.8-5.1-13.6-5.1s-9.4 1.1-13.6 3.8l9.5-24.7h56.5l-20.5 21.6Zm-72.3-12.1c.4-.9.9-1.8 1.4-2.6 2.8-4.1 7.5-6.8 12.9-6.8h19.4l-10.6 27.6c-3.8 3.7-6.4 9-6.4 16.4 0 .1-18 46.9-18 46.9v-75.5c0-2.1.4-4.2 1.2-6m-1.1 88.3 18.5-48.2c2 9.5 8.9 14.6 16 16.6l-30.1 33.4h-4.5v-1.8Zm16.6 1.8 47.7-33.4h12.1c13.3 0 23.6-7.7 23.6-22.2s-9.7-21.9-23.1-22.4l20.6-21.6h56.8l-36.5 22.9c-7.3 3-13.7 9.5-13.7 21.2s5.1 16.7 11.4 20l-87.8 35.5h-11Zm143.5-13.9c-.8 7.8-7.4 13.9-15.4 13.9H304.6l84.4-34.1c3.1 1.1 6.3 1.7 9.2 1.7 8.7 0 13.4-4.6 14.4-5.8q.15-.3 0-.6l-3.2-3.6 21.2-8.6v37" id="path10"/></g></svg>
