<svg xmlns="http://www.w3.org/2000/svg" fill="none" viewBox="0.45 1 361.39 140.81" aria-labelledby="cms-logo-title"><title id="cms-logo-title">Centers for Medicare and Medicaid Services logo</title><path class="path--cms-blue" d="M43.557 115.939c-17.228-8.084-26.968-18.618-26.411-30.893 1.551-34.355 83.296-69.638 181.956-78.497 29.683-2.665 57.607-2.64 82.106-.37-28.158-4.074-62.121-4.888-98.79-1.589C83.771 13.449 2.026 48.719.475 83.087c-.763 16.874 17.925 30.475 48.839 38.907l-5.745-6.046-.013-.013Z" /><mask id="c" x="0" y="0" width="364" height="142.435"><path d="M361.284 2.542H.449v139.27h360.835V2.542Z" fill="#fff"/></mask><path class="path--cms-yellow" d="M37.856 104.465c-5.162-5.21-7.635-10.882-7.362-16.902 1.437-31.687 77.114-64.175 168.687-72.401 14.006-1.263 27.924-1.893 41.338-1.893 25.027 0 48.491 2.254 67.837 6.52l.31-1.314c-20.536-5.336-46.238-8.156-74.32-8.156-13.294 0-27.082.633-40.99 1.883-91.092 8.185-166.395 40.841-167.842 72.8-.389 8.752 4.605 16.681 14.845 23.549l-2.507-4.083Z" /><path class="path--cms-blue" d="M117.629 107.595c-25.891 0-46.703-12.003-46.703-29.921s20.811-29.845 46.703-29.845c12.329 0 23.632 3.134 31.896 8.084l-10.293 7.312c-4.526-2.785-11.423-5.919-19.789-5.919-11.99 0-19.675 6.084-19.675 20.356s7.698 20.175 19.675 20.175c8.366 0 15.263-2.953 19.789-5.735l10.293 7.312c-8.252 5.039-19.567 8.169-31.896 8.169m116.876-1.801V70.711l-20.023 35.071h-17.488l-22.79-35.071v35.071h-17.367v-56.12h33.719l21.745 33.748 19.45-33.748h29.683v56.119h-26.927Zm73.49 1.813c-19.571 0-31.896-6.615-36.644-11.047l10.518-6.783c5.197 4.086 16.282 8.872 26.126 8.872 8.704 0 13-1.56 13-4.27 0-4.963-10.284-6.172-20.811-8.429-15.611-3.39-27.253-7.568-27.253-18.27 0-13.224 15.946-19.751 36.074-19.751 14.588 0 24.432 2.877 32.801 8.793l-10.179 6.435c-5.989-4.178-16.519-6.435-22.286-6.435-9.274 0-12.895 2-12.895 4.615 0 4.089 8.147 4.526 21.147 7.388 16.168 3.57 28.275 8.613 28.275 19.495 0 11.835-14.37 19.403-37.888 19.403M67.862 124.77c-.158.373-.26.772-.301 1.146a6.023 6.023 0 0 1-2.766.592c-3.156 0-5.004-1.959-5.004-4.526 0-3.735 2.532-5.166 5.39-5.166.959 0 2.149.285 2.77.668-.18.453-.272.918-.31 1.38h-.193c-.674-.839-1.374-1.2-2.342-1.2-1.45 0-3.092 1.266-3.092 4.127s1.655 3.881 3.222 3.881c.867 0 1.874-.411 2.456-1.019l.184.101-.016.016Zm1.589-4.023c0-1.519-.025-2.554-.104-3.754.804.016 1.617.063 2.421.063 1.329 0 2.469-.022 2.83-.063-.025.168-.051.323-.051.57 0 .285.025.399.051.605-1.035-.063-2.662-.168-3.064-.168-.063.994-.063 1.962-.063 2.953a96.581 96.581 0 0 0 3.077-.104 3.292 3.292 0 0 0-.063.608c0 .142.025.269.063.554a41.005 41.005 0 0 0-3.08-.117c0 .57-.013 1.149-.013 1.728s.016 1.149.041 1.69c1.019 0 2.067-.054 3.102-.18-.025.19-.051.32-.051.605s.025.424.051.579c-.491 0-1.124-.063-2.38-.063-2.209 0-2.573.038-2.88.063.076-1.184.101-2.228.101-3.751v-1.842l.013.025Zm6.973-3.754c.206.041.411.063.608.063.193 0 .411-.022.608-.063 1.953 2.152 3.893 4.295 5.897 6.448 0-2.152 0-5.84-.092-6.448.209.041.415.063.608.063.196 0 .415-.022.611-.063-.222 3.934-.222 5.739-.222 9.337a2.298 2.298 0 0 0-1.086 0 151.506 151.506 0 0 0-5.938-6.577c-.025 1.019-.025 2.14-.025 3.159 0 2.165.038 2.928.079 3.428a3.782 3.782 0 0 0-.633-.063c-.196 0-.415.025-.624.063.063-.386.272-3.877.272-6.637 0-1.225-.051-2.051-.063-2.694m12.107 2.19c0-.516 0-1.007-.041-1.187a24.942 24.942 0 0 0-2.485.18 3.099 3.099 0 0 0 .063-.592 3.092 3.092 0 0 0-.063-.592c1.244.038 1.852.063 3.532.063 1.681 0 2.301-.025 3.453-.063a3.07 3.07 0 0 0-.063.592c0 .206.025.386.063.592a25.885 25.885 0 0 0-2.418-.18c-.025.193-.025.684-.025 1.187v3.377c0 1.519.025 2.551.104 3.751-.301-.025-.662-.063-1.114-.063s-.813.038-1.111.063c.076-1.184.101-2.228.101-3.751v-3.374Zm5.83 1.548c0-1.519-.025-2.554-.104-3.754.804.016 1.617.063 2.421.063 1.329 0 2.469-.022 2.833-.063-.028.168-.054.323-.054.57 0 .285.025.399.054.605-1.035-.063-2.665-.168-3.067-.168-.063.994-.063 1.962-.063 2.953a94.787 94.787 0 0 0 3.077-.104c-.051.31-.063.44-.063.608 0 .142.025.269.063.554a40.996 40.996 0 0 0-3.077-.117v1.728c0 .579 0 1.149.038 1.69 1.022 0 2.07-.054 3.102-.18-.025.19-.051.32-.051.605s.028.424.054.579c-.494 0-1.127-.063-2.38-.063-2.212 0-2.573.038-2.887.063.079-1.184.104-2.228.104-3.751v-1.842Zm9.043 1.275h-.13v.554c0 1.519.025 2.554.101 3.751-.294-.025-.658-.063-1.108-.063-.456 0-.817.038-1.114.063.076-1.184.101-2.228.101-3.751v-1.842c0-1.519-.025-2.554-.101-3.751.298.025.658.063 1.111.063.491 0 1.076-.063 1.994-.063 1.367 0 1.874.114 2.352.462a2.105 2.105 0 0 1 .88 1.792c0 1.317-.763 2.152-2.108 2.488.867 1.535 1.899 3.07 2.896 4.602-.411-.025-.813-.063-1.228-.063-.411 0-.826.038-1.241.063l-2.434-4.305h.028Zm-.079-4.254c-.025 1.234-.038 2.45-.038 3.687a2.52 2.52 0 0 0 .298.025c1.19 0 1.848-.658 1.848-1.934 0-1.598-.62-1.779-2.108-1.779Zm10.259 1.054c-.285-.769-.817-1.158-1.646-1.158-.826 0-1.409.57-1.409 1.212 0 1.997 4.127 1.51 4.127 4.577 0 1.817-1.437 3.054-3.596 3.054-.981 0-1.798-.285-2.184-.579.177-.617.294-1.108.386-1.716h.256c.142.788.779 1.456 1.877 1.456s1.589-.617 1.589-1.377c0-2.051-4.048-1.497-4.048-4.577 0-1.867 1.437-2.899 3.054-2.899.969 0 1.709.256 2.225.668a17.016 17.016 0 0 0-.427 1.342h-.209Zm6.441 1.925c0-1.519-.028-2.554-.104-3.754.801.016 1.614.063 2.418.063 1.329 0 2.469-.022 2.833-.063-.025.168-.054.323-.054.57 0 .285.028.399.054.605-1.035-.063-2.665-.168-3.067-.168-.063.994-.063 1.962-.063 2.953a95.976 95.976 0 0 0 3.077-.104c-.051.31-.063.44-.063.608 0 .142.025.269.063.554a40.996 40.996 0 0 0-3.077-.117v.684c0 1.519.025 2.554.104 3.751-.298-.025-.662-.063-1.114-.063s-.813.038-1.111.063c.076-1.184.101-2.228.101-3.751v-1.842Zm11.395-3.931c2.88 0 5.147 1.57 5.147 4.833 0 2.681-2.159 4.859-5.188 4.859-2.871 0-5.172-1.456-5.172-4.846 0-2.668 2.07-4.846 5.213-4.846Zm-.041.772c-1.861 0-2.947 1.867-2.947 4.191 0 2.887 1.329 3.881 2.846 3.881 1.627 0 3.051-1.355 3.051-4.305 0-2.349-1.203-3.779-2.963-3.779m9.015 4.446h-.127v.554c0 1.519.025 2.554.101 3.751-.298-.025-.658-.063-1.111-.063s-.817.038-1.114.063c.079-1.184.104-2.228.104-3.751v-1.842c0-1.519-.025-2.554-.104-3.751.298.025.662.063 1.114.063.491 0 1.073-.063 1.994-.063 1.367 0 1.874.114 2.352.462a2.105 2.105 0 0 1 .88 1.792c0 1.317-.763 2.152-2.108 2.488.864 1.535 1.899 3.07 2.896 4.602-.411-.025-.817-.063-1.228-.063-.415 0-.829.038-1.241.063l-2.434-4.305h.025Zm-.076-4.254c-.025 1.234-.038 2.45-.038 3.687a2.52 2.52 0 0 0 .298.025c1.19 0 1.848-.658 1.848-1.934 0-1.598-.62-1.779-2.108-1.779Zm11.11 2.425c-.285 2.048-.411 4.099-.544 6.147a3.751 3.751 0 0 0-.633-.063c-.222 0-.411.025-.633.063.57-3.105 1.022-6.226 1.396-9.331.193.038.364.063.557.063a2.611 2.611 0 0 0 .544-.063c.994 2.152 2.146 4.561 3.14 6.47 1.076-2.01 2.187-4.317 3.172-6.47.193.038.386.063.582.063a2.855 2.855 0 0 0 .57-.063c.348 3.118.823 7.426 1.162 9.331a10.407 10.407 0 0 0-1.098-.063 11.11 11.11 0 0 0-1.127.063 120.519 120.519 0 0 0-.541-6.277h-.025a463.754 463.754 0 0 0-3.001 6.277 1.754 1.754 0 0 0-.26-.025 1.747 1.747 0 0 0-.26.025c-.969-2.035-1.94-4.099-2.963-6.147h-.038Zm10.866.554c0-1.519-.028-2.554-.117-3.754.801.016 1.614.063 2.418.063 1.329 0 2.469-.022 2.846-.063-.025.168-.051.323-.051.57 0 .285.025.399.051.605-1.035-.063-2.665-.168-3.064-.168-.066.994-.066 1.962-.066 2.953a95.282 95.282 0 0 0 3.08-.104 3.292 3.292 0 0 0-.063.608c0 .142.022.269.063.554a41.962 41.962 0 0 0-3.08-.117v1.728c0 .579 0 1.149.038 1.69 1.022 0 2.07-.054 3.105-.18-.025.19-.051.32-.051.605s.025.424.051.579c-.491 0-1.124-.063-2.38-.063-2.212 0-2.586.038-2.884.063.076-1.184.117-2.228.117-3.751v-1.842l-.013.025Zm6.906 0c0-1.519-.025-2.554-.104-3.754.298.028.658.063 1.111.063.595 0 1.257-.063 2.459-.063 3.102 0 5.223.994 5.223 4.4 0 2.975-2.146 4.938-4.694 4.938-1.358 0-2.276-.066-2.988-.066-.453 0-.813.038-1.111.063.079-1.184.104-2.228.104-3.751v-1.842Zm2.016 2.14c0 .734 0 2.383.013 2.643.272.013.633.038 1.19.038 2.045 0 3.323-1.38 3.323-4.203 0-2.216-1.228-3.596-3.102-3.596-.649 0-.997.025-1.412.063-.013.26-.013 1.909-.013 2.643v2.412Zm8.6-2.14c0-1.519-.025-2.554-.101-3.754.298.028.658.063 1.111.063s.817-.035 1.114-.063c-.079 1.187-.104 2.231-.104 3.754v1.842c0 1.519.025 2.554.104 3.751-.298-.025-.662-.063-1.114-.063s-.813.038-1.111.063c.076-1.184.101-2.228.101-3.751v-1.842Zm11.822 4.023a4.707 4.707 0 0 0-.298 1.146 6.023 6.023 0 0 1-2.766.592c-3.156 0-5.004-1.959-5.004-4.526 0-3.735 2.532-5.166 5.39-5.166.959 0 2.149.285 2.77.668-.18.453-.272.918-.31 1.38h-.193c-.674-.839-1.374-1.2-2.33-1.2-1.45 0-3.092 1.266-3.092 4.127s1.655 3.881 3.222 3.881c.867 0 1.874-.411 2.456-1.019l.184.101-.028.016Zm9.043 1.557c-.443-.025-.817-.063-1.19-.063-.377 0-.775.038-1.152.063a47.865 47.865 0 0 0-.943-2.77 77.176 77.176 0 0 0-1.747-.025c-.478 0-.931.013-1.409.025a26.984 26.984 0 0 0-.931 2.77c-.222-.025-.415-.063-.633-.063-.222 0-.418.038-.674.063.658-1.494 2.703-6.315 3.868-9.41.18.025.336.063.516.063s.336-.038.519-.063c1.149 3.08 2.741 7.207 3.776 9.41Zm-3.596-3.57a79.418 79.418 0 0 0-1.203-3.222 53.193 53.193 0 0 0-1.282 3.222h2.485Zm7.138-.735h-.127v.554c0 1.519.025 2.554.114 3.751-.298-.025-.658-.063-1.111-.063s-.817.038-1.114.063c.079-1.184.104-2.228.104-3.751v-1.842c0-1.519-.025-2.554-.104-3.751.298.025.662.063 1.114.063.491 0 1.073-.063 1.994-.063 1.367 0 1.874.114 2.352.462a2.105 2.105 0 0 1 .88 1.792c0 1.317-.763 2.152-2.108 2.488.864 1.535 1.899 3.07 2.896 4.602-.402-.025-.813-.063-1.228-.063s-.829.038-1.244.063l-2.431-4.305h.013Zm-.089-4.254a181.05 181.05 0 0 0-.041 3.687c.117.013.209.025.298.025 1.19 0 1.852-.658 1.852-1.934 0-1.598-.62-1.779-2.108-1.779Zm6.132 2.979c0-1.519-.025-2.554-.104-3.754.801.016 1.614.063 2.418.063 1.333 0 2.469-.022 2.833-.063-.025.168-.051.323-.051.57 0 .285.025.399.051.605-1.035-.063-2.665-.168-3.064-.168-.063.994-.063 1.962-.063 2.953a95.378 95.378 0 0 0 3.077-.104c-.054.31-.063.44-.063.608 0 .142.022.269.063.554a41.962 41.962 0 0 0-3.08-.117c0 .57-.013 1.149-.013 1.728s.013 1.149.038 1.69c1.022 0 2.07-.054 3.105-.18-.025.19-.051.32-.051.605s.025.424.051.579c-.491 0-1.127-.063-2.38-.063-2.212 0-2.573.038-2.884.063.076-1.184.104-2.228.104-3.751v-1.842l.013.025Zm15.623 4.691a4.982 4.982 0 0 1-3.039 1.07c-1.709 0-2.576-1.12-2.576-2.178 0-1.405.984-2.14 2.447-2.887-.582-.788-.997-1.497-.997-2.216 0-1.576 1.307-2.168 2.497-2.168 1.266 0 2.2.57 2.2 1.649 0 .877-.544 1.573-1.747 2.311a58.805 58.805 0 0 0 2.146 2.589c.465-.554 1.06-1.443 1.617-2.618.247.285.506.554.75.788a18.577 18.577 0 0 1-1.89 2.371 36.054 36.054 0 0 0 2.019 2.178c-.662 0-1.165-.063-1.668-.063-.364 0-.737.051-1.114.063l-.658-.886h.013Zm-1.823.054a2.216 2.216 0 0 0 1.447-.529 127.669 127.669 0 0 1-2.406-2.991c-.62.475-1.019.94-1.019 1.636 0 .889.722 1.883 1.962 1.883m.275-4.966c.449-.332 1.086-1.029 1.086-1.867a.981.981 0 0 0-.959-.994c-.529 0-.956.336-.956.981 0 .554.389 1.25.842 1.88m11.278-.332c-.285 2.048-.402 4.099-.544 6.147a3.751 3.751 0 0 0-.633-.063 3.43 3.43 0 0 0-.633.063c.57-3.105 1.022-6.226 1.396-9.331.193.038.361.063.557.063a2.608 2.608 0 0 0 .541-.063c.997 2.152 2.149 4.561 3.134 6.47 1.07-2.01 2.184-4.317 3.165-6.47.196.038.389.063.582.063a2.855 2.855 0 0 0 .57-.063c.348 3.118.829 7.426 1.165 9.331a10.407 10.407 0 0 0-1.098-.063 11.11 11.11 0 0 0-1.127.063 120.519 120.519 0 0 0-.541-6.277h-.028c-1.019 2.102-2.029 4.178-3.001 6.277a1.747 1.747 0 0 0-.26-.025 1.747 1.747 0 0 0-.256.025c-.972-2.035-1.94-4.099-2.963-6.147h-.025Zm10.863.554c0-1.519-.025-2.554-.101-3.754.801.016 1.614.063 2.418.063 1.329 0 2.469-.022 2.846-.063-.025.168-.054.323-.054.57 0 .285.028.399.054.605-1.035-.063-2.665-.168-3.067-.168-.063.994-.063 1.962-.063 2.953a94.787 94.787 0 0 0 3.077-.104 3.292 3.292 0 0 0-.063.608c0 .142.025.269.063.554a41.881 41.881 0 0 0-3.077-.117c0 .57-.013 1.149-.013 1.728s.013 1.149.038 1.69a25.88 25.88 0 0 0 3.102-.18c-.022.19-.051.32-.051.605s.028.424.054.579c-.494 0-1.127-.063-2.38-.063-2.212 0-2.573.038-2.884.063.076-1.184.101-2.228.101-3.751v-1.842Zm6.922 0c0-1.519-.028-2.554-.104-3.754.298.028.671.063 1.111.063.595 0 1.266-.063 2.459-.063 3.089 0 5.223.994 5.223 4.4 0 2.975-2.146 4.938-4.694 4.938-1.358 0-2.276-.066-2.988-.066-.453 0-.813.038-1.111.063.076-1.184.104-2.228.104-3.751v-1.842Zm2.004 2.14c0 .734 0 2.383.013 2.643.272.013.633.038 1.19.038 2.045 0 3.323-1.38 3.323-4.203 0-2.216-1.241-3.596-3.102-3.596-.662 0-.997.025-1.412.063-.013.26-.013 1.909-.013 2.643v2.412Zm8.612-2.14c0-1.519-.025-2.554-.101-3.754.298.028.671.063 1.111.063.443 0 .817-.035 1.114-.063-.079 1.187-.104 2.231-.104 3.754v1.842c0 1.519.025 2.554.104 3.751-.298-.025-.674-.063-1.114-.063-.44 0-.813.038-1.111.063.076-1.184.101-2.228.101-3.751v-1.842Zm11.823 4.023a4.184 4.184 0 0 0-.298 1.146 6.023 6.023 0 0 1-2.766.592c-3.156 0-5.02-1.959-5.02-4.526 0-3.735 2.535-5.166 5.394-5.166.959 0 2.149.285 2.77.668-.18.453-.272.918-.31 1.38h-.193c-.687-.839-1.374-1.2-2.342-1.2-1.45 0-3.092 1.266-3.092 4.127s1.655 3.881 3.222 3.881c.864 0 1.874-.411 2.456-1.019l.18.101v.016Zm9.043 1.557c-.443-.025-.817-.063-1.19-.063-.377 0-.775.038-1.152.063a47.865 47.865 0 0 0-.943-2.77 77.126 77.126 0 0 0-1.735-.025c-.478 0-.931.013-1.409.025a27.791 27.791 0 0 0-.918 2.77c-.222-.025-.427-.063-.633-.063-.209 0-.427.038-.674.063.658-1.494 2.703-6.315 3.868-9.41.18.025.336.063.516.063s.336-.038.519-.063c1.149 3.08 2.741 7.207 3.776 9.41m-3.621-3.57a79.418 79.418 0 0 0-1.203-3.222 55.235 55.235 0 0 0-1.282 3.222h2.485Zm5.055-2.01c0-1.519-.025-2.554-.101-3.754.298.028.658.063 1.111.063s.817-.035 1.114-.063c-.079 1.187-.104 2.231-.104 3.754v1.842c0 1.519.025 2.554.104 3.751-.298-.025-.662-.063-1.114-.063s-.813.038-1.111.063c.076-1.184.101-2.228.101-3.751v-1.842Zm4.463 0c0-1.519-.025-2.554-.117-3.754.298.028.674.063 1.114.063.595 0 1.266-.063 2.456-.063 3.102 0 5.226.994 5.226 4.4 0 2.975-2.146 4.938-4.694 4.938-1.361 0-2.279-.066-2.988-.066-.453 0-.817.038-1.114.063.079-1.184.117-2.228.117-3.751v-1.842Zm2.004 2.14c0 .734 0 2.383.016 2.643.269.013.633.038 1.19.038 2.042 0 3.323-1.38 3.323-4.203 0-2.216-1.244-3.596-3.105-3.596-.646 0-.997.025-1.409.063-.016.26-.016 1.909-.016 2.643v2.412Zm16.351-4.065c-.285-.769-.817-1.158-1.646-1.158-.823 0-1.409.57-1.409 1.212 0 1.997 4.127 1.51 4.127 4.577 0 1.817-1.437 3.054-3.596 3.054-.981 0-1.798-.285-2.184-.579.177-.617.294-1.108.399-1.716h.26c.155.788.775 1.456 1.874 1.456s1.592-.617 1.592-1.377c0-2.051-4.051-1.497-4.051-4.577 0-1.867 1.437-2.899 3.054-2.899.981 0 1.709.256 2.225.668-.168.427-.26.747-.44 1.342h-.206Zm2.649 1.925c0-1.519-.025-2.554-.101-3.754.801.016 1.614.063 2.418.063 1.329 0 2.469-.022 2.846-.063-.025.168-.054.323-.054.57 0 .285.028.399.054.605-1.035-.063-2.665-.168-3.067-.168-.063.994-.063 1.962-.063 2.953a94.787 94.787 0 0 0 3.077-.104c-.051.31-.063.44-.063.608 0 .142.025.269.063.554a41.881 41.881 0 0 0-3.077-.117c0 .57-.013 1.149-.013 1.728s.013 1.149.038 1.69c1.022 0 2.057-.054 3.105-.18-.025.19-.054.32-.054.605s.028.424.054.579c-.494 0-1.127-.063-2.38-.063-2.212 0-2.573.038-2.884.063.076-1.184.101-2.228.101-3.751v-1.842Zm9.056 1.275h-.13v.554c0 1.519.025 2.554.117 3.751-.298-.025-.662-.063-1.114-.063s-.813.038-1.111.063c.076-1.184.101-2.228.101-3.751v-1.842c0-1.519-.025-2.554-.101-3.751.298.025.671.063 1.111.063.491 0 1.073-.063 1.991-.063 1.374 0 1.877.114 2.355.462a2.102 2.102 0 0 1 .88 1.792c0 1.317-.763 2.152-2.108 2.488.867 1.535 1.902 3.07 2.896 4.602-.399-.025-.813-.063-1.228-.063s-.826.038-1.241.063l-2.431-4.305h.013Zm-.079-4.254c-.025 1.234-.038 2.45-.038 3.687.117.013.206.025.298.025 1.19 0 1.848-.658 1.848-1.934 0-1.598-.62-1.779-2.108-1.779Zm12.48-.775a2.887 2.887 0 0 0 1.19 0c-.893 2.13-2.662 6.242-3.722 9.337-.209-.028-.389-.066-.595-.066-.209 0-.415.038-.595.063a258.487 258.487 0 0 0-3.675-9.334 11.525 11.525 0 0 0 2.405 0c.608 2.026 1.592 4.539 2.418 6.796.934-2.257 1.864-4.694 2.561-6.796m2.64 3.754c0-1.519-.025-2.554-.117-3.754.298.028.662.063 1.114.063s.813-.035 1.111-.063a54.9 54.9 0 0 0-.104 3.754v1.842c0 1.519.028 2.554.104 3.751-.298-.025-.658-.063-1.111-.063s-.817.038-1.114.063c.079-1.184.117-2.228.117-3.751v-1.842Zm11.822 4.023a4.65 4.65 0 0 0-.298 1.146 6.027 6.027 0 0 1-2.77.592c-3.156 0-5.004-1.959-5.004-4.526 0-3.735 2.535-5.166 5.394-5.166.943 0 2.146.285 2.766.668-.18.453-.269.918-.31 1.38h-.193c-.671-.839-1.371-1.2-2.339-1.2-1.45 0-3.092 1.266-3.092 4.127s1.655 3.881 3.219 3.881c.867 0 1.877-.411 2.459-1.019l.18.101-.013.016Zm1.592-4.023c0-1.519-.028-2.554-.104-3.754.801.016 1.617.063 2.418.063 1.333 0 2.469-.022 2.833-.063-.025.168-.051.323-.051.57 0 .285.025.399.051.605-1.035-.063-2.665-.168-3.067-.168-.063.994-.063 1.962-.063 2.953a95.282 95.282 0 0 0 3.08-.104 3.159 3.159 0 0 0-.066.608c0 .142.025.269.066.554a41.962 41.962 0 0 0-3.08-.117c0 .57-.013 1.149-.013 1.728s.013 1.149.038 1.69c1.022 0 2.07-.054 3.105-.18-.025.19-.051.32-.051.605s.025.424.051.579c-.491 0-1.127-.063-2.38-.063-2.212 0-2.573.038-2.884.063.076-1.184.101-2.228.101-3.751v-1.842l.016.025Zm10.914-1.925c-.285-.769-.813-1.158-1.643-1.158-.826 0-1.409.57-1.409 1.212 0 1.997 4.127 1.51 4.127 4.577 0 1.817-1.437 3.054-3.596 3.054-.984 0-1.798-.285-2.187-.579a12.344 12.344 0 0 0 .389-1.716h.256c.155.788.775 1.456 1.877 1.456 1.098 0 1.589-.617 1.589-1.377 0-2.051-4.048-1.497-4.048-4.577 0-1.867 1.437-2.899 3.054-2.899.981 0 1.706.256 2.225.668-.171.427-.26.747-.44 1.342h-.209Z" /></svg>
