<svg width="1000" height="330.189" viewBox="0 0 1000 330.189" fill="none" xmlns="http://www.w3.org/2000/svg" aria-labelledby="hrsa-logo-title"><title id="hrsa-logo-title">The Health Resources and Services Administration logo</title><path class="hrsa-text--blue" fill-rule="evenodd" clip-rule="evenodd" d="M11.5 5.132h75.915v76.906h83V5.132h76.255V224.811h-76.255v-81.189H87.415v81.189H11.509V5.132Zm821.113 135.858 27.009 -79.047 27.34 79.057h-54.34Zm82.679 83.83h80.198L902.283 5.132h-83.66l-93.208 219.689h78.217l12.189 -36.226h87.113l12.358 36.226Zm-382.896 -17.792c17.132 14.34 48.255 21.575 93.047 21.575 25.528 0 46.604 -2.962 63.396 -9.217 16.802 -6.094 29.811 -15.151 39.038 -27.17 9.387 -11.868 14 -24.877 14 -39.038 0 -12.019 -3.623 -22.726 -10.538 -32.443 -7.085 -9.717 -18.283 -17.783 -33.604 -24.368 -15.311 -6.594 -40.84 -13.019 -76.415 -19.434 -14.321 -2.472 -23.377 -5.104 -27.33 -8.075 -3.962 -2.632 -5.934 -5.925 -5.934 -9.387 0 -4.774 2.311 -8.887 7.245 -12.179 4.783 -3.302 11.858 -5.113 21.415 -5.113 11.528 0 20.425 2.311 27.009 6.755 6.585 4.613 10.868 11.698 12.84 21.575l76.585 -3.623c-3.302 -22.736 -13.84 -39.358 -31.462 -49.906C684.075 6.453 658.396 1.349 624.783 1.349c-27.5 0 -48.906 2.962 -64.887 8.726 -15.642 5.764 -27.5 13.679 -35.406 23.717 -7.906 10.047 -11.858 20.585 -11.858 31.953 0 17.123 7.575 31.283 23.057 42.491 15.151 11.198 40.679 19.925 76.255 26.679 21.736 3.943 35.736 8.226 41.66 12.679 6.094 4.604 9.057 9.547 9.057 15.311 0 5.925 -3.123 11.198 -9.387 15.811 -6.255 4.613 -15.311 6.755 -26.84 6.755 -15.651 0 -27.509 -4.623 -35.906 -13.34 -5.094 -5.434 -8.557 -13.509 -10.208 -24.047l-77.406 4.113c2.142 22.075 12.028 40.349 29.481 54.84ZM419.755 75.783c0 -11.368 -9.057 -20.594 -20.425 -20.594h-59.943v41.179h59.943a20.566 20.566 0 0 0 20.425 -20.585Zm88.104 146.075h-84.811l-6.094 -52.208a24.415 24.415 0 0 0 -24.208 -21.745H341.038v73.953h-83.991V4.972H437.047c34.415 0 62.575 28.321 62.575 63.066v14.16h-0.491c-2.962 20.585 -20.585 36.396 -41.509 36.396a36.509 36.509 0 0 1 36.075 31.462l14.16 71.792Z" /><path class="hrsa-text--red" d="M7.547 321.16v-53.528h6.755v21.085H27.642v-21.085h6.745v53.528h-6.585v-23.547H14.302v23.387H7.547v0.16Zm38.868 -22.736c0 -2.792 0.491 -5.094 1.321 -6.745 0.981 -1.642 1.972 -2.302 3.453 -2.302 1.321 0 2.302 0.821 3.292 2.302 0.991 1.481 1.321 3.792 1.481 6.755H46.415Zm5.094 15.821c-1.311 0 -2.632 -0.83 -3.613 -2.472 -1.16 -1.651 -1.651 -4.123 -1.651 -7.075h16.132v-1.16c0 -7.406 -1.142 -13.17 -3.283 -17.123 -1.981 -3.302 -4.623 -5.113 -8.236 -5.113 -3.132 0 -5.764 1.651 -7.575 4.943 -2.311 3.962 -3.623 9.057 -3.623 15.481 0 6.585 1.151 11.698 3.453 15.311 1.981 3.132 4.783 4.783 8.396 4.783a8.962 8.962 0 0 0 6.594 -2.802c1.811 -1.811 3.132 -4.774 3.953 -8.566l-6.415 -1.642c-0.66 3.623 -2.151 5.434 -4.123 5.434Zm29.481 -11.698v1.981c0 2.962 -0.16 5.104 -0.491 6.094 -0.33 1.151 -0.991 1.981 -1.811 2.962a3.509 3.509 0 0 1 -2.642 1.151 2.962 2.962 0 0 1 -2.632 -1.481 6.075 6.075 0 0 1 -1.151 -3.783 5.566 5.566 0 0 1 0.991 -3.302c0.66 -0.821 1.981 -1.642 3.953 -2.302 1.651 -0.33 2.962 -0.991 3.783 -1.321Zm-6.745 -11.849a3.472 3.472 0 0 1 2.632 -0.991c1.151 0 1.981 0.16 2.642 0.66 0.66 0.491 1.151 0.981 1.311 1.642 0.16 0.66 0.33 1.981 0.33 4.283 -1.151 0.821 -3.302 1.642 -6.255 2.472 -2.472 0.821 -4.283 1.642 -5.443 2.642a9.811 9.811 0 0 0 -2.632 3.943 15.66 15.66 0 0 0 -0.991 5.764c0 3.462 0.83 6.255 2.311 8.236 1.481 1.981 3.453 3.132 5.755 3.132 1.321 0 2.642 -0.5 3.962 -1.321 1.321 -0.821 2.472 -2.142 3.623 -3.953l0.821 4.283h6.585a23.509 23.509 0 0 1 -1.151 -5.274 79.075 79.075 0 0 1 -0.33 -7.575l0.17 -12.019c0 -4.613 -0.33 -7.736 -0.991 -9.387a8.66 8.66 0 0 0 -3.132 -4.123c-1.321 -0.981 -3.623 -1.481 -6.255 -1.481 -3.132 0 -5.434 0.83 -7.075 2.642 -1.651 1.642 -2.802 4.604 -3.632 8.396l5.764 1.651c0.66 -2.142 1.321 -2.972 1.981 -3.623Zm19.594 30.462h6.415v-53.528h-6.415v53.528Zm24.208 -38.698h-4.283v-13.679l-6.415 5.943v7.736h-3.132v8.236h2.802v16.953c0 4.283 0.16 7.255 0.491 8.566 0.491 1.981 1.151 3.462 1.981 4.453a5.34 5.34 0 0 0 3.943 1.481 9.245 9.245 0 0 0 5.113 -1.481l-0.5 -8.075c-1.151 0.66 -1.981 0.991 -2.642 0.991 -0.811 0 -1.311 -0.491 -1.642 -1.481 -0.16 -0.5 -0.16 -2.642 -0.16 -5.934v-15.642h4.443v-8.236Zm10.868 -14.66h-6.415v53.519h6.415V301.887c0 -4.934 0.5 -8.066 1.321 -9.877 0.991 -1.642 2.302 -2.642 3.792 -2.642 1.481 0 2.632 0.83 3.292 2.311 0.491 1.151 0.821 4.283 0.821 8.896v20.585h6.415v-22.736c0 -4.274 -0.16 -7.406 -0.66 -9.217 -0.491 -2.462 -1.472 -4.443 -2.792 -5.755a6 6 0 0 0 -4.774 -1.981 6.66 6.66 0 0 0 -4.123 1.481c-1.321 0.991 -2.302 2.302 -3.453 4.283v-19.434h0.16Zm42.33 8.726h5.434c2.962 0 4.774 0.17 5.434 0.5a4.5 4.5 0 0 1 2.142 2.142c0.491 1.151 0.821 2.302 0.821 4.113s-0.16 3.292 -0.821 4.283c-0.5 1.151 -1.151 1.811 -1.981 2.142 -0.821 0.33 -2.802 0.491 -5.925 0.491h-5.104v-13.67Zm-0.17 44.623V298.774h1.321c1.642 0 2.642 0.16 3.453 0.66 0.83 0.33 1.321 1.151 1.981 2.142 0.66 1.151 1.981 3.623 3.623 7.896l4.943 11.698h8.236l-4.123 -10.538c-1.642 -4.283 -2.962 -7.075 -3.783 -8.726a22.566 22.566 0 0 0 -3.623 -4.453c2.792 -0.66 5.094 -2.302 6.585 -4.934 1.642 -2.642 2.302 -5.934 2.302 -10.217 0 -3.292 -0.491 -6.094 -1.481 -8.566 -0.991 -2.302 -2.302 -3.953 -3.783 -4.934 -1.651 -0.991 -4.123 -1.481 -7.906 -1.481h-14.33v53.519h6.585v0.33Zm32.113 -22.717c0 -2.802 0.5 -5.104 1.321 -6.755 0.991 -1.642 1.981 -2.302 3.453 -2.302 1.321 0 2.311 0.821 3.302 2.302 0.981 1.481 1.321 3.792 1.481 6.755h-9.557Zm5.274 15.811c-1.321 0 -2.642 -0.83 -3.623 -2.472 -1.151 -1.651 -1.651 -4.123 -1.651 -7.075h16.142v-1.16c0 -7.575 -1.151 -13.17 -3.462 -17.123 -1.972 -3.302 -4.604 -5.113 -8.226 -5.113 -3.132 0 -5.764 1.651 -7.575 4.943 -2.311 3.962 -3.623 9.057 -3.623 15.481 0 6.585 1.151 11.698 3.453 15.311 1.981 3.132 4.774 4.783 8.396 4.783a8.962 8.962 0 0 0 6.594 -2.802c1.811 -1.811 3.123 -4.774 3.953 -8.566l-6.425 -1.642c-0.66 3.623 -1.981 5.434 -3.962 5.434Zm17.623 4.604c1.981 1.981 4.604 2.972 7.736 2.972 3.462 0 6.264 -1.151 8.236 -3.623 1.981 -2.472 2.962 -5.434 2.962 -9.226 0 -3.123 -0.66 -5.594 -1.981 -7.406 -1.311 -1.981 -3.613 -3.632 -7.236 -4.943 -3.132 -1.151 -5.113 -2.142 -5.764 -2.642a2.991 2.991 0 0 1 0 -4.443 6.274 6.274 0 0 1 3.453 -0.821c2.642 0 4.123 1.481 4.623 4.613l6.085 -1.811c-0.821 -3.623 -1.981 -6.094 -3.623 -7.736 -1.651 -1.651 -4.123 -2.311 -7.245 -2.311 -3.302 0 -5.934 1.151 -7.575 3.292 -1.811 2.142 -2.642 5.104 -2.642 8.566 0 3.623 0.83 6.415 2.642 8.566 1.321 1.642 4.774 3.453 10.047 5.264 1.151 0.5 1.811 0.821 2.142 1.321a3.509 3.509 0 0 1 0.491 1.981 4.396 4.396 0 0 1 -1.151 2.953c-0.66 0.66 -1.981 1.16 -3.462 1.16 -2.962 0 -4.774 -1.981 -5.264 -6.094l-6.425 1.642c0.821 3.792 2.142 6.755 3.953 8.726Zm31.613 -26.019c1.16 -1.981 2.642 -2.962 4.123 -2.962 1.642 0 2.962 0.991 4.113 2.962 1.151 1.981 1.651 4.943 1.651 8.896 0 3.953 -0.5 6.915 -1.651 8.896 -1.151 1.981 -2.642 2.962 -4.113 2.962 -1.651 0 -3.132 -0.991 -4.283 -2.962 -1.151 -1.981 -1.651 -5.104 -1.651 -8.896 0 -3.953 0.5 -6.915 1.811 -8.896Zm-4.934 23.717c2.302 3.623 5.434 5.434 9.057 5.434 2.302 0 4.283 -0.821 6.255 -2.472 1.981 -1.642 3.462 -3.953 4.613 -7.245a32.075 32.075 0 0 0 1.642 -10.868c0 -5.264 -1.151 -10.047 -3.292 -14 -2.302 -3.953 -5.264 -6.094 -9.217 -6.094 -2.311 0 -4.443 0.83 -6.255 2.311 -1.811 1.481 -3.302 3.953 -4.453 7.075a29.811 29.811 0 0 0 -1.642 10.377c-0.17 6.755 0.981 11.858 3.292 15.481Zm42.811 4.613h6.094V282.453h-6.415v16.302c0 5.104 -0.17 8.566 -0.5 10.208a9.038 9.038 0 0 1 -1.811 3.792c-0.991 0.981 -1.981 1.481 -2.962 1.481a2.962 2.962 0 0 1 -2.472 -1.151 6.047 6.047 0 0 1 -1.321 -3.302 101.387 101.387 0 0 1 -0.321 -9.717v-17.783h-6.425v24.538c0 3.962 0.33 6.755 0.981 8.896 0.5 1.981 1.481 3.623 2.802 4.613 1.321 1.151 2.642 1.642 4.283 1.642a7.113 7.113 0 0 0 4.443 -1.642c1.491 -1.16 2.642 -2.972 3.623 -4.943v5.755Zm18.943 -12.189c0 -6.094 0.16 -10.208 0.491 -12.519 0.33 -2.132 0.83 -3.783 1.481 -4.604 0.66 -0.83 1.481 -1.321 2.311 -1.321 0.991 0 1.981 0.66 2.962 1.651l1.981 -8.896c-1.321 -1.321 -2.642 -1.981 -4.123 -1.981 -1.151 0 -1.981 0.5 -2.802 1.321 -0.821 0.821 -1.642 2.642 -2.792 5.104v-5.434h-6.094v38.708h6.415V308.962h0.17Zm29.481 -24.528a8.962 8.962 0 0 0 -6.915 -2.972c-3.632 0 -6.425 1.642 -8.566 5.104 -2.142 3.462 -3.302 8.566 -3.302 15.151 0 5.434 0.991 10.208 2.972 14.33 1.811 3.953 4.774 5.925 8.726 5.925 6.255 0 10.047 -4.613 11.368 -14l-6.425 -1.642c-0.33 2.642 -0.991 4.613 -1.651 5.755 -0.821 1.16 -1.811 1.651 -2.962 1.651 -1.651 0 -2.962 -0.821 -3.783 -2.792 -0.991 -1.981 -1.491 -5.104 -1.491 -9.887 0 -4.113 0.5 -7.075 1.481 -8.887 0.991 -1.651 2.311 -2.642 3.792 -2.642 2.472 0 3.953 1.981 4.443 6.094l6.425 -1.811c-1.151 -4.443 -2.472 -7.575 -4.113 -9.387Zm13.5 13.991c0 -2.802 0.491 -5.104 1.321 -6.755 0.991 -1.642 1.981 -2.302 3.453 -2.302 1.321 0 2.311 0.821 3.302 2.302 0.981 1.481 1.321 3.792 1.481 6.755h-9.557Zm5.274 15.811c-1.321 0 -2.642 -0.83 -3.623 -2.472 -1.16 -1.651 -1.651 -4.123 -1.651 -7.075h16.132v-1.16c0 -7.575 -1.142 -13.17 -3.453 -17.123 -1.981 -3.302 -4.604 -5.113 -8.226 -5.113 -3.132 0 -5.764 1.651 -7.575 4.943 -2.311 3.962 -3.632 9.057 -3.632 15.481 0 6.585 1.16 11.698 3.462 15.311 1.981 3.132 4.774 4.783 8.396 4.783a8.962 8.962 0 0 0 6.594 -2.802c1.811 -1.811 3.123 -4.774 3.953 -8.566l-6.425 -1.642c-0.5 3.623 -1.981 5.434 -3.962 5.434Zm17.783 4.604c1.981 1.981 4.613 2.972 7.736 2.972 3.462 0 6.264 -1.151 8.236 -3.623 1.981 -2.472 2.972 -5.434 2.972 -9.226 0 -3.123 -0.66 -5.594 -1.981 -7.406 -1.321 -1.981 -3.623 -3.632 -7.245 -4.943 -3.132 -1.151 -5.104 -2.142 -5.764 -2.642a2.991 2.991 0 0 1 0 -4.443 6.274 6.274 0 0 1 3.462 -0.821c2.632 0 4.113 1.481 4.604 4.613l6.094 -1.811c-0.821 -3.623 -1.981 -6.094 -3.623 -7.736 -1.642 -1.651 -4.113 -2.311 -7.245 -2.311 -3.292 0 -5.925 1.151 -7.575 3.292 -1.811 2.142 -2.642 5.104 -2.642 8.566 0 3.623 0.83 6.415 2.642 8.566 1.321 1.642 4.774 3.453 10.047 5.264 1.151 0.5 1.811 0.821 2.142 1.321a3.509 3.509 0 0 1 0.491 1.981 4.396 4.396 0 0 1 -1.151 2.953c-0.821 0.83 -1.981 1.16 -3.462 1.16 -2.962 0 -4.774 -1.981 -5.264 -6.094l-6.415 1.642c0.651 3.792 1.972 6.755 3.943 8.726Zm48.255 -36.387c-0.991 -1.811 -1.481 -3.302 -1.481 -4.623 0 -1.142 0.16 -1.972 0.821 -2.792a2.67 2.67 0 0 1 2.302 -1.151c0.991 0 1.811 0.491 2.472 1.321 0.66 0.821 0.991 1.972 0.991 3.453s-0.66 2.962 -1.981 4.613l-1.642 2.142 -1.481 -2.962Zm5.594 26.84c-2.142 2.642 -4.113 4.113 -6.085 4.113 -1.491 0 -2.642 -0.821 -3.632 -1.972 -0.981 -1.321 -1.321 -3.132 -1.321 -5.434 0 -1.651 0.5 -3.623 1.16 -5.104 0.821 -1.651 1.981 -2.972 3.302 -4.283l6.575 12.679Zm10.877 2.472c-1.16 -1.151 -1.981 -2.311 -2.802 -3.462 1.151 -2.142 1.981 -5.755 2.962 -11.038l-5.764 -2.132c-0.491 2.472 -0.821 4.613 -1.321 6.094l-4.613 -9.887c2.311 -2.302 3.962 -4.604 4.783 -6.415 0.821 -1.981 1.321 -4.123 1.321 -6.425 0 -3.623 -0.83 -6.425 -2.642 -8.726 -1.642 -2.311 -3.783 -3.302 -6.585 -3.302a8.509 8.509 0 0 0 -6.915 3.302c-1.651 2.132 -2.642 4.934 -2.642 8.396 0 3.623 1.16 7.406 3.462 11.698 -5.104 4.113 -7.575 9.547 -7.575 16.462 0 3.953 0.991 7.575 2.962 10.868 1.981 3.302 4.943 4.943 9.057 4.943 1.981 0 3.962 -0.5 5.434 -1.321 1.491 -0.821 2.972 -2.302 4.453 -4.283 1.642 2.642 3.623 4.613 5.434 6.094l3.953 -7.906c-0.83 -0.491 -1.651 -1.481 -2.972 -2.962Zm31.943 10.208c4.774 0 8.066 -1.642 10.377 -4.774 2.302 -3.132 3.292 -7.075 3.292 -11.698 0 -3.292 -0.491 -5.925 -1.151 -8.226a12.906 12.906 0 0 0 -3.462 -5.434c-1.481 -1.481 -3.953 -2.802 -7.406 -4.123 -3.302 -1.151 -5.434 -2.302 -6.264 -3.292a4.953 4.953 0 0 1 -1.321 -3.623c0 -1.481 0.5 -2.642 1.491 -3.623 0.981 -0.991 2.302 -1.481 4.113 -1.481s3.302 0.491 4.123 1.642c0.981 1.16 1.642 3.132 1.981 6.094l6.745 -0.491c-0.17 -5.104 -1.321 -9.226 -3.623 -12.019 -2.142 -2.802 -5.274 -4.283 -9.226 -4.283 -2.642 0 -4.774 0.66 -6.585 1.811 -1.651 1.151 -3.302 2.962 -4.123 5.264a19.906 19.906 0 0 0 -1.481 7.906c0 2.472 0.5 4.943 1.16 7.085 0.821 2.142 1.811 3.953 3.292 5.274 1.321 1.321 3.453 2.462 6.415 3.623 3.302 1.151 5.283 2.142 6.094 2.632 0.83 0.491 1.321 1.151 1.811 1.981 0.5 0.821 0.66 1.972 0.66 3.123 0 1.981 -0.491 3.792 -1.642 5.104 -1.16 1.481 -2.802 1.981 -4.783 1.981 -4.113 0 -6.585 -3.462 -7.245 -10.217l-6.585 0.991c0.5 12.679 5.104 18.774 13.34 18.774Zm24.208 -23.547c0 -2.802 0.5 -5.104 1.321 -6.755 0.991 -1.642 1.981 -2.302 3.453 -2.302 1.321 0 2.311 0.821 3.302 2.302 0.981 1.481 1.321 3.792 1.481 6.755h-9.557Zm5.274 15.811c-1.321 0 -2.642 -0.83 -3.623 -2.472 -1.151 -1.651 -1.651 -4.123 -1.651 -7.075h16.142v-1.16c0 -7.575 -1.151 -13.17 -3.462 -17.123 -1.981 -3.302 -4.604 -5.113 -8.236 -5.113 -3.123 0 -5.755 1.651 -7.566 4.943 -2.311 3.962 -3.623 9.057 -3.623 15.481 0 6.585 1.151 11.698 3.453 15.311 1.981 3.132 4.774 4.783 8.396 4.783a8.962 8.962 0 0 0 6.594 -2.802c1.811 -1.811 3.123 -4.774 3.953 -8.566l-6.425 -1.642c-0.66 3.623 -1.981 5.434 -3.962 5.434Zm22.236 -5.274c0 -6.094 0.16 -10.208 0.491 -12.519 0.33 -2.132 0.821 -3.783 1.481 -4.604 0.66 -0.83 1.481 -1.321 2.302 -1.321 0.991 0 1.981 0.66 2.972 1.651l1.972 -8.896c-1.321 -1.321 -2.642 -1.981 -4.113 -1.981 -1.16 0 -1.981 0.5 -2.802 1.321 -0.821 0.821 -1.651 2.642 -2.802 5.104v-5.434h-5.925v38.708h6.415V308.962Zm24.528 12.189 9.717 -38.698H556.604l-4.613 19.755 -1.321 6.594 -1.311 -6.594 -4.613 -19.755h-6.745l9.877 38.698h5.594Zm20.264 0V282.453h-6.425v38.698h6.415Zm0 -44.132v-9.557h-6.425v9.557h6.415Zm24.038 7.406a8.962 8.962 0 0 0 -6.915 -2.962c-3.623 0 -6.415 1.642 -8.566 5.104 -2.142 3.462 -3.292 8.566 -3.292 15.151 0 5.434 0.991 10.208 2.962 14.33 1.811 3.953 4.783 5.925 8.736 5.925 6.255 0 10.047 -4.613 11.358 -14l-6.255 -1.642a16.226 16.226 0 0 1 -1.651 5.755c-0.821 1.16 -1.811 1.651 -2.962 1.651 -1.642 0 -2.962 -0.821 -3.783 -2.792 -0.991 -1.981 -1.481 -5.104 -1.481 -9.887 0 -4.113 0.491 -7.075 1.481 -8.887 0.981 -1.651 2.302 -2.642 3.783 -2.642 2.472 0 3.953 1.981 4.443 6.094l6.264 -1.811c-1.151 -4.443 -2.472 -7.575 -4.123 -9.387Zm13.509 14c0 -2.802 0.491 -5.104 1.321 -6.755 0.981 -1.642 1.972 -2.302 3.453 -2.302 1.321 0 2.302 0.821 3.302 2.302 0.981 1.481 1.311 3.792 1.472 6.755h-9.547Zm5.264 15.811c-1.321 0 -2.632 -0.83 -3.623 -2.472 -1.151 -1.651 -1.642 -4.123 -1.642 -7.075h16.132v-1.16c0 -7.575 -1.151 -13.17 -3.453 -17.123 -1.981 -3.302 -4.613 -5.113 -8.236 -5.113 -3.132 0 -5.755 1.651 -7.575 4.943 -2.302 3.962 -3.623 9.057 -3.623 15.481 0 6.585 1.151 11.698 3.462 15.311 1.981 3.132 4.774 4.783 8.396 4.783a8.962 8.962 0 0 0 6.585 -2.802c1.811 -1.811 3.132 -4.774 3.962 -8.566l-6.434 -1.642c-0.491 3.623 -1.981 5.434 -3.953 5.434Zm17.623 4.604c1.981 1.981 4.613 2.972 7.736 2.972 3.462 0 6.264 -1.151 8.245 -3.623 1.972 -2.472 2.962 -5.434 2.962 -9.226 0 -3.123 -0.66 -5.594 -1.981 -7.406 -1.321 -1.981 -3.623 -3.632 -7.245 -4.943 -3.123 -1.151 -5.094 -2.142 -5.755 -2.642a2.991 2.991 0 0 1 0 -4.443 6.274 6.274 0 0 1 3.453 -0.821c2.642 0 4.113 1.481 4.613 4.613l6.085 -1.811c-0.821 -3.623 -1.972 -6.094 -3.623 -7.736 -1.642 -1.651 -4.113 -2.311 -7.245 -2.311 -3.292 0 -5.925 1.151 -7.575 3.292 -1.811 2.142 -2.632 5.104 -2.632 8.566 0 3.623 0.821 6.415 2.642 8.566 1.311 1.642 4.774 3.453 10.038 5.264 1.151 0.5 1.811 0.821 2.142 1.321a3.5 3.5 0 0 1 0.491 1.981 4.396 4.396 0 0 1 -1.151 2.953c-0.66 0.66 -1.981 1.16 -3.453 1.16 -2.972 0 -4.783 -1.981 -5.274 -6.094l-6.415 1.642c0.66 3.792 2.132 6.755 3.943 8.726Zm44.802 -18.934 4.434 -19.925 4.623 19.925h-9.057Zm8.066 -32.443h-7.245l-13.179 53.528h7.245l2.802 -12.028h13.5l2.972 12.028h7.406l-13.5 -53.528Zm23.877 24.708c0.991 -1.981 2.302 -2.972 3.792 -2.972 1.642 0 2.962 0.991 3.943 2.972 0.991 1.972 1.491 5.094 1.491 9.547 0 4.113 -0.5 7.075 -1.651 9.057 -0.991 1.981 -2.302 2.962 -3.623 2.962 -1.151 0 -1.981 -0.491 -2.962 -1.321 -0.83 -0.821 -1.481 -2.132 -1.981 -3.943 -0.491 -1.651 -0.66 -4.283 -0.66 -7.906 0 -3.623 0.5 -6.425 1.651 -8.396Zm15.481 -24.547h-6.415v19.274c-1 -1.811 -1.981 -3.302 -3.302 -4.113a5.802 5.802 0 0 0 -3.783 -1.491c-2.972 0 -5.434 1.651 -7.255 5.113 -1.972 3.292 -2.962 8.396 -2.962 14.981 0 6.585 0.991 11.698 2.962 15.151 1.981 3.623 4.453 5.274 7.085 5.274a5.991 5.991 0 0 0 4.113 -1.651c1.491 -1.151 2.642 -2.802 3.632 -4.943v5.764h6.085V267.642h-0.16Zm6.094 14.66v39.028h6.415v-18.934c0 -3.792 0.17 -6.415 0.5 -8.066a8.255 8.255 0 0 1 1.651 -3.623c0.821 -0.83 1.642 -1.321 2.632 -1.321 1.321 0 2.302 0.821 2.802 2.302 0.33 1.151 0.491 3.962 0.491 8.075v21.245h6.415v-18.613c0 -5.104 0.5 -8.566 1.321 -10.538 0.83 -1.811 1.981 -2.642 3.462 -2.642 1.321 0 2.142 0.66 2.642 1.981 0.491 1.321 0.821 3.953 0.821 7.736v22.075h6.415v-24.877c0 -3.943 -0.321 -6.915 -0.981 -8.887 -0.66 -1.981 -1.651 -3.302 -2.802 -4.443a6.453 6.453 0 0 0 -8.236 0c-1.151 1.151 -2.302 2.632 -3.453 4.604 -0.83 -1.981 -1.651 -3.623 -2.802 -4.604a6.019 6.019 0 0 0 -4.123 -1.491 7.019 7.019 0 0 0 -4.113 1.481c-1.321 0.991 -2.472 2.642 -3.623 4.623v-5.283h-5.434v0.17Zm48.745 38.868V282.453h-6.415v38.698h6.415Zm0 -44.132v-9.557h-6.415v9.557h6.415Zm28.981 44.132v-24.047c0 -3.953 -0.16 -6.745 -0.821 -8.726a10.274 10.274 0 0 0 -2.642 -4.943 6.33 6.33 0 0 0 -4.764 -1.981 6.5 6.5 0 0 0 -4.453 1.651 14.811 14.811 0 0 0 -3.623 4.943v-5.594h-6.094v38.698h6.425v-17.623c0 -4.443 0.17 -7.406 0.5 -9.057a7.415 7.415 0 0 1 1.811 -3.783 3.736 3.736 0 0 1 2.962 -1.491c0.821 0 1.642 0.33 2.302 1.16 0.821 0.66 1.151 1.642 1.321 2.962 0.16 1.321 0.33 3.953 0.33 7.906v19.764h6.745v0.16Zm12.849 0V282.453h-6.415v38.698h6.415Zm0 -44.132v-9.557h-6.415v9.557h6.415Zm8.236 41.821c1.981 1.981 4.613 2.972 7.736 2.972 3.462 0 6.264 -1.151 8.236 -3.623 1.981 -2.472 2.962 -5.434 2.962 -9.226 0 -3.123 -0.66 -5.594 -1.981 -7.406 -1.311 -1.981 -3.613 -3.632 -7.236 -4.943 -3.132 -1.151 -5.104 -2.142 -5.764 -2.642a2.991 2.991 0 0 1 0 -4.443 6.274 6.274 0 0 1 3.453 -0.821c2.642 0 4.123 1.481 4.623 4.613l6.085 -1.811c-0.821 -3.623 -1.981 -6.094 -3.623 -7.736 -1.642 -1.651 -4.113 -2.311 -7.245 -2.311 -3.302 0 -5.934 1.151 -7.575 3.292 -1.811 2.142 -2.642 5.104 -2.642 8.566 0 3.623 0.83 6.415 2.642 8.566 1.321 1.642 4.774 3.453 10.047 5.264 1.151 0.5 1.811 0.821 2.142 1.321a3.509 3.509 0 0 1 0.491 1.981 4.396 4.396 0 0 1 -1.151 2.953c-0.821 0.83 -1.981 1.16 -3.462 1.16 -2.962 0 -4.774 -1.981 -5.264 -6.094l-6.425 1.642c0.66 3.792 1.981 6.755 3.953 8.726Zm35.736 -36.387h-4.443v-13.679l-6.425 5.943v7.736h-2.962v8.236h2.962v16.953c0 4.283 0.16 7.255 0.491 8.566 0.5 1.981 1.151 3.462 1.981 4.453a5.349 5.349 0 0 0 3.953 1.481 9.245 9.245 0 0 0 5.094 -1.481l-0.491 -8.075c-1.151 0.66 -1.981 0.991 -2.632 0.991 -0.821 0 -1.321 -0.491 -1.651 -1.481 -0.16 -0.5 -0.16 -2.642 -0.16 -5.934v-15.642h4.443v-8.236h-0.16Zm10.538 26.509c0 -6.094 0.17 -10.208 0.5 -12.519 0.321 -2.132 0.821 -3.783 1.481 -4.604 0.66 -0.83 1.481 -1.321 2.302 -1.321 0.991 0 1.981 0.66 2.962 1.651l1.981 -8.896c-1.321 -1.321 -2.642 -1.981 -4.123 -1.981 -1.151 0 -1.981 0.5 -2.792 1.321 -0.83 0.821 -1.651 2.642 -2.802 5.104v-5.434h-6.094v38.708h6.415V308.962h0.17Zm25.528 -6.415v1.972c0 2.962 -0.16 5.104 -0.491 6.094 -0.33 1.151 -0.991 1.981 -1.821 2.962a3.509 3.509 0 0 1 -2.632 1.151 2.962 2.962 0 0 1 -2.642 -1.481 6.075 6.075 0 0 1 -1.142 -3.783 5.566 5.566 0 0 1 0.991 -3.302c0.66 -0.821 1.972 -1.642 3.943 -2.302 1.651 -0.491 2.972 -1.151 3.962 -1.481h-0.17v0.16Zm-6.585 -12.028a3.481 3.481 0 0 1 2.632 -0.991c1.151 0 1.981 0.17 2.642 0.66 0.66 0.5 1.142 0.991 1.311 1.651 0.33 0.66 0.33 1.981 0.33 4.283 -1.151 0.821 -3.302 1.642 -6.255 2.462 -2.472 0.83 -4.283 1.651 -5.443 2.642a9.811 9.811 0 0 0 -2.632 3.953 15.66 15.66 0 0 0 -0.991 5.755c0 3.462 0.83 6.264 2.311 8.236 1.481 1.981 3.453 3.132 5.755 3.132 1.321 0 2.642 -0.491 3.962 -1.321 1.321 -0.821 2.472 -2.142 3.623 -3.953l0.821 4.283h6.415a23.566 23.566 0 0 1 -1.142 -5.264 79.302 79.302 0 0 1 -0.33 -7.575l0.16 -12.028c0 -4.604 -0.33 -7.736 -0.991 -9.387a8.651 8.651 0 0 0 -3.123 -4.113c-1.481 -0.991 -3.623 -1.481 -6.264 -1.481 -3.123 0 -5.434 0.821 -7.075 2.642 -1.651 1.642 -2.802 4.604 -3.623 8.396l5.925 1.642c0.5 -1.981 0.991 -3.132 1.981 -3.623Zm30.472 -8.066h-4.292v-13.679l-6.415 5.943v7.736h-2.972v8.236h2.802v16.953c0 4.283 0.16 7.255 0.33 8.566 0.491 1.981 1.151 3.462 2.142 4.453a5.613 5.613 0 0 0 3.953 1.481 8.717 8.717 0 0 0 4.934 -1.481l-0.491 -8.075c-1.151 0.66 -1.981 0.991 -2.642 0.991 -0.821 0 -1.311 -0.491 -1.642 -1.481 -0.16 -0.5 -0.16 -2.642 -0.16 -5.934v-15.642h4.443v-8.236Zm11.028 38.698V282.453h-6.594v38.698h6.594Zm0 -44.132v-9.557h-6.594v9.557h6.594Zm13.67 15.802c1.151 -1.981 2.632 -2.962 4.283 -2.962 1.642 0 2.962 0.991 4.274 2.962 1.16 1.981 1.651 4.943 1.651 8.896 0 3.953 -0.491 6.915 -1.651 8.896 -1.311 1.981 -2.632 2.962 -4.274 2.962 -1.651 0 -3.132 -0.991 -4.283 -2.962 -1.16 -1.981 -1.651 -5.104 -1.651 -8.896 -0.16 -3.953 0.33 -6.915 1.651 -8.896Zm-4.943 23.717c2.302 3.623 5.434 5.434 9.057 5.434a8.745 8.745 0 0 0 6.094 -2.472c1.972 -1.642 3.462 -3.953 4.613 -7.245 1.151 -3.292 1.642 -6.745 1.642 -10.868 0 -5.264 -1.151 -10.047 -3.292 -14 -2.142 -3.953 -5.264 -6.094 -9.217 -6.094a9.906 9.906 0 0 0 -6.425 2.311c-1.811 1.481 -3.292 3.953 -4.613 7.075a29.858 29.858 0 0 0 -1.651 10.377c0.17 6.755 1.321 11.858 3.792 15.481Zm48.915 4.613v-24.047c0 -3.953 -0.17 -6.745 -0.66 -8.726a11.868 11.868 0 0 0 -2.642 -4.943 6.311 6.311 0 0 0 -4.774 -1.981 6.509 6.509 0 0 0 -4.443 1.651c-1.481 1.16 -2.632 2.802 -3.623 4.943v-5.594h-5.934v38.698h6.425v-17.623c0 -4.443 0.17 -7.406 0.5 -9.057a7.302 7.302 0 0 1 1.811 -3.783 3.736 3.736 0 0 1 2.962 -1.491c0.821 0 1.642 0.33 2.302 1.16a5 5 0 0 1 1.321 2.962c0.33 1.321 0.33 3.953 0.33 7.906v19.764h6.425v0.16Z" /></svg>