<svg xmlns="http://www.w3.org/2000/svg" viewBox="0 0 519.42 514.81" aria-labelledby="ihs-logo-title"><title id="ihs-logo-title">Indian Health Service logo</title><defs><style>.cls-1{fill-rule:evenodd;}</style></defs><path class="cls-1" d="M166.4,143.36c11.38,0,20.59,9.22,20.59,20.59s-9.22,20.74-20.59,20.74-20.66-9.22-20.66-20.74,9.29-20.59,20.66-20.59h0ZM474.27,161.29l13.1-6.84c3.74,6.84,9.94,15.91,1.51,19.51-7.63,3.38-12.17-6.12-14.62-12.67h.01ZM437.62,160.5c6.7,11.88,9.36,19.22,9.65,19.94l7.49-2.95-2.3-5.11,13.82-6.26c2.38,3.17,4.1,7.34,3.17,12.17-3.6,6.26-15.77,6.84-16.7,15.41l3.1,10.66,7.99-2.52c-.5-1.44-2.38-2.66-1.73-5.9,4.03-6.55,17.28-6.91,17.14-15.26,10.15,8.35,24.34-.65,23.69-12.02-5.11-10.73-8.28-20.45-15.26-32.76l-8.14,3.17,2.66,5.26-34.92,17.35-3.1-5.18-6.55,4.03h0v-.03ZM462.25,237.18l7.99-.29.58,4.82,39.31-1.22-.5-4.54,8.57-.5c.79,6.55.79,14.04,1.22,20.88h-8.35v-4.68l-39.74.36.72,5.26h-8.71c.14-3.38-.29-11.52-1.08-20.09h-.01ZM460.37,290.75c.5,8.21,6.41,17.42,17.28,18.79l.79-8.57c-5.62-3.67-8.86-9.79-8.06-16.92,1.66-6.41,4.82-11.38,11.02-14.18,7.2-2.66,15.91-.94,21.82,3.38,5.33,4.68,7.06,10.15,5.76,17.5-1.08,6.55-5.62,10.22-11.52,12.6l-.43,7.78,16.78,1.22,1.44-6.84-1.87-3.74c5.11-6.84,7.2-13.68,5.11-21.82-1.37-8.86-8.21-16.06-16.2-19.94-10.08-3.67-22.1-3.02-30.67,2.95-8.71,5.98-12.17,17.14-11.23,27.79h-.02ZM458.36,214.28l42.41-24.62c0-.79-1.08-3.6-1.73-6.41l7.49-3.1c2.81,6.05,4.68,16.49,6.55,22.61l-8.28,1.73-1.08-4.82-26.06,14.9,30.1,3.74-1.73-5.4,9.07-1.15,2.66,20.16-8.42.14-.36-2.66-48.6-5.76-2.02-9.36h0ZM457.71,308.17l7.85,1.58-1.3,5.76,36.79,12.74,1.37-5.11,8.28,2.66c-3.89,13.54-8.71,27.36-14.33,40.32l-13.54-4.68,3.1-7.63,6.41,1.08,5.76-15.55-14.18-4.82-4.82,12.89-9.5-3.53,4.54-12.67-13.1-4.68-6.12,15.62,5.98,4.32-4.39,6.7-12.96-5.54c.22.43,11.38-26.35,14.18-39.46h-.02ZM443.53,379.88l12.96,6.19-7.78,11.38-11.88-7.49,6.7-10.08h0ZM410.55,123.13c8.21,7.63,19.94,24.48,25.2,34.27l12.67-8.86-5.04-7.06-6.05,3.17-9.65-13.9,11.95-8.28,8.78,10.94,8.35-5.9-8.57-11.09,11.23-8.14,10.44,13.9-5.9,4.97,4.68,6.7,14.04-6.55c-8.57-13.03-16.7-26.42-28.08-38.45l-6.84,4.82,3.89,4.82-31.46,23.69c-.79-1.22-1.87-2.66-2.81-3.89l-6.84,4.82h0v.02ZM413.79,61.71c5.47-3.53,12.02-2.45,16.99.65,4.97,2.81,7.78,8.86,9.79,13.68.65-.29,1.73-.29,2.52-.29l4.82,5.9-11.09,9.86-4.82-4.1c.5-4.97.94-11.66-3.89-15.7-4.97-3.1-9.36-2.02-9.65,3.38,3.1,10.15,12.96,18.14,9.22,30.24-2.52,5.76-7.2,9.86-12.96,11.52-2.81.65-4.03.65-6.41.36l1.73-10.01c11.66-2.95,5.62-11.52,2.95-16.78-5.26-11.74-10.44-20.45.79-28.73h0v.02ZM379.95,424.09l5.62,6.26-11.66,8.21c1.87,3.17,1.73,3.17,4.03,7.2,6.12-3.89,16.85-5.62,23.11.79,6.05,4.82,11.38,13.1,9.5,20.74-.65,6.05-7.99,11.81-14.69,13.25-6.19,1.37-15.91-3.74-18.65-8.14l6.98-6.26c3.46,3.46,14.47,9.36,15.91-2.3-.22-4.18-3.46-8.14-6.26-10.15-7.78-3.89-11.66-.29-17.42,6.41l-16.85-22.46c8.28-4.03,14.04-8.71,20.38-13.54h0ZM406.45,401.34c-5.76,5.62-10.73,11.09-18.22,16.34l19.94,19.8c4.82-7.49,7.99-11.66,16.2-8.86,3.17,1.58,7.2,4.82,7.78,8.86.36,12.02-11.52,7.63-15.26,4.82l-6.05,7.2c3.46,3.89,13.9,7.49,19.66,5.26,6.34-2.45,12.89-9.29,12.6-15.26.79-7.92-5.9-15.26-12.46-19.15-7.2-5.26-17.64-2.02-22.9,2.81-3.17-3.89-2.95-3.89-5.33-6.55l10.44-9.94-6.41-5.33h0ZM396.01,80.94l-15.7,14.33,7.49,5.76c.79.14,4.32-.79,4.68-.65-1.44,3.74,1.66,6.84,4.32,9.5l10.01-2.81c-1.3-1.37-2.66-1.37-4.39-3.24-4.18-4.82-2.66-11.88-.65-16.99l-5.76-5.9h0ZM343.09,457.28c5.11,3.46,8.71,13.75,0,15.12-9.5,0-12.67-18.22,0-15.12h0ZM330.56,450.44c-10.44,8.28-4.97,26.93,7.06,31.18,6.55,2.3,14.62-.36,17.57-5.76,3.6,4.97,5.98,13.03.36,16.06-3.6,1.22-7.63.29-9.36-2.38l-7.92,2.81c6.19,14.62,32.98,12.31,30.53-8.57-2.81-14.33-13.61-48.02-38.23-33.34h0ZM325.16,66.54l3.24-7.13,3.31,1.08,17.28-35.35-5.9-2.52,2.81-7.78c6.48,2.52,14.9,5.62,21.02,8.71l-3.74,7.2-4.54-1.58-5.62,11.23,16.2,7.63,6.55-10.58-6.05-3.31,3.89-7.49c6.98,3.46,14.18,7.2,20.38,11.38l-4.54,6.55-4.18-2.02-19.8,33.98,3.89,2.16-2.95,5.9c-.29.22-.43.5-1.22.65l-16.85-8.86,3.89-7.34,4.54,2.52,8.14-15.26-15.77-7.2-8.28,14.98,5.76,2.45-4.32,7.06-17.14-7.06h0ZM299.89,3.47l-1.73,12.17,7.34,1.37,1.58-4.03,6.55,1.58-8.93,38.16-5.62-1.44-1.66,7.99c6.98,1.37,15.55,3.89,22.1,5.76l1.73-8.14-6.26-1.51,9.22-38.38,6.19,2.02-.94,3.31,7.85,2.95,4.03-11.88c-13.1-4.46-27.72-7.92-41.47-9.94h.02ZM293.33,460.88l16.06-3.1,13.1,45.29,5.47-1.37,2.02,7.78c-7.34,2.38-14.83,4.03-22.1,5.33l-1.58-7.85,4.54-.94-9.22-38.59-5.62,1.22-2.66-7.78h-.01ZM283.54,232.07l5.26,4.82,114.26-123.55-119.52,118.73h0ZM162.08,353.17l.14-39.53,123.05-123.19-1.87,41.62-121.32,121.1h0ZM288.8,236.89l48.53-4.68-127.3,127.22h-43.92l122.69-122.54h0ZM368,357.13l-25.13-22.18c10.44-13.54,46.58,1.58,25.13,22.18h0ZM334.66,344.31c-14.69,18.07,6.84,36.43,24.41,21.38l-24.41-21.38h0ZM149.26,183.11l-73.8,73.58c14.47,11.45,38.74,15.34,62.14,1.94l58.1-50.26,29.02,28.51c-6.7,8.06-16.34,17.93-23.69,23.76l-5.33-3.96,20.45-20.3c-5.9-6.55-7.2-8.21-17.64-8.71-12.89-.65-23.98,6.55-31.9,16.7-15.77,19.37-13.75,35.71,8.42,42.77l-21.1,21.46c-.94,17.21.36,35.42-.43,52.56l-24.77.58c.29,1.73-1.58,5.62-.36,6.91l21.53-.14-27.58,27.58c.29,1.87,2.3,4.61,4.03,5.11l27.14-27.29c.29,0,.94.36,1.22.36l.14,18.79c1.87.65,6.41,2.66,7.2.94v-26.42h51.7l51.19-50.83c-7.06,31.46,19.8,44.06,52.56,36.94-5.04,27.86,25.56,40.18,50.47,22.25l14.18,12.67,9-7.85-14.62-13.82c23.18-19.15,10.87-56.09-25.56-48.02,20.23-28.37-.14-58.54-38.52-51.26l85.9-85.32,7.49-72.14-73.73,18.07-43.92,44.14c.43-12.46-16.2-17.64-27.14-15.12-12.1,2.66-20.3,10.15-27.14,19.94-3.17,5.76-13.1,35.06,4.82,36.14l22.03-21.82,4.18,4.03-27.14,27.58-28.87-27.58,54-64.15c7.34-17.93,11.74-44.14-4.1-59.04l-73.87,73.8c28.08,23.83-9.65,61.56-35.71,36.94h0v-.02ZM285.27,297.44c-21.38,33.62,15.84,48.1,36.94,35.06l-36.94-35.06h0ZM331.71,322.64c26.5-22.61-10.3-55.73-36.65-35.35l36.65,35.35h0ZM258.7,47.89c.72-.14,3.02-.14,4.25.14l3.89-39.24c-2.02-.22-3.89,0-6.84-.22V0c7.92.22,16.06.79,26.35,1.73l-1.58,7.99-5.62-.36-4.32,39.31,11.02.72,2.81-8.71,8.78,1.44-3.74,16.63c-11.09-2.02-23.26-3.1-34.56-2.95l-.43-7.92h-.01ZM251.5,484.07l13.03.36,1.37,12.6-15.98-.5,1.58-12.46h0ZM223.93,31.04l3.1-14.62,7.34,13.39-10.44,1.22h0ZM206.14,54.87l1.87,7.63,18.58-4.03-1.58-7.78-3.74.79,1.44-10.15,15.84-2.16,4.1,9.14-4.25.65,1.08,7.78c5.33-.43,13.25-.65,18.29-.79l-.5-7.92-3.1.14-17.28-38.66c1.37,0,3.1-.29,4.82-.29l-1.73-8.28c-10.44.5-20.88,2.23-28.8,3.74l1.37,8.28c1.08,0,2.95-.5,4.54-.94l-7.49,41.47s-2.16.58-3.46,1.37h0ZM182.67,489.25l7.78,2.45c.58,4.68,1.37,8.14,6.34,11.09,4.54,2.3,15.62,2.3,8.93-8.86-7.2-9.22-33.34-21.53-11.88-37.58,6.55-2.3,15.26-1.37,20.16,1.73,2.02,1.73,2.95,2.81,4.61,3.24l1.87-1.22,6.55,1.08-3.53,17.5-6.55-1.73c-.79-4.68-2.02-10.01-6.91-12.02-2.95-1.08-5.9-1.73-7.92-.14-11.52,6.26,7.63,18.22,10.15,21.82,12.17,10.87,8.57,18.86,3.89,23.04-5.33,3.89-12.46,5.33-18.43,2.81-3.53-1.37-6.7-3.24-9.79-5.26-.94,0-.94,1.37-1.73,1.87l-7.49-2.52,3.96-17.28h0v-.02ZM146.96,25.93c12.02-5.33,25.7-11.59,39.6-15.12l4.82,11.66-7.99,2.52-2.02-3.89-15.7,6.05,4.18,10.3,13.9-4.68,2.81,9.65-11.88,4.39,5.9,16.2,14.18-5.18-1.66-9.36,7.78-2.81,5.4,17.35c-12.89,3.38-25.2,8.86-38.02,14.18l-3.24-6.91,3.89-2.16-14.18-36.43-3.6,1.87-4.18-7.63h.01ZM121.4,469.45l-4.97,6.41c5.9,3.38,11.95,7.63,18.07,11.38l4.32-6.91-3.89-2.45,9.07-14.33,16.63,9-7.42,14.98-3.96-2.02-4.68,6.7c10.15,5.26,21.67,9.5,21.38,9.5l2.3-7.78-4.32-1.87,16.85-35.06,3.24,1.08,3.46-7.92c-5.62-2.38-10.8-4.39-16.42-7.06l-4.82,7.06,4.25,2.45-5.18,9.79-15.84-8.21,6.05-9.86,3.46,1.87,4.82-6.7c-5.18-2.95-10.8-6.34-15.77-9.65l-5.47,6.55,3.74,2.02-21.67,33.34-3.24-2.3h0ZM109.09,431.58l11.09-12.02c2.95,2.52,12.6,10.44,6.55,16.42-6.26,5.9-14.04-1.3-17.64-4.39h0ZM81.8,437.34l3.6,2.95,26.06-28.94-3.96-3.89,5.62-5.62,19.51,17.71c10.73,9.72,4.18,19.66,1.73,22.46-6.7,7.63-19.37,6.55-31.18-3.46l-9.36,10.01,4.68,4.03-5.11,6.55c-6.26-5.33-11.23-9.94-16.85-15.91l5.26-5.9h0ZM92.24,61.57l17.64-13.68,5.47,6.55-4.39,3.1,9.07,9.79,14.47-10.44-7.06-10.58-4.18,2.66-4.82-6.84,19.8-11.88,3.6,7.49-3.74,2.38,21.31,33.19,3.89-1.58,3.46,6.55-16.2,9.36-5.76-5.76c.94-.65,3.38-1.87,4.03-3.46l-7.92-12.82-14.54,10.15,9.65,12.02,3.17-2.66,5.11,6.26c-4.32,3.67-11.52,9-17.28,13.39l-4.97-5.62,5.26-4.68-25.06-30.1-4.03,3.74-5.98-6.55h0v.02ZM58.76,384.71l12.46-5.47,6.7,10.44-10.58,8.06-8.57-13.03h0ZM50.48,166.91l-4.03,8.57-9.5-9,13.54.43h-.01ZM82.3,158.99l-8.28,15.7-6.98-2.16,1.73-4.39-5.83-.58-7.13,15.41,4.54,5.33,1.22-4.25,7.49,3.46-6.12,17.42-7.63-1.87,1.73-4.03-32.54-27.14-1.08,2.81-8.14-2.81,9.5-22.25,7.34,3.46-1.73,3.38,43.34,2.02,1.73-3.24,6.84,3.74h0ZM14.98,346.69l7.92-2.52,1.3,3.89,37.22-13.9-1.73-3.74,7.49-3.1c2.95,10.44,5.33,14.47,7.63,18.22l-7.63,3.6-1.87-4.18-36.65,14.04,2.38,4.18-7.78,3.46c-2.52-6.12-5.98-14.04-8.28-19.94h0ZM76.18,153.37l2.81-4.25-32.26-22.39-2.16,3.1-7.78-3.6,10.3-15.7,37.87,4.18-17.93-15.91-2.66,3.02-6.7-5.33,13.54-15.41,6.55,5.62-2.81,3.38,34.92,31.18-4.97,6.26-41.98-4.68,22.61,17.14,1.87-3.46,6.55,4.03-10.3,16.42-7.49-3.6h.02ZM16.21,237.83c6.12-3.74,14.33-3.89,20.59-1.22,5.9,2.74,9.22,6.84,10.3,13.54,0,2.81.43,5.62.43,7.99l-39.53-.43c1.22-8.5-.5-13.82,8.21-19.87h0ZM1.09,241.71c-.94,10.3-1.51,21.1-.72,32.47l8.71-.14-.5-5.33,39.1.36.5,5.76h7.78c0-9.5.65-14.47.14-26.28-.14-13.82-11.81-23.83-26.93-24.62-15.26-.94-26.06,9.07-28.08,17.78h0ZM8.57,193.11c-.58,3.38-2.66,13.39-4.18,20.09l7.92,1.37,1.08-3.89,38.23,9.07-1.15,4.54,8.14,1.66,4.03-19.01-7.49-1.66-1.22,4.03-37.87-10.15,1.08-4.32-8.57-1.73h0ZM.94,280.88l2.95,23.11,7.99-1.87-.79-6.91,25.06-2.95-28.66,28.51c1.08,5.98,2.52,9.86,4.39,16.42l8.06-2.09-1.37-4.68,38.45-10.08.94,4.97,7.49-2.16-5.11-19.66-7.99,2.16.94,3.74-24.41,6.91,28.51-27.14-.79-8.86-46.73,4.97-.94-4.68-7.99.29h0Z"/></svg>