<svg width="31" height="31" viewBox="0 0 31 31" fill="none" xmlns="http://www.w3.org/2000/svg" aria-hidden="true" focusable="false"><circle cx="15.647" cy="15.818" r="14" stroke-width="2" stroke="currentColor"/><g stroke="currentColor" fill="currentColor" stroke-width=".5"><path d="M19.18 15.241a0.32 0.32 0 0 0 0.426 -0.144 1.98 1.98 0 0 0 -0.136 -1.976 1.99 1.99 0 0 0 -1.779 -0.866 0.319 0.319 0 0 0 0.042 0.636 1.36 1.36 0 0 1 1.21 0.587 1.34 1.34 0 0 1 0.092 1.338 0.32 0.32 0 0 0 0.144 0.425Z"/><path d="M20.846 12.194a3.64 3.64 0 0 0 -3.27 -1.595 0.318 0.318 0 1 0 0.045 0.635 2.993 2.993 0 0 1 3.204 2.786 3 3 0 0 1 -0.296 1.528 0.32 0.32 0 0 0 0.286 0.456 0.32 0.32 0 0 0 0.287 -0.18 3.7 3.7 0 0 0 0.357 -1.847 3.6 3.6 0 0 0 -0.613 -1.783Z"/><path d="M23.118 13.858a5.32 5.32 0 0 0 -2.965 -4.394 5.3 5.3 0 0 0 -2.694 -0.522 0.32 0.32 0 0 0 -0.294 0.34 0.316 0.316 0 0 0 0.34 0.295 4.7 4.7 0 0 1 2.369 0.46 4.68 4.68 0 0 1 2.608 3.866 4.7 4.7 0 0 1 -0.462 2.371 0.318 0.318 0 0 0 0.286 0.458 0.32 0.32 0 0 0 0.287 -0.18c0.408 -0.836 0.59 -1.768 0.525 -2.695Zm-3.724 3.398c-0.005 0 -0.578 -0.148 -0.952 -0.624 -0.341 -0.433 -0.636 -0.974 -0.95 -1.547 -0.784 -1.435 -1.673 -3.061 -3.549 -3.226a4 4 0 0 0 -0.834 0.04 1.1 1.1 0 0 0 -0.064 -0.36v-0.002a1.18 1.18 0 0 0 -0.611 -0.667 1.185 1.185 0 0 0 -1.613 1.477c0.047 0.13 0.116 0.236 0.18 0.315 -0.157 0.1 -0.38 0.25 -0.533 0.39 -1.46 1.33 -1.047 3.192 -0.683 4.833 0.14 0.63 0.272 1.227 0.302 1.77l-0.002 0.018c0.02 0.608 -0.326 1.088 -0.328 1.092 -0.292 0.392 -0.344 1.016 -0.117 1.42 0.184 0.327 0.555 0.521 0.939 0.521q0.19 0 0.377 -0.066l1.244 -0.453a0.4 0.4 0 0 0 0.062 -0.03 0.3 0.3 0 0 0 0.065 -0.016l1.317 -0.48a1.8 1.8 0 0 0 1.593 0.952c0.21 0 0.42 -0.037 0.622 -0.11 0.457 -0.167 0.82 -0.5 1.025 -0.94a1.8 1.8 0 0 0 0.132 -1.13l1.421 -0.516 1.245 -0.454c0.494 -0.179 0.807 -0.704 0.714 -1.194 -0.085 -0.455 -0.526 -0.899 -1.002 -1.012Zm-3.087 4.038c-0.133 0.286 -0.37 0.502 -0.666 0.61a1.17 1.17 0 0 1 -1.39 -0.464l2.157 -0.785c0.027 0.217 -0.006 0.437 -0.1 0.64Zm3.158 -2.428 -1.246 0.453 -6.11 2.224a0.3 0.3 0 0 0 -0.061 0.03 0.3 0.3 0 0 0 -0.066 0.016l-1.245 0.453c-0.198 0.072 -0.451 -0.007 -0.542 -0.169 -0.106 -0.188 -0.071 -0.536 0.072 -0.729 0.02 -0.026 0.469 -0.64 0.454 -1.458l0.003 -0.045c-0.03 -0.602 -0.17 -1.23 -0.317 -1.894 -0.36 -1.616 -0.698 -3.143 0.49 -4.225 0.169 -0.154 0.498 -0.358 0.61 -0.424a0.47 0.47 0 0 0 0.241 -0.374 0.46 0.46 0 0 0 -0.19 -0.398 0.5 0.5 0 0 1 -0.138 -0.196 0.546 0.546 0 1 1 1.027 -0.374c0.044 0.117 0.021 0.235 0.021 0.235a0.47 0.47 0 0 0 0.108 0.43 0.46 0.46 0 0 0 0.423 0.135c0.159 -0.026 0.628 -0.087 0.888 -0.064 1.537 0.135 2.305 1.54 3.047 2.898 0.326 0.596 0.634 1.16 1.007 1.634v0.002c0.516 0.656 1.274 0.842 1.306 0.85 0.234 0.055 0.484 0.3 0.525 0.512 0.034 0.182 -0.11 0.405 -0.307 0.478Z"/></g><defs><clipPath><path d="M8.63 8.164h15.307v15.307H8.63z"/></clipPath></defs></svg>