<svg width="31" height="31" viewBox="0 0 31 31" fill="none" xmlns="http://www.w3.org/2000/svg" aria-hidden="true" focusable="false"><circle cx="15.898" cy="15.295" r="14" stroke="currentColor" stroke-width="2"/><path d="M10.908 8.255a.331.331 0 0 0-.29.32v13.44c0 .168.153.32.32.32h9.92c.168 0 .32-.152.32-.32v-9.92a.327.327 0 0 0-.095-.23l-.12-.115a.3.3 0 0 0-.04-.045l-3.2-3.2-.025-.02-.135-.14a.324.324 0 0 0-.225-.09h-6.43Zm.35.64h5.92v3.04c0 .168.153.32.32.32h3.04v9.44h-9.28v-12.8Zm4.3 4.48a.627.627 0 0 0-.51.29.961.961 0 0 0-.155.54c0 .408.158.877.385 1.355a11.921 11.921 0 0 1-.71 1.69c-.368.15-.714.308-.975.475a1.891 1.891 0 0 0-.38.305.648.648 0 0 0-.195.445c0 .361.299.66.66.66.353 0 .558-.23.775-.495.19-.231.378-.548.56-.88a12.29 12.29 0 0 1 1.575-.485c.355.282.746.495 1.185.495.232 0 .448-.044.63-.135.182-.09.375-.258.375-.525s-.193-.44-.375-.53a1.414 1.414 0 0 0-.63-.135h-.005c-.286.005-.642.073-1.005.145a4.514 4.514 0 0 1-.795-1.085c.147-.483.25-.934.25-1.3a.962.962 0 0 0-.155-.54.617.617 0 0 0-.505-.29Zm0 .74c.009.032.02.05.02.09 0 .035-.017.098-.02.14-.004-.042-.025-.105-.025-.14 0-.04.016-.058.025-.09Zm.135 2.17c.114.173.246.324.38.48-.226.06-.44.132-.665.205a12.4 12.4 0 0 0 .285-.685Zm2.08.8h.01c.045 0 .065.02.105.025-.044.007-.066.02-.115.02-.034 0-.074-.025-.11-.03.03-.002.083-.014.11-.015Zm-3.93 1.255a.954.954 0 0 0-.17.15h-.005c.005-.007.005-.013.02-.03.028-.03.098-.077.155-.12Z" fill="currentColor" stroke="currentColor" stroke-width=".5" stroke-linejoin="round"/></svg>
