<svg width="31" height="31" viewBox="0 0 31 31" fill="none" xmlns="http://www.w3.org/2000/svg" aria-hidden="true" focusable="false"><circle cx="15.647" cy="15.296" r="14" stroke="currentColor" stroke-width="2"/><path d="M21.76 21.001H9.535a.407.407 0 1 0 0 .815H21.76a.407.407 0 1 0 0-.815Zm-10.665-.745a.403.403 0 0 0 .094-.011l3.865-.926.025-.008a.419.419 0 0 0 .043-.015l.035-.019c.011-.006.023-.012.034-.02a.337.337 0 0 0 .035-.029l.021-.016 6.8-6.8a.408.408 0 0 0 0-.577l-2.938-2.94a.408.408 0 0 0-.576 0l-6.8 6.8-.018.02a.368.368 0 0 0-.028.036c-.008.01-.014.023-.02.035l-.02.034a.298.298 0 0 0-.014.044l-.009.024-.926 3.865a.408.408 0 0 0 .397.503ZM18.82 9.76l2.363 2.363-1.173 1.173-2.363-2.363L18.82 9.76Zm-6.431 6.43 4.68-4.68 2.364 2.363-4.681 4.68-3.107.745.744-3.107Z" fill="currentColor" stroke="currentColor" stroke-width=".5"/></svg>