<svg width="31" height="31" viewBox="0 0 31 31" fill="none" xmlns="http://www.w3.org/2000/svg" aria-hidden="true" focusable="false"><circle cx="15.479" cy="15.881" r="14.75" stroke="#264A64" stroke-width=".5"/><g fill="#264A64" stroke="#fff" stroke-width=".25"><path d="M19.011 15.304a.32.32 0 0 0 .426-.144 1.98 1.98 0 0 0-.136-1.976 1.99 1.99 0 0 0-1.778-.867.319.319 0 0 0 .042.636 1.36 1.36 0 0 1 1.21.587 1.35 1.35 0 0 1 .092 1.338.32.32 0 0 0 .144.426Z"/><path d="M20.678 12.256a3.64 3.64 0 0 0-3.27-1.595.318.318 0 1 0 .045.636 2.993 2.993 0 0 1 3.204 2.786 3 3 0 0 1-.296 1.527.32.32 0 0 0 .286.457.32.32 0 0 0 .287-.18 3.7 3.7 0 0 0 .357-1.847 3.6 3.6 0 0 0-.613-1.784Z"/><path d="M22.95 13.92a5.32 5.32 0 0 0-2.965-4.394 5.3 5.3 0 0 0-2.693-.521.32.32 0 0 0-.295.34.316.316 0 0 0 .34.295 4.7 4.7 0 0 1 2.369.459 4.68 4.68 0 0 1 2.608 3.866 4.7 4.7 0 0 1-.462 2.372.317.317 0 0 0 .286.457.32.32 0 0 0 .287-.179c.408-.837.59-1.769.525-2.695Zm-3.724 3.399c-.005-.001-.578-.148-.952-.624-.341-.434-.636-.974-.95-1.547-.784-1.435-1.673-3.062-3.549-3.227a4.4 4.4 0 0 0-.834.04 1.1 1.1 0 0 0-.064-.36V11.6a1.18 1.18 0 0 0-.611-.668 1.185 1.185 0 0 0-1.613 1.477c.047.13.116.236.18.316-.157.1-.38.25-.533.39-1.46 1.33-1.047 3.191-.683 4.832.14.631.272 1.228.302 1.771l-.001.018c.02.607-.327 1.087-.33 1.091-.291.392-.343 1.016-.116 1.42.184.327.556.521.939.521q.19 0 .377-.065l1.244-.453a.4.4 0 0 0 .062-.031.3.3 0 0 0 .065-.016l1.317-.48a1.8 1.8 0 0 0 1.593.952q.317 0 .622-.11c.457-.167.82-.5 1.025-.94.167-.357.21-.749.132-1.129l1.421-.517 1.245-.453c.494-.18.807-.704.715-1.195-.086-.454-.527-.898-1.003-1.012Zm-3.087 4.038c-.133.285-.37.502-.666.61a1.17 1.17 0 0 1-1.39-.465l2.157-.785a1.17 1.17 0 0 1-.1.64Zm3.158-2.429-1.246.453-6.11 2.225a.3.3 0 0 0-.061.03.3.3 0 0 0-.066.016l-1.245.453c-.198.072-.451-.007-.542-.17-.106-.188-.071-.535.072-.728.02-.027.469-.64.454-1.459l.003-.044c-.03-.603-.17-1.23-.317-1.895-.36-1.616-.698-3.143.49-4.225a4.6 4.6 0 0 1 .61-.424.47.47 0 0 0 .242-.373.46.46 0 0 0-.19-.399.5.5 0 0 1-.14-.196.546.546 0 1 1 1.029-.374v.001c.043.116.02.234.02.234a.47.47 0 0 0 .108.43.46.46 0 0 0 .423.135c.159-.025.628-.087.888-.064 1.537.136 2.306 1.54 3.047 2.899.326.596.634 1.16 1.007 1.634v.001a2.57 2.57 0 0 0 1.306.85c.234.056.484.3.525.513.034.182-.11.405-.307.477Z"/></g></svg>