<svg width="31" height="31" viewBox="0 0 31 31" fill="none" xmlns="http://www.w3.org/2000/svg" aria-hidden="true" focusable="false"><path d="M30.694 15.733c0 8.146-6.604 14.75-14.75 14.75s-14.75-6.604-14.75-14.75S7.798.983 15.944.983s14.75 6.604 14.75 14.75Z" stroke="#264A64" stroke-width=".5"/><path d="M22.083 10.404a1.34 1.34 0 0 0-.915.407c-2.549 2.554-4.495 4.687-6.86 7.102l-2.52-2.129a1.332 1.332 0 1 0-1.713 2.037l3.46 2.927a1.33 1.33 0 0 0 1.796-.075c2.866-2.871 4.906-5.165 7.716-7.982a1.33 1.33 0 0 0-.965-2.287Z" fill="#264A64" stroke="#fff" stroke-width="1.75"/></svg>