<svg width="31" height="31" viewBox="0 0 31 31" fill="none" xmlns="http://www.w3.org/2000/svg" aria-hidden="true" focusable="false"><path d="M29.979 15.733c0 8.146-6.604 14.75-14.75 14.75S.479 23.879.479 15.733 7.082.983 15.229.983s14.75 6.604 14.75 14.75Z" stroke="#264A64" stroke-width=".5"/><path d="M15.228 8.953a4.75 4.75 0 0 0-4.746 4.744c0 1.318.698 2.575 1.26 3.585.316.571.616 1.111.65 1.43v1.97a2.836 2.836 0 0 0 5.672 0v-1.968c.034-.32.333-.86.651-1.431.56-1.01 1.26-2.269 1.26-3.585a4.755 4.755 0 0 0-4.747-4.745Zm0 11.037a4.5 4.5 0 0 0 1.929-.424v.62a3.34 3.34 0 0 1-1.929.562 3.34 3.34 0 0 1-1.928-.562v-.62a4.5 4.5 0 0 0 1.928.424Zm2.693-3.148c-.35.628-.65 1.181-.741 1.663a3.33 3.33 0 0 1-1.952.578 3.33 3.33 0 0 1-1.951-.578c-.089-.479-.393-1.033-.742-1.661-.538-.967-1.146-2.06-1.146-3.144a3.837 3.837 0 0 1 5.759-3.324 3.84 3.84 0 0 1 1.92 3.324c0 1.082-.61 2.175-1.147 3.142Z" fill="#264A64" stroke="#fff" stroke-width=".25"/><path d="M13.15 21.65v-.762c1.776 1.267 3.5.528 4.14 0v.761c-1.611 1.292-3.432.539-4.14 0" fill="#fff"/></svg>