<svg width="31" height="31" viewBox="0 0 31 31" fill="none" xmlns="http://www.w3.org/2000/svg" aria-hidden="true" focusable="false"><path d="M30.602 15.733c0 8.146-6.604 14.75-14.75 14.75s-14.75-6.604-14.75-14.75S7.705.983 15.852.983s14.75 6.604 14.75 14.75Z" stroke="#264A64" stroke-width=".5"/><path d="M22.061 15.955a.57.57 0 0 0-.566.566v2.831c0 .935-.764 1.699-1.698 1.699H11.87a1.704 1.704 0 0 1-1.699-1.699v-2.83a.57.57 0 0 0-.566-.567.57.57 0 0 0-.566.566v2.831a2.83 2.83 0 0 0 2.83 2.831h7.928a2.83 2.83 0 0 0 2.83-2.83V16.52a.57.57 0 0 0-.566-.566Z" fill="#264A64" stroke="#fff" stroke-width=".5"/><path d="m13.121 13.832 2.146-2.163v6.268c0 .311.255.566.566.566a.57.57 0 0 0 .566-.566v-6.268l2.146 2.163a.56.56 0 0 0 .402.164.58.58 0 0 0 .402-.164.57.57 0 0 0 0-.804L16.235 9.89a.56.56 0 0 0-.402-.164c-.158 0-.3.062-.402.164l-3.114 3.137a.57.57 0 0 0 0 .804c.22.22.583.22.804 0Z" fill="#264A64" stroke="#fff" stroke-width=".5"/></svg>