<svg width="31" height="31" viewBox="0 0 31 31" xmlns="http://www.w3.org/2000/svg" fill="none" aria-hidden="true"><circle cx="15.797" cy="15.903" r="14.75" stroke="currentColor" stroke-width=".5"/><path fill-rule="evenodd" d="M17.702 11.816a2.696 2.696 0 1 0-3.812 3.814 2.696 2.696 0 0 0 3.812-3.814m-1.906-1.494a3.399 3.399 0 1 1 .001 6.798 3.399 3.399 0 0 1 0-6.798m.56-2.024c.197.136.416.238.647.305.24.044.485.047.725.01a1.2 1.2 0 0 1 .56.02c.149.112.27.258.352.426.115.21.265.4.444.56q.296.212.647.313c.18.043.345.127.486.247.086.163.133.345.136.53.015.241.072.478.168.7q.176.317.445.558c.15.122.268.278.345.455.01.197-.026.393-.104.574-.09.232-.14.477-.152.725q.018.375.152.726c.078.18.114.377.104.574a1.2 1.2 0 0 1-.345.455c-.178.16-.33.348-.445.558a2.1 2.1 0 0 0-.168.7c-.003.185-.05.366-.136.53a1.2 1.2 0 0 1-.487.247q-.35.101-.646.313-.271.242-.444.56a1.2 1.2 0 0 1-.352.427c-.183.05-.374.056-.56.019a2.2 2.2 0 0 0-.726.01 2.3 2.3 0 0 0-.647.305 1.3 1.3 0 0 1-.559.24 1.3 1.3 0 0 1-.558-.24 2.3 2.3 0 0 0-.649-.305 2.2 2.2 0 0 0-.725-.01 1.2 1.2 0 0 1-.56-.019 1.2 1.2 0 0 1-.351-.427 2.1 2.1 0 0 0-.444-.558 2.1 2.1 0 0 0-.647-.314 1.2 1.2 0 0 1-.487-.247 1.2 1.2 0 0 1-.135-.53 2.1 2.1 0 0 0-.168-.7 2.1 2.1 0 0 0-.446-.558 1.2 1.2 0 0 1-.345-.455 1.3 1.3 0 0 1 .105-.574 2.3 2.3 0 0 0 .152-.726 2.3 2.3 0 0 0-.152-.725 1.3 1.3 0 0 1-.105-.574c.077-.177.195-.333.345-.455q.271-.241.446-.559c.096-.222.153-.458.168-.7.003-.184.05-.366.135-.53a1.2 1.2 0 0 1 .488-.247c.231-.066.45-.172.646-.313q.27-.242.444-.559c.082-.168.203-.314.352-.427.182-.05.374-.056.56-.019.24.037.486.034.725-.01.231-.066.45-.17.648-.305.164-.124.356-.207.558-.241.203.034.395.116.56.24m-1.692 11.325a1 1 0 0 0-.233-.098 1.7 1.7 0 0 0-.5.003 1.66 1.66 0 0 1-.934-.087 1.65 1.65 0 0 1-.64-.686 1.6 1.6 0 0 0-.289-.382l-.023-.018-1.392 4.018 1.585-.516a.35.35 0 0 1 .418.153l.745 1.26zm4.885-1.269-.023.018a1.6 1.6 0 0 0-.289.383 1.64 1.64 0 0 1-.64.686c-.297.119-.62.149-.934.087a1.7 1.7 0 0 0-.5-.003 1 1 0 0 0-.233.098l1.263 3.646.744-1.26a.35.35 0 0 1 .418-.152l1.585.515zM15.796 7.353c.335.025.656.145.925.345q.204.14.442.22.25.035.5-.004c.312-.061.637-.03.934.088.275.161.498.4.64.686q.116.213.287.383.204.132.438.198c.308.075.587.238.803.47.18.261.28.57.287.888q.015.244.1.475.129.205.31.368c.251.207.437.482.535.793.05.322.008.65-.121.949a1.8 1.8 0 0 0-.117.51q.021.264.117.51c.129.3.17.628.121.95a1.7 1.7 0 0 1-.535.793q-.181.16-.31.368-.085.23-.1.475a1.63 1.63 0 0 1-.287.888 1.3 1.3 0 0 1-.567.382l1.628 4.7a.352.352 0 0 1-.432.471l-1.995-.65-.986 1.67a.35.35 0 0 1-.634-.064l-1.471-4.242a1.17 1.17 0 0 1-1.023 0l-1.47 4.242a.351.351 0 0 1-.633.065l-.987-1.67-1.995.65a.352.352 0 0 1-.432-.473l1.626-4.7a1.3 1.3 0 0 1-.566-.383 1.64 1.64 0 0 1-.286-.887 1.7 1.7 0 0 0-.1-.476 1.7 1.7 0 0 0-.31-.368 1.7 1.7 0 0 1-.536-.792 1.73 1.73 0 0 1 .122-.949q.095-.246.116-.51a1.8 1.8 0 0 0-.116-.511 1.73 1.73 0 0 1-.122-.949 1.7 1.7 0 0 1 .535-.793q.183-.16.311-.368.085-.23.1-.475c.007-.318.107-.626.286-.888.217-.231.496-.395.804-.47q.233-.065.437-.198.171-.169.287-.383a1.65 1.65 0 0 1 .64-.686c.298-.118.622-.149.935-.087q.25.039.5.004c.156-.052.306-.127.441-.22.269-.2.59-.32.924-.345" fill="currentColor"/></svg>