<svg xmlns:rdf="http://www.w3.org/1999/02/22-rdf-syntax-ns#" xmlns="http://www.w3.org/2000/svg" xml:space="preserve" height="102.45" viewBox="0 0 245.06319 102.44687" width="245.06" version="1.1" xmlns:cc="http://creativecommons.org/ns#" xmlns:dc="http://purl.org/dc/elements/1.1/" aria-labelledby="acl-logo-title"><title id="acl-logo-title">Administration for Community Living logo</title><g transform="matrix(1.25 0 0 -1.25 -182.3 177.78)"><g transform="matrix(.4 0 0 .4 146.53 60.958)"><path d="m460.39 0.13281c-50.305 0-93.011 43.13-93.246 94.187 0 55.032 38.045 93.962 92.521 94.641l0.87109 0.008c19.054 0 41.248-7.3256 48.375-11.748v-22.416c-9.9688 7.1475-26.111 16.127-44.197 16.127-1.0762 0-2.1712-0.0332-3.2324-0.0957-45.41-1.8912-73.234-30.291-74.393-75.965-0.3475-20.648 6.9623-39.731 20.621-53.738 14.258-14.634 34.023-22.854 55.66-23.125 19.491 0 33.433 7.0946 45.705 15.1l-0.36-20.705c-14.14-7.0392-27.66-11.776-46.62-12.254-0.56-0.00662-1.12-0.00819-1.69-0.00819zm-344.98 0.33399c-9.8088 0-17.76 7.9503-17.76 17.758 0 9.805 7.951 17.756 17.76 17.756 9.8062 0 17.758-7.9509 17.758-17.756 0-9.8075-7.9516-17.758-17.758-17.758zm-64.408 0.21875c-0.59486 0.039199-0.92773 0.25586-0.92773 0.25586-2.0525 0.9875 0.58719 8.0385 1.0234 9.1035 0 0.07625 0.03906 0.11523 0.03906 0.11523 13.152 30.541 35.997 71.442 64.279 72.469 28.262-1.0262 51.107-41.928 64.258-72.469 0 0 0.0391-0.03898 0.0391-0.11523 0.43375-1.065 3.0779-8.116 1.0254-9.1035 0 0-2.3745-1.5404-5.7383 2.8496v0.039063c-21.3 28.754-41.45 39.17-59.51 39.17h-0.16992c-18.053 0-38.199-10.415-59.504-39.17v-0.039063c-2.102-2.7436-3.819-3.1707-4.81-3.1054zm479.44 0.21484v188.19h77.215v-20.262h-57.023v-167.92h-20.191zm-238.5 0.23828-83.793 187.4h20.945l18.771-42.055h91.139l19.42 42.055h21.613l-88.096-187.4zm-0.14844 45.242 36.525 77.699 2.3379 4.8496h-75.166l2.0781-4.8496 34.225-77.699zm-28.51 159.31c-1.985 0-3.9277 0.70179-5.0039 2.4355-0.8675 1.4062-0.86718 3.4312-0.86718 5.0449v7.7305h-1.8203v3.0606h1.8203v16.375h3.3066v-16.375h4.9219v-3.0606h-4.9219v-6.5703c0-3.43 0-5.3379 2.6875-5.3379 0.83 0 1.4869 0.20953 2.2344 0.45703v-3.3496c-0.78875-0.24625-1.5724-0.41015-2.3574-0.41015zm-216.07 0.53515v17.449h-0.08594c-1.57-2.0712-4.0525-3.3086-6.6562-3.3086-5.8275 0-9.3438 4.7556-9.3438 10.297 0 5.375 3.599 10.211 9.3027 10.211 2.645 0 5.086-1.1171 6.6973-3.2246h0.08594v2.6875h3.3066v-34.111h-3.3066zm-31.828 1.4453-14.389 32.666h3.8027l3.7656-8.8516h13.313l3.6777 8.8516h3.8438l-14.014-32.666zm314.86 0.95117c-8.9325 0-16.25 7.32-16.25 16.25 0 8.85 7.4412 16.002 16.25 16.002 3.3075 0 6.6152-1.1168 9.3027-3.0606v-4.3027c-2.4825 2.4825-5.9122 4.1387-9.4297 4.1387-6.985 0-12.65-6.0384-12.65-12.898 0-6.865 5.6246-12.902 12.568-12.902 3.6 0 7.0292 1.5703 9.5117 4.1328v-4.2969c-2.77-2.0712-5.8302-3.0625-9.3027-3.0625zm186.52 0.53906v31.176h12.074v-3.2266h-8.6016v-27.949h-3.4726zm-430.25 2.0684c-1.2825 0-2.3555 1.0767-2.3555 2.3555 0 1.3238 1.073 2.3574 2.3555 2.3574 1.2812 0 2.3574-1.0337 2.3574-2.3574 0-1.2788-1.0762-2.3555-2.3574-2.3555zm27.689 0c-1.2825 0-2.3535 1.0767-2.3535 2.3555 0 1.3238 1.071 2.3574 2.3535 2.3574 1.2812 0 2.3594-1.0337 2.3594-2.3574 0-1.2788-1.0781-2.3555-2.3594-2.3555zm79.891 0c-1.2825 0-2.3535 1.0767-2.3535 2.3555 0 1.3238 1.071 2.3574 2.3535 2.3574 1.2812 0 2.3574-1.0337 2.3574-2.3574 0-1.2788-1.0762-2.3555-2.3574-2.3555zm270.05 0c-1.2812 0-2.3535 1.0767-2.3535 2.3555 0 1.3238 1.0723 2.3574 2.3535 2.3574 1.2825 0 2.3594-1.0337 2.3594-2.3574 0-1.2788-1.0769-2.3555-2.3594-2.3555zm69.559 0c-1.2825 0-2.3555 1.0767-2.3555 2.3555 0 1.3238 1.073 2.3574 2.3555 2.3574 1.28 0 2.3574-1.0337 2.3574-2.3574 0-1.2788-1.0774-2.3555-2.3574-2.3555zm29.133 0c-1.2825 0-2.3535 1.0767-2.3535 2.3555 0 1.3238 1.071 2.3574 2.3535 2.3574 1.2812 0 2.3574-1.0337 2.3574-2.3574 0-1.2788-1.0762-2.3555-2.3574-2.3555zm-90.809 2.6758v7.0039h-3.5195v3.0644h3.5195v16.377h3.3301v-16.377h3.4434v-3.0644h-3.4434v-7.0039h-3.3301zm-335.93 0.0117v6.9844h-2.0254v3.0606h2.0254v16.375h3.3066v-16.375h3.4727v-3.0606h-3.4727v-6.9844h-3.3066zm45.961 0v6.9844h-2.0234v3.0606h2.0234v16.375h3.3086v-16.375h3.4727v-3.0606h-3.4727v-6.9844h-3.3086zm-166.76 1.8594 5.2109 12.486h-10.543l5.332-12.486zm47.74 4.5898c-1.985 0-3.6413 1.0345-4.6738 2.6445h-0.08008v-2.1094h-3.3086v19.436h3.3086v-10.049c0-2.9375 0.41062-6.8594 4.2969-6.8594 3.1838 0 3.4766 3.4672 3.4766 5.8672v11.041h3.3027v-10.295c0-2.9375 0.415-6.6133 4.2188-6.6133 3.39 0 3.5547 3.0986 3.5547 5.6211v11.287h3.3086v-11.826c0-4.0925-1.2405-8.1445-6.1992-8.1445-2.3588 0-4.6726 1.0728-5.8301 3.2266-1.0325-2.0262-3.1025-3.2266-5.375-3.2266zm38.475 0c-2.395 0-4.1734 1.0344-5.5371 2.8906h-0.08398v-2.3555h-3.3066v19.436h3.3066v-9.2207c0-3.4712 0.28844-7.6875 4.8359-7.6875 3.8462 0 4.0938 2.8092 4.0938 5.9492v10.959h3.3066v-11.535c0-4.5525-1.2402-8.4355-6.6152-8.4355zm24.215 0c-3.1438 0-5.7891 2.2318-5.7891 5.498 0 6.1225 8.7656 4.6332 8.7656 8.9707 0.00001 1.7788-1.3644 2.9785-3.1406 2.9785-2.1938 0-3.1425-1.2814-3.9688-3.0976l-2.9375 1.2402c1.035 3.0562 3.6002 4.918 6.8652 4.918 3.5962 0 6.5742-2.6462 6.5742-6.3262 0-3.265-2.2353-4.6313-4.5078-5.5801-2.2762-0.95-4.5059-1.6158-4.5059-3.3945 0-1.2362 1.2409-2.1445 2.3984-2.1445 1.1962 0 2.1915 0.94726 2.6465 1.9785l2.7695-1.4453c-0.87-2.025-2.9387-3.5957-5.1699-3.5957zm28.477 0c-2.1488 0-3.1438 1.117-4.2988 2.6445h-0.0859v-2.1094h-3.3027v19.436h3.3027v-9.7188c0-2.5188 0.16969-7.1894 3.8047-7.1894 0.8725 0 1.3231 0.41094 1.9844 0.86719l1.5742-3.0215c-0.9525-0.5375-1.861-0.9082-2.9785-0.9082zm12.359 0c-5.8262 0-9.3438 4.7556-9.3438 10.297 0 5.375 3.6002 10.211 9.3027 10.211 2.7288 0 5.0048-1.0759 6.6973-3.2246h0.0859v2.6875h3.3086v-19.436h-3.3086v2.7734h-0.0859c-1.6112-2.0712-4.01-3.3086-6.6562-3.3086zm42.904 0c-5.7062 0-10.213 4.5906-10.213 10.297 0 5.7038 4.5479 10.211 10.213 10.211 5.6625 0 10.213-4.5072 10.213-10.211 0-5.7062-4.5091-10.297-10.213-10.297zm22.025 0c-2.3962 0-4.1753 1.0344-5.5391 2.8906h-0.082v-2.3555h-3.3066v19.436h3.3066v-9.2207c0-3.4712 0.28844-7.6875 4.8359-7.6875 3.8462 0 4.0938 2.8092 4.0938 5.9492v10.959h3.3066v-11.535c0-4.5525-1.2402-8.4355-6.6152-8.4355zm44.6 0c-5.7062 0-10.215 4.5906-10.215 10.297 0 5.7038 4.5486 10.211 10.215 10.211 5.6625 0 10.209-4.5072 10.209-10.211 0-5.7062-4.5052-10.297-10.209-10.297zm20.621 0c-2.1488 0-3.1419 1.117-4.2969 2.6445h-0.082v-2.1094h-3.3105v19.436h3.3105v-9.7188c0-2.5188 0.16454-7.1894 3.8008-7.1894 0.87125 0 1.3219 0.41094 1.9844 0.86719l1.5742-3.0215c-0.9525-0.5375-1.8617-0.9082-2.9805-0.9082zm55.508 0c-5.7062 0-10.213 4.5906-10.213 10.297 0 5.7038 4.5479 10.211 10.213 10.211 5.6638 0 10.211-4.5072 10.211-10.211 0-5.7062-4.5072-10.297-10.211-10.297zm21.162 0c-1.985 0-3.6387 1.0345-4.6699 2.6445h-0.082v-2.1094h-3.3086v19.436h3.3086v-10.049c0-2.9375 0.40937-6.8594 4.2969-6.8594 3.185 0 3.4746 3.4672 3.4746 5.8672v11.041h3.3047v-10.295c0-2.9375 0.4157-6.6133 4.2207-6.6133 3.39 0 3.5527 3.0986 3.5527 5.6211v11.287h3.3086v-11.826c0-4.0925-1.2412-8.1445-6.2012-8.1445-2.3588 0-4.6701 1.0728-5.8301 3.2266-1.0312-2.0262-3.1038-3.2266-5.375-3.2266zm29.262 0c-1.985 0-3.6406 1.0345-4.6719 2.6445h-0.082v-2.1094h-3.3086v19.436h3.3086v-10.049c0.00001-2.9375 0.41133-6.8594 4.2988-6.8594 3.1838 0 3.4688 3.4672 3.4688 5.8672v11.041h3.3145v-10.295c0-2.9375 0.40984-6.6133 4.2148-6.6133 3.39 0 3.5547 3.0986 3.5547 5.6211v11.287h3.3086v-11.826c0-4.0925-1.2412-8.1445-6.2012-8.1445-2.36 0-4.6713 1.0728-5.8301 3.2266-1.0362-2.0262-3.1012-3.2266-5.375-3.2266zm48.811 0c-2.3962 0-4.176 1.0344-5.541 2.8906h-0.0801v-2.3555h-3.3086v19.436h3.3086v-9.2207c0-3.4712 0.28524-7.6875 4.834-7.6875 3.8462 0 4.0938 2.8092 4.0938 5.9492v10.959h3.3086v-11.535c0-4.5525-1.2402-8.4355-6.6152-8.4355zm126.38 0c-2.3962 0-4.1721 1.0344-5.5371 2.8906h-0.084v-2.3555h-3.3047v19.436h3.3047v-9.2207c0-3.4712 0.29039-7.6875 4.8379-7.6875 3.8462 0 4.0918 2.8092 4.0918 5.9492v10.959h3.3066v-11.535c0-4.5525-1.2402-8.4355-6.6152-8.4355zm19.592 0c-5.7475 0-9.3828 4.8784-9.3828 10.336 0 5.42 3.5935 10.172 9.2598 10.172 2.605 0 5.169-1.1996 6.7402-3.2246h0.082v2.3125c0 4.3862-1.1147 8.1465-6.2422 8.1465-3.5575 0-6.1638-2.2711-6.2051-5.8711h-3.3086c0.1275 5.4988 4.1384 8.9297 9.5547 8.9297 2.8925 0 5.7022-1.1122 7.5234-3.4297 1.9838-2.5638 1.9844-5.2541 1.9844-8.3516v-18.484h-3.3066v2.7734h-0.082c-1.5713-2.1075-3.9284-3.3086-6.6172-3.3086zm-512.57 0.53515v19.436h3.3086v-19.436h-3.3086zm27.691 0v19.436h3.3066v-19.436h-3.3066zm79.889 0v19.436h3.3086v-19.436h-3.3086zm231.16 0v11.205c0 5.1725 1.9427 8.7676 7.6914 8.7676 5.7488 0 7.6934-3.5951 7.6934-8.7676v-11.205h-3.3086v10.836c0 3.2662-0.37602 6.0762-4.3848 6.0762-4.01 0-4.3848-2.8099-4.3848-6.0762v-10.836h-3.3066zm38.896 0v19.436h3.3066v-19.436h-3.3066zm17.725 0 8.9297 17.613-6.2832 12.734h3.7637l14.344-30.348h-3.7578l-6.2871 13.934-6.8613-13.934h-3.8476zm51.832 0v19.436h3.3066v-19.436h-3.3066zm7.1035 0 9.5547 20.717 9.5059-20.717h-3.7207l-5.7852 13.066-5.791-13.066h-3.7637zm22.029 0v19.436h3.3066v-19.436h-3.3066zm-520.34 2.5274c4.0925 0 6.5332 3.1391 6.5332 7.0254 0 3.9275-2.2359 7.3594-6.4922 7.3594-4.135 0-6.3691-3.5966-6.3691-7.4004 0-3.6375 2.4819-6.9844 6.3281-6.9844zm126.1 0c4.0925 0 6.5332 3.1391 6.5332 7.0254 0 3.9275-2.2347 7.3594-6.4922 7.3594-4.1338 0-6.3672-3.5966-6.3672-7.4004 0-3.6375 2.4799-6.9844 6.3262-6.9844zm42.531 0c4.0938 0 6.9043 3.2657 6.9043 7.1894 0 3.9688-2.8105 7.1953-6.9043 7.1953-4.0962 0-6.9062-3.2266-6.9062-7.1953 0-3.9238 2.81-7.1894 6.9062-7.1894zm66.625 0c4.0925 0 6.9023 3.2657 6.9023 7.1894 0 3.9688-2.8098 7.1953-6.9023 7.1953-4.0962 0-6.9062-3.2266-6.9062-7.1953 0-3.9238 2.81-7.1894 6.9062-7.1894zm76.129 0c4.0938 0 6.9043 3.2657 6.9043 7.1894 0 3.9688-2.8106 7.1953-6.9043 7.1953-4.095 0-6.9062-3.2266-6.9062-7.1953 0-3.9238 2.8112-7.1894 6.9062-7.1894zm245.54 0c4.0925 0 6.5352 3.1391 6.5352 7.0254 0 3.9275-2.2359 7.3594-6.4922 7.3594-4.1362 0-6.3691-3.5966-6.3691-7.4004 0-3.6375 2.4812-6.9844 6.3262-6.9844z" transform="matrix(.8 0 0 -.8 0 201)" fill="#254e94"/><path d="m72.529 75.141c-20.978 0.0548-45.85 7.8469-65.184 15.473 0 0-0.053672 0.000938-0.10742 0.05469-1.0625 0.44125-7.9266 3.537-7.1816 5.6895 0 0 0.58211 2.768 6.0684 2.0605l0.025391-0.02734c35.415-5.1588 57.005 1.7901 69.732 14.598l0.12305 0.1211c12.728 12.805 19.543 34.438 14.164 69.82l-0.02734 0.0273c-0.74125 5.48 2.0234 6.0801 2.0234 6.0801 2.1488 0.75625 5.2881-6.0877 5.7344-7.1465 0.055-0.0538 0.05469-0.10742 0.05469-0.10742 12.391-30.86 25.298-75.894 6.0879-96.678-7.741-7.248-18.924-10-31.511-9.967zm-14.107 37.619c-4.5445-0.0141-9.0948 1.7045-12.572 5.1602-6.955 6.9112-6.9899 18.157-0.07617 25.113 6.9137 6.9562 18.158 6.9899 25.113 0.0762 6.955-6.9112 6.9899-18.155 0.07617-25.111-3.4569-3.4781-7.9965-5.2242-12.541-5.2383z" transform="matrix(.8 0 0 -.8 0 201)" fill="#bf1b2c"/><path d="m158.16 75.141c-12.587-0.03288-23.771 2.7189-31.516 9.9648-19.209 20.784-6.3014 65.818 6.0898 96.678 0 0-0.00031 0.0537 0.0547 0.10742 0.44625 1.0588 3.5842 7.9027 5.7305 7.1465 0 0 2.7674-0.60008 2.0274-6.0801l-0.0293-0.0273c-5.3775-35.382 1.4373-57.015 14.166-69.82l0.12109-0.1211c12.728-12.808 34.319-19.756 69.732-14.598l0.0274 0.02734c5.4862 0.7075 6.0664-2.0605 6.0664-2.0605 0.74625-2.1525-6.1177-5.2482-7.1777-5.6895-0.055-0.05375-0.10742-0.05469-0.10742-0.05469-19.34-7.626-44.22-15.419-65.19-15.473zm14.107 37.615c-4.5445 0.0141-9.0841 1.7602-12.541 5.2383-6.915 6.9562-6.8813 18.2 0.0762 25.111 6.9538 6.9138 18.201 6.8801 25.113-0.0762 6.915-6.9562 6.8788-18.202-0.0762-25.113-3.4775-3.4556-8.0277-5.1742-12.572-5.1602z" transform="matrix(.8 0 0 -.8 0 201)" fill="#f7980f"/></g></g></svg>
