<svg xmlns="http://www.w3.org/2000/svg" xmlns:xlink="http://www.w3.org/1999/xlink" viewBox="0 0 229.64 66.74" aria-labelledby="cdc-logo-title"><title id="cdc-logo-title">Centers for Disease Control and Prevention logo</title><defs><style>.cls-1{clip-path:url(#clippath);}.cls-2,.cls-3{fill:none;}.cls-2,.cls-4,.cls-5{stroke-width:0px;}.cls-3{stroke-width:1.01px;}</style><clipPath id="clippath"><rect class="cls-2" width="109.43" height="66.74"/></clipPath></defs><path class="cls-5" d="M118.1,15.39v3.49c0,1.04.4,1.58,1.1,1.58s1.12-.5,1.12-1.58v-3.49h1.37v3.4c0,1.87-.95,2.76-2.53,2.76s-2.43-.85-2.43-2.78v-3.39h1.38-.01Z"/><path class="cls-5" d="M122.61,20.73c0-.49.33-.84.81-.84s.8.34.8.84-.32.83-.81.83-.8-.35-.8-.83Z"/><path class="cls-5" d="M125.4,20.05c.37.19.94.38,1.52.38.63,0,.96-.26.96-.66s-.29-.59-1.02-.86c-1.01-.35-1.67-.91-1.67-1.79,0-1.04.86-1.83,2.3-1.83.68,0,1.19.14,1.55.31l-.31,1.11c-.24-.12-.67-.29-1.27-.29s-.88.27-.88.58c0,.39.34.56,1.13.86,1.07.4,1.58.95,1.58,1.81,0,1.02-.78,1.88-2.45,1.88-.69,0-1.38-.18-1.72-.37,0,0,.28-1.13.28-1.13Z"/><path class="cls-5" d="M130.17,20.73c0-.49.33-.84.81-.84s.8.34.8.84-.32.83-.81.83-.8-.35-.8-.83Z"/><path class="cls-5" d="M134.48,15.47c.5-.08,1.16-.13,1.85-.13,1.15,0,1.9.21,2.48.65.63.47,1.03,1.22,1.03,2.29,0,1.16-.42,1.96-1.01,2.46-.64.53-1.61.78-2.8.78-.71,0-1.22-.04-1.56-.09v-5.96h0ZM135.85,20.43c.12.03.31.03.48.03,1.24,0,2.05-.68,2.05-2.12,0-1.26-.73-1.93-1.91-1.93-.31,0-.5.03-.62.05v3.97Z"/><path class="cls-5" d="M141.84,19.7c.04.57.6.84,1.24.84.47,0,.85-.06,1.22-.18l.18.93c-.45.18-1,.27-1.59.27-1.49,0-2.35-.86-2.35-2.24,0-1.12.69-2.35,2.22-2.35,1.42,0,1.96,1.11,1.96,2.2,0,.23-.03.44-.04.54h-2.84ZM143.45,18.76c0-.33-.14-.89-.77-.89-.58,0-.81.52-.85.89h1.62Z"/><path class="cls-5" d="M145.66,18.53c0-.58-.02-1.07-.04-1.48h1.19l.06.61h.02c.32-.47.83-.71,1.47-.71.96,0,1.83.84,1.83,2.24,0,1.6-1.02,2.36-2,2.36-.53,0-.95-.22-1.14-.5h-.02v2.19h-1.37v-4.71h0ZM147.03,19.57c0,.11,0,.21.03.29.09.37.41.65.8.65.59,0,.95-.5.95-1.24,0-.7-.31-1.23-.93-1.23-.39,0-.73.29-.82.69-.02.07-.03.16-.03.24,0,0,0,.6,0,.6Z"/><path class="cls-5" d="M153.63,21.46l-.08-.44h-.03c-.29.35-.74.54-1.26.54-.89,0-1.42-.65-1.42-1.35,0-1.14,1.03-1.69,2.58-1.68v-.06c0-.23-.13-.57-.8-.57-.45,0-.93.15-1.22.33l-.25-.88c.31-.17.91-.39,1.71-.39,1.47,0,1.94.86,1.94,1.9v1.53c0,.42.02.83.06,1.07h-1.23ZM153.47,19.38c-.72,0-1.28.16-1.28.69,0,.35.23.52.54.52.34,0,.62-.23.71-.5.02-.07.03-.15.03-.23v-.48Z"/><path class="cls-5" d="M155.95,18.51c0-.65-.02-1.07-.04-1.45h1.18l.04.81h.04c.23-.64.77-.91,1.19-.91.13,0,.19,0,.29.02v1.29c-.1-.02-.22-.04-.37-.04-.5,0-.85.27-.94.69-.02.09-.03.2-.03.31v2.23h-1.37v-2.95h.01Z"/><path class="cls-5" d="M161.12,15.8v1.26h.98v1.01h-.98v1.59c0,.53.13.77.54.77.17,0,.31-.02.41-.04v1.04c-.17.07-.5.12-.88.12-.44,0-.81-.15-1.03-.38-.25-.26-.38-.68-.38-1.31v-1.8h-.59v-1.01h.59v-.95l1.34-.31h0Z"/><path class="cls-5" d="M163.04,18.46c0-.55-.02-1.02-.04-1.4h1.15l.06.59h.03c.19-.28.58-.69,1.33-.69.57,0,1.02.29,1.21.75h.02c.16-.23.36-.41.57-.53.24-.14.51-.22.84-.22.85,0,1.49.59,1.49,1.91v2.59h-1.33v-2.39c0-.64-.21-1.01-.65-1.01-.32,0-.54.22-.63.48-.04.1-.05.24-.05.35v2.57h-1.33v-2.47c0-.56-.2-.94-.63-.94-.35,0-.56.27-.64.5-.04.11-.05.23-.05.34v2.57h-1.33v-3h-.02Z"/><path class="cls-5" d="M171.93,19.7c.04.57.6.84,1.24.84.47,0,.85-.06,1.22-.18l.18.93c-.45.18-1,.27-1.59.27-1.49,0-2.35-.86-2.35-2.24,0-1.12.69-2.35,2.22-2.35,1.42,0,1.96,1.11,1.96,2.2,0,.23-.03.44-.04.54h-2.84ZM173.54,18.76c0-.33-.14-.89-.77-.89-.58,0-.81.52-.85.89h1.62Z"/><path class="cls-5" d="M175.76,18.46c0-.55-.02-1.02-.04-1.4h1.19l.06.6h.03c.18-.28.63-.7,1.36-.7.9,0,1.58.59,1.58,1.89v2.61h-1.37v-2.44c0-.57-.2-.95-.69-.95-.38,0-.6.26-.69.51-.04.08-.05.22-.05.34v2.54h-1.37v-3h-.01Z"/><path class="cls-5" d="M182.59,15.8v1.26h.98v1.01h-.98v1.59c0,.53.13.77.54.77.17,0,.31-.02.41-.04v1.04c-.17.07-.5.12-.88.12-.44,0-.81-.15-1.03-.38-.25-.26-.38-.68-.38-1.31v-1.8h-.59v-1.01h.59v-.95l1.34-.31h0Z"/><path class="cls-5" d="M190.53,19.21c0,1.61-1.14,2.35-2.32,2.35-1.29,0-2.28-.85-2.28-2.27s.94-2.33,2.35-2.33,2.25.93,2.25,2.25ZM187.34,19.25c0,.76.31,1.32.9,1.32.53,0,.87-.53.87-1.32,0-.66-.25-1.32-.87-1.32-.66,0-.9.68-.9,1.32Z"/><path class="cls-5" d="M191.62,21.46v-3.39h-.58v-1.01h.58v-.17c0-.53.16-1.12.56-1.48.34-.32.82-.44,1.22-.44.31,0,.54.04.73.09l-.05,1.05c-.12-.04-.26-.06-.44-.06-.45,0-.64.35-.64.78v.23h.88v1.01h-.87v3.39h-1.39Z"/><path class="cls-5" d="M118.11,25.39v2.33h2.26v-2.33h1.37v6.07h-1.37v-2.54h-2.26v2.54h-1.38v-6.07h1.38Z"/><path class="cls-5" d="M124.05,29.7c.04.57.6.84,1.24.84.47,0,.85-.06,1.22-.18l.18.93c-.45.18-1,.27-1.59.27-1.49,0-2.35-.86-2.35-2.24,0-1.12.69-2.35,2.22-2.35,1.42,0,1.96,1.11,1.96,2.2,0,.23-.03.44-.04.54h-2.84ZM125.67,28.76c0-.33-.14-.89-.77-.89-.58,0-.81.52-.85.89,0,0,1.62,0,1.62,0Z"/><path class="cls-5" d="M130.36,31.46l-.08-.44h-.03c-.29.35-.74.54-1.26.54-.89,0-1.42-.65-1.42-1.35,0-1.14,1.03-1.69,2.58-1.68v-.06c0-.23-.13-.57-.8-.57-.45,0-.93.15-1.22.33l-.25-.88c.31-.17.91-.39,1.71-.39,1.47,0,1.94.86,1.94,1.9v1.53c0,.42.02.83.06,1.07h-1.23ZM130.2,29.38c-.72,0-1.28.16-1.28.69,0,.35.23.52.54.52.34,0,.62-.23.71-.5.02-.07.03-.15.03-.23v-.48Z"/><path class="cls-5" d="M132.69,25.07h1.37v6.39h-1.37v-6.39Z"/><path class="cls-5" d="M136.82,25.8v1.26h.98v1.01h-.98v1.59c0,.53.13.77.54.77.17,0,.31-.02.41-.04v1.04c-.17.07-.5.12-.88.12-.44,0-.81-.15-1.03-.38-.25-.26-.38-.68-.38-1.31v-1.8h-.59v-1.01h.59v-.95l1.34-.31h0Z"/><path class="cls-5" d="M138.74,25.07h1.37v2.51h.02c.14-.19.32-.33.54-.45.2-.11.46-.17.71-.17.87,0,1.54.6,1.54,1.93v2.57h-1.37v-2.42c0-.58-.2-.97-.71-.97-.36,0-.59.23-.68.48-.04.09-.04.21-.04.31v2.61h-1.37v-6.39h-.01Z"/><path class="cls-5" d="M148.34,31.46l-.08-.44h-.03c-.29.35-.74.54-1.26.54-.89,0-1.42-.65-1.42-1.35,0-1.14,1.03-1.69,2.58-1.68v-.06c0-.23-.13-.57-.8-.57-.45,0-.93.15-1.22.33l-.25-.88c.31-.17.91-.39,1.71-.39,1.47,0,1.94.86,1.94,1.9v1.53c0,.42.02.83.06,1.07h-1.23ZM148.17,29.38c-.72,0-1.28.16-1.28.69,0,.35.23.52.54.52.34,0,.62-.23.71-.5.02-.07.03-.15.03-.23v-.48Z"/><path class="cls-5" d="M150.66,28.46c0-.55-.02-1.02-.04-1.4h1.19l.06.6h.03c.18-.28.63-.7,1.36-.7.9,0,1.58.59,1.58,1.89v2.61h-1.37v-2.44c0-.57-.2-.95-.69-.95-.38,0-.6.26-.69.51-.04.08-.05.22-.05.34v2.54h-1.37v-3h-.01Z"/><path class="cls-5" d="M160.28,25.07v5.08c0,.5.02,1.02.04,1.31h-1.22l-.06-.65h-.02c-.28.5-.81.75-1.38.75-1.04,0-1.88-.89-1.88-2.26,0-1.49.92-2.34,1.97-2.34.54,0,.96.19,1.16.5h.02v-2.39h1.37ZM158.91,28.92c0-.07,0-.17-.02-.24-.08-.37-.38-.68-.8-.68-.62,0-.95.56-.95,1.25,0,.75.37,1.22.94,1.22.4,0,.71-.27.79-.66.03-.1.04-.2.04-.31v-.58h0Z"/><path class="cls-5" d="M164.62,25.39v2.33h2.26v-2.33h1.37v6.07h-1.37v-2.54h-2.26v2.54h-1.38v-6.07h1.38Z"/><path class="cls-5" d="M173.64,30.05c0,.58.02,1.04.04,1.41h-1.19l-.06-.62h-.03c-.17.27-.58.72-1.38.72-.89,0-1.55-.56-1.55-1.92v-2.58h1.38v2.37c0,.64.21,1.03.68,1.03.38,0,.59-.26.68-.48.04-.08.04-.19.04-.3v-2.62h1.38v2.99h.01Z"/><path class="cls-5" d="M174.83,28.46c0-.55-.02-1.02-.04-1.4h1.15l.06.59h.03c.19-.28.58-.69,1.33-.69.57,0,1.02.29,1.21.75h.02c.16-.23.36-.41.57-.53.24-.14.51-.22.84-.22.85,0,1.49.59,1.49,1.91v2.59h-1.33v-2.39c0-.64-.21-1.01-.65-1.01-.32,0-.54.22-.63.48-.04.1-.05.24-.05.35v2.57h-1.33v-2.47c0-.56-.2-.94-.63-.94-.35,0-.56.27-.64.5-.04.11-.05.23-.05.34v2.57h-1.33v-3h-.02Z"/><path class="cls-5" d="M185.17,31.46l-.08-.44h-.03c-.29.35-.74.54-1.26.54-.89,0-1.42-.65-1.42-1.35,0-1.14,1.03-1.69,2.58-1.68v-.06c0-.23-.13-.57-.8-.57-.45,0-.93.15-1.22.33l-.25-.88c.31-.17.91-.39,1.71-.39,1.47,0,1.94.86,1.94,1.9v1.53c0,.42.02.83.06,1.07h-1.23ZM185.01,29.38c-.72,0-1.28.16-1.28.69,0,.35.23.52.54.52.34,0,.62-.23.71-.5.02-.07.03-.15.03-.23v-.48Z"/><path class="cls-5" d="M187.49,28.46c0-.55-.02-1.02-.04-1.4h1.19l.06.6h.03c.18-.28.63-.7,1.36-.7.9,0,1.58.59,1.58,1.89v2.61h-1.37v-2.44c0-.57-.2-.95-.69-.95-.38,0-.6.26-.69.51-.04.08-.05.22-.05.34v2.54h-1.37v-3h-.01Z"/><path class="cls-5" d="M194.68,30.05c.37.19.94.38,1.52.38.63,0,.96-.26.96-.66s-.29-.59-1.02-.86c-1.01-.35-1.67-.91-1.67-1.79,0-1.04.86-1.83,2.3-1.83.68,0,1.19.14,1.55.31l-.31,1.11c-.24-.12-.67-.29-1.27-.29s-.88.27-.88.58c0,.39.34.56,1.13.86,1.07.4,1.58.95,1.58,1.81,0,1.02-.78,1.88-2.45,1.88-.69,0-1.38-.18-1.72-.37l.28-1.13h0Z"/><path class="cls-5" d="M200.58,29.7c.04.57.6.84,1.24.84.47,0,.85-.06,1.22-.18l.18.93c-.45.18-1,.27-1.59.27-1.49,0-2.35-.86-2.35-2.24,0-1.12.69-2.35,2.22-2.35,1.42,0,1.96,1.11,1.96,2.2,0,.23-.03.44-.04.54h-2.84ZM202.19,28.76c0-.33-.14-.89-.77-.89-.58,0-.81.52-.85.89h1.62Z"/><path class="cls-5" d="M204.41,28.51c0-.65-.02-1.07-.04-1.45h1.18l.04.81h.04c.23-.64.77-.91,1.19-.91.13,0,.19,0,.29.02v1.29c-.1-.02-.22-.04-.37-.04-.5,0-.85.27-.94.69-.02.09-.03.2-.03.31v2.23h-1.37v-2.95h.01Z"/><path class="cls-5" d="M209.1,27.06l.59,2.04c.11.37.19.72.25,1.07h.03c.07-.36.14-.69.24-1.07l.57-2.04h1.44l-1.64,4.4h-1.37l-1.6-4.4h1.49,0Z"/><path class="cls-5" d="M214.35,25.83c0,.38-.29.68-.74.68s-.72-.31-.71-.68c0-.4.28-.69.72-.69s.72.3.73.69h0ZM212.94,31.46v-4.4h1.37v4.4h-1.37Z"/><path class="cls-5" d="M218.79,31.35c-.24.11-.7.2-1.22.2-1.42,0-2.33-.86-2.33-2.25,0-1.29.88-2.34,2.52-2.34.36,0,.76.06,1.04.17l-.22,1.02c-.16-.07-.4-.14-.77-.14-.72,0-1.19.51-1.18,1.23,0,.81.54,1.23,1.21,1.23.32,0,.58-.05.78-.13l.16,1.01h0Z"/><path class="cls-5" d="M220.66,29.7c.04.57.6.84,1.24.84.47,0,.85-.06,1.22-.18l.18.93c-.45.18-1,.27-1.59.27-1.49,0-2.35-.86-2.35-2.24,0-1.12.69-2.35,2.22-2.35,1.42,0,1.96,1.11,1.96,2.2,0,.23-.03.44-.04.54h-2.84ZM222.27,28.76c0-.33-.14-.89-.77-.89-.58,0-.81.52-.85.89h1.62Z"/><path class="cls-5" d="M224.46,30.26c.25.15.77.33,1.18.33s.58-.14.58-.37-.14-.33-.65-.5c-.91-.31-1.26-.8-1.25-1.32,0-.82.7-1.44,1.79-1.44.51,0,.97.12,1.24.25l-.24.94c-.2-.11-.58-.25-.95-.25-.33,0-.52.14-.52.36s.17.31.71.5c.84.29,1.19.71,1.2,1.36,0,.82-.65,1.42-1.91,1.42-.58,0-1.09-.13-1.42-.31l.24-.98h0Z"/><path class="cls-5" d="M121.07,41.26c-.29.14-.86.29-1.6.29-1.71,0-3-1.08-3-3.07s1.29-3.19,3.17-3.19c.76,0,1.23.16,1.44.27l-.19.64c-.3-.14-.72-.25-1.22-.25-1.42,0-2.37.91-2.37,2.5,0,1.49.86,2.44,2.33,2.44.48,0,.96-.1,1.28-.25l.16.62Z"/><path class="cls-5" d="M122.4,39.43c.02,1.07.7,1.51,1.49,1.51.57,0,.91-.1,1.21-.23l.13.57c-.28.13-.76.27-1.45.27-1.34,0-2.14-.88-2.14-2.2s.77-2.35,2.04-2.35c1.42,0,1.8,1.25,1.8,2.05,0,.16-.02.29-.03.37h-3.06,0ZM124.72,38.86c0-.5-.21-1.29-1.1-1.29-.8,0-1.15.74-1.22,1.29h2.32Z"/><path class="cls-5" d="M126.51,38.28c0-.45,0-.82-.04-1.18h.7l.04.72h.02c.22-.41.72-.82,1.44-.82.6,0,1.54.36,1.54,1.85v2.6h-.79v-2.51c0-.7-.26-1.29-1.01-1.29-.52,0-.93.37-1.06.81-.04.1-.05.23-.05.37v2.62h-.79v-3.18h0Z"/><path class="cls-5" d="M132.43,35.85v1.25h1.13v.6h-1.13v2.35c0,.54.15.85.59.85.21,0,.36-.03.46-.05l.04.59c-.15.06-.4.11-.7.11-.37,0-.67-.12-.85-.33-.23-.23-.31-.62-.31-1.13v-2.38h-.68v-.6h.68v-1.04l.77-.21h0Z"/><path class="cls-5" d="M134.86,39.43c.02,1.07.7,1.51,1.49,1.51.57,0,.91-.1,1.21-.23l.13.57c-.28.13-.76.27-1.45.27-1.34,0-2.14-.88-2.14-2.2s.77-2.35,2.04-2.35c1.42,0,1.8,1.25,1.8,2.05,0,.16-.02.29-.03.37h-3.06,0ZM137.19,38.86c0-.5-.21-1.29-1.1-1.29-.8,0-1.15.74-1.22,1.29h2.32Z"/><path class="cls-5" d="M138.98,38.46c0-.51,0-.95-.04-1.36h.69l.03.86h.04c.2-.59.68-.95,1.21-.95.09,0,.15,0,.22.03v.75c-.08-.02-.16-.03-.27-.03-.56,0-.95.42-1.06,1.02-.02.11-.04.23-.04.37v2.32h-.78v-3h0Z"/><path class="cls-5" d="M141.91,40.65c.23.15.65.31,1.04.31.58,0,.85-.29.85-.65s-.23-.58-.81-.8c-.78-.28-1.15-.71-1.15-1.23,0-.7.57-1.28,1.5-1.28.44,0,.83.13,1.07.27l-.2.58c-.17-.11-.49-.25-.89-.25-.47,0-.73.27-.73.59,0,.36.26.52.83.74.76.29,1.14.67,1.14,1.31,0,.77-.59,1.31-1.63,1.31-.48,0-.92-.12-1.22-.3l.2-.6h0Z"/><path class="cls-5" d="M147.57,41.46v-3.75h-.61v-.6h.61v-.21c0-.61.13-1.17.5-1.52.3-.29.69-.4,1.06-.4.28,0,.52.06.68.13l-.11.61c-.12-.05-.28-.1-.5-.1-.68,0-.85.59-.85,1.26v.23h1.05v.6h-1.05v3.75h-.78,0Z"/><path class="cls-5" d="M154.1,39.25c0,1.61-1.12,2.31-2.17,2.31-1.18,0-2.09-.86-2.09-2.24,0-1.46.95-2.31,2.16-2.31s2.1.91,2.1,2.24h0ZM150.64,39.29c0,.95.55,1.67,1.32,1.67s1.32-.71,1.32-1.69c0-.74-.37-1.67-1.31-1.67s-1.34.86-1.34,1.69h0Z"/><path class="cls-5" d="M155.15,38.46c0-.51,0-.95-.04-1.36h.69l.03.86h.04c.2-.59.68-.95,1.21-.95.09,0,.15,0,.23.03v.75c-.08-.02-.16-.03-.27-.03-.56,0-.95.42-1.06,1.02-.02.11-.04.23-.04.37v2.32h-.78v-3h-.01Z"/><path class="cls-5" d="M160.03,35.47c.48-.07,1.04-.13,1.67-.13,1.13,0,1.93.26,2.46.76.54.5.85,1.2.85,2.18s-.31,1.8-.87,2.36c-.57.57-1.5.87-2.68.87-.56,0-1.03-.03-1.42-.07v-5.97h-.01ZM160.81,40.84c.2.04.49.04.79.04,1.67,0,2.58-.94,2.58-2.57,0-1.43-.8-2.34-2.46-2.34-.41,0-.71.04-.92.08v4.79h.01Z"/><path class="cls-5" d="M166.94,35.88c0,.27-.19.49-.5.49-.28,0-.48-.22-.48-.49s.21-.5.5-.5.49.22.49.5h-.01ZM166.06,41.46v-4.36h.79v4.36h-.79Z"/><path class="cls-5" d="M168.04,40.65c.23.15.65.31,1.04.31.58,0,.85-.29.85-.65s-.23-.58-.81-.8c-.78-.28-1.15-.71-1.15-1.23,0-.7.57-1.28,1.5-1.28.44,0,.83.13,1.07.27l-.2.58c-.17-.11-.49-.25-.89-.25-.47,0-.73.27-.73.59,0,.36.26.52.83.74.76.29,1.14.67,1.14,1.31,0,.77-.59,1.31-1.63,1.31-.48,0-.92-.12-1.22-.3l.2-.6h0Z"/><path class="cls-5" d="M172.22,39.43c.02,1.07.7,1.51,1.49,1.51.57,0,.91-.1,1.21-.23l.13.57c-.28.13-.76.27-1.45.27-1.34,0-2.14-.88-2.14-2.2s.77-2.35,2.04-2.35c1.42,0,1.8,1.25,1.8,2.05,0,.16-.02.29-.03.37h-3.06,0ZM174.54,38.86c0-.5-.21-1.29-1.1-1.29-.8,0-1.15.74-1.22,1.29h2.32Z"/><path class="cls-5" d="M178.72,41.46l-.06-.55h-.03c-.24.34-.71.65-1.33.65-.88,0-1.33-.62-1.33-1.25,0-1.05.94-1.63,2.62-1.62v-.09c0-.36-.1-1.01-.99-1.01-.4,0-.83.13-1.13.32l-.18-.52c.36-.23.88-.39,1.43-.39,1.33,0,1.66.91,1.66,1.78v1.63c0,.38.02.75.07,1.04h-.73ZM178.6,39.24c-.86-.02-1.85.13-1.85.98,0,.51.34.76.75.76.57,0,.93-.36,1.05-.73.03-.08.05-.17.05-.25v-.76Z"/><path class="cls-5" d="M180.54,40.65c.23.15.65.31,1.04.31.58,0,.85-.29.85-.65s-.23-.58-.81-.8c-.78-.28-1.15-.71-1.15-1.23,0-.7.57-1.28,1.5-1.28.44,0,.83.13,1.07.27l-.2.58c-.17-.11-.49-.25-.89-.25-.47,0-.73.27-.73.59,0,.36.26.52.83.74.76.29,1.14.67,1.14,1.31,0,.77-.59,1.31-1.63,1.31-.48,0-.92-.12-1.22-.3l.2-.6h0Z"/><path class="cls-5" d="M184.71,39.43c.02,1.07.7,1.51,1.49,1.51.57,0,.91-.1,1.21-.23l.13.57c-.28.13-.76.27-1.45.27-1.34,0-2.14-.88-2.14-2.2s.77-2.35,2.04-2.35c1.42,0,1.8,1.25,1.8,2.05,0,.16-.02.29-.03.37h-3.06,0ZM187.04,38.86c0-.5-.21-1.29-1.1-1.29-.8,0-1.15.74-1.22,1.29h2.32Z"/><path class="cls-5" d="M121.07,51.26c-.29.14-.86.29-1.6.29-1.71,0-3-1.08-3-3.07s1.29-3.19,3.17-3.19c.76,0,1.23.16,1.44.27l-.19.64c-.3-.14-.72-.25-1.22-.25-1.42,0-2.37.91-2.37,2.5,0,1.49.86,2.44,2.33,2.44.48,0,.96-.1,1.28-.25l.16.62Z"/><path class="cls-5" d="M125.89,49.25c0,1.61-1.12,2.31-2.17,2.31-1.18,0-2.09-.86-2.09-2.24,0-1.46.95-2.31,2.16-2.31s2.1.91,2.1,2.24ZM122.43,49.29c0,.95.55,1.67,1.32,1.67s1.32-.71,1.32-1.69c0-.74-.37-1.67-1.31-1.67s-1.34.86-1.34,1.69h0Z"/><path class="cls-5" d="M126.94,48.28c0-.45,0-.82-.04-1.18h.7l.05.72h.02c.22-.41.72-.82,1.44-.82.6,0,1.54.36,1.54,1.85v2.6h-.79v-2.51c0-.7-.26-1.29-1.01-1.29-.52,0-.93.37-1.06.81-.04.1-.05.23-.05.37v2.62h-.79v-3.18h-.01Z"/><path class="cls-5" d="M132.86,45.85v1.25h1.13v.6h-1.13v2.35c0,.54.15.85.59.85.21,0,.36-.03.46-.05l.04.59c-.15.06-.4.11-.7.11-.37,0-.67-.12-.85-.33-.23-.23-.31-.62-.31-1.13v-2.38h-.68v-.6h.68v-1.04l.77-.21h0Z"/><path class="cls-5" d="M134.91,48.46c0-.51,0-.95-.04-1.36h.69l.03.86h.04c.2-.59.68-.95,1.21-.95.09,0,.15,0,.23.03v.75c-.08-.02-.16-.03-.27-.03-.56,0-.95.42-1.06,1.02-.02.11-.04.23-.04.37v2.32h-.78v-3h-.01Z"/><path class="cls-5" d="M141.8,49.25c0,1.61-1.12,2.31-2.17,2.31-1.18,0-2.09-.86-2.09-2.24,0-1.46.95-2.31,2.16-2.31s2.1.91,2.1,2.24h0ZM138.35,49.29c0,.95.55,1.67,1.32,1.67s1.32-.71,1.32-1.69c0-.74-.37-1.67-1.31-1.67s-1.34.86-1.34,1.69h0Z"/><path class="cls-5" d="M142.87,45.07h.79v6.39h-.79v-6.39Z"/><path class="cls-5" d="M149.32,51.46l-.06-.55h-.03c-.24.34-.71.65-1.33.65-.88,0-1.33-.62-1.33-1.25,0-1.05.94-1.63,2.62-1.62v-.09c0-.36-.1-1.01-.99-1.01-.4,0-.83.13-1.13.32l-.18-.52c.36-.23.88-.39,1.43-.39,1.33,0,1.66.91,1.66,1.78v1.63c0,.38.02.75.07,1.04h-.73ZM149.2,49.24c-.86-.02-1.85.13-1.85.98,0,.51.34.76.75.76.57,0,.93-.36,1.05-.73.03-.08.05-.17.05-.25v-.76Z"/><path class="cls-5" d="M151.25,48.28c0-.45,0-.82-.04-1.18h.7l.05.72h.02c.22-.41.72-.82,1.44-.82.6,0,1.54.36,1.54,1.85v2.6h-.79v-2.51c0-.7-.26-1.29-1.01-1.29-.52,0-.93.37-1.06.81-.04.1-.05.23-.05.37v2.62h-.79v-3.18h-.01Z"/><path class="cls-5" d="M160.06,45.07v5.27c0,.39,0,.83.04,1.13h-.71l-.04-.76h-.02c-.24.49-.77.86-1.49.86-1.05,0-1.86-.89-1.86-2.21,0-1.45.89-2.34,1.95-2.34.67,0,1.12.32,1.31.67h.02v-2.6h.79v-.02ZM159.27,48.88c0-.1,0-.23-.04-.33-.12-.5-.55-.92-1.14-.92-.82,0-1.31.72-1.31,1.68,0,.88.43,1.61,1.29,1.61.53,0,1.02-.35,1.16-.95.03-.11.04-.22.04-.34v-.76h0Z"/><path class="cls-5" d="M163.31,45.46c.38-.06.87-.12,1.5-.12.77,0,1.34.18,1.7.5.33.29.53.73.53,1.27s-.16.98-.47,1.3c-.41.44-1.09.67-1.85.67-.23,0-.45,0-.63-.05v2.43h-.78v-6h0ZM164.09,48.39c.17.04.39.06.65.06.95,0,1.52-.46,1.52-1.3s-.57-1.19-1.43-1.19c-.34,0-.6.03-.74.06v2.36h0Z"/><path class="cls-5" d="M168.04,48.46c0-.51,0-.95-.04-1.36h.69l.03.86h.04c.2-.59.68-.95,1.21-.95.09,0,.15,0,.22.03v.75c-.08-.02-.16-.03-.27-.03-.56,0-.95.42-1.06,1.02-.02.11-.04.23-.04.37v2.32h-.78v-3h0Z"/><path class="cls-5" d="M171.43,49.43c.02,1.07.7,1.51,1.49,1.51.57,0,.91-.1,1.21-.23l.13.57c-.28.13-.76.27-1.45.27-1.34,0-2.14-.88-2.14-2.2s.77-2.35,2.04-2.35c1.42,0,1.8,1.25,1.8,2.05,0,.16-.02.29-.03.37h-3.06,0ZM173.75,48.86c0-.5-.21-1.29-1.1-1.29-.8,0-1.15.74-1.22,1.29h2.32Z"/><path class="cls-5" d="M175.8,47.1l.85,2.45c.14.4.26.76.35,1.12h.03c.1-.36.23-.72.37-1.12l.85-2.45h.83l-1.71,4.36h-.76l-1.66-4.36h.85,0Z"/><path class="cls-5" d="M180.21,49.43c.02,1.07.7,1.51,1.49,1.51.57,0,.91-.1,1.21-.23l.13.57c-.28.13-.76.27-1.45.27-1.34,0-2.14-.88-2.14-2.2s.77-2.35,2.04-2.35c1.42,0,1.8,1.25,1.8,2.05,0,.16-.02.29-.03.37h-3.06,0ZM182.54,48.86c0-.5-.21-1.29-1.1-1.29-.8,0-1.15.74-1.22,1.29h2.32Z"/><path class="cls-5" d="M184.33,48.28c0-.45,0-.82-.04-1.18h.7l.05.72h.02c.22-.41.72-.82,1.44-.82.6,0,1.54.36,1.54,1.85v2.6h-.79v-2.51c0-.7-.26-1.29-1.01-1.29-.52,0-.93.37-1.06.81-.04.1-.05.23-.05.37v2.62h-.79v-3.18h-.01Z"/><path class="cls-5" d="M190.25,45.85v1.25h1.13v.6h-1.13v2.35c0,.54.15.85.59.85.21,0,.36-.03.46-.05l.04.59c-.15.06-.4.11-.7.11-.37,0-.67-.12-.85-.33-.23-.23-.31-.62-.31-1.13v-2.38h-.68v-.6h.68v-1.04l.77-.21h0Z"/><path class="cls-5" d="M193.15,45.88c0,.27-.19.49-.5.49-.28,0-.48-.22-.48-.49s.21-.5.5-.5.49.22.49.5h-.01ZM192.27,51.46v-4.36h.79v4.36h-.79Z"/><path class="cls-5" d="M198.36,49.25c0,1.61-1.12,2.31-2.17,2.31-1.18,0-2.09-.86-2.09-2.24,0-1.46.95-2.31,2.16-2.31s2.1.91,2.1,2.24h0ZM194.9,49.29c0,.95.55,1.67,1.32,1.67s1.32-.71,1.32-1.69c0-.74-.37-1.67-1.31-1.67s-1.34.86-1.34,1.69h0Z"/><path class="cls-5" d="M199.41,48.28c0-.45,0-.82-.04-1.18h.7l.05.72h.02c.22-.41.72-.82,1.44-.82.6,0,1.54.36,1.54,1.85v2.6h-.79v-2.51c0-.7-.26-1.29-1.01-1.29-.52,0-.93.37-1.06.81-.04.1-.05.23-.05.37v2.62h-.79v-3.18h-.01Z"/><g class="cls-1"><path class="cls-6" d="M107.73,40.84V15.33c0-6.8-5.51-12.32-12.31-12.32H14.96c-6.8,0-12.32,5.51-12.32,12.32v36.08c0,6.8,5.51,12.32,12.32,12.32h80.45c5.32,0,9.84-3.39,11.56-8.11.48-1.31.75-2.72.75-4.2v-10.57h.01Z"/><path class="cls-6" d="M107.73,40.84V15.33c0-6.8-5.51-12.32-12.31-12.32H14.96c-6.8,0-12.32,5.51-12.32,12.32v36.08c0,6.8,5.51,12.32,12.32,12.32h80.45c5.32,0,9.84-3.39,11.56-8.11.48-1.31.75-2.72.75-4.2v-10.57h.01Z"/><polygon class="cls-4" points="75.97 44.86 97.77 22.77 97.77 22.55 97.66 22.55 75.64 44.86 75.97 44.86"/><polygon class="cls-4" points="62.22 44.86 63.69 22.55 63.46 22.55 61.99 44.86 62.22 44.86"/><polygon class="cls-4" points="63.4 44.86 66.58 22.55 66.35 22.55 63.16 44.86 63.4 44.86"/><polygon class="cls-4" points="64.66 44.86 69.64 22.55 69.4 22.55 64.42 44.86 64.66 44.86"/><polygon class="cls-4" points="66.04 44.86 73.15 22.55 72.91 22.55 65.8 44.86 66.04 44.86"/><polygon class="cls-4" points="67.35 44.86 76.48 22.55 76.23 22.55 67.1 44.86 67.35 44.86"/><polygon class="cls-4" points="68.85 44.86 80.28 22.55 80.02 22.55 68.59 44.86 68.85 44.86"/><polygon class="cls-4" points="85.98 22.55 85.71 22.55 70.92 44.86 71.2 44.86 85.98 22.55"/><polygon class="cls-4" points="91.26 22.55 90.96 22.55 72.99 44.86 73.28 44.86 91.26 22.55"/><polygon class="cls-4" points="97.77 30.99 97.77 30.7 79.95 44.86 80.31 44.86 97.77 30.99"/><polygon class="cls-4" points="97.77 37.13 97.77 36.86 84.96 44.86 85.4 44.86 97.77 37.13"/><polygon class="cls-4" points="97.77 42.92 97.77 42.66 93.06 44.86 93.61 44.86 97.77 42.92"/><path class="cls-4" d="M71.82,35.96c-.46.44-1.61.91-2.45.91-2.46,0-3.61-2.09-3.63-5.28.02-3.02,1.26-4.94,3.39-4.95,1.52,0,2.26.89,2.67,1.41l.44.59v-2.74l-.14-.07c-.88-.41-1.99-.6-3.01-.6-3.82,0-6.74,2.75-6.75,6.62,0,3.97,2.76,6.46,6.71,6.47h.02c1.96,0,2.97-.59,3.5-1l.16-.12-.65-1.47-.25.24h-.01ZM82.53,26.66c-1.28-.94-2.88-1.22-4.25-1.22h-4.67v12.65h4.97c2.41,0,6.14-1.54,6.14-6.36,0-2.52-.92-4.13-2.2-5.07M76.69,36.62v-9.75c2.26.06,4.66.34,4.7,4.91-.04,4.44-2.5,4.78-4.7,4.84M95.38,35.72l-.25.24c-.46.44-1.6.91-2.45.9-2.46,0-3.61-2.09-3.63-5.28.02-3.02,1.26-4.94,3.39-4.95,1.52,0,2.26.89,2.66,1.41l.45.6v-2.75l-.14-.07c-.87-.41-1.99-.6-3.01-.6-3.82,0-6.73,2.75-6.74,6.62,0,3.97,2.76,6.46,6.71,6.47h.03c1.95,0,2.96-.59,3.49-1l.16-.12-.66-1.47h-.01Z"/><polygon class="cls-4" points="99.12 45.01 99.57 45.01 99.57 45.08 99.38 45.08 99.38 45.55 99.31 45.55 99.31 45.08 99.12 45.08 99.12 45.01"/><path class="cls-4" d="M100.09,45.55v-.46l-.15.46h-.07l-.15-.46h0v.47h-.07v-.54h.1l.16.46h0l.15-.46h.11v.54h-.08Z"/><path class="cls-4" d="M49.62,18.26c.07,1.56-1.16,2.52-2.1,3.43l-9.57,8.06c-.86.8-2.11,1.46-2.59,2.66-.63,1.59-.87,3.35-1.14,5.1-.15,1.26-1.33,2.36-2.43,2.82-.85.3-1.88.16-2.81.23l-3.34.02c-.28.06-.53.22-.67.45l-.12.33c-.36.05-.24-.26-.29-.48,0-.73.17-1.5.72-1.93.29-.29.69-.36,1.1-.43l4.86-.07c.27,0,.49-.17.67-.32l.2-.38c.39-2.42.61-4.93,1.81-6.99,1.12-1.31,2.53-2.21,3.78-3.36,2.89-2.45,5.88-4.94,8.73-7.43.81-.76,1.66-1.77,1.86-2.98l.1-.32c.64.22,1.18.86,1.22,1.59"/><path class="cls-4" d="M52.43,21c.14,1.51-1.04,2.23-1.99,3.16l-3.9,3.35-6.94,5.9c-.98,1.11-1.04,2.68-1.29,4.11.04.46.51.65.42,1.14l-.96,1.74c.05.69.9.29,1.17.73,0,.25-.16.56.04.77.14.24.69-.08.4.3-.08.06-.05.22-.03.3.11.15.33.16.35.39-.1.29-.1.69.07.94,1.21,1.32,3.28-.31,4.53.92.32.28.31.8.22,1.19-.67,1.97-4.64,2.11-3.28,4.9.24.45.76.76,1.29.8.45.07.79-.12,1.16-.23.12,0,.13.11.17.18v.08c-1.15.82-2.63,2.02-4.15,1.15-.76-.48-1.15-1.48-.96-2.44.47-1.54,2.24-1.94,3.13-3.23.2-.38.17-.87-.05-1.25-.28-.51-.94-.64-1.51-.74-.96-.02-2.42.58-2.84-.54-.13-.43.31-1.18-.37-1.28-.09-.12-.31-.23-.2-.42.03-.11.23-.13.13-.27-.14-.04-.32,0-.43-.12-.39-.42.68-.88-.04-1.17-.36-.05-.86.22-1.1-.2-.12-.39.18-.67.32-.99.24-.55.96-.91.78-1.62l-.36-.6c.11-1.4.34-2.78.7-4.1.48-1.47,1.9-2.29,2.99-3.3l5.82-4.92,4.12-3.63c.71-.66,1.34-1.41,1.31-2.41.22-.07.36.19.56.27.34.39.64.67.72,1.17"/><path class="cls-4" d="M50.86,28.33c-.77,1.22-2.05,2.14-3.19,3.11l-4.48,3.75c-.82.74-1.04,2.03-.66,3.03.04.51-.35.83-.48,1.28,0,.13.04.3.18.34.19.07.47-.02.57.23.03.26-.09.54.2.65.11.06.28-.14.3.07-.07.11-.12.23-.1.37.14.26.47.12.6.33.06.3.06.69.4.82,1.16.19,2.04-.59,3.09-.82,1.66-.52,3.26.13,4.74.57.74.13,1.56.09,2.29,0l.05.05c-.94,1.15-2.1,2.27-3.75,2.16-1.73-.07-2.85-1.68-4.7-1.37-1.25.25-2.51,1.01-3.85.5-.34-.28-.49-.78-.35-1.27-.07-.3-.79-.37-.34-.76-.14-.09-.37,0-.45-.21-.11-.24.19-.59-.12-.75-.28-.04-.64.11-.85-.12-.11-.15-.09-.35-.05-.52.2-.48.74-.85.62-1.42-.36-.34-.24-.92-.2-1.39.2-1.1.29-2.26,1.31-2.99l5.5-4.65c1.16-1.11,2.59-1.82,3.43-3.28.43.6.64,1.57.3,2.29"/><path class="cls-4" d="M34.03,44.62c1.56.66,3.2,1.32,4.6,2.24.34.28.66.7.59,1.22-.48,1.98-3.23,2.19-2.83,4.52.12.87.69,1.63,1.54,1.87.38.11.9.11,1.29,0,.06.15.33.3.03.4-1.13.72-2.58,1.53-3.96.84-.67-.31-1.07-1.04-1.25-1.74-.28-2.12,1.69-2.78,2.69-4.2.15-.28.22-.61.15-.95-.19-.39-.47-.64-.85-.87-3.71-2.08-7.74-3.48-11.88-4.56-.69-.06-1.75-.47-2.21.33v.04c-.37.08-.23-.37-.23-.57.12-.67.51-1.22,1.14-1.49,1.08-.32,2.22.06,3.26.25,2.68.75,5.35,1.6,7.91,2.66"/><path class="cls-4" d="M33.14,53.28c-.33.03-.34.04-.36.12,0,.1,0,.35,0,.82,0,.47,0,.72.03.83.02.08.03.09.36.11v.13l-1.05.02c-.43,0-.63-.08-.83-.26-.18-.16-.31-.43-.32-.77,0-.54.32-1.08,1.15-1.1l1-.02v.13h.02ZM32.41,53.44c0-.12-.02-.13-.22-.13-.59,0-.83.29-.81.95.02.68.26.93.85.91.2,0,.22-.02.22-.08,0,0-.04-1.65-.04-1.65Z"/><path class="cls-4" d="M30.79,53.31c-.29,0-.3,0-.32.09-.02.1-.04.34-.08.82-.04.47-.06.71-.06.82,0,.08.02.09.3.14v.13l-1.16-.1c-.17-.02-.35,0-.48,0v-.59h.14c.05.39.11.44.54.47l.28.02s.05,0,.06-.06l.06-.7s0-.05-.09-.06h-.09c-.33-.04-.36.02-.4.23h-.13c.01-.11.03-.21.04-.36,0-.12.01-.26.02-.35h.14c0,.24.03.29.27.31l.21.02s.06,0,.06-.05l.07-.78s-.01-.06-.05-.06l-.52-.05c-.24-.02-.32.04-.39.24l-.09.2-.14-.05c.06-.16.12-.45.13-.58l1.72.15v.13l-.04.02Z"/><path class="cls-4" d="M28.81,53.14c-.31-.04-.33-.03-.36.05-.03.1-.08.35-.16.81-.08.47-.13.71-.14.81,0,.08.01.09.31.18l-.02.13-1.11-.2c-.23-.04-.39-.13-.5-.27-.09-.11-.14-.25-.11-.41.08-.42.48-.54,1.02-.44.08.02.17.04.21.05l.13-.72c.02-.08-.01-.1-.35-.18l.02-.13,1.08.2-.02.13h0ZM27.94,53.99s-.1-.02-.14-.03c-.3-.05-.59-.05-.67.35-.07.38.17.48.49.54.14.02.15,0,.17-.05l.15-.81Z"/><path class="cls-4" d="M27.18,52.86c-.24-.05-.3,0-.47.23l-.87,1.14c-.15.19-.18.24-.24.34l-.16-.05c.01-.1,0-.28,0-.38l-.18-1.59c-.02-.21-.03-.25-.28-.32l.04-.13,1.01.29-.04.12c-.3-.07-.33-.05-.35.03-.02.06.02.43.02.46,0,.02.02.03.03.03.07.03.22.08.51.16.19.05.2.04.24,0,.12-.16.21-.31.22-.33.03-.09,0-.12-.28-.22l.04-.12.79.23s-.03.12-.03.12ZM25.7,53.22h-.04v.07l.08.82.51-.67s.02-.03.03-.04c0,0,0-.02-.03-.03l-.54-.15h0Z"/><path class="cls-4" d="M24.89,52.21c-.29-.09-.31-.09-.35-.02-.06.09-.15.32-.33.76s-.27.67-.3.77c-.03.08-.01.1.25.23l-.05.12-1.05-.43c-.22-.09-.32-.17-.4-.29-.08-.12-.1-.28-.02-.45.17-.42.65-.3.66-.33v-.08l-.2-.8c-.05-.2-.07-.24-.2-.3l.05-.12.47.2.24,1.14s.03.05.15.1c.11.05.12.05.13.02.21-.51.24-.59.26-.67.03-.08.01-.1-.25-.23l.05-.12.94.39-.05.12h0ZM23.85,52.96s.02-.07-.16-.14c-.42-.17-.6.04-.66.2-.1.23.01.46.31.59.2.08.21.08.24,0l.27-.65Z"/><path class="cls-4" d="M22.73,51.28c-.3-.14-.32-.14-.37-.06-.03.05-.09.15-.17.3l-.65,1.25.31.16c.09.05.17,0,.45-.27l.12.09c-.08.1-.18.24-.32.49-.05-.04-.1-.07-.15-.1s-.1-.07-.15-.09l-.94-.49c-.11-.06-.22-.1-.33-.14.12-.26.18-.42.22-.54l.14.04c-.05.38-.06.48.04.53l.31.16.65-1.25c.08-.16.13-.26.15-.32.02-.08.01-.1-.27-.27l.06-.12.98.51-.06.12h-.02Z"/><path class="cls-4" d="M21.32,50.58c-.28-.17-.31-.17-.36-.11-.07.08-.21.29-.47.68-.27.39-.4.59-.46.68-.03.08-.03.09.23.3l-.07.11-.68-.46s.03-.05.04-.09l.44-1.63h0l-1.45,1.05-.67-.46.08-.11c.29.17.3.17.36.11.07-.08.21-.29.47-.68.27-.39.41-.59.46-.69.04-.07.03-.09-.23-.3l.07-.11.89.6-.07.11c-.28-.16-.3-.16-.35-.1l-.96,1.41h0l1.5-1.08s.08-.06.13-.1l.19.13s-.03.07-.04.12l-.49,1.81h0l.81-1.17c.05-.08.12-.2.14-.24.04-.07.03-.09-.2-.28l.07-.11.73.49-.08.11h-.03Z"/><path class="cls-4" d="M18.96,48.92c-.23-.17-.25-.17-.31-.12-.08.07-.24.26-.55.61-.31.36-.48.54-.54.63-.05.07-.04.08.16.29l-.09.1-.87-.76c-.13-.11-.28-.22-.39-.28.1-.11.3-.4.34-.48l.11.07c-.2.36-.17.43.15.72l.21.18s.05.02.09,0l.46-.53s.03-.05-.04-.11l-.06-.06c-.25-.22-.3-.2-.47-.05l-.1-.09c.07-.07.14-.14.24-.26.08-.09.17-.2.22-.27l.11.09c-.14.18-.14.24.04.4l.15.14s.05.03.08,0l.51-.59s.02-.06,0-.09l-.4-.34c-.18-.16-.28-.15-.46-.04l-.18.12-.08-.13c.14-.1.36-.3.45-.39l1.29,1.13-.09.1h.02Z"/><path class="cls-4" d="M17.49,47.64c-.22-.2-.24-.21-.3-.16-.08.07-.27.23-.61.55-.35.32-.53.49-.59.57-.06.06-.05.08.14.32l-.1.09-.43-.46s.02-.09.04-.16l.38-1.66h0l-.35.32c-.34.32-.53.49-.59.57-.05.06-.05.09.16.34l-.1.09-.59-.63.09-.09c.2.21.23.21.36.11.12-.11.27-.24.39-.34.43-.41.8-.75.96-.93l.15.16c-.09.26-.15.46-.2.74l-.28,1.28h0l.45-.42c.35-.32.53-.49.6-.57.05-.07.05-.09-.19-.37l.1-.09.62.66-.1.09h0Z"/><path class="cls-4" d="M15.68,45.61c-.22-.26-.23-.26-.31-.22-.05.03-.15.09-.29.2l-1.13.85.21.28c.06.08.16.07.52-.05l.06.13c-.12.05-.27.14-.5.3-.03-.05-.06-.11-.09-.16s-.07-.1-.1-.15l-.63-.84c-.08-.11-.16-.19-.25-.27.22-.18.35-.3.43-.39l.11.09c-.21.32-.25.4-.19.49l.21.28,1.13-.85c.14-.11.23-.18.28-.22.06-.06.06-.08-.13-.36l.11-.08.66.88-.1.08h0Z"/><path class="cls-4" d="M11.85,43.47c-.27-.5-.08-1.1.52-1.41.59-.31,1.19-.14,1.46.36.26.5.07,1.1-.52,1.42-.59.31-1.2.13-1.46-.37M13.69,42.5c-.15-.29-.56-.39-1.14-.08-.58.31-.73.7-.57.99.15.29.56.39,1.14.08.58-.3.73-.7.57-.99"/><path class="cls-4" d="M13.11,41.43c-.13-.26-.14-.27-.22-.24-.1.02-.33.12-.76.3-.44.17-.67.27-.77.32-.07.04-.08.05,0,.33l-.12.05-.43-1.07c-.07-.16-.15-.32-.21-.43.13-.06.45-.22.52-.27l.07.11c-.34.23-.35.31-.19.7l.1.26s.04.04.08.03l.65-.26s.05-.03.01-.11l-.03-.08c-.12-.3-.18-.3-.39-.25l-.05-.12c.1-.04.19-.07.32-.12.12-.05.24-.1.32-.13l.05.12c-.2.1-.23.16-.15.38l.08.2s.03.05.07.03l.69-.28c.08-.03.08-.05-.03-.38l.12-.05.38.93-.12.05v-.02Z"/><path class="cls-4" d="M12.14,38.86c-.09-.3-.11-.32-.19-.31-.1,0-.34.07-.8.17-.46.11-.7.17-.8.2-.08.03-.09.05-.03.36l-.13.03-.24-1.03.13-.03c.09.3.1.32.19.3.06,0,.24-.04.39-.07l.2-.05c.09-.02.1-.03.08-.11l-.18-.79c-.02-.08-.03-.08-.12-.06l-.2.04c-.14.04-.32.08-.38.1-.08.03-.08.05-.04.36l-.12.03-.25-1.03.13-.03c.09.3.1.32.18.31.11,0,.35-.07.81-.18s.7-.16.8-.2c.08-.03.08-.05.03-.36l.13-.03.24,1.04-.13.03c-.09-.3-.1-.32-.18-.31-.09,0-.33.06-.69.15-.09.02-.1.03-.08.11l.19.79c.02.08.03.09.12.07.35-.08.59-.14.67-.17s.09-.05.03-.36l.13-.03.24,1.04-.13.03h0Z"/><path class="cls-4" d="M11.58,36.41c-.06-.28-.07-.29-.15-.29-.11,0-.35.03-.82.08-.47.06-.72.09-.82.11-.08.02-.09.03-.07.32l-.13.02-.14-1.15c-.02-.17-.06-.35-.09-.47.15-.03.49-.1.57-.12l.04.12c-.39.13-.42.2-.37.62l.03.28s.03.05.07.05l.69-.09s.05,0,.04-.1v-.08c-.05-.33-.11-.35-.33-.35v-.13c.09,0,.18-.02.33-.04.12,0,.26-.04.34-.05v.14c-.21.05-.25.1-.23.33l.03.21s.02.05.06.05l.77-.09s.06-.02.06-.06l-.06-.52c-.03-.24-.11-.3-.32-.34l-.22-.04.02-.15c.17.02.46.02.6,0l.2,1.71-.13.02h.03Z"/><path class="cls-4" d="M11.35,34.53c-.02-.24-.1-.28-.36-.38l-1.34-.5c-.23-.09-.28-.11-.4-.14v-.16c.09,0,.26-.08.36-.12l1.48-.64c.19-.08.23-.1.22-.36h.13l.02,1.05h-.13c-.01-.31-.05-.33-.12-.33-.06,0-.4.14-.44.16-.02,0-.02.02-.03.04v.54c0,.19.02.2.08.23.19.07.36.12.38.12.09,0,.12-.03.13-.33h.13l.02.82s-.13,0-.13,0ZM10.58,33.23s0-.04-.02-.04-.05,0-.07.02l-.76.3.79.29s.04,0,.05,0,.02-.02.02-.04v-.56.02Z"/><path class="cls-4" d="M11.33,32.16c0-.29,0-.31-.09-.32-.1-.02-.35-.04-.82-.09-.47-.04-.72-.06-.83-.06-.08,0-.09.02-.14.3h-.13l.09-.99h.13c0,.3,0,.32.09.34.07.01.25.03.39.05l1.22.1c.11,0,.13-.02.15-.11l.03-.35c.03-.3-.06-.35-.47-.56l.05-.14c.1.05.46.12.62.14l-.15,1.69h-.14Z"/><path class="cls-4" d="M11.53,30.14c.03-.33.03-.35-.05-.37-.06-.02-.16-.04-.34-.07l-1.4-.24-.05.35c-.02.11.06.16.39.34l-.05.14c-.11-.05-.28-.1-.56-.16.02-.06.03-.12.05-.18s.03-.12.04-.17l.18-1.04c.02-.13.03-.25.03-.36.28.04.45.04.58.04v.14c-.37.07-.46.09-.48.19l-.06.35,1.4.24c.18.03.29.04.35.04.08,0,.1-.01.17-.33l.13.02-.19,1.08-.12-.02h-.02Z"/><path class="cls-4" d="M11.76,28.68c.06-.31.06-.33-.02-.36-.1-.04-.34-.11-.79-.24-.46-.12-.69-.19-.8-.21-.09-.01-.1,0-.21.3l-.12-.04.29-1.02.13.04c-.06.3-.06.33.02.36.06.03.24.08.38.12l.2.06c.08.02.1.02.12-.06l.22-.78c.02-.08.01-.09-.07-.12l-.2-.06c-.14-.04-.31-.08-.38-.1-.08-.01-.1,0-.21.3l-.13-.04.29-1.02.13.04c-.06.31-.06.33.02.36.1.04.34.1.79.24.46.13.69.19.8.21.08.01.09,0,.2-.3l.12.03-.29,1.03-.13-.04c.07-.3.06-.33-.01-.36-.08-.04-.32-.11-.67-.2-.09-.02-.1-.01-.12.06l-.22.78c-.02.08-.01.09.08.12.35.09.59.16.67.18.08.01.09,0,.2-.3l.12.03-.29,1.02-.12-.03Z"/><path class="cls-4" d="M13.77,23.35c.03.19.02.37-.05.51-.07.14-.18.21-.41.29.06.21.07.42-.04.65-.18.38-.56.46-.85.32-.27-.13-.4-.36-.41-.81-.33.03-.44.02-.54-.03-.18-.09-.3-.28-.15-.59.13-.26.33-.39.56-.27.23.11.27.34.26.56.33-.02.64-.05.95-.09-.07-.18-.2-.36-.3-.41-.08-.04-.14-.01-.21.1l-.11-.06.3-.64.12.05c-.07.15-.06.28.08.46.07.09.18.25.27.45.25-.06.32-.09.38-.21.04-.09.05-.2.03-.36l.13.07h-.01ZM12.02,23.99c.02-.16-.11-.29-.22-.34-.11-.05-.26-.06-.33.07-.04.09-.02.21.13.28.08.04.23.06.42,0M13.15,24.56c.05-.1.06-.23.03-.38-.26.07-.79.11-1.04.11,0,.23.07.37.26.46.22.1.62.08.75-.19"/><path class="cls-4" d="M14.29,22.43c.16-.27.17-.29.1-.35-.08-.07-.28-.21-.67-.48-.38-.27-.59-.41-.68-.46-.08-.04-.1-.03-.29.21l-.11-.08.61-.87.1.07c-.16.27-.16.29-.1.35.05.04.2.15.32.24l.16.11c.07.05.09.05.14-.01l.46-.66c.04-.07.04-.08-.03-.13l-.17-.12c-.12-.09-.27-.18-.33-.22-.07-.03-.09-.03-.29.22l-.1-.07.6-.87.11.07c-.16.27-.16.29-.1.34.08.08.28.21.67.49.39.27.59.41.68.46.07.04.09.03.29-.21l.11.07-.61.87-.11-.08c.16-.27.17-.29.1-.34s-.27-.2-.57-.41c-.07-.05-.09-.05-.13.01l-.46.66c-.04.07-.04.08.03.13.29.21.5.35.58.39.07.04.09.03.29-.21l.1.08-.61.87-.11-.08h.02Z"/><path class="cls-4" d="M14.25,19.02l.71-.79.1.09c-.19.25-.2.26-.15.33.07.07.25.24.83.76.18.16.51.36.83.02.36-.4.21-.63-.26-1.06-.37-.34-.56-.5-.64-.56-.07-.05-.09-.04-.32.19l-.1-.09.59-.65.1.08c-.2.25-.2.27-.15.34.07.07.25.24.75.69.36.32.65.67.12,1.25-.32.36-.74.44-1.17.06-.57-.51-.75-.68-.83-.73-.07-.05-.09-.05-.31.17l-.1-.09h0Z"/><path class="cls-4" d="M17.3,18.62c.24-.23.24-.25.2-.32-.06-.09-.22-.28-.53-.63-.31-.36-.47-.55-.55-.62-.07-.06-.08-.05-.35.15l-.08-.1.63-.54s.04.04.07.06l1.47.85h0l-.64-1.68.62-.53.09.1c-.24.23-.25.25-.2.32.06.09.22.27.53.63.31.36.47.55.55.62.06.06.08.05.35-.15l.08.1-.81.7-.09-.1c.23-.22.24-.25.19-.31l-1.11-1.29h0l.67,1.73s.03.1.06.15l-.17.15s-.07-.05-.11-.08l-1.62-.94h0l.93,1.08c.07.08.17.17.2.2.07.05.08.05.32-.12l.09.09-.66.58-.09-.1h-.04Z"/><path class="cls-4" d="M19.59,16.69c.19-.14.18-.23.13-.5l-.29-1.4c-.05-.23-.06-.29-.09-.41l.13-.08c.07.07.21.18.29.24l1.32.91c.17.12.21.14.43,0l.07.11-.88.57-.07-.11c.26-.18.26-.21.21-.28-.03-.05-.33-.27-.37-.29h-.05c-.07.04-.2.11-.46.28-.16.1-.16.12-.15.2.04.2.09.36.11.38.05.08.09.08.35-.07l.07.12-.69.44-.07-.11h.01ZM20.28,15.35s.02-.03.02-.04-.04-.03-.05-.04l-.66-.48.17.83s0,.04.02.05c0,.01.02,0,.04,0l.47-.3v-.02Z"/><path class="cls-4" d="M21.6,15.39c.26-.15.27-.17.23-.25-.03-.1-.14-.32-.35-.74-.21-.42-.32-.64-.38-.73-.04-.07-.06-.07-.34.04l-.06-.12.57-.28s.08.05.14.09l1.49.83h0l-.21-.43c-.21-.42-.32-.64-.38-.73-.04-.07-.06-.07-.37.06l-.06-.12.78-.39.06.12c-.26.13-.27.16-.2.31.07.15.14.32.22.47.27.53.49.98.62,1.19l-.2.1c-.22-.16-.4-.27-.65-.4l-1.15-.63h0l.28.56c.21.42.32.65.38.73.05.07.07.07.41-.07l.06.11-.81.4-.06-.12h-.02Z"/><path class="cls-4" d="M24.82,13.32c.2.32.44.51.75.41.32-.1.43-.34.37-.52-.06-.2-.23-.21-.46-.22h-.25c-.58-.02-.69-.18-.76-.41-.12-.38.12-.73.57-.87.22-.07.43-.1.6-.11,0,.03.02.09.04.13.05.14.09.28.15.42l-.14.04c-.16-.35-.38-.42-.66-.33-.25.08-.39.3-.34.48.04.13.14.2.37.21l.54.02c.35.01.52.14.61.41.12.39-.13.73-.6.88-.22.07-.46.05-.67.11-.05-.15-.15-.41-.24-.6l.13-.07v.02Z"/><path class="cls-4" d="M26.52,13.41c.27-.08.28-.09.28-.17,0-.11-.06-.35-.16-.81s-.15-.7-.18-.8c-.03-.08-.04-.09-.32-.05l-.03-.12,1.13-.24c.17-.04.34-.09.46-.13.03.14.14.48.18.56l-.12.04c-.17-.37-.24-.39-.66-.31l-.27.06s-.05.03-.04.07l.14.68s.02.05.1.04l.09-.02c.33-.07.33-.12.32-.34l.13-.03c.02.1.03.2.06.34.03.12.06.26.08.34l-.13.03c-.07-.21-.11-.26-.35-.21l-.21.04s-.05.03-.04.07l.16.77s.03.05.07.04l.51-.1c.25-.05.29-.13.31-.34l.02-.22h.15c0,.18.02.47.04.6l-1.69.35-.03-.13h0Z"/><path class="cls-4" d="M28.46,13.01c.31-.05.33-.06.33-.15,0-.1-.02-.35-.07-.82-.04-.47-.07-.71-.09-.82-.02-.08-.04-.09-.35-.08v-.13l1.17-.12c.24-.02.38,0,.51.07.13.07.22.2.24.38.04.45-.45.57-.45.6,0,.02.01.03.05.08l.57.6c.14.15.18.18.33.17v.13l-.51.05-.78-.89s-.05-.03-.18-.02c-.12.01-.13.02-.13.05.06.55.07.64.08.72.02.08.04.09.35.08v.13l-1.05.1v-.13h-.02ZM29.06,11.85c0,.06.02.07.21.05.48-.04.54-.31.52-.49-.03-.25-.24-.4-.57-.37-.22.02-.24.03-.23.11l.07.7Z"/><path class="cls-4" d="M30.28,10.81l1.05-.02v.13h-.14c-.14,0-.17.05-.17.1,0,.07.16.46.32.87l.23.58.23-.62c.13-.35.28-.76.28-.85s-.05-.09-.32-.08v-.13h.83s0,.12,0,.12h-.09c-.14,0-.2.06-.34.43-.47,1.24-.52,1.38-.57,1.65h-.2c-.03-.21-.57-1.44-.73-1.77-.12-.26-.15-.26-.39-.27v-.13h.01Z"/><path class="cls-4" d="M32.67,12.82c.33,0,.35,0,.37-.09.02-.1.04-.35.08-.82.04-.47.06-.72.06-.83,0-.08-.02-.09-.35-.14v-.13l1.11.09v.13c-.34,0-.36,0-.38.08-.02.11-.04.35-.08.82-.04.47-.06.72-.05.82,0,.09.02.1.35.15v.13l-1.11-.09v-.13h0Z"/><path class="cls-4" d="M35.95,12.88c-.32.3-.6.44-1.02.38-.49-.08-.96-.5-.83-1.26.09-.56.53-1.06,1.28-.93.2.03.45.12.62.2-.02.17-.02.45-.02.59h-.15c-.05-.37-.2-.6-.55-.65-.38-.06-.7.26-.79.84-.1.61.18.98.53,1.03.32.05.59-.07.8-.3l.12.1h.01Z"/><path class="cls-4" d="M35.97,13.25c.28.05.3.05.33-.03.04-.1.11-.33.23-.79.13-.46.19-.69.21-.8,0-.08,0-.1-.27-.19l.04-.13,1.11.3c.17.05.35.07.47.09-.04.14-.1.49-.1.58h-.13c.02-.42-.03-.47-.44-.59l-.27-.07s-.06,0-.07.04l-.18.68s0,.06.08.08l.09.02c.32.09.35.04.44-.16l.13.04c-.03.1-.06.19-.1.33-.03.12-.07.25-.08.34l-.14-.03c.04-.22.02-.28-.21-.35l-.21-.06s-.06,0-.07.04l-.2.76s0,.06.04.07l.51.14c.24.07.32.01.43-.16l.12-.19.12.08c-.08.15-.19.42-.23.55l-1.66-.45.04-.13h-.03Z"/><path class="cls-4" d="M38.3,13.31c-.04.38.03.67.34.78.31.12.54,0,.61-.18.08-.19-.05-.31-.23-.46l-.2-.16c-.45-.36-.44-.56-.36-.79.14-.37.54-.51.99-.34.22.08.4.18.53.27,0,.04-.03.09-.05.13-.05.14-.09.28-.14.42l-.14-.05c.09-.37-.04-.56-.31-.66-.25-.1-.5-.01-.57.17-.05.13,0,.24.17.39l.42.35c.26.23.33.43.22.7-.15.39-.55.51-1.02.33-.21-.08-.4-.25-.6-.33.05-.15.13-.42.18-.62l.15.02v.03Z"/><path class="cls-4" d="M40.77,13.74c.11.05.15.18.1.29-.05.11-.18.15-.28.1-.11-.05-.15-.17-.1-.28.05-.11.17-.16.28-.1"/><path class="cls-4" d="M41.76,13.21l.92.53-.07.11c-.28-.14-.3-.14-.35-.07-.06.08-.18.29-.58.96-.12.21-.25.58.16.82.46.27.66.08.98-.47.25-.43.38-.65.42-.74.03-.08.02-.09-.26-.28l.07-.11.77.45-.07.11c-.28-.14-.3-.14-.35-.07-.07.09-.19.29-.53.87-.24.41-.52.77-1.19.38-.42-.24-.59-.64-.3-1.13.39-.66.51-.87.55-.97.04-.08.02-.09-.23-.27l.06-.11h0Z"/><path class="cls-4" d="M43.43,15.89c-.14.35-.15.65.11.84.28.2.53.14.64,0,.12-.16.03-.31-.1-.5l-.14-.2c-.33-.47-.27-.66-.12-.85.23-.32.65-.34,1.04-.06.19.14.33.29.44.41-.02.03-.06.07-.08.11-.09.12-.17.24-.25.37l-.12-.08c.18-.34.11-.55-.12-.72-.22-.16-.48-.15-.59,0-.08.11-.08.23.06.42l.3.45c.2.29.2.5.03.73-.24.33-.67.34-1.07.04-.18-.14-.31-.35-.49-.48.09-.13.24-.37.34-.55l.14.07h-.02Z"/><path class="cls-4" d="M44.35,17.29c.19.15.27.12.52,0l1.28-.63c.22-.11.27-.14.38-.2l.11.11c-.05.08-.12.24-.16.35l-.55,1.51c-.07.2-.08.23.11.41l-.08.1-.78-.7.09-.1c.24.2.28.2.33.14.04-.04.17-.39.19-.43,0-.02,0-.03,0-.05-.05-.06-.17-.17-.39-.37-.14-.13-.16-.13-.22-.09-.19.09-.33.17-.35.2-.06.07-.05.11.15.32l-.09.09-.61-.55.09-.1h-.01ZM45.83,17.62s.03.02.04.01c0-.01.03-.05.03-.06l.3-.77-.75.37s-.04.02-.05.03c0,.01,0,.03,0,.04,0,0,.42.38.42.38Z"/><path class="cls-4" d="M60.07,45.5h38.34v-23.62h-38.34s0,23.62,0,23.62ZM60.78,22.56h37v22.3h-37v-22.3Z"/></g></svg>