<svg xmlns="http://www.w3.org/2000/svg" width="300pt" height="300pt" viewBox="0 0 1200 1200" preserveAspectRatio="xMidYMid meet" {% if title_id %}aria-labelledby="{{ title_id }}"{% else %}aria-labelledby="hhs-logo-title"{% endif %}><title {% if title_id %}id="{{ title_id }}"{% else %}id="hhs-logo-title"{% endif %}>Health and Human Services logo</title><g transform="matrix(.1 0 0 -.1 0 1200)" stroke="none"><path d="M5633 11893c-19 -3 -33 -10 -33 -18s13 -15 33 -17c30 -3 35 -10 84 -108 29 -58 80 -176 115 -262 54 -135 66 -158 84 -158 17 0 24 9 33 44 18 73 159 439 179 466 11 14 31 26 45 28 15 2 27 10 27 18 0 11 -20 14 -105 14 -87 0 -105 -3 -105 -15 0 -11 11 -15 35 -15 23 0 38 -6 41 -15 10 -26 -123 -393 -136 -378 -13 14 -140 341 -140 362s18 31 56 31c15 0 24 6 24 15 0 12 -17 15 -102 13 -57 0 -118 -3 -135 -5"/><path d="M6260 11877c0 -10 14 -18 41 -22 22 -4 43 -14 46 -22 7 -17 -23 -422 -33 -447 -4 -11 -19 -16 -50 -16s-44 -4 -44 -14c0 -17 32 -23 173 -32 91 -5 107 -4 107 9 0 9 -14 17 -39 21 -22 3 -43 10 -46 16 -8 13 24 417 36 447 7 19 16 23 48 23 24 0 41 5 44 14 4 11 -12 15 -71 20 -42 4 -107 9 -144 13 -57 5 -68 3 -68 -10"/><path d="M5190 11854c-63 -7 -116 -13 -117 -13 -2 -1 -3 -8 -3 -16 0 -11 11 -15 40 -15 27 0 42 -5 48 -17 6 -10 17 -97 26 -193s18 -192 20 -212c4 -42 -4 -53 -51 -63 -20 -4 -33 -13 -33 -22 0 -12 8 -14 43 -10 23 4 78 9 122 12 44 4 88 9 97 11 31 9 8 33 -35 36 -47 3 -49 8 -62 144l-7 74h40c39 0 44 -4 145 -118l105 -118 43 4c24 1 54 5 67 8 30 6 29 34 -2 34 -18 0 -51 29 -126 107 -89 95 -100 109 -84 118 10 5 35 26 57 45 52 47 61 107 25 160 -13 19 -35 40 -48 47 -31 16 -157 15 -310 -3m208 -29c96 -39 94 -160 -4 -201 -37 -16 -110 -19 -118 -5 -3 5 -9 54 -12 109l-7 100 29 5c56 8 74 7 112 -8"/><path d="M6772 11818c-19 -6 -55 -31 -81 -54 -115 -103 -134 -303 -41 -416 71 -86 221 -118 320 -68 64 32 103 70 89 87 -9 10 -17 8 -40 -11 -103 -87 -252 -67 -305 41 -63 132 10 359 127 394 82 25 168 -27 195 -117 22 -78 40 -70 48 23 3 42 4 78 2 80s-30 13 -62 25c-68 24 -202 33 -252 16"/><path d="M4815 11795c-49 -13 -138 -33 -197 -45 -74 -16 -108 -27 -108 -36 0 -10 13 -14 39 -14 22 0 42 -3 45 -8 6 -10 83 -378 88 -417 3 -26 -2 -32 -35 -49 -27 -13 -35 -22 -28 -29s74 3 221 33l210 43V11352c0 70 -2 78 -19 78 -15 0 -20 -10 -25 -50 -4 -29 -15 -59 -25 -69 -18 -18 -79 -36 -167 -48l-41 -5 -17 73c-9 41 -19 93 -23 116L4728 11488l56 7c65 8 86 3 93 -25 3 -11 14 -20 24 -20 16 0 18 5 12 28 -3 15 -12 52 -18 82 -7 38 -16 56 -28 58 -13 3 -17 -4 -17 -28 0 -26 -6 -33 -34 -45 -19 -8 -49 -16 -67 -17l-33 -3 -20 98c-12 61 -16 101 -10 106 5 5 44 15 86 22 91 15 115 7 144 -47 19 -34 29 -41 38 -26 6 10 -35 143 -44 141 -3 -1 -45 -12 -95 -24"/><path d="M7217 11746c-4 -10 5 -18 29 -26 27 -9 34 -17 34 -37 0 -19 -66 -273 -107 -415 -4 -14 -16 -18 -49 -18 -29 0 -44 -4 -44 -13 0 -8 72 -32 203 -67 111 -29 207 -55 212 -57 10 -3 65 110 65 134 0 28 -27 16 -52 -23 -16 -26 -37 -46 -53 -50 -28 -7 -191 32 -201 48 -3 5 7 56 22 113 31 116 31 116 105 90 49 -18 59 -29 59 -67 0 -56 25 -27 47 55 25 92 17 123 -19 75 -14 -21 -28 -28 -52 -28 -36 0 -96 18 -96 29 0 12 47 179 54 189 4 7 28 4 70 -8 106 -30 123 -44 134 -111 10 -61 28 -60 36 3 4 29 9 63 12 74 5 20 0 23 -48 33 -29 6 -119 29 -199 51 -81 22 -149 40 -152 40s-7 -6 -10 -14"/><path d="M4285 11673c-140 -31 -215 -99 -215 -193 0 -55 23 -102 62 -124 28 -17 75 -23 274 -35 27 -2 54 -43 54 -82 0 -51 -38 -92 -99 -109 -58 -15 -103 1 -157 58 -62 64 -75 47 -38 -47l28 -72 60 7c182 18 276 86 276 198 0 33 -7 62 -20 83 -34 56 -59 66 -199 73 -129 7 -164 16 -175 46 -11 28 -6 69 10 93 19 26 87 60 122 61 35 0 79 -27 105 -64 16 -24 27 -32 36 -27 11 7 9 21 -9 75 -22 66 -22 66 -58 65 -20 -1 -46 -3 -57 -6"/><path d="M7837 11546c-70 -26 -107 -78 -107 -154 0 -46 38 -95 134 -171 71 -57 92 -93 77 -134 -34 -88 -190 -77 -235 17 -9 19 -16 56 -16 84 0 36 -4 52 -15 56 -17 6 -16 8 -45 -84l-20 -65 23 -17c12 -10 55 -34 95 -55 130 -66 244 -46 291 51 41 84 21 139 -80 222 -86 70 -129 119 -129 145 0 11 13 34 29 50 36 35 85 39 145 9 52 -25 69 -53 70 -115 2 -73 26 -72 49 2 10 32 20 63 23 70 7 15 -72 61 -147 84 -71 22 -91 23 -142 5"/><path d="M3503 11372c-51 -26 -93 -53 -93 -60 0 -10 7 -12 23 -8 79 23 67 32 152 -134 42 -83 74 -154 72 -156 -3 -3 -98 47 -211 111L3240 11240l-71 -35c-41 -21 -68 -41 -66 -48 3 -7 11 -10 18 -8 8 3 28 5 44 5 29 1 33 -5 112 -159 45 -88 90 -180 99 -204l18 -44 -34 -27c-19 -15 -30 -32 -26 -38 5 -8 40 5 109 39 118 59 114 56 100 70 -7 7 -22 6 -49 -6 -21 -8 -44 -13 -51 -11 -12 5 -188 346 -178 346 8 0 383 -208 425 -236 33 -22 45 -25 64 -16 23 10 22 11 -93 242l-116 232 33 27c29 25 43 52 25 50 -5 0 -50 -21 -100 -47"/><path d="M8590 11248c0 -6 14 -24 32 -38l32 -27 -64 -114c-124 -220 -123 -218 -123 -273 0 -86 44 -144 143 -190 62 -29 127 -33 168 -12 43 23 74 62 160 207 45 75 88 142 96 148 12 10 21 9 46 -4 23 -12 35 -14 43 -6 14 14 18 10 -92 75 -68 40 -97 52 -102 44s5 -23 26 -41c19 -16 35 -33 35 -38 0 -24 -149 -268 -191 -311 -52 -55 -85 -61 -154 -29 -74 34 -109 93 -94 159 8 37 131 257 170 305l27 32 35 -17c28 -14 38 -14 46 -4 8 9 -16 28 -105 79 -119 69 -134 75 -134 55"/><path d="M8270 11111c-23 -43 1 -81 51 -81 38 0 58 37 41 75 -15 32 -75 36 -92 6"/><path d="M2744 10966c-3 -7 18 -124 45 -260 28 -136 51 -260 51 -275 0 -16 -9 -40 -20 -54 -13 -17 -17 -28 -10 -32 14 -9 181 96 176 110 -3 10 -11 10 -68 -2 -23 -4 -29 -1 -38 23 -6 15 -13 46 -17 69l-5 42 80 51c45 29 85 52 89 52 15 0 103 -81 103 -95 0 -7 -12 -23 -26 -34 -16 -12 -24 -27 -21 -36 5 -11 31 2 117 57 60 39 110 77 110 85 0 15 -26 18 -35 3 -16 -25 -65 0 -255 131 -113 78 -214 150 -226 160 -24 22 -43 24 -50 5m152 -177c46 -34 84 -65 84 -70s-28 -27 -62 -49c-56 -36 -78 -47 -78 -36 0 2 -9 48 -20 101 -22 106 -23 115 -14 115 3 0 44 -28 90 -61"/><path d="M9190 10801c-19 -10 -45 -33 -57 -51 -42 -60 -26 -132 52 -240 50 -70 66 -107 59 -136 -7 -28 -57 -64 -89 -64 -38 1 -104 39 -125 72 -22 36 -27 109 -10 154 8 21 8 29 -2 36 -20 12 -20 12 -65 -62l-41 -69 78 -75c88 -84 155 -114 226 -100 46 9 109 64 124 110 17 50 6 82 -71 200 -38 59 -69 118 -69 131 0 34 42 73 80 73 45 0 92 -23 123 -59 30 -36 35 -76 16 -131 -9 -25 -9 -34 1 -40 8 -5 26 12 56 54l43 61 -58 56c-98 95 -192 123 -271 80"/><path d="M2336 10664c-56 -48 -75 -71 -71 -83 85 -217 155 -406 153 -412 -2 -4 -92 44 -201 108l-198 114 -79 -66c-50 -42 -77 -72 -73 -81 7 -18 6 -18 49 11l37 25 25 -22c35 -33 274 -311 280 -326 2 -7 -10 -29 -28 -47 -28 -29 -31 -35 -17 -41 12 -4 39 13 89 57 40 35 77 67 83 71 5 5 5 12 -2 19s-20 4 -43 -10c-32 -19 -34 -19 -56 -2 -29 23 -283 315 -279 320 2 2 104 -54 225 -124l222 -128 20 20 20 20 -92 237c-51 131 -90 239 -88 241s62 -64 133 -148c188 -219 171 -189 134 -231 -25 -29 -28 -37 -15 -42 20 -8 221 165 207 179 -6 6 -22 2 -44 -12 -19 -11 -39 -21 -44 -21 -14 0 -303 334 -303 351 0 4 11 21 25 37 25 30 32 52 17 52 -5 0 -43 -30 -86 -66"/><path d="M9615 10302c-229 -114 -291 -136 -319 -112 -15 12 -36 6 -36 -9 0 -5 34 -39 76 -76 56 -50 78 -65 86 -57 9 9 6 18 -11 36 -33 35 -24 57 40 91L9508 10204l71 -63c39 -35 71 -70 71 -80 0 -28 -48 -121 -63 -121 -8 0 -26 10 -41 21 -21 17 -30 19 -39 10 -9 -10 -2 -21 30 -49 23 -20 69 -61 102 -90 58 -51 89 -57 57 -10 -9 12 -16 30 -16 40 0 19 148 432 176 491 16 32 16 39 3 51 -12 11 -50 -5 -244 -102m119 -39c-14 -38 -34 -88 -45 -112l-19 -43 -57 52c-32 29 -59 56 -61 61 -3 7 181 107 200 108 4 1 -4 -29 -18 -66"/><path d="M10330 10357c0 -2 -13 -57 -30 -121 -52 -207 -155 -388 -332 -586 -107 -120 -515 -474 -1678 -1455 -404 -340 -773 -653 -820 -695 -47 -41 -179 -151 -293 -244 -274 -222 -433 -363 -541 -477 -76 -81 -97 -112 -151 -219 -172 -344 -254 -664 -370 -1445 -47 -318 -62 -351 -185 -416l-45 -23 -645 -8c-690 -9 -759 -14 -865 -62 -27 -12 -77 -49 -110 -82 -101 -100 -151 -232 -162 -427 -7 -132 3 -171 43 -175 28 -3 32 1 43 38 16 55 71 113 129 138 45 18 84 20 752 30 755 12 807 16 933 67 204 82 437 288 537 476 53 100 69 165 120 481 78 483 130 718 217 971 95 278 175 382 499 642 88 72 747 623 1465 1226 1092 919 1329 1122 1459 1255 273 279 359 451 348 697 -3 85 -8 103 -42 171 -41 85 -115 167 -186 208 -45 25 -90 43 -90 35"/><path d="M1787 10177c-15 -18 -48 -56 -74 -85 -31 -36 -43 -56 -36 -63s20 -2 41 15c16 14 37 26 45 26 26 0 258 -215 283 -262 30 -57 12 -121 -50 -176 -47 -41 -85 -48 -138 -24 -42 18 -274 221 -285 248 -3 7 5 29 16 48 16 25 18 36 10 42 -11 7 -97 -78 -165 -163 -34 -42 -22 -62 18 -28 16 14 35 25 43 25 7 0 68 -49 136 -110 134 -119 185 -150 242 -150 109 0 231 122 231 231 0 66 -28 103 -178 240 -69 62 -126 120 -126 127 0 8 9 27 21 43 18 26 19 50 1 48 -4 0 -20 -15 -35 -32"/><path d="M1311 9629c-90 -124 -124 -180 -115 -189 7 -7 20 0 39 20 16 16 34 30 40 30 17 0 155 -99 155 -111 0 -16 -130 -199 -142 -199 -17 0 -158 102 -158 114 1 6 7 22 15 36 18 31 19 50 3 50 -14 0 -158 -201 -158 -219 0 -20 28 -11 44 14 9 14 25 25 35 25 15 0 233 -145 357 -237l29 -21 -18 -36c-20 -43 -21 -56 -4 -56 13 0 157 201 157 219 0 20 -28 11 -44 -14 -9 -14 -24 -25 -34 -25 -22 0 -182 108 -182 123 1 18 134 201 145 199 23 -4 175 -118 175 -132 0 -9 -7 -26 -16 -38 -9 -13 -13 -30 -10 -39 6 -15 9 -15 25 3 45 48 151 213 140 219 -6 4 -26 -8 -45 -26l-34 -33L1632 9360c-193 133 -302 214 -302 223 0 5 9 24 20 42 18 28 18 34 5 39 -10 4 -25 -8 -44 -35"/><path d="M11055 9548c-19 -168 -96 -315 -249 -477 -95 -101 -1226 -1084 -1911 -1661 -407 -343 -774 -653 -815 -690 -41 -36 -142 -122 -225 -190 -274 -226 -421 -395 -494 -566 -69 -162 -165 -654 -201 -1024l-12 -126 48 -79c44 -72 49 -86 49 -140 0 -71 -21 -112 -114 -225 -85 -105 -174 -271 -179 -337 -4 -48 -2 -55 27 -83l31 -31 124 3c121 3 125 2 151 -22 33 -31 29 -62 -16 -131 -43 -67 -48 -111 -17 -142 14 -14 42 -27 66 -31 50 -8 65 -31 35 -55 -12 -9 -24 -26 -28 -39 -9 -31 35 -88 74 -97 40 -9 78 -48 84 -88 3 -17 1 -69 -4 -115 -11 -99 -2 -141 42 -201 67 -93 205 -119 466 -87 174 21 253 20 347 -4 168 -43 251 -102 302 -215 36 -78 39 -186 7 -257 -43 -94 -173 -212 -488 -443 -44 -32 -119 -98 -167 -146 -71 -72 -95 -105 -133 -181 -40 -82 -46 -103 -52 -178 -16 -235 106 -478 285 -569 219 -111 452 -82 740 92 87 52 322 215 322 222 0 18 -27 55 -40 55 -9 0 -50 -11 -91 -25 -96 -33 -170 -40 -255 -26 -183 32 -293 137 -354 340 -18 58 -22 90 -18 160 6 119 43 197 142 296 76 75 117 104 381 277 201 131 322 243 376 348 32 61 33 71 34 170 0 121 -16 163 -84 222 -122 104 -265 127 -587 92 -167 -18 -311 -14 -391 11 -80 24 -174 92 -200 145 -25 47 -31 137 -14 195 12 42 0 67 -48 98 -36 24 -41 32 -41 66 0 22 6 44 15 51 26 22 18 40 -19 40 -92 0 -125 48 -109 160 6 49 6 76 -1 85 -16 21 -73 42 -136 50 -68 9 -99 21 -127 47 -49 46 -45 60 91 305 149 267 149 270 85 377 -75 125 -73 105 -33 363 53 344 93 500 166 647 82 167 59 145 1003 945 1622 1374 2169 1848 2300 1993 27 29 69 85 95 124 113 172 131 393 43 529 -68 105 -207 235 -250 235 -18 0 -22 -8 -28 -62"/><path d="M976 8660c-21 -45 -35 -84 -32 -87 4 -4 19 1 35 10 27 16 30 16 54 -3 26 -21 72 -88 65 -95 -5 -6 -167 -25 -209 -25 -36 0 -37 1 -44 47C836 8572 796 8610 740 8610c-34 0 -48 -6 -70 -30 -36 -39 -54 -92 -45 -136 9 -50 52 -74 133 -74 61 0 62 0 62 -27 0 -73 43 -148 101 -178 15 -8 50 -15 77 -15 99 0 167 82 165 200l-1 66 44 23c50 27 78 82 72 146 -4 55 -23 54 -34 -1 -10 -50 -36 -77 -86 -88 -21 -5 -28 -2 -33 14 -3 11 -25 47 -47 81 -31 46 -42 73 -42 102 -1 22 -6 42 -12 44s-28 -33 -48 -77m-205 -120c18 -10 49 -59 49 -79 0 -13 -63 -25 -94 -17 -49 12 -73 65 -44 94 15 15 63 16 89 2m353 -188c-1 -62 -43 -103 -113 -110 -29 -2 -63 1 -81 8 -42 17 -80 65 -80 101 0 29 0 29 63 30 34 0 85 4 112 9 28 4 61 7 75 6 23 -1 25 -5 24 -44"/><path d="M379 7840c-28 -102 -33 -130 -22 -134 8 -3 18 8 28 29 8 20 21 38 29 41 17 7 174 -34 182 -48 4 -5 -8 -61 -26 -124 -26 -91 -36 -114 -51 -114 -10 0 -55 12 -100 26l-81 26 5 43c5 31 3 45 -7 48 -10 4 -23 -28 -50 -122 -41 -144 -40 -141 -23 -141 7 0 21 16 30 35 12 25 23 35 40 35 29 0 409 -108 421 -120 4 -4 7 -27 4 -49 -3 -32 0 -41 12 -41 11 0 25 36 51 130 31 112 34 130 19 130 -9 0 -21 -14 -29 -35 -9 -25 -18 -35 -33 -35 -31 0 -181 42 -194 54 -9 8 -4 40 21 124 18 62 35 116 38 119 4 3 52 -10 109 -28l103 -34v-44c0 -45 19 -67 29 -34 40 137 66 233 66 242 0 22 -30 11 -36 -13 -3 -14 -13 -31 -22 -39 -15 -13 -36 -10 -192 33 -273 75 -255 67 -255 123 0 35 -4 47 -15 47s-25 -36 -51 -130"/><path d="M10851 7838c-109 -161 -212 -261 -541 -523 -118 -94 -240 -194 -270 -222 -30 -27 -377 -321 -770 -651 -393 -331 -747 -632 -787 -670 -60 -58 -79 -85 -121 -173 -76 -157 -138 -438 -149 -664l-5 -120 37 -70c53 -100 43 -140 -71 -307 -61 -89 -80 -146 -68 -197 15 -58 47 -73 151 -72 74 1 93 -2 105 -16 24 -28 27 -46 16 -101 -15 -86 3 -107 111 -131 2 -1 -4 -13 -14 -27 -24 -37 -13 -63 48 -110l54 -42 -1 -98c0 -83 3 -107 22 -150 43 -95 95 -125 247 -144 138 -17 279 6 550 89 255 78 290 85 420 84 164 0 239 -24 545 -173 281 -136 328 -154 447 -175 196 -34 369 -9 547 79 61 30 143 79 181 108 110 83 368 349 353 363 -3 3 -82 0 -177 -7 -248 -17 -366 -4 -581 62 -393 122 -575 155 -795 147 -163 -6 -323 -42 -484 -109C9526 3683 9490 3672 9360 3664c-150 -10 -197 23 -221 156 -7 39 -17 74 -23 79s-37 16 -69 25c-70 20 -89 48 -68 99 28 71 28 71 -18 63 -36 -5 -45 -3 -66 18 -22 22 -25 34 -25 91 0 74 -20 105 -67 105s-102 20 -113 40c-23 43 -14 84 45 196 67 128 73 172 40 284 -25 85 -26 265 -1 365 22 93 85 218 141 282 37 42 748 642 1520 1283 253 210 476 446 542 574 46 89 56 242 24 368 -17 67 -84 218 -96 218 -2 0 -27 -33 -54 -72"/><path d="M206 7133C191 7040 172 6940 165 6910c-8 -30 -13 -55 -12 -56 2 -2 64 -19 126 -35 8 -2 16 3 18 12 3 11 -11 26 -40 42 -25 15 -47 33 -50 40 -4 12 9 106 16 113 6 6 452 -78 464 -88 10 -8 12 -23 8 -48 -5 -29 -3 -39 9 -43 9 -4 16 -5 16 -3 0 5 40 231 45 252 3 14 -1 24 -10 28 -10 4 -18 -6 -25 -35 -6 -22 -17 -43 -25 -46s-117 12 -241 33l-226 39 6 48c7 64 17 74 82 87 32 7 54 17 54 24 0 14 -50 26 -111 26h-36z"/><path d="M547 6784c-13 -14 -7 -22 38 -49 69 -40 79 -61 71 -152 -3 -43 -10 -81 -14 -85 -8 -8 -327 15 -422 30 -44 7 -45 8 -48 50q-3 42 -18 42c-8 0 -14 -1 -15 -2 -1 -2 -6 -58 -13 -125 -9 -100 -9 -124 2 -128 13 -5 16 0 26 48 6 25 9 27 62 27 92 0 398 -31 412 -42 6 -6 12 -26 12 -44 0 -24 5 -34 15 -34 8 0 15 5 15 11 0 14 28 342 34 390l4 36 -64 12c-35 6 -69 14 -77 16 -7 3 -16 2 -20 -1"/><path d="M634 6271c-4 -17 -14 -36 -23 -44 -16 -15 -404 -184 -474 -206 -29 -10 -37 -18 -35 -33 2 -16 50 -37 253 -114 249 -93 285 -113 285 -155 0 -10 7 -19 15 -19 12 0 15 18 15 105s-3 105 -15 105c-8 0 -15 -9 -15 -21 0 -29 -18 -59 -35 -59 -24 0 -110 32 -117 44 -4 6 -8 53 -8 103v93l38 16c20 9 53 18 73 21 36 5 37 5 44 -36 4 -25 12 -41 21 -41 11 0 14 25 14 135 0 114 -2 135 -15 135 -9 0 -18 -12 -21 -29m-192 -302c2 -45 1 -82 -2 -84 -5 -2 -211 73 -218 80 -4 3 189 83 205 84 8 1 13 -26 15 -80"/><path d="M530 5640c0 -14 7 -20 24 -20 40 0 83 -20 94 -45 13 -28 35 -182 28 -194 -7 -10 -211 -35 -224 -27 -14 8 -22 98 -10 119 5 10 21 22 34 28 14 5 24 15 21 22 -4 14 2 14 -99 3 -84 -9 -102 -26 -49 -44 16 -6 34 -19 39 -29 14 -27 23 -101 14 -107 -19 -11 -195 -27 -203 -19 -5 5 -12 46 -16 91 -7 92 2 112 64 138 20 9 30 19 27 27 -4 12 -17 11 -78 -1l-74 -14 8 -30c5 -16 19 -110 31 -209 16 -131 26 -179 36 -179 8 0 13 12 13 34 0 18 6 39 14 45 7 6 111 23 231 37 210 25 219 25 232 8 7 -10 13 -26 13 -35 0 -24 19 -34 26 -14 6 15 -28 352 -41 413 -5 20 -11 22 -80 22 -68 0 -75 -2 -75 -20"/><path d="M717 5183c-4 -3 -7 -25 -7 -49V5092l-77 -20c-43 -11 -142 -35 -220 -53 -156 -34 -166 -33 -178 22 -7 31 -22 38 -31 15 -10 -25 50 -250 67 -254 12 -2 15 7 15 45l-1 48 90 23c77 19 92 20 100 8 17 -23 59 -226 49 -235 -10 -10 -142 -41 -173 -41 -15 0 -23 11 -32 40 -7 22 -16 40 -20 40 -20 0 -19 -31 8 -146 22 -96 32 -124 44 -124 14 0 16 8 12 44 -6 52 -19 47 232 106 214 50 222 50 241 5 8 -19 21 -35 30 -35s14 6 11 13c-2 6 -17 67 -32 135 -30 128 -48 151 -53 69 -3 -44 -5 -47 -40 -56 -114 -30 -173 -43 -178 -39 -9 10 -55 213 -52 232 2 15 19 23 78 37 127 30 132 30 153 -13 10 -21 26 -38 34 -38s13 6 10 13c-2 6 -17 67 -32 135 -27 116 -33 131 -48 115"/><path d="m513 4127 -61 -32 16 -30c9 -16 45 -102 82 -189 67 -164 97 -208 85 -124 -6 41 -5 45 22 57 63 30 389 161 400 161 7 0 19 -13 28 -30 14 -28 45 -42 45 -21 0 5 -21 59 -46 120 -30 71 -52 111 -61 111 -11 0 -14 -6 -9 -22 22 -78 27 -71 -83 -116 -56 -23 -104 -42 -107 -42 -9 0 -44 84 -44 107 0 12 11 30 24 41 14 10 21 24 17 30 -10 16 -171 -46 -164 -64 2 -7 21 -14 41 -16 31 -3 39 -9 59 -48 12 -25 22 -51 20 -58 -2 -13 -157 -82 -183 -82 -16 0 -64 122 -64 164 0 26 8 41 36 65 19 17 32 36 29 41 -9 14 -13 13 -82 -23"/><path d="M3750 3849c-165 -23 -304 -142 -366 -314 -30 -81 -43 -207 -24 -230 21 -25 46 -17 75 25C3472 3384 3550 3421 3638 3428c265 18 1359 -297 2217 -640 465 -186 1103 -492 1292 -619 58 -40 129 -113 159 -165 24 -41 26 -52 22 -122 -3 -46 -14 -95 -26 -122 -30 -69 -120 -168 -317 -350 -217 -201 -282 -277 -340 -395 -52 -109 -65 -166 -65 -293 0 -81 5 -111 29 -179 60 -172 163 -298 299 -367 94 -47 176 -66 292 -66 194 0 383 66 645 225 142 86 139 82 113 123l-20 33 -62 -8c-373 -48 -641 162 -689 538 -15 119 0 207 53 314 51 104 111 170 289 319 204 172 300 275 353 383 35 70 43 98 46 154 4 60 0 76 -26 131 -57 120 -114 166 -407 326 -260 142 -872 408 -1350 587 -582 218 -1456 489 -1807 561 -303 61 -437 73 -588 53"/><path d="M943 3749c-66 -25 -145 -96 -173 -154 -32 -66 -30 -149 5 -220 67 -138 221 -181 374 -104C1252 3322 1320 3424 1320 3525c0 93 -82 208 -166 233 -61 18 -151 14 -211 -9m293 -102c83 -90 19 -213 -154 -295 -89 -42 -178 -50 -225 -19 -36 23 -67 74 -67 110 0 67 73 153 172 203 77 39 96 44 172 41 65 -3 70 -5 102 -40"/><path d="M1615 3041c-3 -6 4 -25 15 -43s20 -36 20 -40c0 -8 -352 -276 -373 -284 -16 -6 -67 63 -67 91 0 10 11 37 25 61 19 32 22 44 12 52 -9 7 -27 -4 -66 -40l-54 -49 25 -27c34 -37 204 -265 229 -306l20 -34 56 34c31 19 60 34 65 34 10 0 10 11 0 27 -6 10 -19 9 -57 -2 -27 -9 -56 -13 -66 -10 -25 8 -74 84 -63 95 32 32 361 270 374 270 8 0 26 -13 40 -30 18 -22 29 -27 39 -21 12 8 -2 32 -69 120 -46 61 -87 111 -91 111s-10 -4 -14 -9"/><path d="M1850 2568c-172 -164 -270 -248 -288 -248 -10 0 -28 10 -41 21 -16 15 -26 18 -33 11 -8 -8 11 -35 62 -91 40 -45 76 -81 81 -81 20 0 18 23 -5 51 -14 17 -26 34 -26 39 0 11 254 251 257 242 1 -4 -21 -110 -51 -237l-53 -230L1804 1990c51 -55 76 -71 76 -50 0 7 -9 25 -21 41 -21 29 -21 31 -3 51 34 38 309 290 322 295 7 3 24 -5 37 -17 15 -14 30 -20 40 -16 14 5 3 22 -55 86 -82 91 -88 96 -101 83 -5 -5 4 -26 23 -52l31 -43 -99 -95c-54 -52 -121 -112 -147 -135 -43 -37 -48 -38 -43 -17 3 13 26 114 51 224 24 110 50 219 57 242 9 33 9 45 -1 57 -8 9 -16 16 -20 16 -3 -1 -49 -42 -101 -92"/><path d="M2260 2214c-30 -26 -54 -48 -53 -51 1 -2 3 -9 6 -16 3 -8 19 -4 56 15 28 14 60 24 70 21C2360 2178 2500 2063 2500 2052c0 -8 -138 -166 -149 -170 -4 -1 -26 14 -49 34 -43 36 -50 60 -31 96 8 15 8 22 -1 28 -16 10 -132 -121 -119 -135 6 -6 16 -5 29 3 33 20 59 14 102 -27l42 -39 -68 -76c-38 -42 -71 -76 -73 -76 -13 0 -116 97 -129 121 -12 24 -12 33 1 69 18 52 19 60 3 59 -7 0 -32 -26 -55 -59l-42 -58L2000 1796c21 -14 95 -75 163 -135 90 -79 127 -107 135 -99s4 19 -13 40c-14 16 -25 33 -25 36 0 9 269 320 293 340 14 12 21 11 47 -8 27 -19 50 -20 50 -1 0 7 -315 284 -328 288 -4 2 -32 -18 -62 -43"/><path d="M2650 1938c0 -7 14 -25 31 -39 29 -23 30 -28 19 -50 -17 -32 -240 -358 -250 -364 -4 -2 -23 5 -44 16 -35 18 -56 18 -56 0 0 -4 39 -34 86 -65l85 -57 142 102c78 57 163 118 190 137 26 19 47 30 47 26 0 -8 -81 -316 -105 -397l-14 -47 89 -60c63 -42 90 -55 93 -46 3 8 -8 27 -24 42 -18 17 -28 36 -26 46C2920 1208 3152 1541 3168 1548c8 3 30 -3 49 -13 23 -13 37 -15 44 -8s-9 24 -53 55c-135 95 -128 91 -134 74 -4 -9 5 -25 22 -40 25 -21 27 -28 19 -50 -11 -30 -235 -359 -240 -354 -2 2 25 113 61 246 67 249 69 272 27 272 -8 0 -101 -62 -206 -138 -218 -157 -224 -161 -212 -141 25 43 237 349 245 354 5 3 25 -2 44 -12 26 -12 39 -14 47 -6 7 7 -22 33 -100 87 -113 77 -131 86 -131 64"/><path d="M3374 1479c-4 -7 9 -25 31 -44l38 -32L3336 1194c-59 -115 -109 -210 -111 -212 -5 -6 -81 36 -95 52 -9 12 -11 32 -6 70 5 43 3 55 -10 60 -10 4 -18 -3 -25 -22 -5 -15 -18 -45 -27 -67L3044 1036l175 -89C3316 897 3408 848 3424 837c21 -15 31 -17 34 -9 2 7 19 36 38 63 19 28 31 55 28 60 -9 16 -30 10 -55 -17 -42 -46 -57 -49 -110 -23 -27 12 -49 26 -49 31 0 13 200 391 215 407 12 12 20 12 54 -1 26 -11 43 -13 47 -6 9 14 3 18 -128 87 -80 42 -119 58 -124 50"/><path d="M3674 1319c-3 -6 3 -19 15 -30 21 -19 23 -28 61 -179 12 -47 23 -93 26 -102 5 -15 -1 -18 -36 -18 -130 0 -196 -144 -105 -230 21 -20 320 -150 344 -150 22 0 10 25 -19 42 -17 9 -30 24 -30 33 0 18 142 372 162 405 13 20 23 21 79 4 9 -2 19 2 22 10 7 19 -234 120 -245 102 -5 -6 -1 -15 8 -21 9 -5 26 -17 37 -26l21 -17 -38 -97c-37 -93 -39 -96 -65 -90 -14 3 -31 12 -37 18 -7 7 -24 71 -39 142 -35 172 -31 163 -73 181 -74 32 -81 33 -88 23M3839 940c18 -5 44 -16 56 -24l23 -15L3880 808c-21 -51 -43 -94 -49 -96 -23 -8 -81 21 -111 54 -37 43 -41 98 -9 138 34 43 69 53 128 36"/><path d="M4210 1098c0 -7 13 -21 30 -30 16 -9 32 -27 34 -40 9 -40 56 -464 56 -506 0 -30 4 -41 18 -44 15 -4 45 29 133 145 224 296 225 297 264 297 30 0 54 14 43 26 -8 7 -171 54 -190 54 -29 0 -20 -25 12 -37 45 -17 47 -37 9 -93 -40 -59 -47 -60 -157 -25l-79 25L4376 928c-10 84 -3 96 51 88 33 -4 43 -2 43 9 0 7 -8 16 -17 19 -119 34 -232 66 -237 66 -3 0 -6 -6 -6 -12m267 -296c34 -9 63 -21 64 -26 1 -4 -29 -49 -67 -100l-69 -91 -6 65c-11 114 -10 170 4 170 6 0 40 -8 74 -18"/><path d="M4934 918c-9 -14 4 -25 37 -32 56 -11 58 -16 39 -121 -10 -53 -20 -98 -23 -101 -2 -3 -35 0 -72 7 -109 19 -189 -4 -225 -64 -42 -68 -15 -159 58 -196 21 -11 111 -33 198 -50 186 -36 174 -35 174 -18 0 8 -18 21 -40 30 -32 12 -40 20 -40 41 0 42 72 410 82 424 6 6 28 12 49 12 26 0 39 5 39 13 0 15 -268 69 -276 55m39 -297c11 -11 -23 -202 -38 -220 -18 -18 -113 10 -144 43 -48 51 -19 162 49 189 19 8 122 -1 133 -12"/><path d="M5269 803c-17 -84 -17 -85 -2 -90 7 -3 20 13 30 34 30 65 40 73 102 73 31 0 80 -3 109 -6l52 -7 -6 -81c-4 -45 -9 -97 -13 -116l-7 -35 -49 4c-67 4 -85 15 -85 51 0 23 -4 30 -20 30 -17 0 -20 -7 -20 -44 0 -24 -3 -64 -6 -90 -8 -55 11 -63 38 -16 16 28 21 30 77 30 33 0 62 -3 64 -7 6 -12 -12 -197 -21 -204 -4 -3 -42 -3 -86 2 -92 9 -121 29 -131 91 -11 65 -30 40 -33 -44 -3 -70 -1 -76 16 -72 10 3 99 -2 197 -10 99 -9 185 -16 192 -16 27 0 12 27 -19 36 -32 9 -33 12 -36 68 -3 59 25 393 34 408 3 4 23 8 45 8 27 0 39 4 39 14 0 16 -18 19 -225 36 -66 6 -143 13 -171 16l-52 5z"/><path d="M6054 830c-99 -9 -160 -36 -209 -93 -96 -112 -80 -318 33 -403 58 -45 109 -54 299 -54 166 0 173 1 173 20 0 17 -7 20 -40 20 -29 0 -42 5 -50 20 -7 12 -9 98 -8 237l3 218 43 9c24 5 42 15 42 22 0 16 -135 17 -286 4M6152 756c5 -22 7 -130 6 -240l-3 -201h-70c-94 0 -141 24 -175 91 -22 43 -25 61 -25 154 0 89 3 111 22 146 35 65 95 94 188 91 49 -2 49 -2 57 -41"/></g></svg>