<svg xmlns="http://www.w3.org/2000/svg" viewBox="25 215 475 70" width="500" height="74" aria-hidden="true" aria-labelledby="nih-logo-title"><title>National Institutes of Health logo</title><path fill="#646569" d="M143.939 239.738h3.609l8.912 14.381h.054v-14.381h3.253v19.518h-3.608l-8.883-14.352h-.083v14.352h-3.254zm27.612 12.44c-.957.629-2.465.6-3.828.847-1.34.218-2.542.708-2.542 2.352 0 1.392 1.775 1.802 2.868 1.802 1.372 0 3.501-.711 3.501-2.678v-2.323zm3.116 3.935c0 .763.164 1.065.739 1.065.189 0 .439 0 .765-.054v2.16c-.465.164-1.448.354-1.967.354-1.26 0-2.159-.436-2.406-1.72-1.232 1.202-3.227 1.72-4.896 1.72-2.545 0-4.838-1.365-4.838-4.126 0-3.528 2.814-4.102 5.438-4.403 2.244-.408 4.239-.162 4.239-1.994 0-1.613-1.669-1.913-2.927-1.913-1.748 0-2.977.708-3.117 2.241h-3.117c.218-3.638 3.31-4.704 6.426-4.704 2.763 0 5.659 1.122 5.659 4.103v7.271zm1.397-10.99h2.349v-4.233h3.117v4.233h2.817v2.323h-2.817v7.546c0 1.286.111 1.942 1.503 1.942.439 0 .875 0 1.314-.108v2.406c-.683.051-1.34.164-2.023.164-3.256 0-3.856-1.258-3.91-3.611v-8.339h-2.349zm10.06 0h3.114v14.135h-3.114zm0-5.383h3.114v2.952h-3.114zm16.457 12.437c0-2.432-1.23-4.976-4.02-4.976-2.788 0-4.018 2.544-4.018 4.976 0 2.46 1.23 5.001 4.018 5.001 2.79-.001 4.02-2.541 4.02-5.001m-11.152 0c0-4.319 2.595-7.435 7.132-7.435 4.539 0 7.138 3.116 7.138 7.435 0 4.346-2.599 7.463-7.138 7.463-4.537 0-7.132-3.117-7.132-7.463m16.322-7.054h2.951v2.08l.056.054c.929-1.558 2.541-2.516 4.4-2.516 3.063 0 5.005 1.641 5.005 4.811v9.704h-3.12v-8.883c-.054-2.215-.926-3.17-2.757-3.17-2.08 0-3.42 1.641-3.42 3.717v8.337h-3.115zm23.866 7.055c-.958.629-2.462.6-3.826.847-1.34.218-2.541.708-2.541 2.352 0 1.392 1.774 1.802 2.867 1.802 1.369 0 3.5-.711 3.5-2.678zm3.117 3.935c0 .763.164 1.065.737 1.065.192 0 .439 0 .767-.054v2.16c-.468.164-1.451.354-1.969.354-1.258 0-2.159-.436-2.402-1.72-1.233 1.202-3.231 1.72-4.899 1.72-2.542 0-4.838-1.365-4.838-4.126 0-3.528 2.817-4.102 5.443-4.403 2.239-.408 4.236-.162 4.236-1.994 0-1.613-1.669-1.913-2.926-1.913-1.749 0-2.978.708-3.118 2.241h-3.117c.218-3.638 3.31-4.704 6.426-4.704 2.76 0 5.659 1.122 5.659 4.103zm2.899-16.373h3.114v19.517h-3.114zm13.452 0h3.417v19.517h-3.417zm6.616 5.383h2.95v2.08l.056.054c.93-1.558 2.545-2.516 4.4-2.516 3.064 0 5.002 1.641 5.002 4.811v9.704h-3.114v-8.883c-.054-2.215-.928-3.17-2.76-3.17-2.08 0-3.42 1.641-3.42 3.717v8.337h-3.114zm17.495 9.597c.164 1.805 1.533 2.457 3.204 2.457 1.168 0 3.221-.243 3.138-1.859-.08-1.64-2.349-1.828-4.618-2.348-2.295-.491-4.534-1.312-4.534-4.183 0-3.088 3.332-4.046 5.902-4.046 2.898 0 5.522 1.203 5.903 4.346h-3.251c-.277-1.477-1.504-1.887-2.871-1.887-.904 0-2.57.218-2.57 1.448 0 1.532 2.295 1.75 4.591 2.272 2.269.517 4.564 1.338 4.564 4.128 0 3.361-3.388 4.591-6.313 4.591-3.553 0-6.205-1.587-6.257-4.919zm9.871-9.597h2.352v-4.233h3.119v4.233h2.812v2.323h-2.812v7.546c0 1.286.108 1.942 1.499 1.942.438 0 .879 0 1.312-.108v2.406c-.681.051-1.34.164-2.018.164-3.261 0-3.859-1.258-3.913-3.611v-8.339h-2.352zm10.062 0h3.117v14.135h-3.117zm0-5.383h3.117v2.952h-3.117zm4.539 5.383h2.352v-4.233h3.116v4.233h2.817v2.323h-2.817v7.546c0 1.286.108 1.942 1.502 1.942.436 0 .876 0 1.315-.108v2.406c-.686.051-1.343.164-2.026.164-3.253 0-3.853-1.258-3.907-3.611v-8.339h-2.352zm22.39 14.134h-3.061v-1.969h-.054c-.767 1.422-2.46 2.352-4.018 2.352-3.692 0-5.279-1.859-5.279-5.548v-8.969h3.12v8.668c0 2.488 1.007 3.387 2.703 3.387 2.596 0 3.474-1.663 3.474-3.851v-8.204h3.115zm1.312-14.134h2.352v-4.233h3.12v4.233h2.813v2.323h-2.813v7.546c0 1.286.108 1.942 1.502 1.942.436 0 .872 0 1.311-.108v2.406c-.681.051-1.34.164-2.023.164-3.252 0-3.856-1.258-3.91-3.611v-8.339h-2.352zm19.682 5.824c-.105-1.968-1.445-3.746-3.552-3.746-2.159 0-3.638 1.641-3.717 3.746zm-7.268 2.048c0 2.216 1.204 4.183 3.8 4.183 1.803 0 2.896-.791 3.445-2.349h2.954c-.686 3.089-3.312 4.811-6.399 4.811-4.426 0-6.914-3.091-6.914-7.435 0-4.02 2.621-7.467 6.831-7.467 4.456 0 7.187 4.02 6.67 8.256h-10.387zm14.574 1.725c.162 1.805 1.528 2.457 3.197 2.457 1.176 0 3.224-.243 3.143-1.859-.08-1.64-2.349-1.828-4.62-2.348-2.295-.491-4.537-1.312-4.537-4.183 0-3.088 3.334-4.046 5.904-4.046 2.898 0 5.522 1.203 5.905 4.346h-3.253c-.272-1.477-1.502-1.887-2.872-1.887-.899 0-2.57.218-2.57 1.448 0 1.532 2.298 1.75 4.595 2.272 2.27.517 4.566 1.338 4.566 4.128 0 3.361-3.392 4.591-6.316 4.591-3.552 0-6.203-1.587-6.257-4.919zm28.839-2.543c0-2.432-1.225-4.976-4.018-4.976-2.786 0-4.022 2.544-4.022 4.976 0 2.46 1.236 5.001 4.022 5.001 2.793-.001 4.018-2.541 4.018-5.001m-11.154 0c0-4.319 2.599-7.435 7.136-7.435 4.538 0 7.137 3.116 7.137 7.435 0 4.346-2.599 7.463-7.137 7.463s-7.136-3.117-7.136-7.463m14.93-7.054h2.322v-1.176c0-3.608 1.889-4.211 3.913-4.211.983 0 1.697.056 2.187.195v2.431c-.414-.11-.822-.164-1.45-.164-.848 0-1.531.301-1.531 1.477v1.448h2.653v2.323h-2.653v11.81h-3.119v-11.81h-2.322zm16.871-5.385h3.416v7.764h8.881v-7.764h3.417v19.518h-3.417v-8.802h-8.881v8.802h-3.416zm28.536 11.209c-.108-1.968-1.443-3.746-3.55-3.746-2.158 0-3.638 1.641-3.718 3.746zm-7.268 2.048c0 2.216 1.205 4.183 3.802 4.183 1.803 0 2.896-.791 3.441-2.349h2.955c-.686 3.089-3.31 4.811-6.396 4.811-4.429 0-6.916-3.091-6.916-7.435 0-4.02 2.624-7.467 6.832-7.467 4.457 0 7.191 4.02 6.669 8.256h-10.387zm20.943-.817c-.96.629-2.46.6-3.831.847-1.336.218-2.536.708-2.536 2.352 0 1.392 1.771 1.802 2.866 1.802 1.365 0 3.501-.711 3.501-2.678zm3.114 3.935c0 .763.167 1.065.74 1.065.19 0 .436 0 .765-.054v2.16c-.459.164-1.451.354-1.966.354-1.259 0-2.16-.436-2.406-1.72-1.232 1.202-3.231 1.72-4.894 1.72-2.546 0-4.839-1.365-4.839-4.126 0-3.528 2.816-4.102 5.437-4.403 2.241-.408 4.242-.162 4.242-1.994 0-1.613-1.67-1.913-2.927-1.913-1.754 0-2.981.708-3.117 2.241h-3.12c.222-3.638 3.31-4.704 6.427-4.704 2.764 0 5.658 1.122 5.658 4.103zm2.896-16.373h3.118v19.517h-3.118zm4.543 5.383h2.352v-4.233h3.115v4.233h2.816v2.323h-2.816v7.546c0 1.286.11 1.942 1.504 1.942.436 0 .878 0 1.311-.108v2.406c-.683.051-1.338.164-2.023.164-3.254 0-3.856-1.258-3.908-3.611v-8.339h-2.352zm9.979-5.385h3.118v7.242h.051c.767-1.284 2.384-2.241 4.241-2.241 3.063 0 5.003 1.641 5.003 4.811v9.706h-3.119v-8.883c-.054-2.216-.924-3.172-2.759-3.172-2.077 0-3.417 1.641-3.417 3.718v8.337h-3.118zm-361.306-5.193v31.061h-5.372V251.6H81.937v14.005h-5.371v-31.061h5.371v12.354h13.972v-12.354zm-30.089 31.061h-5.373v-31.061h5.373zm-10.667 0h-5.674l-13.969-22.84h-.129v22.84H35.64v-31.061h5.674l14.011 22.881h.086v-22.881h5.115v31.061zm59.688-15.636-18.984-34.712H31.318c-3.489 0-6.318 2.864-6.318 6.395v56.689c0 3.533 2.83 6.399 6.318 6.399h69.847z"/><path fill="#326297" d="m105.928 284.741 19.027-34.771-18.964-34.712h4.747c2.598 0 5.757 1.887 7.012 4.185l16.676 30.527-16.732 30.589c-1.261 2.3-4.416 4.182-7.014 4.182z"/></svg>