<svg width="235" height="81" viewBox="0 0 235 81" xmlns="http://www.w3.org/2000/svg" aria-labelledby="samhsa-logo-title"><title id="samhsa-logo-title">Substance Abuse and Mental Health Services Administration logo</title><g clip-path="url(#a)" ><path d="M145.231 16.343h13.689l5.108-12.826c.316-1.07.681-2.282-.618-2.799l.338-.69 10.1-.018c1.019.082 1.285.817 1.087 1.752l-15.488 39.947c-.167.835.334 1.824 1.249 1.856l-.225.748-10.537.01c-1.362-.137-1.601-.949-1.186-2.174l7.408-18.733h-13.581l-7.146 18.289c-.162.866.32 1.782 1.249 1.855l-.226.749-10.536.009c-.956-.096-1.515-.536-1.344-1.565l15.65-39.998c.189-.948.144-1.62-.834-2.037l.396-.712h9.942c.992.036 1.348.621 1.231 1.574zm62.004 16.987-6.064 8.434c-.406 1.152.347 1.733 1.411 1.8l-.225.75h-10.424c-.947-.178-1.087-1.135-.731-1.915 9.613-13.389 20.168-26.142 29.69-39.594.442-1.125.415-1.588-.775-2.087l.338-.69L233.796.02c.821.23 1.177.739 1.208 1.592l-4.508 40.056c.045.826.225 1.792 1.19 1.906l-.207.708-.271.054c-2.804-.195-5.897.236-8.666 0-1.194-.104-1.871-.653-1.893-1.905l.87-9.097h-14.284zm15.15-6.643 1.947-17.203-12.227 17.203z"/><path d="m204.742.01-1.93 5.3c-.609 1.256-1.961 1.978-3.323 2.1-3.197.295-6.822-.213-10.068 0s-5.613 3.466-5.23 6.688c.158 1.324 1.718 2.014 2.804 2.513 6.29 2.89 13.026 2.223 10.569 11.732-1.997 7.74-6.898 15.48-15.6 15.988-6.222.363-12.792-.286-19.054 0-1.195-.104-2.034-.676-1.533-1.987l3.228-8.239.96-.013c-.302 2.195.97 2.704 2.863 2.835 3.648.25 7.58-.195 11.259-.004 4.432-.264 9.351-7.618 4.346-10.472-3.832-2.186-11.317-1.81-11.867-7.767-.351-3.843 3.237-10.022 5.492-13.089 2.628-3.58 6.799-5.15 11.109-5.59h15.966zM92.1 44.327l2.164-30.488-13.842 27.938c-.148.817.325 1.674 1.177 1.792l-.158.649-.32.113c-2.813-.217-6.005.273-8.77-.009-2.777-.276-.698-3.303 0-4.682 6.196-12.322 13.08-24.313 19.158-36.69.176-.621.311-1.18-.112-1.737-.109-.254-.82-.223-.812-.495.01-.272.28-.744.595-.712h10.722c1.727.236 1.29 1.674 1.244 2.894-.275 7.822-.852 15.626-1.19 23.465l13.184-23.26c.437-1.103.631-1.865-.632-2.387l.321-.649 11.623-.045c.785.109 1.136.622 1.245 1.366l-5.294 40.056c-.054.572.023 1.515.501 1.892.139.109.568.195.59.304.059.277-.153.753-.491.698-2.908-.254-6.348.327-9.193-.018-.83-.1-1.389-.526-1.556-1.374 1.091-9.283 3.098-18.493 4.392-27.757.054-.386.175-.862.072-1.234L99.08 44.336H92.1zM45.786 33.33c-.117.308-.36.64-.559.907-1.587 2.123-3.918 4.854-5.22 7.05-.767 1.293-.357 2.128 1.126 2.278l-.225.748H30.484c-2.097-.753-.01-3.058.762-4.115 9.17-12.59 19.234-24.562 28.161-37.32.474-1.13.496-1.652-.74-2.16l.339-.69L72.343.02c.874.122 1.15.789 1.244 1.583L69.06 41.677c.086.822.203 1.788 1.182 1.897l-.208.708-.27.054c-2.805-.195-5.898.236-8.666 0-.78-.068-1.646-.381-1.772-1.266 0-3.257.564-6.488.749-9.736H45.79zm15.15-6.643 1.947-17.203-12.227 17.203z"/><path d="M43.515.01c-1.38 2.868-1.299 7.037-5.248 7.4-3.197.295-6.822-.213-10.069 0-2.768.182-4.73 2.296-5.216 4.986-.487 2.69.784 3.34 2.93 4.292 5.29 2.35 12.269 2.305 10.754 10.235-1.556 8.149-6.898 16.864-15.92 17.409-6.218.376-12.8-.295-19.054 0C.637 44.24-.238 43.81.068 42.58l3.319-8.475.96-.013C4 36.274 5.33 36.8 7.21 36.927c3.648.25 7.58-.195 11.259-.004 4.31-.209 9.26-7.563 4.481-10.39-4.107-2.427-12.115-1.819-12.11-8.72 0-3.22 4.274-10.997 6.488-13.397C19.682 1.866 24.14.21 27.549 0h15.966zm86.968 68.73c1.646-.372 1.506 2.01.131 1.783-.916-.154-.907-1.606-.131-1.783m-12.304 2.917 1.176.014.172.966c.928-1.443 3.354-1.565 4.112.11.252 0 .405-.432.599-.595 1.15-.976 3.026-.853 3.761.558.216.417.45 1.379.45 1.833v4.954h-1.514v-5.39c0-.64-.798-1.397-1.461-1.37-.591.027-1.461.925-1.461 1.479v5.281h-1.407v-5.172c0-.726-.667-1.624-1.461-1.588-.676.032-1.569 1.048-1.569 1.697v5.063h-1.406v-7.84zm-3.139-3.484h1.407l.108 11.324h-1.298v-1.089l-.762.808c-5.622 2.858-6.353-8.416-.924-7.659.55.078 1.113.45 1.469.862zm-.581 5.045c-.465-.458-1.046-.585-1.673-.4-1.866.55-1.921 4.864-.126 5.536 1.231.462 2.254-.531 2.38-1.742.104-.98.145-2.677-.581-3.394"/><path d="m101.298 79.497 3.251-10.884 1.569-.014 3.404 10.898h-1.515l-.97-3.217h-3.255l-.969 3.217zm5.41-4.465-1.406-4.682-1.191 4.682zM56.81 68.949l-.311 1.293c-1.19-.803-3.742-.73-3.688 1.143.054 1.874 3.666 1.937 4.306 4.17 1.055 3.66-3.368 5.126-5.911 3.434l.365-1.23c1.556 1.144 4.666.89 4.144-1.665-.352-1.71-4.072-1.574-4.306-4.264-.28-3.163 3.02-3.97 5.401-2.877zm119.991 2.626c5.871-.807 5.077 9.65-.491 7.953-3.35-1.02-3.089-7.458.491-7.953m1.718 1.534c-.392-.363-.938-.531-1.456-.4-2.516.631-2.011 6.411.744 5.758 1.821-.431 1.938-4.215.712-5.358m-13.81 6.388h-1.407c-.077-.077.144-.821-.108-.87-.059.344-.492.639-.794.78-2.205 1.047-4.179-.813-3.296-3.1.568-1.474 2.597-1.8 3.982-1.819.135-2.259-1.881-2.082-3.355-1.306l-.325-1.085c1.155-.499 2.706-.875 3.882-.267 2.178 1.12.916 5.685 1.416 7.663zm-1.515-3.92c-1.384-.1-3.224.413-2.764 2.183.234.898 1.249.948 1.934.521.888-.553.848-1.778.83-2.704m-75.422.327c-.036 2.517 2.231 3.144 4.22 2.177l.207 1.189c-1.492.454-3.363.717-4.644-.372-1.564-1.33-1.564-4.655-.32-6.207 1.326-1.647 4.085-1.633 4.996.413.324.73.618 2.074.248 2.8zm3.462-1.09c-.067-3.02-3.183-2.767-3.462 0zm-31.705 1.09c-.054 2.513 2.232 3.153 4.22 2.177l.212 1.193c-1.501.44-3.36.722-4.649-.376-1.943-1.652-1.55-6.42 1.06-7.214 1.668-.508 3.233.11 3.756 1.82.198.653.455 1.814.108 2.395h-4.707zm3.463-1.09c-.104-3.025-3.166-2.771-3.463 0z"/><path d="M188.082 79.497h-1.407v-5.28c0-.06-.212-.613-.261-.718-.708-1.329-2.435-.74-2.823.55-.027.085-.157.775-.157.82v4.628h-1.407v-7.84h1.298v.98c1.249-1.492 3.734-1.592 4.532.395.045.118.23.58.23.64v5.825zm-48.803 0h-1.406v-5.172c0-.04-.203-.644-.244-.735-.613-1.334-2.313-.953-2.809.277-.031.081-.194.64-.194.676v4.954h-1.406l-.108-7.84h1.294l.112.98c.988-1.325 3.197-1.574 4.22-.163.158.218.541 1.089.541 1.307zm-67.847-7.84 1.731 5.989 1.948-5.989h1.515l-2.863 7.844-1.308-.113-2.538-7.73zm80.183-2.177v2.177h1.84v1.198h-1.84v4.736c0 .028.194.477.23.531.388.563 1.353.11 1.452.282l-.013 1.107c-.817.208-2.02.33-2.625-.409-.099-.122-.45-.866-.45-.962v-5.28h-1.191v-1.135l1.191-.063V69.81l1.406-.327zm16.556 0v2.177h1.84v1.198h-1.84v4.736c0 .032.226.54.275.595.285.326 1.083.277 1.457.113v1.125l-.131.105c-.915.25-2.2.245-2.728-.694a8 8 0 0 1-.279-.808v-5.172h-1.191V71.72l1.191-.064v-1.85zm-20.347 3.593c-.158.14-1.687-1.026-2.44-.01-.933 1.257 1.227 1.784 1.935 2.314.91.68 1.244 1.52.933 2.64-.456 1.639-2.444 1.88-3.851 1.493-1.068-.294-.87-.64-.419-1.538.717.572 2.466.917 2.895-.14.699-1.729-2.782-1.779-3.048-3.516-.406-2.636 2.326-3.385 4.274-2.337zm-49.786-1.185-.203 1.185c-.167.154-1.627-1.03-2.44-.005-.977 1.239 1.155 1.751 1.872 2.269.857.617 1.249 1.342 1.064 2.427-.311 1.805-2.326 2.15-3.832 1.774-1.114-.277-1.033-.608-.5-1.561.761.708 2.925.871 2.984-.495.063-1.501-3.147-1.433-3.215-3.606-.072-2.3 2.584-2.782 4.275-1.983zm-12.327 1.185c-5.158-2.164-5.221 7.245 0 5.009l.171 1.202c-3.593 1.31-5.951-.844-5.446-4.605.347-2.577 3.17-3.834 5.442-2.808l-.171 1.202zm70.449 6.424h-1.407l-.108-7.84h1.299l.162 1.09c.496-.826 1.317-1.443 2.327-1.135v1.352c-.97-.145-1.754.29-2.083 1.225a8 8 0 0 0-.194.785v4.519zm-89.165 0H65.59l-.109-7.84h1.299l.054 1.307c.356-.921 1.303-1.674 2.326-1.352v1.352c-.915-.295-2.164.812-2.164 1.688zm12.12-7.84h-1.407v7.84h1.407zm52.373 0h-1.406v7.84h1.406zm10.93 0h-1.407v7.84h1.407zm30.298 0h-1.406v7.84h1.406zm-31.678-1.333c-.834-.772.365-2.22 1.267-1.439.838.726-.338 2.296-1.267 1.438m30.673-1.583c1.425-.327 1.618 1.556.469 1.788-.97.19-1.285-.994-.758-1.643a.7.7 0 0 1 .289-.145m-92.623 1.583c-.113.105-.59.24-.758.223-1.15-.105-.987-2.124.384-1.806.68.159.807 1.18.374 1.583m73.068-18.592.65 10.889h-1.407l-.487-8.711-2.755 8.552-1.1-.014-2.692-8.43-.324 8.603h-1.344l.636-10.79 1.781-.09c.92 2.709 1.673 5.472 2.498 8.212.045.154-.068.19.216.159l2.651-8.384h1.677zm36.575 0v4.573h4.437v-4.573h1.407V62.62h-1.407v-5.01h-4.437v5.01h-1.406V51.73zm-157.769-.436v4.356c.166.009.135-.209.265-.327.78-.717 1.854-.894 2.85-.576 2.408.767 2.547 4.832 1.366 6.67-1.06 1.65-3.494 1.828-4.698.226l-.113.976h-1.185V51.3h1.515zm1.69 4.501c-.568.023-1.303.649-1.533 1.157-.261.59-.257 2.899 0 3.489.56 1.316 2.196 1.488 3.026.313.97-1.366.708-5.054-1.493-4.964zm105.437-4.501V62.62h-1.298l-.054-1.09c-.947 1.652-3.368 1.598-4.473.146-.906-1.189-1.006-3.475-.532-4.85.735-2.133 3.138-3.017 4.838-1.393v-4.138zm-3.273 4.492c-2.557.145-2.579 5.82.081 5.753 1.916-.05 1.803-2.614 1.682-3.988-.077-.89-.812-1.82-1.763-1.765m-47.044-4.492v4.465c.757-1.048 2.001-1.402 3.223-1.012 2.426.771 2.584 5.013 1.258 6.774-1.163 1.542-3.413 1.746-4.59.117l-.108.98h-1.19V51.296zm.685 5.045c-1.01 1.012-1.046 4.342.406 5.014 2.98 1.383 3.63-4.596 1.397-5.435-.662-.25-1.316-.069-1.803.421m-3.066 6.28h-1.515l-.97-3.326-3.264.018-.96 3.312h-1.515l3.264-10.707c.203-.336 1.326-.168 1.718-.132l3.242 10.84zm-5.41-4.574h2.597l-1.353-4.573zm139.59-6.751v4.356c.171-.027.153-.236.329-.377 1.403-1.148 3.517-.834 4.076 1.008.068.217.248.998.248 1.165v5.172h-1.515v-5.39c0-.675-.784-1.37-1.461-1.37-.64 0-1.677.735-1.677 1.37v5.39h-1.515V51.296zM20.46 53.256c-.937-.26-1.726-.667-2.727-.3a1.56 1.56 0 0 0-.866 2.119c.622 1.37 3.918 1.497 4.234 3.901.482 3.675-3.355 4.492-6.042 3.194l.316-1.297c1.105.467 2.448 1.012 3.562.263.744-.499.915-1.293.6-2.114-.677-1.774-4.085-1.452-4.28-4.297-.202-2.99 3.287-3.779 5.479-2.676l-.28 1.202zm109.838 9.364h-1.515v-5.5c0-.154-.383-.84-.545-.975-.605-.495-1.538-.34-2.056.208-.145.154-.537.826-.537.985v5.28h-1.515v-7.84h1.299v.98c1.118-1.383 3.395-1.705 4.396-.013.171.29.473 1.189.473 1.484zm-77.37 0h-1.407v-.871c-1.803 2.11-5.22.72-4.274-2.178.523-1.597 2.58-2.037 4.058-1.96.212-2.178-1.943-2.219-3.355-1.307l-.306-.948.086-.195c1.735-.867 4.378-.948 4.932 1.356.456 1.897-.104 4.179.266 6.102m-1.52-4.03c-.567.1-1.18.078-1.726.277-1.98.726-1.082 3.562.811 2.56 1.028-.545.925-1.82.916-2.836m127.435-3.338c1.461 1.37.437 5.517.901 7.368l-1.303-.046-.103-.826c-1.763 1.983-4.951.953-4.302-1.987.393-1.765 2.539-2.218 4.085-2.15.244-2.178-1.952-2.219-3.354-1.307l-.325-1.08c1.181-.676 3.328-.97 4.396.032zm-.609 3.339c-1.105.09-2.786.236-2.822 1.688-.037 1.547 1.726 1.796 2.479.635.063-.096.343-.695.343-.744zm30.515 4.029h-1.298c-.009-.268.09-.577-.163-.763-1.393 1.638-4.288 1.021-4.283-1.36.004-2.383 2.331-2.995 4.229-2.886.181-2.178-1.952-2.214-3.354-1.307l-.311-.948c-.027-.467 2.001-.794 2.398-.785 3.504.064 2.593 3.879 2.665 6.256.018.563.212 1.189.113 1.792zm-1.515-4.03c-1.393.119-3.052.382-2.678 2.21.207 1.02 1.447 1.003 2.133.458.148-.118.545-.721.545-.866zm-183.74-3.81v4.954c0 .272.302 1.13.491 1.357.61.744 1.736.462 2.264-.218.058-.073.383-.662.383-.703v-5.39h1.515v7.84H26.85l-.054-1.09c-.685 1.357-2.989 1.675-3.999.54-.261-.294-.708-1.315-.708-1.683V54.78zm144.244 7.84h-1.515v-5.5c0-.153-.384-.839-.546-.975-.604-.494-1.537-.34-2.056.209-.144.154-.536.826-.536.985v5.28h-1.407l-.108-7.84h1.298l.054 1.09c.889-1.575 3.305-1.756 4.302-.191.166.263.514 1.175.514 1.443zm-45.124 0h-1.298l-.163-.762c-1.627 1.714-4.495.934-4.274-1.688.176-2.065 2.489-2.65 4.22-2.56.136-2.086-1.943-2.313-3.3-1.31-.541-.935-.546-1.166.487-1.47 1.452-.427 3.323-.408 3.981 1.22.496 1.23.185 3.87.234 5.318.014.403.194.816.113 1.247zm-1.515-4.03c-.883.141-2.209.141-2.637 1.103-.586 1.316.604 2.5 1.875 1.67.185-.123.762-.799.762-.975zm39.064.328h-4.869c-.1 2.608 2.155 3.094 4.22 2.286l.207 1.021c-.965.612-2.574.672-3.647.318-3.738-1.225-2.611-9.106 2.037-7.822 1.763.485 2.124 2.609 2.052 4.197m-1.407-1.09c-.108-2.88-3.187-2.708-3.462 0zm-89.381 1.09c.077 2.654 2.169 3.09 4.328 2.286l.212 1.08c-3.764 1.552-6.7-.735-5.811-4.81.428-1.96 2.177-3.393 4.193-2.748.947.299 1.947 1.628 1.947 2.613v1.579zm3.463-1.09c.076-2.885-3.27-2.68-3.355 0zm129.202 1.089h-4.761c-.162 2.614 2.191 3.09 4.22 2.287l.207 1.02c-1.465.854-4.125.758-5.167-.766-1.303-1.906-.874-5.953 1.624-6.715 2.822-.857 4.287 1.66 3.877 4.174m-1.298-1.089c-.154-2.885-3.215-2.704-3.463 0zm-87.326 1.089h-4.761c-.108 2.627 2.16 3.085 4.22 2.287l.208 1.02c-1.141.686-2.999.708-4.175.087-2.543-1.339-2.201-6.783.717-7.59 2.917-.808 4.229 1.733 3.791 4.196m-1.298-1.089c-.099-2.88-3.224-2.704-3.463 0zM60.503 62.62h-1.407v-5.173c0-.05-.252-.794-.302-.893-.46-.894-1.722-.894-2.363-.214-.166.177-.577 1.007-.577 1.216v5.063h-1.406l-.109-7.84h1.294l.167.98c.735-1.351 2.994-1.565 4-.43.216.245.707 1.288.707 1.574v5.716zm35.168-7.84v5.172c0 .177.33.98.482 1.148.56.617 1.48.521 2.065 0 .145-.127.596-.885.596-1.035v-5.28h1.406l.108 7.84H99.03c-.023-.296.108-.659-.162-.872-.907 1.157-3.048 1.434-3.995.204-.208-.272-.604-1.152-.604-1.46V54.78h1.406zm75.747-2.178v2.178h1.839v1.089h-1.839v4.954c0 .027.221.436.248.458.46.459 1.325.087 1.375.136l.104 1.194c-1.24.254-2.683.258-3.084-1.19a14 14 0 0 1-.158-.82v-4.737h-1.082V54.84l1.082-.064v-1.85l1.515-.327zm-65.476 2.405-.316 1.188c-.685-.358-2.002-.812-2.493.05-.685 1.207 1.208 1.66 1.903 2.128.541.363 1.05.894 1.136 1.579.347 2.822-2.751 3.32-4.757 2.332l.316-1.189c.775.4 2.498.976 2.944-.136.739-1.824-2.75-1.76-3.048-3.625-.406-2.563 2.457-3.28 4.315-2.323zm-64.602 0-.315 1.188c-.843-.703-3.03-.63-2.547.876.284.885 2.845 1.08 3.08 2.78.41 2.982-2.634 3.395-4.753 2.437l.325-1.193c1.023.649 3.39.93 3.025-.925-.221-1.13-3.273-1.103-3.143-3.49.122-2.132 2.805-2.495 4.324-1.673zm173.903-2.405v2.178h1.839v1.089h-1.839v4.627c0 .037.189.572.23.64.419.721 1.438.218 1.501.286l-.009 1.184c-.839.2-2.002.286-2.633-.431-.153-.172-.491-.948-.491-1.139v-5.172h-1.083V54.84l1.083-.064v-1.85l1.406-.327zm-170.431 0v2.178h1.84v1.089h-1.84v4.518c0 .037.158.613.19.68.365.813 1.483.291 1.542.355l.108 1.198c-.92.15-2.236.322-2.836-.577-.126-.19-.41-.92-.41-1.111v-5.063h-1.082v-1.026l1.082-.063v-1.851zm22.386 9.786c-2.65 1.003-5.243-.063-5.505-3.09-.297-3.439 2.363-5.603 5.577-4.305l-.342 1.089c-1.84-.667-3.535.05-3.724 2.123-.23 2.473 1.33 4.042 3.733 2.999zM211.78 51.295h-1.407V62.62h1.407zm-28.784 0h-1.407V62.62h1.407z"/></g><defs><clipPath id="a"><path fill="#fff" d="M0 0h235v81H0z"/></clipPath></defs></svg>