<svg width="100" height="100" viewBox="0 0 100 100" fill="none" xmlns="http://www.w3.org/2000/svg"><path cx="14.8488" cy="15.0597" r="14.0739" fill="#005EAA" d="M99.733 51.93A48.531 48.531 0 0 1 51.203 100.461A48.531 48.531 0 0 1 2.672 51.93A48.531 48.531 0 0 1 99.733 51.93z"/><path d="m75.41 71.476 -13.7 -13.7a17.424 17.424 0 1 0 -4.024 4.021l13.697 13.703a2.838 2.838 0 0 0 4.024 0 2.845 2.845 0 0 0 0 -4.024Zm-39.6 -23.841a11.748 11.748 0 0 1 11.734 -11.734 11.748 11.748 0 0 1 11.734 11.734 11.748 11.748 0 0 1 -11.734 11.734 11.748 11.748 0 0 1 -11.734 -11.734Z" fill="white"/></svg>