<svg width="100" height="100" viewBox="0 0 100 100" fill="none" xmlns="http://www.w3.org/2000/svg"><path cx="14.1442" cy="15.0597" r="14.0739" fill="#005EAA" d="M97.304 51.93A48.531 48.531 0 0 1 48.773 100.461A48.531 48.531 0 0 1 0.242 51.93A48.531 48.531 0 0 1 97.304 51.93z"/><path d="M68.552 70.39H29a1.317 1.317 0 1 0 0 2.634h39.552a1.317 1.317 0 0 0 0 -2.634Z" fill="white" stroke="white" stroke-width="1.7241379310344827"/><path d="M34.045 67.979a1.31 1.31 0 0 0 0.307 -0.034l12.503 -3c0.028 -0.003 0.052 -0.017 0.083 -0.024a1.269 1.269 0 0 0 0.138 -0.052c0.041 -0.017 0.076 -0.034 0.114 -0.059 0.034 -0.021 0.072 -0.038 0.11 -0.066l0.114 -0.09 0.066 -0.055 22 -22a1.321 1.321 0 0 0 0 -1.869l-9.503 -9.51a1.317 1.317 0 0 0 -1.866 0l-22 22 -0.059 0.069a1.162 1.162 0 0 0 -0.093 0.114l-0.066 0.11c-0.021 0.038 -0.041 0.072 -0.059 0.114a0.972 0.972 0 0 0 -0.048 0.141l-0.028 0.079 -2.997 12.503a1.317 1.317 0 0 0 1.283 1.624Zm25 -33.962 7.645 7.645 -3.797 3.797 -7.648 -7.645 3.797 -3.793ZM38.231 54.828l15.145 -15.145 7.645 7.645 -15.145 15.145 -10.052 2.41 2.407 -10.055Z" fill="white" stroke="white" stroke-width="1.7241379310344827"/></svg>