<svg width="100" height="100" viewBox="0 0 100 100" fill="none" xmlns="http://www.w3.org/2000/svg"><path cx="14.2921" cy="15.0597" r="14.0739" fill="#005EAA" d="M97.814 51.93A48.531 48.531 0 0 1 49.283 100.461A48.531 48.531 0 0 1 0.752 51.93A48.531 48.531 0 0 1 97.814 51.93z"/><path d="M49.283 29.997a15.376 15.376 0 0 0 -15.355 15.345c0 4.266 2.259 8.334 4.072 11.6 1.028 1.848 2 3.593 2.11 4.631v6.372a9.176 9.176 0 0 0 18.345 0v-6.372c0.11 -1.034 1.083 -2.779 2.11 -4.628 1.814 -3.266 4.076 -7.341 4.076 -11.6A15.383 15.383 0 0 0 49.283 30Zm0 35.707a14.483 14.483 0 0 0 6.241 -1.372v5.455a10.8 10.8 0 0 1 -6.241 1.817 10.797 10.797 0 0 1 -6.241 -1.817v-5.455c1.955 0.917 4.086 1.383 6.241 1.372ZM58 55.517c-1.131 2.034 -2.107 3.824 -2.4 5.379a10.766 10.766 0 0 1 -6.31 1.872 10.766 10.766 0 0 1 -6.317 -1.872c-0.286 -1.548 -1.269 -3.338 -2.4 -5.372 -1.738 -3.128 -3.707 -6.662 -3.707 -10.172a12.414 12.414 0 0 1 18.631 -10.755 12.414 12.414 0 0 1 6.21 10.759c0 3.497 -1.969 7.034 -3.707 10.162Z" fill="white" stroke="white" stroke-width="1.7241379310344827"/></svg>