<svg width="100" height="100" viewBox="0 0 100 100" fill="none" xmlns="http://www.w3.org/2000/svg"><path cx="14.587" cy="15.0597" r="14.0739" fill="#005EAA" d="M98.831 51.93A48.531 48.531 0 0 1 50.3 100.461A48.531 48.531 0 0 1 1.769 51.93A48.531 48.531 0 0 1 98.831 51.93z"/><path d="M48.793 30.172c-1.559 0 -2.824 1.186 -2.824 2.641v22.893c0 1.459 1.266 2.641 2.824 2.641h22.569c1.559 0 2.821 -1.183 2.821 -2.641s-1.262 -2.641 -2.821 -2.641h-19.748V32.814c0 -1.455 -1.266 -2.641 -2.821 -2.641Z" fill="white" stroke="white" stroke-width="0.8620689655172413"/></svg>