<svg width="100" height="100" viewBox="0 0 100 100" fill="none" xmlns="http://www.w3.org/2000/svg"><g clip-path="url(#clip0_214_1329)"><path d="M59.962 47.923a0.897 0.897 0 0 0 1.203 -0.408 5.59 5.59 0 0 0 -0.385 -5.572 5.615 5.615 0 0 0 -5.013 -2.444 0.897 0.897 0 0 0 0.118 1.795 3.821 3.821 0 0 1 3.41 1.656c0.367 0.546 0.59 1.187 0.636 1.856 0.046 0.662 -0.082 1.326 -0.374 1.915a0.897 0.897 0 0 0 0.405 1.2Z" fill="white" stroke="white" stroke-width="1.2820512820512822"/><path d="M64.667 39.328a10.264 10.264 0 0 0 -9.223 -4.497 0.897 0.897 0 1 0 0.123 1.79 8.531 8.531 0 0 1 4.303 0.836c1.328 0.646 2.474 1.641 3.308 2.877 0.836 1.233 1.328 2.669 1.426 4.146a8.538 8.538 0 0 1 -0.833 4.308 0.9 0.9 0 0 0 0.808 1.29c0.333 0 0.654 -0.187 0.808 -0.508a10.372 10.372 0 0 0 1.008 -5.21 10.205 10.205 0 0 0 -1.728 -5.031Z" fill="white" stroke="white" stroke-width="1.2820512820512822"/><path d="M71.072 44.021a14.992 14.992 0 0 0 -8.362 -12.392 14.964 14.964 0 0 0 -7.597 -1.469 0.897 0.897 0 0 0 -0.831 0.956c0.033 0.495 0.456 0.872 0.956 0.833a13.2 13.2 0 0 1 6.685 1.295 13.192 13.192 0 0 1 7.356 10.905 13.187 13.187 0 0 1 -1.305 6.69 0.897 0.897 0 0 0 0.808 1.29 0.897 0.897 0 0 0 0.808 -0.505c1.154 -2.359 1.664 -4.99 1.482 -7.603Z" fill="white" stroke="white" stroke-width="1.2820512820512822"/><path d="M60.569 53.608c-0.015 -0.003 -1.631 -0.418 -2.687 -1.762 -0.962 -1.221 -1.795 -2.746 -2.677 -4.362 -2.213 -4.049 -4.721 -8.636 -10.01 -9.103 -0.728 -0.064 -1.718 0.033 -2.354 0.113a3.118 3.118 0 0 0 -0.179 -1.015v-0.003a3.321 3.321 0 0 0 -1.726 -1.882 3.344 3.344 0 0 0 -4.549 4.167c0.133 0.367 0.328 0.667 0.51 0.89 -0.444 0.282 -1.074 0.705 -1.505 1.097 -4.115 3.751 -2.951 9 -1.923 13.631 0.392 1.779 0.764 3.462 0.846 4.995v0.051c0.054 1.713 -0.923 3.067 -0.928 3.077 -0.823 1.105 -0.969 2.867 -0.331 4.005 0.518 0.923 1.567 1.472 2.649 1.472 0.356 0 0.718 -0.062 1.062 -0.187l3.513 -1.277a0.972 0.972 0 0 0 0.174 -0.087 0.879 0.879 0 0 0 0.182 -0.044l3.718 -1.351a5.115 5.115 0 0 0 9.508 -3.462l4.008 -1.462 3.513 -1.277c1.392 -0.508 2.274 -1.987 2.013 -3.372 -0.241 -1.282 -1.482 -2.533 -2.826 -2.854Zm-8.708 11.39a3.305 3.305 0 0 1 -1.879 1.718 3.303 3.303 0 0 1 -3.918 -1.308l6.082 -2.215c0.077 0.615 -0.015 1.231 -0.282 1.805Zm8.908 -6.851 -3.513 1.279 -17.236 6.272a0.856 0.856 0 0 0 -0.172 0.085 0.9 0.9 0 0 0 -0.185 0.046l-3.513 1.279c-0.556 0.2 -1.272 -0.021 -1.528 -0.479 -0.3 -0.531 -0.203 -1.51 0.205 -2.054 0.054 -0.077 1.318 -1.808 1.279 -4.115a0.795 0.795 0 0 0 0.005 -0.126c-0.085 -1.697 -0.479 -3.469 -0.892 -5.344 -1.013 -4.556 -1.967 -8.864 1.382 -11.915 0.474 -0.436 1.405 -1.01 1.721 -1.197a1.315 1.315 0 0 0 0.682 -1.051 1.308 1.308 0 0 0 -0.538 -1.126 1.421 1.421 0 0 1 -0.39 -0.551 1.541 1.541 0 1 1 2.897 -1.056v0.003c0.123 0.328 0.059 0.662 0.059 0.662 -0.103 0.456 0.01 0.897 0.305 1.213a1.287 1.287 0 0 0 1.192 0.382c0.449 -0.074 1.769 -0.249 2.505 -0.179 4.333 0.379 6.503 4.341 8.595 8.172 0.921 1.682 1.787 3.272 2.838 4.61l0.003 0.003c1.454 1.851 3.592 2.377 3.682 2.4 0.659 0.154 1.364 0.846 1.479 1.444 0.097 0.513 -0.308 1.141 -0.864 1.346Z" fill="white" stroke="white" stroke-width="1.2820512820512822"/></g><defs><clipPath id="clip0_214_1329"><path width="16.8381" height="16.8381" fill="white" transform="translate(30 30)" d="M0 0H43.175V43.175H0V0z"/></clipPath></defs></svg>