<svg width="100" height="100" viewBox="0 0 100 100" fill="none" xmlns="http://www.w3.org/2000/svg"><path d="M35.187 26.629a1.068 1.068 0 0 0 -0.935 1.032v43.355c0 0.542 0.494 1.032 1.032 1.032h32c0.542 0 1.032 -0.49 1.032 -1.032v-32a1.055 1.055 0 0 0 -0.306 -0.742l-0.387 -0.371a0.968 0.968 0 0 0 -0.129 -0.145l-10.323 -10.323 -0.081 -0.065 -0.435 -0.452a1.045 1.045 0 0 0 -0.726 -0.29H35.187Zm1.129 2.065h19.097v9.806c0 0.542 0.494 1.032 1.032 1.032h9.806v30.452h-29.935v-41.29Zm13.871 14.452a2.023 2.023 0 0 0 -1.645 0.935 3.1 3.1 0 0 0 -0.5 1.742c0 1.316 0.51 2.829 1.242 4.371a38.455 38.455 0 0 1 -2.29 5.452c-1.187 0.484 -2.303 0.994 -3.145 1.532a6.1 6.1 0 0 0 -1.226 0.984 2.09 2.09 0 0 0 -0.629 1.435c0 1.165 0.965 2.129 2.129 2.129 1.139 0 1.8 -0.742 2.5 -1.597 0.613 -0.745 1.219 -1.768 1.806 -2.839 1.613 -0.619 3.403 -1.174 5.081 -1.565 1.145 0.91 2.406 1.597 3.823 1.597 0.748 0 1.445 -0.142 2.032 -0.435 0.587 -0.29 1.21 -0.832 1.21 -1.694s-0.623 -1.419 -1.21 -1.71a4.561 4.561 0 0 0 -2.032 -0.435h-0.016c-0.923 0.016 -2.071 0.235 -3.242 0.468a14.561 14.561 0 0 1 -2.565 -3.5c0.474 -1.558 0.806 -3.013 0.806 -4.194a3.103 3.103 0 0 0 -0.5 -1.742 1.99 1.99 0 0 0 -1.629 -0.935Zm0 2.387c0.029 0.103 0.065 0.161 0.065 0.29 0 0.113 -0.055 0.316 -0.065 0.452 -0.013 -0.135 -0.081 -0.339 -0.081 -0.452 0 -0.129 0.052 -0.187 0.081 -0.29Zm0.435 7c0.368 0.558 0.794 1.045 1.226 1.548 -0.729 0.194 -1.419 0.426 -2.145 0.661a40 40 0 0 0 0.919 -2.21Zm6.71 2.581h0.032c0.145 0 0.21 0.065 0.339 0.081 -0.142 0.023 -0.213 0.065 -0.371 0.065 -0.11 0 -0.239 -0.081 -0.355 -0.097 0.097 -0.006 0.268 -0.045 0.355 -0.048Zm-12.677 4.048c-0.21 0.161 -0.532 0.419 -0.548 0.484h-0.016c0.016 -0.023 0.016 -0.042 0.065 -0.097 0.09 -0.097 0.316 -0.248 0.5 -0.387Z" fill="#FFFFFF" stroke="#FFFFFF" stroke-width="1.6129032258064515" stroke-linejoin="round"/></svg>