<svg width="100" height="100" viewBox="0 0 100 100" fill="none" xmlns="http://www.w3.org/2000/svg"><path d="M69.883 52.648a1.838 1.838 0 0 0 -1.831 1.831v9.162c0 3.021 -2.472 5.493 -5.497 5.493h-25.645a5.51 5.51 0 0 1 -5.497 -5.493v-9.162a1.838 1.838 0 0 0 -1.831 -1.828 1.838 1.838 0 0 0 -1.834 1.828v9.162a9.162 9.162 0 0 0 9.162 9.159h25.645a9.162 9.162 0 0 0 9.159 -9.159v-9.162a1.838 1.838 0 0 0 -1.828 -1.828Z" fill="#FFFFFF" stroke="#FFFFFF" stroke-width="1.7241379310344827"/><path d="m40.959 45.779 6.941 -7v20.279c0 1.01 0.828 1.834 1.831 1.834 1.01 0 1.834 -0.828 1.834 -1.834v-20.276l6.941 6.997a1.8 1.8 0 0 0 1.3 0.531c0.476 0 0.934 -0.183 1.3 -0.531a1.845 1.845 0 0 0 0 -2.603L51.034 33.028a1.828 1.828 0 0 0 -1.303 -0.531 1.828 1.828 0 0 0 -1.3 0.531l-10.076 10.148a1.845 1.845 0 0 0 0 2.603 1.845 1.845 0 0 0 2.603 0Z" fill="#FFFFFF" stroke="#FFFFFF" stroke-width="1.7241379310344827"/></svg>