<svg width="100" height="100" viewBox="0 0 100 100" fill="none" xmlns="http://www.w3.org/2000/svg"><path d="M50.9 28.924a12.369 12.369 0 0 0 -12.334 12.338 12.383 12.383 0 0 0 12.334 12.352 12.4 12.4 0 0 0 12.355 -12.352 12.386 12.386 0 0 0 -12.355 -12.338Zm0 4.938c4.121 0 7.414 3.279 7.414 7.4 0 4.121 -3.293 7.414 -7.414 7.414a7.372 7.372 0 0 1 -7.4 -7.414c0 -4.121 3.283 -7.4 7.4 -7.4Zm-0.069 18.834c-6.49 0 -10.828 1.259 -13.652 3.645 -2.821 2.386 -3.683 5.762 -3.662 8.659 0.031 4.99 0.038 7.448 0.038 7.448a2.476 2.476 0 0 0 2.459 2.483h29.628a2.466 2.466 0 0 0 2.462 -2.483V64.931c-0.131 -2.807 -0.941 -6.121 -3.714 -8.528 -2.776 -2.407 -7.069 -3.703 -13.559 -3.703Zm0 4.941c5.831 0 8.821 1.183 10.31 2.476 1.49 1.297 1.921 2.914 2.021 5.048v4.828h-24.69c-0.003 -1.097 0 -1.655 -0.021 -5.01 -0.014 -2.034 0.386 -3.576 1.914 -4.862 1.524 -1.29 4.628 -2.483 10.466 -2.483Z" fill="#FFFFFF"/></svg>