<svg width="100" height="100" viewBox="0 0 100 100" fill="none" xmlns="http://www.w3.org/2000/svg"><path cx="14.1442" cy="14.9122" r="13.0739" stroke="#005EAA" stroke-width="6.896551724137931" d="M93.856 51.421A45.082 45.082 0 0 1 48.773 96.504A45.082 45.082 0 0 1 3.691 51.421A45.082 45.082 0 0 1 93.856 51.421z"/><path d="M68.552 69.879H29a1.317 1.317 0 1 0 0 2.638h39.552a1.317 1.317 0 1 0 0 -2.638Z" fill="#005EAA" stroke="#005EAA" stroke-width="1.7241379310344827"/><path d="M34.045 67.469a1.31 1.31 0 0 0 0.307 -0.034l12.503 -2.997 0.083 -0.028a1.345 1.345 0 0 0 0.138 -0.048c0.041 -0.017 0.076 -0.038 0.114 -0.059l0.11 -0.066 0.114 -0.093 0.066 -0.055 22 -22a1.317 1.317 0 0 0 0 -1.866l-9.503 -9.514a1.317 1.317 0 0 0 -1.866 0l-22 22.003c-0.024 0.021 -0.038 0.045 -0.059 0.069a1.124 1.124 0 0 0 -0.159 0.224 0.983 0.983 0 0 0 -0.107 0.255l-0.028 0.076 -2.997 12.507a1.317 1.317 0 0 0 1.283 1.621v0.003Zm25 -33.959 7.645 7.645 -3.797 3.797 -7.648 -7.645 3.797 -3.797Zm-20.81 20.807 15.145 -15.145 7.645 7.645 -15.145 15.145 -10.052 2.407 2.407 -10.052Z" fill="#005EAA" stroke="#005EAA" stroke-width="1.7241379310344827"/></svg>