<svg width="31" height="31" viewBox="0 0 31 31" fill="none" xmlns="http://www.w3.org/2000/svg" aria-hidden="true" focusable="false"><path d="M30.052 15.733c0 8.146-6.604 14.75-14.75 14.75S.552 23.879.552 15.733 7.156.983 15.302.983s14.75 6.604 14.75 14.75Z" stroke="#264A64" stroke-width=".5"/><path d="M22.784 21.774 18.55 17.54a5.386 5.386 0 1 0-1.244 1.243l4.234 4.235a.877.877 0 1 0 1.244-1.243zm-12.24-7.369c0-2 1.628-3.627 3.627-3.627 2 0 3.627 1.627 3.627 3.627s-1.626 3.627-3.627 3.627-3.627-1.627-3.627-3.627Z" fill="#264A64" stroke="#fff"/></svg>