<svg width="31" height="31" viewBox="0 0 31 31" fill="none" xmlns="http://www.w3.org/2000/svg" aria-hidden="true" focusable="false"><path d="M30.336 15.733c0 8.146-6.604 14.75-14.75 14.75S.836 23.879.836 15.733 7.44.983 15.586.983s14.75 6.604 14.75 14.75Z" stroke="#264A64" stroke-width=".5"/><path d="M21.699 21.438H9.473a.407.407 0 1 0 0 .815H21.7a.407.407 0 1 0 0-.815Zm-10.666-.745a.4.4 0 0 0 .095-.011l3.865-.926.025-.008.043-.015.035-.019.034-.02q.018-.013.035-.028l.02-.017 6.801-6.8a.41.41 0 0 0 0-.577l-2.938-2.94a.41.41 0 0 0-.576 0l-6.801 6.8-.017.02a.4.4 0 0 0-.05.07l-.018.035-.015.044-.008.025-.926 3.864a.408.408 0 0 0 .396.503Zm7.727-10.496 2.363 2.363-1.173 1.173-2.363-2.363zm-6.432 6.43 4.682-4.68 2.363 2.363-4.681 4.68-3.108.745z" fill="#264A64" stroke="#fff" stroke-width=".25"/></svg>