<svg width="31" height="31" viewBox="0 0 31 31" fill="none" xmlns="http://www.w3.org/2000/svg" aria-hidden="true" focusable="false"><path d="M29.848 15.733c0 8.146-6.604 14.75-14.75 14.75S.348 23.879.348 15.733 6.95.983 15.098.983s14.75 6.604 14.75 14.75Z" stroke="#264A64" stroke-width=".5"/><path d="M15.103 8.34a3.824 3.824 0 0 0-3.813 3.812 3.827 3.827 0 0 0 3.813 3.818 3.83 3.83 0 0 0 3.818-3.818 3.83 3.83 0 0 0-3.818-3.813m0 1.525a2.28 2.28 0 0 1 2.292 2.287 2.28 2.28 0 0 1-2.292 2.292 2.28 2.28 0 0 1-2.287-2.292 2.275 2.275 0 0 1 2.287-2.287m0 6.105c-2.005 0-3.347.39-4.219 1.127s-1.138 1.78-1.132 2.676c.01 1.543.012 2.303.012 2.303a.765.765 0 0 0 .76.767h9.157a.76.76 0 0 0 .762-.767V19.75c-.041-.867-.291-1.892-1.149-2.636s-2.184-1.145-4.19-1.145m0 1.527c1.803 0 2.727.367 3.187.767.461.4.594.9.625 1.56v1.49l-7.632.002c0-.34.001-.513-.006-1.549-.004-.63.12-1.105.591-1.503.472-.399 1.431-.767 3.235-.767" fill="#264A64"/><path d="M15.103 15.97a3.827 3.827 0 0 1-3.813-3.818 3.824 3.824 0 0 1 3.813-3.813 3.83 3.83 0 0 1 3.818 3.813 3.83 3.83 0 0 1-3.818 3.818Zm0 0c-2.005 0-3.347.39-4.219 1.127s-1.138 1.78-1.132 2.676c.01 1.543.012 2.303.012 2.303a.765.765 0 0 0 .76.767h9.157a.76.76 0 0 0 .762-.767V19.75c-.041-.867-.291-1.892-1.149-2.636s-2.184-1.145-4.19-1.145Zm0-6.105a2.28 2.28 0 0 1 2.292 2.287 2.28 2.28 0 0 1-2.292 2.292 2.28 2.28 0 0 1-2.287-2.292 2.275 2.275 0 0 1 2.287-2.287Zm0 7.632c1.803 0 2.727.367 3.187.767.461.4.594.9.625 1.56v1.49l-7.632.002c0-.34.001-.513-.006-1.549-.004-.63.12-1.105.591-1.503.472-.399 1.431-.767 3.235-.767Z" stroke="#fff" stroke-width=".75"/></svg>