<svg width="100" height="100" viewBox="0 0 100 100" fill="none" xmlns="http://www.w3.org/2000/svg"><path cx="14.8488" cy="14.9122" r="13.0739" stroke="#000000" stroke-width="6.896551724137931" d="M96.285 51.421A45.082 45.082 0 0 1 51.203 96.504A45.082 45.082 0 0 1 6.12 51.421A45.082 45.082 0 0 1 96.285 51.421z"/><path d="m75.41 70.966 -13.7 -13.697a17.424 17.424 0 1 0 -4.024 4.021l13.697 13.7a2.834 2.834 0 0 0 4.028 0 2.845 2.845 0 0 0 0 -4.021Zm-39.6 -23.841a11.748 11.748 0 0 1 11.734 -11.734 11.748 11.748 0 0 1 11.734 11.734 11.748 11.748 0 0 1 -11.734 11.734 11.748 11.748 0 0 1 -11.734 -11.734Z" fill="#000000"/></svg>