<svg width="100" height="100" viewBox="0 0 100 100" fill="none" xmlns="http://www.w3.org/2000/svg"><path cx="14.9962" cy="14.9122" r="13.0739" stroke="#000000" stroke-width="6.666666666666667" d="M93.567 49.707A43.58 43.58 0 0 1 49.987 93.287A43.58 43.58 0 0 1 6.408 49.707A43.58 43.58 0 0 1 93.567 49.707z"/><path d="M69.187 33.04a4.177 4.177 0 0 0 -2.86 1.273c-7.97 7.99 -14.057 14.66 -21.457 22.21l-7.88 -6.657a4.167 4.167 0 1 0 -5.357 6.373l10.82 9.153a4.157 4.157 0 0 0 5.617 -0.233c8.963 -8.983 15.343 -16.157 24.133 -24.967a4.163 4.163 0 0 0 -3.017 -7.153Z" fill="#000000" stroke="#000000" stroke-width="1.6666666666666667"/></svg>