<svg width="100" height="100" viewBox="0 0 100 100" fill="none" xmlns="http://www.w3.org/2000/svg"><path cx="14.2921" cy="14.9122" r="13.0739" stroke="#000000" stroke-width="6.896551724137931" d="M94.366 51.421A45.082 45.082 0 0 1 49.283 96.504A45.082 45.082 0 0 1 4.201 51.421A45.082 45.082 0 0 1 94.366 51.421z"/><path d="M49.283 29.486a15.376 15.376 0 0 0 -15.355 15.348c0 4.262 2.259 8.331 4.072 11.597 1.028 1.852 2 3.597 2.11 4.631v6.376a9.176 9.176 0 0 0 18.345 0v-6.372c0.11 -1.034 1.083 -2.779 2.11 -4.631 1.814 -3.266 4.076 -7.338 4.076 -11.597a15.379 15.379 0 0 0 -15.359 -15.352Zm0 35.707a14.476 14.476 0 0 0 6.241 -1.369v5.452a10.8 10.8 0 0 1 -6.241 1.821 10.8 10.8 0 0 1 -6.241 -1.821V63.828c1.955 0.914 4.086 1.379 6.241 1.369Zm8.714 -10.183c-1.131 2.034 -2.107 3.821 -2.4 5.379a10.769 10.769 0 0 1 -6.31 1.872 10.769 10.769 0 0 1 -6.317 -1.872c-0.286 -1.552 -1.269 -3.341 -2.4 -5.372 -1.738 -3.131 -3.707 -6.666 -3.707 -10.172a12.414 12.414 0 0 1 18.631 -10.759 12.414 12.414 0 0 1 6.21 10.759c0 3.5 -1.969 7.034 -3.707 10.166Z" fill="#000000" stroke="#000000" stroke-width="1.7241379310344827"/></svg>