<svg width="100" height="100" viewBox="0 0 100 100" fill="none" xmlns="http://www.w3.org/2000/svg"><path cx="14.4396" cy="14.9122" r="13.0739" stroke="#000000" stroke-width="6.896551724137931" d="M94.874 51.421A45.082 45.082 0 0 1 49.792 96.504A45.082 45.082 0 0 1 4.709 51.421A45.082 45.082 0 0 1 94.874 51.421z"/><path d="M69.883 52.138a1.838 1.838 0 0 0 -1.831 1.834v9.159c0 3.024 -2.472 5.497 -5.497 5.497h-25.645a5.51 5.51 0 0 1 -5.497 -5.497v-9.159a1.838 1.838 0 0 0 -1.831 -1.831 1.838 1.838 0 0 0 -1.834 1.828v9.162a9.162 9.162 0 0 0 9.162 9.159h25.645a9.162 9.162 0 0 0 9.159 -9.159v-9.159a1.838 1.838 0 0 0 -1.828 -1.831Z" fill="#000000" stroke="#000000" stroke-width="1.7241379310344827"/><path d="m40.959 45.269 6.941 -7v20.283c0 1.007 0.828 1.831 1.831 1.831 1.01 0 1.834 -0.824 1.834 -1.831v-20.279l6.941 7a1.797 1.797 0 0 0 1.3 0.528c0.476 0 0.934 -0.183 1.3 -0.531a1.845 1.845 0 0 0 0 -2.6L51.034 32.521a1.828 1.828 0 0 0 -1.303 -0.531 1.828 1.828 0 0 0 -1.3 0.531l-10.076 10.148a1.845 1.845 0 0 0 0 2.6 1.845 1.845 0 0 0 2.603 0Z" fill="#000000" stroke="#000000" stroke-width="1.7241379310344827"/></svg>