<svg width="100" height="100" viewBox="0 0 100 100" fill="none" xmlns="http://www.w3.org/2000/svg"><path cx="14.587" cy="14.9122" r="13.0739" stroke="#000000" stroke-width="6.896551724137931" d="M95.382 51.421A45.082 45.082 0 0 1 50.3 96.504A45.082 45.082 0 0 1 5.218 51.421A45.082 45.082 0 0 1 95.382 51.421z"/><path d="M48.793 29.666c-1.559 0 -2.824 1.183 -2.824 2.641v22.89c0 1.459 1.266 2.641 2.824 2.641h22.569c1.559 0 2.821 -1.183 2.821 -2.641s-1.262 -2.641 -2.821 -2.641h-19.748V32.31c0 -1.459 -1.266 -2.641 -2.821 -2.641Z" fill="#000000" stroke="#000000" stroke-width="0.8620689655172413"/></svg>