<svg width="100" height="100" viewBox="0 0 100 100" fill="none" xmlns="http://www.w3.org/2000/svg"><path cx="14.735" cy="14.9122" r="13.0739" stroke="#000000" stroke-width="6.896551724137931" d="M95.893 51.421A45.082 45.082 0 0 1 50.81 96.504A45.082 45.082 0 0 1 5.728 51.421A45.082 45.082 0 0 1 95.893 51.421z"/><path d="M50.9 28.414a12.369 12.369 0 0 0 -12.334 12.341A12.379 12.379 0 0 0 50.897 53.103a12.397 12.397 0 0 0 12.355 -12.352 12.386 12.386 0 0 0 -12.355 -12.334Zm0 4.938c4.121 0 7.414 3.283 7.414 7.4 0 4.121 -3.293 7.414 -7.414 7.414a7.372 7.372 0 0 1 -7.4 -7.414c0 -4.117 3.283 -7.4 7.4 -7.4Zm-0.069 18.834c-6.49 0 -10.828 1.262 -13.652 3.648 -2.821 2.383 -3.683 5.759 -3.662 8.655 0.031 4.993 0.038 7.452 0.038 7.452a2.472 2.472 0 0 0 2.459 2.483h29.628a2.466 2.466 0 0 0 2.462 -2.483v-7.521c-0.131 -2.807 -0.941 -6.121 -3.714 -8.528 -2.776 -2.407 -7.069 -3.707 -13.559 -3.707Zm0 4.941c5.831 0 8.821 1.186 10.31 2.483 1.49 1.29 1.921 2.907 2.021 5.045v4.828h-24.69c-0.003 -1.097 0 -1.655 -0.021 -5.01 -0.014 -2.034 0.386 -3.576 1.914 -4.862 1.524 -1.293 4.628 -2.483 10.466 -2.483Z" fill="#000000"/></svg>