<svg width="31" height="31" viewBox="0 0 31 31" fill="none" xmlns="http://www.w3.org/2000/svg" aria-hidden="true" focusable="false"><circle cx="15.647" cy="15.818" r="14" stroke-width="2" stroke="currentColor" /><g clip-path="url(#a)" stroke="currentColor" fill="currentColor" stroke-width=".5"><path d="M19.18 15.241a.318.318 0 0 0 .426-.144 1.982 1.982 0 0 0-.136-1.976 1.991 1.991 0 0 0-1.779-.866.319.319 0 0 0 .042.636 1.356 1.356 0 0 1 1.21.587 1.339 1.339 0 0 1 .092 1.338.318.318 0 0 0 .144.425Z"/><path d="M20.846 12.194a3.639 3.639 0 0 0-3.27-1.595.318.318 0 1 0 .045.635 2.993 2.993 0 0 1 3.204 2.786 3.027 3.027 0 0 1-.296 1.528.32.32 0 0 0 .286.456.317.317 0 0 0 .287-.18 3.677 3.677 0 0 0 .357-1.847 3.617 3.617 0 0 0-.613-1.783Z"/><path d="M23.118 13.858a5.319 5.319 0 0 0-2.965-4.394 5.305 5.305 0 0 0-2.694-.522.318.318 0 0 0-.294.34.316.316 0 0 0 .34.295 4.678 4.678 0 0 1 2.369.46 4.676 4.676 0 0 1 2.608 3.866 4.675 4.675 0 0 1-.462 2.371.318.318 0 0 0 .286.458.319.319 0 0 0 .287-.18c.408-.836.59-1.768.525-2.695Zm-3.724 3.398c-.005 0-.578-.148-.952-.624-.341-.433-.636-.974-.95-1.547-.784-1.435-1.673-3.061-3.549-3.226a4.19 4.19 0 0 0-.834.04 1.105 1.105 0 0 0-.064-.36v-.002a1.177 1.177 0 0 0-.611-.667 1.185 1.185 0 0 0-1.613 1.477c.047.13.116.236.18.315-.157.1-.38.25-.533.39-1.46 1.33-1.047 3.192-.683 4.833.14.63.272 1.227.302 1.77l-.002.018c.02.608-.326 1.088-.328 1.092-.292.392-.344 1.016-.117 1.42.184.327.555.521.939.521.126 0 .254-.021.377-.066l1.244-.453a.353.353 0 0 0 .062-.03.314.314 0 0 0 .065-.016l1.317-.48a1.802 1.802 0 0 0 1.593.952c.21 0 .42-.037.622-.11.457-.167.82-.5 1.025-.94a1.8 1.8 0 0 0 .132-1.13l1.421-.516 1.245-.454c.494-.179.807-.704.714-1.194-.085-.455-.526-.899-1.002-1.012Zm-3.087 4.038c-.133.286-.37.502-.666.61a1.171 1.171 0 0 1-1.39-.464l2.157-.785c.027.217-.006.437-.1.64Zm3.158-2.428-1.246.453-6.11 2.224a.308.308 0 0 0-.061.03.321.321 0 0 0-.066.016l-1.245.453c-.198.072-.451-.007-.542-.169-.106-.188-.071-.536.072-.729.02-.026.469-.64.454-1.458a.277.277 0 0 0 .003-.045c-.03-.602-.17-1.23-.317-1.894-.36-1.616-.698-3.143.49-4.225.169-.154.498-.358.61-.424a.466.466 0 0 0 .241-.374.464.464 0 0 0-.19-.398.501.501 0 0 1-.138-.196.546.546 0 1 1 1.027-.374c.044.117.021.235.021.235a.468.468 0 0 0 .108.43.456.456 0 0 0 .423.135c.159-.026.628-.087.888-.064 1.537.135 2.305 1.54 3.047 2.898.326.596.634 1.16 1.007 1.634v.002c.516.656 1.274.842 1.306.85.234.055.484.3.525.512.034.182-.11.405-.307.478Z"/></g><defs><clipPath id="a"><path d="M8.63 8.164h15.307v15.307H8.63z"/></clipPath></defs></svg>