<svg width="31" height="31" viewBox="0 0 31 31" fill="none" xmlns="http://www.w3.org/2000/svg" aria-hidden="true" focusable="false"><circle cx="15.289" cy="15.296" r="14" stroke="currentColor" stroke-width="2"/><path d="M15.29 8.516a4.752 4.752 0 0 0-4.747 4.744c0 1.318.698 2.575 1.259 3.585.317.571.617 1.111.651 1.43v1.97a2.836 2.836 0 0 0 5.672 0v-1.968c.034-.32.333-.86.651-1.431.56-1.01 1.26-2.269 1.26-3.585a4.755 4.755 0 0 0-4.747-4.745Zm0 11.037a4.475 4.475 0 0 0 1.928-.424v1.685a3.338 3.338 0 0 1-1.929.563 3.337 3.337 0 0 1-1.928-.563V19.13a4.487 4.487 0 0 0 1.928.424Zm2.692-3.148c-.35.628-.651 1.181-.741 1.663a3.329 3.329 0 0 1-1.952.578 3.329 3.329 0 0 1-1.951-.578c-.089-.479-.393-1.033-.742-1.661-.538-.967-1.146-2.06-1.146-3.144a3.837 3.837 0 0 1 5.759-3.324 3.837 3.837 0 0 1 1.92 3.324c0 1.082-.61 2.175-1.147 3.142Z" fill="currentColor" stroke="currentColor" stroke-width=".5"/></svg>