<svg width="31" height="31" viewBox="0 0 31 31" fill="none" xmlns="http://www.w3.org/2000/svg" aria-hidden="true" focusable="false"><circle cx="15.931" cy="15.296" r="14" stroke="currentColor" stroke-width="2"/><path d="M22.141 15.296a.568.568 0 0 0-.566.566v2.831c0 .934-.764 1.699-1.699 1.699H11.95a1.704 1.704 0 0 1-1.698-1.699v-2.83a.568.568 0 0 0-.566-.567.568.568 0 0 0-.567.566v2.831a2.832 2.832 0 0 0 2.832 2.831h7.926a2.832 2.832 0 0 0 2.831-2.83v-2.832a.568.568 0 0 0-.566-.566Z" fill="currentColor" stroke="currentColor" stroke-width=".5"/><path d="m13.2 13.173 2.147-2.164v6.268c0 .312.255.567.566.567a.568.568 0 0 0 .566-.567V11.01l2.146 2.164a.556.556 0 0 0 .402.164.58.58 0 0 0 .402-.164.57.57 0 0 0 0-.805l-3.114-3.136a.565.565 0 0 0-.402-.164c-.159 0-.3.062-.402.164l-3.114 3.136a.57.57 0 0 0 0 .805c.22.22.583.22.804 0Z" fill="currentColor" stroke="currentColor" stroke-width=".5"/></svg>