<svg width="31" height="31" viewBox="0 0 31 31" xmlns="http://www.w3.org/2000/svg" fill="none" aria-hidden="true" focusable="false"><circle cx="15.215" cy="15.295" r="14" stroke="currentColor" stroke-width="2"/><path d="M15.243 8.185a3.823 3.823 0 0 0-3.813 3.813 3.827 3.827 0 0 0 3.813 3.818 3.832 3.832 0 0 0 3.819-3.818 3.828 3.828 0 0 0-3.819-3.813Zm0 1.526a2.279 2.279 0 0 1 2.292 2.287 2.282 2.282 0 0 1-2.292 2.292 2.279 2.279 0 0 1-2.287-2.292 2.275 2.275 0 0 1 2.287-2.287Zm-.022 5.821c-2.005 0-3.347.39-4.219 1.127-.871.737-1.138 1.78-1.132 2.676.01 1.543.012 2.303.012 2.303a.765.765 0 0 0 .76.768h9.157a.762.762 0 0 0 .762-.768v-2.325c-.04-.867-.291-1.892-1.149-2.636-.857-.744-2.184-1.145-4.19-1.145Zm0 1.527c1.803 0 2.727.367 3.188.766.46.4.593.9.624 1.56v1.492h-7.631c-.001-.338 0-.512-.007-1.548-.003-.63.12-1.105.592-1.504.471-.398 1.43-.766 3.234-.766Z" fill="currentColor"/></svg>