<svg width="31" height="31" viewBox="0 0 31 31" xmlns="http://www.w3.org/2000/svg" fill="none" aria-hidden="true"><circle cx="15.512" cy="15.903" r="14" stroke="currentColor" stroke-width="2"/><path fill-rule="evenodd" d="M17.4 11.854a2.671 2.671 0 1 0-3.777 3.779 2.671 2.671 0 0 0 3.777-3.779Zm-1.888-1.48a3.367 3.367 0 1 1 0 6.735 3.367 3.367 0 0 1 0-6.735Zm.553-2.005c.197.135.414.236.642.302.237.044.48.047.719.01.184-.037.373-.03.554.019.148.112.267.256.349.423.114.208.263.396.44.554q.293.211.64.31c.178.043.343.127.483.245.084.162.13.342.134.525q.024.362.167.694.173.313.44.553c.15.12.266.275.343.45.01.196-.026.39-.104.57q-.133.347-.15.718.017.371.15.718c.078.18.113.374.104.57a1.2 1.2 0 0 1-.342.45 2.1 2.1 0 0 0-.441.553q-.144.332-.167.694c-.003.183-.05.363-.134.524-.14.119-.305.202-.483.245q-.347.1-.64.31a2 2 0 0 0-.44.555 1.2 1.2 0 0 1-.349.423 1.2 1.2 0 0 1-.555.019 2.2 2.2 0 0 0-.718.01 2.2 2.2 0 0 0-.642.302 1.3 1.3 0 0 1-.553.239 1.3 1.3 0 0 1-.554-.239 2.2 2.2 0 0 0-.642-.302 2.2 2.2 0 0 0-.718-.01 1.2 1.2 0 0 1-.555-.019 1.2 1.2 0 0 1-.348-.422 2 2 0 0 0-.44-.554 2 2 0 0 0-.641-.31 1.2 1.2 0 0 1-.482-.245 1.2 1.2 0 0 1-.134-.525 2.1 2.1 0 0 0-.167-.694 2.1 2.1 0 0 0-.441-.553 1.2 1.2 0 0 1-.342-.451c-.01-.195.025-.39.104-.568a2.3 2.3 0 0 0 .15-.72 2.3 2.3 0 0 0-.15-.718 1.3 1.3 0 0 1-.104-.568c.076-.176.193-.33.342-.451q.267-.24.44-.554c.097-.22.152-.454.168-.693.003-.183.05-.363.134-.525a1.2 1.2 0 0 1 .483-.245q.346-.099.64-.31a2.1 2.1 0 0 0 .44-.554c.081-.167.2-.312.348-.423a1.2 1.2 0 0 1 .556-.019c.238.036.48.033.718-.01a2.2 2.2 0 0 0 .641-.302 1.3 1.3 0 0 1 .554-.24c.2.035.39.116.553.239Zm-1.675 11.22a1 1 0 0 0-.231-.098 1.7 1.7 0 0 0-.495.004 1.64 1.64 0 0 1-.926-.087 1.64 1.64 0 0 1-.634-.68 1.6 1.6 0 0 0-.286-.378l-.022-.018-1.38 3.981 1.57-.511a.35.35 0 0 1 .415.151l.737 1.248zm4.84-1.258-.024.018q-.171.169-.285.38c-.14.283-.361.519-.635.679a1.64 1.64 0 0 1-.925.087 1.7 1.7 0 0 0-.496-.004 1 1 0 0 0-.23.097l1.25 3.613.738-1.248a.35.35 0 0 1 .414-.152l1.571.511zM15.511 7.432c.331.025.649.144.916.342q.202.14.437.219.248.034.495-.005c.31-.06.632-.03.926.088.273.16.493.396.634.68q.115.21.285.379.202.13.433.196c.305.074.582.236.796.465.178.26.277.565.284.88q.015.242.099.47.127.206.308.365c.248.205.432.478.53.786a1.7 1.7 0 0 1-.12.94 1.8 1.8 0 0 0-.116.506q.021.26.116.505c.127.296.169.622.12.94a1.67 1.67 0 0 1-.53.786q-.181.16-.308.365-.085.228-.099.47c-.006.315-.106.62-.284.88-.15.174-.344.305-.561.379l1.612 4.655a.35.35 0 0 1-.428.468l-1.976-.643-.977 1.653a.347.347 0 0 1-.628-.063l-1.458-4.203a1.16 1.16 0 0 1-1.013 0l-1.456 4.203a.348.348 0 0 1-.628.064l-.977-1.654-1.976.644a.349.349 0 0 1-.428-.469l1.61-4.655a1.3 1.3 0 0 1-.56-.38 1.6 1.6 0 0 1-.284-.88q-.015-.242-.099-.47a1.7 1.7 0 0 0-.308-.365 1.7 1.7 0 0 1-.53-.786 1.7 1.7 0 0 1 .12-.94c.063-.161.102-.332.116-.505a1.8 1.8 0 0 0-.115-.506 1.7 1.7 0 0 1-.12-.94c.097-.307.28-.58.53-.786q.18-.16.307-.364.084-.229.099-.471a1.6 1.6 0 0 1 .284-.88c.214-.229.49-.39.796-.465q.232-.066.433-.196.17-.168.285-.38c.14-.283.361-.519.634-.679a1.64 1.64 0 0 1 .926-.087q.247.039.495.004a1.7 1.7 0 0 0 .437-.218c.267-.198.584-.317.916-.342Z" fill="currentColor" stroke="currentColor" stroke-width=".5"/></svg>