<svg width="30" height="30" viewBox="0 0 30.5 30" xmlns="http://www.w3.org/2000/svg" fill="none" aria-hidden="true" focusable="false"><circle cx="15.215" cy="15.295" r="14" stroke="currentColor" stroke-width="2"/><path fill-rule="evenodd" d="M17.418 11.816a2.696 2.696 0 0 0-4.396 2.937 2.695 2.695 0 1 0 4.396-2.937Zm-1.906-1.494a3.399 3.399 0 1 1 0 6.798 3.399 3.399 0 0 1 0-6.798Zm.559-2.024c.198.136.417.238.648.305.239.044.484.047.725.01a1.2 1.2 0 0 1 .56.02c.149.112.269.258.351.426.115.21.266.4.445.56q.296.212.646.313c.18.043.346.127.487.247.085.163.132.345.135.53.016.241.073.478.169.7q.174.316.445.558c.15.122.268.278.345.455.01.197-.026.393-.105.574a2.3 2.3 0 0 0-.152.725q.018.375.152.726c.08.18.115.377.105.574a1.2 1.2 0 0 1-.345.455q-.27.242-.445.558a2.1 2.1 0 0 0-.169.7c-.003.185-.05.366-.135.53a1.2 1.2 0 0 1-.488.247c-.231.067-.45.172-.645.313q-.271.242-.445.56a1.2 1.2 0 0 1-.352.427c-.182.05-.374.056-.56.019a2.2 2.2 0 0 0-.725.01c-.23.066-.45.169-.647.305a1.3 1.3 0 0 1-.56.24 1.3 1.3 0 0 1-.558-.24 2.3 2.3 0 0 0-.648-.305 2.2 2.2 0 0 0-.725-.01 1.2 1.2 0 0 1-.56-.019 1.2 1.2 0 0 1-.351-.427c-.116-.21-.266-.4-.445-.558a2.1 2.1 0 0 0-.646-.314 1.2 1.2 0 0 1-.487-.247 1.2 1.2 0 0 1-.135-.53 2.1 2.1 0 0 0-.169-.7 2.1 2.1 0 0 0-.445-.558 1.2 1.2 0 0 1-.345-.455c-.01-.197.026-.394.104-.574a2.3 2.3 0 0 0 .152-.726 2.3 2.3 0 0 0-.152-.725 1.3 1.3 0 0 1-.104-.574c.077-.177.195-.333.345-.455q.27-.241.445-.559c.097-.222.153-.458.169-.7.003-.184.05-.366.135-.53a1.2 1.2 0 0 1 .487-.247q.35-.1.646-.313.271-.242.445-.559c.082-.168.202-.314.351-.427.183-.05.375-.056.56-.019.241.037.486.034.726-.01.23-.066.449-.17.647-.305.164-.124.356-.207.559-.241.202.034.395.116.559.24Zm-1.69 11.325a1 1 0 0 0-.235-.098 1.7 1.7 0 0 0-.5.003 1.66 1.66 0 0 1-.934-.087 1.65 1.65 0 0 1-.64-.686 1.6 1.6 0 0 0-.288-.382l-.023-.018-1.392 4.018 1.585-.516a.35.35 0 0 1 .418.153l.744 1.26 1.263-3.647zm4.883-1.269-.023.018a1.6 1.6 0 0 0-.288.383 1.64 1.64 0 0 1-.64.686 1.65 1.65 0 0 1-.934.087 1.7 1.7 0 0 0-.5-.003 1 1 0 0 0-.234.098l1.263 3.646.745-1.26a.35.35 0 0 1 .418-.152l1.585.515zM15.512 7.353c.335.025.655.145.925.345q.205.14.441.22.25.035.5-.004c.313-.061.637-.03.934.088.275.161.498.4.64.686q.116.213.288.383.204.132.437.198c.308.075.587.238.804.47.18.261.279.57.286.888q.015.244.1.475.129.205.31.368c.252.207.437.482.536.793.049.322.007.65-.122.949a1.8 1.8 0 0 0-.116.51q.021.264.116.51c.13.3.17.628.122.95a1.7 1.7 0 0 1-.535.793 1.7 1.7 0 0 0-.311.368q-.085.23-.1.475a1.63 1.63 0 0 1-.286.888 1.3 1.3 0 0 1-.567.382l1.627 4.7a.352.352 0 0 1-.431.471l-1.995-.65-.987 1.67a.35.35 0 0 1-.634-.064l-1.47-4.242c-.324.157-.7.157-1.024 0l-1.469 4.242a.351.351 0 0 1-.634.065l-.986-1.67-1.995.65a.352.352 0 0 1-.432-.473l1.626-4.7a1.3 1.3 0 0 1-.566-.383 1.63 1.63 0 0 1-.287-.887 1.7 1.7 0 0 0-.1-.476 1.7 1.7 0 0 0-.31-.368 1.7 1.7 0 0 1-.535-.792 1.73 1.73 0 0 1 .121-.949q.095-.246.117-.51a1.8 1.8 0 0 0-.117-.511 1.73 1.73 0 0 1-.121-.949c.098-.31.284-.585.535-.793q.181-.16.31-.368a1.7 1.7 0 0 0 .1-.475c.008-.318.107-.626.287-.888.216-.231.495-.395.803-.47q.234-.065.438-.198.171-.169.287-.383a1.65 1.65 0 0 1 .64-.686 1.66 1.66 0 0 1 .935-.087q.25.039.5.004.236-.08.44-.22c.27-.2.59-.32.925-.345Z" fill="currentColor" stroke="currentColor" stroke-width=".5"/></svg>