<svg width="30" height="30" viewBox="0 0 30 30" fill="none" xmlns="http://www.w3.org/2000/svg">
<circle cx="15" cy="15" r="14" fill="white" stroke="#dba826" stroke-width="1.5"/>
<path fill-rule="evenodd" clip-rule="evenodd" d="M22.8424 11.5331L18.3093 7H11.9093C11.7681 7.00062 11.6331 7.05688 11.5331 7.1575L7.18123 11.5332C7.08498 11.6307 7.02935 11.7613 7.02685 11.8988V18.0745C7.02248 18.2214 7.0781 18.3626 7.18123 18.467L11.5494 22.8188C11.6488 22.9188 11.7844 22.9757 11.9256 22.9763H18.1013C18.2388 22.9726 18.3701 22.9163 18.467 22.8188L22.8426 18.467C22.947 18.3632 23.0039 18.2214 23.0001 18.0745V11.8988C22.997 11.7613 22.9401 11.6301 22.8426 11.5332L22.8424 11.5331ZM21.6668 17.5226C21.6668 17.6651 21.6099 17.8013 21.5093 17.9013L17.933 21.4882C17.833 21.5869 17.698 21.6426 17.5574 21.6426H12.4905C12.3486 21.6438 12.2123 21.5882 12.1117 21.4882L8.51172 17.9013C8.41172 17.8007 8.3561 17.6644 8.35735 17.5226V12.4557V12.4563C8.3536 12.3107 8.40923 12.17 8.51172 12.0669L12.0986 8.48821C12.1992 8.38821 12.3355 8.33258 12.4774 8.33321H17.7705L21.5036 12.0663V12.067C21.608 12.1676 21.6667 12.3057 21.6667 12.4507L21.6668 17.5226ZM15.9543 15L18.6212 12.3331C18.7212 12.2331 18.7775 12.0975 18.7775 11.9562C18.7775 11.8144 18.7212 11.6787 18.6212 11.5787L18.4343 11.3919C18.3343 11.2919 18.1987 11.2356 18.0575 11.2356C17.9156 11.2356 17.7799 11.2919 17.6799 11.3919L15.0131 14.0587L12.3462 11.3919H12.3468C12.1387 11.185 11.8024 11.185 11.5943 11.3919L11.4049 11.5787H11.4056C11.3049 11.6787 11.2487 11.8144 11.2487 11.9562C11.2487 12.0975 11.3049 12.2331 11.4056 12.3331L14.0718 15L11.3918 17.6669C11.2918 17.7669 11.2356 17.9025 11.2356 18.0438C11.2356 18.1856 11.2918 18.3213 11.3918 18.4213L11.5787 18.6081C11.6787 18.7081 11.8143 18.7644 11.9562 18.7644C12.0974 18.7644 12.2331 18.7081 12.3331 18.6081L15.0131 15.9281L17.6799 18.6081C17.7799 18.7081 17.9156 18.7644 18.0575 18.7644C18.1987 18.7644 18.3343 18.7081 18.4343 18.6081L18.6212 18.4213C18.7212 18.3213 18.7775 18.1856 18.7775 18.0438C18.7775 17.9025 18.7212 17.7669 18.6212 17.6669L15.9543 15Z" fill="#000000"/>
</svg>
